<?xml version="1.0" encoding="utf-8"?>
<!-- Generator: Adobe Illustrator 25.0.0, SVG Export Plug-In . SVG Version: 6.00 Build 0)  -->
<svg version="1.1" id="Layer_1" xmlns="http://www.w3.org/2000/svg" xmlns:xlink="http://www.w3.org/1999/xlink" x="0px" y="0px"
	 viewBox="0 0 834 928" style="enable-background:new 0 0 834 928;" xml:space="preserve">
<style type="text/css">
	.st0{display:none;}
	.st1{display:inline;fill:#F9F4F2;}
	.st2{fill:#F9F4F2;}
</style>
<g class="st0">
	<path class="st1" d="M390.9,684.5H135.1c-6.1,0-11.4-2.4-14.7-6.8c-3.5-4.5-4.5-10.5-2.8-16.9c3.3-12.4,15.5-22,27.9-22h255.8
		c1,0,1.9,0.5,2.5,1.2c0.6,0.8,0.8,1.8,0.6,2.7L394,682.1C393.6,683.5,392.3,684.5,390.9,684.5z M145.5,645.1
		c-9.5,0-19.3,7.8-21.8,17.3c-1.2,4.4-0.6,8.5,1.7,11.4c2.1,2.8,5.6,4.3,9.7,4.3h253.3l8.7-33H145.5L145.5,645.1z"/>
	<path class="st1" d="M428.3,542.8H172.5c-6.1,0-11.4-2.4-14.7-6.8c-3.5-4.5-4.5-10.5-2.8-16.9c3.3-12.4,15.5-22,27.9-22h255.8
		c1,0,1.9,0.5,2.5,1.2c0.6,0.8,0.8,1.8,0.6,2.7l-10.4,39.4C431,541.8,429.7,542.8,428.3,542.8z M182.9,503.4
		c-9.5,0-19.3,7.8-21.8,17.3c-1.2,4.4-0.6,8.5,1.7,11.4c2.1,2.8,5.6,4.3,9.7,4.3h253.3l8.7-33H182.9L182.9,503.4z"/>
	<path class="st1" d="M353.5,826.1H97.8c-6.1,0-11.4-2.4-14.7-6.8c-3.4-4.5-4.5-10.6-2.8-16.9c3.3-12.4,15.5-22,27.9-22H364
		c1,0,1.9,0.5,2.5,1.2c0.6,0.8,0.8,1.8,0.6,2.7l-10.4,39.4C356.2,825.2,355,826.1,353.5,826.1z M108.1,786.8
		c-9.5,0-19.3,7.8-21.8,17.3c-1.2,4.4-0.6,8.5,1.7,11.4c2.1,2.8,5.6,4.3,9.7,4.3H351l8.7-33H108.1L108.1,786.8z"/>
	<path class="st1" d="M465.7,401.1H209.9c-6.1,0-11.4-2.4-14.7-6.8c-3.5-4.5-4.5-10.5-2.8-16.9c3.3-12.4,15.5-22,27.9-22H476
		c1,0,1.9,0.5,2.5,1.2c0.6,0.8,0.8,1.8,0.6,2.7l-10.4,39.4C468.3,400.2,467.1,401.1,465.7,401.1z M220.3,361.8
		c-9.5,0-19.3,7.8-21.8,17.3c-1.2,4.4-0.6,8.5,1.7,11.4c2.1,2.8,5.6,4.3,9.7,4.3h253.3l8.7-33H220.3z"/>
	<path class="st1" d="M503,259.5H247.2c-6.1,0-11.4-2.4-14.7-6.8c-3.5-4.5-4.5-10.5-2.8-16.9c3.3-12.4,15.5-22,27.9-22h255.8
		c1,0,1.9,0.5,2.5,1.2c0.6,0.8,0.8,1.8,0.6,2.7l-10.4,39.4C505.7,258.5,504.5,259.5,503,259.5z M257.6,220.1
		c-9.5,0-19.3,7.8-21.8,17.3c-1.2,4.4-0.6,8.5,1.7,11.4c2.1,2.8,5.6,4.3,9.7,4.3h253.3l8.7-33H257.6z"/>
	<path class="st1" d="M540.4,117.8H284.6c-6.1,0-11.4-2.4-14.7-6.8c-3.4-4.5-4.5-10.6-2.8-16.9c3.3-12.4,15.5-22,27.9-22h255.8
		c1,0,1.9,0.5,2.5,1.2c0.6,0.8,0.8,1.8,0.6,2.7l-10.4,39.4C543.1,116.8,541.8,117.8,540.4,117.8z M295,78.5
		c-9.5,0-19.3,7.8-21.8,17.3c-1.2,4.4-0.6,8.5,1.7,11.4c2.1,2.8,5.6,4.3,9.7,4.3H538l8.7-33H295L295,78.5z"/>
	<path class="st1" d="M277.1,10.5c14.1-1.6,28.6-2.9,43.3-4C138.5,19.9,3.2,69.9,3.2,129.6c0,47.6,86.1,89.1,213.3,110.7L277.1,10.5
		z"/>
	<path class="st1" d="M216.5,243.5c-0.2,0-0.4,0-0.5,0c-63.8-10.8-117.5-26.7-155.3-45.9c-19.3-9.8-34.2-20.4-44.4-31.4
		C5.5,154.4,0,142.1,0,129.6c0-30.4,32-58.8,92.4-81.9C150.1,25.6,231,9.9,320.2,3.4c1.7-0.1,3.3,1.2,3.4,2.9s-1.2,3.3-2.9,3.4
		c-13.4,1-27.2,2.2-41.1,3.7l-60.1,227.7C219.2,242.5,217.9,243.5,216.5,243.5z M272.9,14.2c-69.5,7.9-131.5,21.6-178.2,39.5
		c-57,21.8-88.4,48.8-88.4,76c0,21.7,19.8,43.3,57.2,62.3c36.6,18.6,88.7,34.1,150.6,44.8L272.9,14.2z"/>
	<path class="st1" d="M416.9,3.1c-33.1,0-65.3,1.2-96.1,3.4l-18.2,68.8h248.1l16.8-63.5c14.1,1.7,27.8,3.6,41.1,5.7l-61.3,232.2
		c164.5-16.7,283.2-64.2,283.2-120.1C830.6,59.7,645.4,3.1,416.9,3.1z"/>
	<path class="st1" d="M547.4,252.9c-0.9,0-1.8-0.4-2.4-1.1c-0.7-0.8-0.9-1.9-0.7-2.9l60.4-228.8c-11.5-1.8-23.1-3.4-34.8-4.9
		L553.8,76c-0.4,1.4-1.6,2.4-3.1,2.4H302.6c-1,0-1.9-0.5-2.5-1.2c-0.6-0.8-0.8-1.8-0.6-2.7l18.1-68.8c0.3-1.3,1.5-2.2,2.8-2.3
		C351.8,1.1,384.2,0,416.7,0c110.8,0,215,13.2,293.5,37.2c79.6,24.3,123.4,57.2,123.4,92.5c0,28.5-28.3,55.3-81.8,77.7
		c-51.5,21.5-122.1,37.2-204.2,45.6C547.6,252.9,547.5,252.9,547.4,252.9z M611,21l-59.4,225.1c79.5-8.4,147.9-23.8,197.9-44.6
		c51-21.3,78-46.1,78-71.8c0-16-10.5-31.7-31.2-46.7c-20.6-14.9-50.1-28.2-87.7-39.8C679.3,34.2,646.4,26.8,611,21z M306.8,72.1
		h241.6l15.2-57.7C517.4,9,467.9,6.2,416.9,6.2c-31.5,0-63,1.1-93.6,3.3L306.8,72.1z"/>
	<path class="st1" d="M265.3,217h248.1l27-102.4H292.3L265.3,217z"/>
	<path class="st1" d="M513.4,220.1H265.3c-1,0-1.9-0.5-2.5-1.2c-0.6-0.8-0.8-1.8-0.6-2.7l27-102.3c0.4-1.4,1.6-2.4,3.1-2.4h248.1
		c1,0,1.9,0.5,2.5,1.2c0.6,0.8,0.8,1.8,0.6,2.7l-27,102.3C516.1,219.1,514.8,220.1,513.4,220.1z M269.4,213.8H511l25.3-96H294.7
		L269.4,213.8z"/>
	<path class="st1" d="M78.6,927.8H36c-1,0-1.9-0.5-2.5-1.2c-0.6-0.8-0.8-1.8-0.6-2.7L274,9.7c0.3-1.3,1.4-2.2,2.7-2.3
		c14.8-1.6,29.6-3,43.8-4c1-0.1,2,0.3,2.7,1.1c0.7,0.8,0.9,1.8,0.6,2.8l-18.1,68.8c-0.4,1.4-1.6,2.4-3.1,2.4H295
		c-9.5,0-19.3,7.8-21.8,17.3c-1.2,4.4-0.6,8.5,1.7,11.4c2.1,2.8,5.6,4.3,9.7,4.3h7.7c1,0,1.9,0.5,2.5,1.2c0.6,0.8,0.8,1.8,0.6,2.7
		l-27,102.3c-0.4,1.4-1.6,2.4-3.1,2.4h-7.7c-9.5,0-19.3,7.8-21.8,17.3c-1.2,4.4-0.6,8.5,1.7,11.4c2.1,2.8,5.6,4.3,9.7,4.3h7.7
		c1,0,1.9,0.5,2.5,1.2c0.6,0.8,0.8,1.8,0.6,2.7l-27,102.3c-0.4,1.4-1.6,2.4-3.1,2.4h-7.7c-9.5,0-19.3,7.8-21.8,17.3
		c-1.2,4.4-0.6,8.5,1.7,11.4c2.1,2.8,5.6,4.3,9.7,4.3h7.7c1,0,1.9,0.5,2.5,1.2c0.6,0.8,0.8,1.8,0.6,2.7l-27,102.3
		c-0.4,1.4-1.6,2.4-3.1,2.4h-7.7c-9.5,0-19.3,7.8-21.8,17.3c-1.2,4.4-0.6,8.5,1.7,11.4c2.1,2.8,5.6,4.3,9.7,4.3h7.7
		c1,0,1.9,0.5,2.5,1.2c0.6,0.8,0.8,1.8,0.6,2.7l-27,102.3c-0.4,1.4-1.6,2.4-3.1,2.4h-7.7c-9.5,0-19.3,7.8-21.8,17.3
		c-1.2,4.4-0.6,8.5,1.7,11.4c2.1,2.8,5.6,4.3,9.7,4.3h7.7c1,0,1.9,0.5,2.5,1.2c0.6,0.8,0.8,1.8,0.6,2.7l-27,102.3
		c-0.4,1.4-1.6,2.4-3.1,2.4H108c-9.5,0-19.3,7.8-21.8,17.3c-1.2,4.4-0.6,8.5,1.7,11.4c2.1,2.8,5.6,4.3,9.7,4.3h7.7
		c1,0,1.9,0.5,2.5,1.2c0.6,0.8,0.8,1.8,0.6,2.7L81.6,925.1C81.3,926.8,80,927.8,78.6,927.8z M40.1,921.5h36.1l25.2-95.3h-3.5
		c-6.1,0-11.4-2.4-14.7-6.8c-3.4-4.5-4.5-10.6-2.8-16.9c3.3-12.4,15.5-22,27.9-22h5.2l25.3-96h-3.6c-6.1,0-11.4-2.4-14.7-6.8
		c-3.5-4.5-4.5-10.5-2.8-16.9c3.3-12.4,15.5-22,27.9-22h5.2l25.3-96h-3.5c-6.1,0-11.4-2.4-14.7-6.8c-3.5-4.5-4.5-10.5-2.8-16.9
		c3.3-12.4,15.5-22,27.9-22h5.2l25.3-96H210c-6.1,0-11.4-2.4-14.7-6.8c-3.5-4.5-4.5-10.5-2.8-16.9c3.3-12.4,15.5-22,27.9-22h5.2
		l25.3-96h-3.5c-6.1,0-11.4-2.4-14.7-6.8c-3.5-4.5-4.5-10.5-2.8-16.9c3.3-12.4,15.5-22,27.9-22h5.2l25.3-96h-3.6
		c-6.1,0-11.4-2.4-14.7-6.8c-3.4-4.5-4.5-10.6-2.8-16.9c3.3-12.4,15.5-22,27.9-22h5.2l16.4-62.1c-12.1,0.9-24.5,2.1-37,3.4
		L40.1,921.5z"/>
	<path class="st1" d="M369.3,927.8h-42.6c-1,0-1.9-0.5-2.5-1.2c-0.6-0.8-0.8-1.8-0.6-2.7L564.4,11.1c0.4-1.5,1.9-2.5,3.4-2.3
		c13.8,1.7,27.7,3.6,41.2,5.8c0.9,0.1,1.7,0.6,2.1,1.4c0.5,0.7,0.6,1.7,0.4,2.5L372.2,925.6C372,926.8,370.8,927.8,369.3,927.8z
		 M330.8,921.5h36.1L604.7,20.1c-11.5-1.8-23.1-3.4-34.8-4.9L330.8,921.5z"/>
</g>
<g class="st0">
	<path class="st1" d="M378.6,579.5c3.9,0,7.8-0.1,11.6,0c24.3,0.9,48.6,1.1,72.8,2.9c17,1.3,33.8,4.6,50.7,7.3
		c10.8,2.1,13.7,11.9,10.1,16.9c-3.6,7.6-11.3,13.9-19,20.1C472.6,653,443,682,414.6,712.2c-18.9,20.1-38.2,40-53.8,62.9
		c-5.1,7.4-10.4,14.7-14.9,22.4c-2.8,4.7-7,5.8-11.3,6c-11,0.5-22,0-33,0.3c-18,0.6-36,0.6-53.7-3.6c-4.5-1.1-9.3-3-12.8-5.9
		c-12.4-10.4-24.3-21.4-36.3-32.2c-19.2-17.2-38.5-34.3-57.5-51.8c-20.3-18.8-39.8-38.3-60.2-56.9c-18.9-17.1-38.5-33.4-57.9-50
		c-1.8-1.5-4.2-2.2-6.2-3.5c-5.3-3.2-5.5-10-0.1-13.1c2.8-1.6,6.2-2.5,9.4-2.7c12.2-0.9,24.5-1.3,36.8-2.1c12-0.8,23.9-1.8,35.8-3.1
		c27-3,54-1.5,81-1.4c6.5,0,13.1,0,20.1,0c0.4-2.6,0.8-4.3,0.8-6c-0.9-24.9-2.1-49.7-2.7-74.6c-0.5-19.2-0.5-38.4,0-57.6
		c0.3-15.6,1.9-31.1,2.4-46.7c1.5-45.1,12-88,34.6-127.2c20.3-35.1,45.7-66.1,79.5-89.5c27.4-18.9,58.2-29.4,90.3-36.6
		c29-6.5,58.3-7,87.7-4.3c24.2,2.3,48.4,4.9,72.3,8.7c32.1,5.2,63,15.1,93.2,26.9c17.6,6.9,34.7,14.8,51.7,23.1
		c26.4,12.9,52.4,26.6,78.8,39.7c5.6,2.8,33.3,13.6,33.7,22.5c0.4,10.2,0.2,15.6-0.4,25.7c-1.7,27-4,53.9-5.7,80.8
		c-1.2,18.3-1.9,36.6-2.6,54.9c-1.2,29.7-2.2,59.4-3.2,89c-0.4,12.4-11.3,18.5-22,12.1c-17-10.1-34-20.2-50.9-30.6
		c-37.6-23.1-77.6-40.5-119.8-53.1c-22.1-6.6-44.2-13.3-66.7-18.4c-27.9-6.3-56.4-8.5-84.9-6.7c-19.1,1.2-37.3,5.6-52.9,17.9
		c-13.9,11-24.3,24.2-26.4,42.3c-2.8,24.7-5.4,49.5-7.7,74.3c-0.9,9.8-0.8,19.8-1.1,29.7C377.7,575.3,378.2,576.8,378.6,579.5z
		 M119.7,603.8c-0.5,0.8-0.9,1.5-1.4,2.3c77.1,50.3,144.2,113,213.8,173.4c5.2-7.3,9.8-13.9,14.6-20.4c4.6-6.3,9.4-12.5,14.3-18.5
		c5.1-6.3,10.4-12.4,15.9-18.4c5.4-6,11.1-11.8,16.6-17.7c5.3-5.7,10.4-11.6,15.8-17.3c5.6-5.9,11.3-11.6,17.1-17.3
		c5.8-5.7,11.7-11.2,17.6-16.8c5.9-5.6,11.8-11.2,17.8-16.6c5.8-5.2,11.7-10.3,17.7-15.3c6-5,13.5-8.2,19.9-14.7
		c-7.6-1.2-13.5-2.5-19.4-2.9c-24.8-1.7-49.7-3.2-74.5-4.4c-13.2-0.7-26.4-0.4-39.6-1c-8.7-0.4-11.3-3.7-11.5-12.5
		c-0.6-22.5,0.8-45,3.5-67.3c2-17,3.6-34,6.8-50.8c4.7-25.4,18.7-45.1,40.3-59.4c18.9-12.6,40.2-17,62.3-18.2
		c26.8-1.5,53.3,1.4,79.7,5.8c26.7,4.4,52.4,12.4,78.1,20.8c30.8,10.1,61.5,20.3,90,36.1c21.5,11.9,42.9,24.1,64.4,36.1
		c1.9,1.1,4,2,5.6,2.8c4.4-77.5,8.9-154.3,13.3-231.2c-4.9-1.3-9.4-2.1-13.6-3.7c-29.2-11-58.6-21.3-87.3-33.5
		c-41.8-17.9-85.5-27.9-130.3-33c-29.4-3.3-59.2-3.8-89-1.2c-28.3,2.5-55.4,9.2-81.4,20.9c-21.6,9.7-40.9,22.6-58.1,38.8
		c-24.9,23.5-39,53.2-47,85.6c-11.7,47.6-19,96-17.6,145.2c0.6,22.5,3.3,44.9,5.1,67.3c0.8,9.6,1.2,19.2,2.7,28.7
		c1.4,8.8-1.9,15.6-10.6,18.1c-4.6,1.3-9.3,2.5-14.1,2.8c-28.4,2-56.8,3.9-85.3,5.5C154.5,602.7,137.1,603.2,119.7,603.8z
		 M617.3,177.9c0-0.2,0.1-0.5,0.1-0.7c-4-1.3-7.9-2.8-11.9-4c-29.4-8.8-59.6-13.4-90-16.6c-28.7-3-57.4-4.7-86.2-1.4
		c-25.5,3-50,10.1-73.3,20.8c-35.8,16.4-63.3,42.7-86.6,74.1c-25.9,35-39.9,74.2-44,117.2c-1.2,12.5-1.8,25.1-2.4,37.7
		c-0.9,17.4-2.4,34.8-2.1,52.1c0.7,37.2,2.3,74.4,3.6,111.5c0.1,2.5,1,5,1.2,6.2c10.8,0,20.3,0,30.9,0c-1-12.7-1.9-24.3-2.8-35.8
		c-1.5-18.2-3.5-36.5-4.3-54.7c-1.2-28.3,1.9-56.4,5.8-84.3c2.9-21.1,6.9-42.1,11.9-62.7c8.3-33.9,22.6-65.1,45.6-91.8
		c27.9-32.5,63.7-52.5,103.9-65c20.6-6.4,41.9-10.1,63.5-11.6c30.7-2.2,61.2-1.1,91.7,2C587.2,172.4,602.2,175.5,617.3,177.9z
		 M44.6,599.7c1.7,1.4,2.6,2.1,3.5,2.7c25.4,16.6,49.1,35.5,71.5,56c22.5,20.7,44.1,42.4,66.4,63.4c10.7,10.1,22,19.5,32.9,29.3
		c9.6,8.6,19,17.4,28.5,26.2c3.2,2.9,6.6,4.9,11.2,5c11.4,0.4,22.7,1.2,34.1,1.7c3.1,0.1,6.3-0.3,10.8-0.6c-2-2.1-2.8-3.2-3.9-4.1
		c-26.7-22.8-53.5-45.4-79.9-68.5c-26-22.8-53.6-43.4-81.9-63.2c-17.5-12.2-35.8-23.4-51.6-37.5c-12.1-10.8-24.4-13.7-39.2-11.2
		C46.6,598.9,46.3,599.1,44.6,599.7z"/>
	<path class="st1" d="M598.9,224.4c5.9-1.2,9.6,0.9,12.8,3.5c4.9,4,9.8,8,14.2,12.4c25.5,25.4,49.6,52.1,72,80.4
		c16.5,21,33.2,41.8,49.8,62.7c1.3,1.6,2.7,3.2,3.8,5c2,3.1,3.6,6.2,0.4,9.7c-3.2,3.6-7,5.3-11.1,2.8c-4.2-2.6-8.1-6.2-11.3-10
		c-6-7.1-11.2-14.8-17-22.1c-23.3-29-46.6-58-70.2-86.7c-10.7-13-22.1-25.3-33-38c-3.1-3.6-6.1-7.5-8.5-11.6
		C599.5,230.3,599.5,227.3,598.9,224.4z"/>
	<path class="st1" d="M676,238.2c8.3-0.2,13.6,4.6,18.2,10.3c9.1,11.2,18.1,22.3,26.9,33.8c14.8,19.3,29.3,38.7,44,58.1
		c2.2,3,4.6,5.6,2.4,9.6c-2.8,5.2-7.8,6.8-12.8,3.3c-3.1-2.2-5.8-5.2-8.2-8.3c-13.7-18.2-27.3-36.5-40.9-54.7
		c-9.9-13.2-19.7-26.5-29.7-39.6C672.9,246.5,671.5,242.8,676,238.2z"/>
	<path class="st1" d="M607.7,288.6c5.4-0.9,8.2,2.2,10.8,4.9c11.5,11.8,22.9,23.7,34.2,35.7c19.3,20.5,38.1,41.5,55,64
		c0.5,0.7,1.2,1.3,1.8,2c3.8,5,4,6.7,0.7,10.1c-2.9,3.1-7.5,3.6-11.3,0.8c-2.4-1.7-4.4-4.1-6.3-6.4c-10.9-13.5-21.6-27.2-32.6-40.6
		c-15.3-18.4-30.9-36.6-46.3-55C610.1,300,606.2,295.5,607.7,288.6z"/>
</g>
<path class="st2" d="M338.4,662.7c30.3,0,59.1-0.2,87.8,0.1c7.5,0.1,15.2,1.2,22.4,3.1c4.4,1.1,8.2,4.5,14.3,8
	c-7.3,8.2-12.7,16-19.7,21.8c-22.5,18.7-46.5,35.6-68.1,55.1c-27,24.3-52.4,50.5-78.4,76.1c-16,15.8-31.6,32-47.7,47.7
	c-5.1,5-10.6,9.8-16.5,13.9c-10,6.9-17.7,6.2-26.4-2.5c-25.4-25.5-50.9-50.8-75.7-76.8c-21.8-22.9-46.1-42.7-71.2-61.8
	c-12.9-9.8-25.1-20.5-37.7-30.5c-5.1-4-7-8.9-6.4-15.3c0.9-9.4,2.4-11.6,11.8-13.5c46.2-9.6,92.3-19,138.5-28.6
	c1.3-0.3,2.4-1.1,5.3-2.6c0-4.1,0-8.9,0-13.7c-0.4-33.3-1.3-66.5-1-99.8c0.4-48.5,1.9-97.1,2.4-145.6
	c0.6-59.2,12.5-116.9,24.3-174.5c7.8-38.1,21.7-74,41.2-107.8c23.3-40.5,57.7-65.7,102.7-77c24.1-6.1,48.3-3.6,72.3-0.5
	c34.6,4.6,67.6,15.4,98,32.5c30.9,17.4,61.6,35.3,91.3,54.6c32.4,20.9,58.5,49,82.2,79.2c48.3,61.4,87.2,128.6,120.1,199.3
	c6.6,14.1,9.6,29.8,14.2,44.8c1.9,6.4-0.5,10.9-5.9,14.9c-7.8,5.8-13.2,6-19.7-1.5c-9.4-10.9-18.1-22.4-27.4-33.3
	c-37.1-43.6-77.5-83.7-122.2-119.7c-17.6-14.2-35.8-27.2-56.6-36.1c-33.4-14.3-66.2-30.7-102.5-36.8c-34.3-5.8-68.3-4.5-100.5,9.9
	c-11.8,5.2-22.5,12.9-33.3,20.1c-2.5,1.7-4,5.9-4.7,9.2c-4.9,26.5-11.6,52.8-13.7,79.6c-3.3,41.2-5.1,82.6-4.6,123.9
	c0.6,48.1,4.2,96.1,6.8,144.1C334.9,635.5,336.8,648.3,338.4,662.7z M393.4,695.7c-0.5-1.2-1-2.4-1.5-3.6c-22.4,0-44.8,0.1-67.3-0.1
	c-5.3,0-10.9-0.4-16-1.9c-9.2-2.6-11.6-8.3-9.9-17.4c1.3-6.9,2.2-14.1,1.8-21.1c-2.6-45.7-6.3-91.4-8.2-137.2
	c-1.3-29.6-0.4-59.3-0.2-89c0.5-68.3,10.2-135.1,33.9-199.6c15.7-42.6,35.5-82.6,68-115.1c13.8-13.8,29.4-25,48.2-31.3
	c2.2-0.7,4.1-2.3,7.3-4.2c-26.7-8-52.4-12.3-78.6-11.2c-41.4,1.7-74.7,20-97.3,54.2c-12,18.1-20.8,38.8-28.3,59.4
	c-14.4,38.9-20.8,79.9-27,120.8c-2.8,18.7-7,37.2-8.1,56c-2.4,40.8-3.4,81.8-4.6,122.7c-0.6,18.9-0.6,37.8-0.5,56.6
	c0.3,41.8,1,83.6,1.2,125.4c0.1,12.6-7.3,22.7-19.3,25.7c-12.6,3.2-25.5,5.1-38.2,7.9c-26.1,5.7-52.2,11.5-79.7,17.6
	C97,734.3,124.4,756,149.6,780c25.3,24.1,48.4,50.5,72.9,76.2C280.1,802.8,330.1,742.2,393.4,695.7z M363.8,220.2
	c13.7-4.2,25.4-7.5,36.8-11.5c3.5-1.2,6.6-4.3,9.1-7.2c17.2-20.1,34.2-40.5,51.4-60.6c9.8-11.5,19.8-22.7,31.3-35.9
	c-18.5-2.1-33.5-1.4-47.9,6.5c-23.5,13-40.5,32.6-55.3,54.3C378.1,182,370.1,199.9,363.8,220.2z M514.4,109.7
	c-25,31.8-48.4,61.6-73.1,93.1c13.5,0.7,24.9,1.7,36.4,1.7c3,0,6.4-2.6,8.9-4.8c7.7-6.8,15-14.1,22.7-21.1
	c16.9-15.3,33.9-30.5,51.9-46.7C544.9,124.2,529.6,116.9,514.4,109.7z M579.3,142.5c-12.4,12.8-23.2,24.2-34.3,35.3
	c-11.1,11.1-24.2,20.4-34.8,33.5c11.8,4.1,22.1,7.4,32.1,11.2c5.5,2.1,8.9,0.2,13.3-3.1c19.1-14.1,38.6-27.7,57.9-41.6
	c1.3-0.9,2.3-2.2,4.6-4.2C605,163.1,592.9,153.4,579.3,142.5z M659.1,219.6c-9.3-10.8-17.7-20.5-26.6-30.8
	c-20.5,15-40.7,28.5-60.2,45.7c10.4,4.5,18.4,8.4,26.7,11.5c2.6,1,6.3,0.9,8.7-0.3C624.5,237.5,641.1,228.8,659.1,219.6z
	 M653.9,277.9c11.5-6.1,22.7-12,34.8-18.4c-6.3-8.7-11.8-16.2-17.5-24.1c-14.7,8.5-28.4,16.3-43.3,24.9
	C637.3,266.6,645.3,272.1,653.9,277.9z M715.8,301c-5.8-8.9-10.8-16.6-16.2-25c-9.3,6-17.7,11.3-27,17.2c8.2,6.8,14.7,12.2,21.7,18
	C701.3,307.9,708,304.7,715.8,301z M713.3,327.3c12.3,15.2,27,28.8,35.1,32c-7.9-13.8-15.3-26.7-22.9-39.9
	C720.6,322.6,717.2,324.7,713.3,327.3z"/>
</svg>
