<?xml version="1.0" encoding="utf-8"?>
<!-- Generator: Adobe Illustrator 25.0.0, SVG Export Plug-In . SVG Version: 6.00 Build 0)  -->
<svg version="1.1" id="Layer_1" xmlns="http://www.w3.org/2000/svg" xmlns:xlink="http://www.w3.org/1999/xlink" x="0px" y="0px"
	 viewBox="0 0 1349.7 1148.7" style="enable-background:new 0 0 1349.7 1148.7;" xml:space="preserve">
<style type="text/css">
	.st0{display:none;}
	.st1{display:inline;fill:#F9F4F2;}
	.st2{display:none;fill:#F9F4F2;}
	.st3{display:inline;fill:#282525;}
	.st4{fill:#F9F4F2;}
</style>
<g class="st0">
	<path class="st1" d="M536.1,905.2H280.3c-6.1,0-11.4-2.4-14.7-6.8c-3.5-4.5-4.5-10.5-2.8-16.9c3.3-12.4,15.5-22,27.9-22h255.8
		c1,0,1.9,0.5,2.5,1.2c0.6,0.8,0.8,1.8,0.6,2.7l-10.4,39.4C538.8,904.2,537.5,905.2,536.1,905.2z M290.7,865.8
		c-9.5,0-19.3,7.8-21.8,17.3c-1.2,4.4-0.6,8.5,1.7,11.4c2.1,2.8,5.6,4.3,9.7,4.3h253.3l8.7-33H290.7L290.7,865.8z"/>
	<path class="st1" d="M573.5,763.5H317.7c-6.1,0-11.4-2.4-14.7-6.8c-3.5-4.5-4.5-10.5-2.8-16.9c3.3-12.4,15.5-22,27.9-22h255.8
		c1,0,1.9,0.5,2.5,1.2c0.6,0.8,0.8,1.8,0.6,2.7l-10.4,39.4C576.2,762.5,574.9,763.5,573.5,763.5z M328.1,724.1
		c-9.5,0-19.3,7.8-21.8,17.3c-1.2,4.4-0.6,8.5,1.7,11.4c2.1,2.8,5.6,4.3,9.7,4.3H571l8.7-33H328.1L328.1,724.1z"/>
	<path class="st1" d="M498.7,1046.8H243c-6.1,0-11.4-2.4-14.7-6.8c-3.4-4.5-4.5-10.6-2.8-16.9c3.3-12.4,15.5-22,27.9-22h255.8
		c1,0,1.9,0.5,2.5,1.2c0.6,0.8,0.8,1.8,0.6,2.7l-10.4,39.4C501.4,1045.9,500.2,1046.8,498.7,1046.8z M253.3,1007.5
		c-9.5,0-19.3,7.8-21.8,17.3c-1.2,4.4-0.6,8.5,1.7,11.4c2.1,2.8,5.6,4.3,9.7,4.3h253.3l8.7-33H253.3L253.3,1007.5z"/>
	<path class="st1" d="M610.9,621.8H355.1c-6.1,0-11.4-2.4-14.7-6.8c-3.5-4.5-4.5-10.5-2.8-16.9c3.3-12.4,15.5-22,27.9-22h255.7
		c1,0,1.9,0.5,2.5,1.2c0.6,0.8,0.8,1.8,0.6,2.7l-10.4,39.4C613.5,620.9,612.3,621.8,610.9,621.8z M365.5,582.5
		c-9.5,0-19.3,7.8-21.8,17.3c-1.2,4.4-0.6,8.5,1.7,11.4c2.1,2.8,5.6,4.3,9.7,4.3h253.3l8.7-33H365.5z"/>
	<path class="st1" d="M648.2,480.2H392.4c-6.1,0-11.4-2.4-14.7-6.8c-3.5-4.5-4.5-10.5-2.8-16.9c3.3-12.4,15.5-22,27.9-22h255.8
		c1,0,1.9,0.5,2.5,1.2c0.6,0.8,0.8,1.8,0.6,2.7l-10.4,39.4C650.9,479.2,649.7,480.2,648.2,480.2z M402.8,440.8
		c-9.5,0-19.3,7.8-21.8,17.3c-1.2,4.4-0.6,8.5,1.7,11.4c2.1,2.8,5.6,4.3,9.7,4.3h253.3l8.7-33H402.8z"/>
	<path class="st1" d="M685.6,338.5H429.8c-6.1,0-11.4-2.4-14.7-6.8c-3.4-4.5-4.5-10.6-2.8-16.9c3.3-12.4,15.5-22,27.9-22H696
		c1,0,1.9,0.5,2.5,1.2c0.6,0.8,0.8,1.8,0.6,2.7l-10.4,39.4C688.3,337.5,687,338.5,685.6,338.5z M440.2,299.2
		c-9.5,0-19.3,7.8-21.8,17.3c-1.2,4.4-0.6,8.5,1.7,11.4c2.1,2.8,5.6,4.3,9.7,4.3h253.4l8.7-33H440.2L440.2,299.2z"/>
	<path class="st1" d="M422.3,231.2c14.1-1.6,28.6-2.9,43.3-4c-181.9,13.4-317.2,63.4-317.2,123.1c0,47.6,86.1,89.1,213.3,110.7
		L422.3,231.2z"/>
	<path class="st1" d="M361.7,464.2c-0.2,0-0.4,0-0.5,0c-63.8-10.8-117.5-26.7-155.3-45.9c-19.3-9.8-34.2-20.4-44.4-31.4
		c-10.8-11.8-16.3-24.1-16.3-36.6c0-30.4,32-58.8,92.4-81.9c57.7-22.1,138.6-37.8,227.8-44.3c1.7-0.1,3.3,1.2,3.4,2.9
		s-1.2,3.3-2.9,3.4c-13.4,1-27.2,2.2-41.1,3.7l-60.1,227.7C364.4,463.2,363.1,464.2,361.7,464.2z M418.1,234.9
		c-69.5,7.9-131.5,21.6-178.2,39.5c-57,21.8-88.4,48.8-88.4,76c0,21.7,19.8,43.3,57.2,62.3c36.6,18.6,88.7,34.1,150.6,44.8
		L418.1,234.9z"/>
	<path class="st1" d="M562.1,223.8c-33.1,0-65.3,1.2-96.1,3.4L447.8,296h248.1l16.8-63.5c14.1,1.7,27.8,3.6,41.1,5.7l-61.3,232.2
		c164.5-16.7,283.2-64.2,283.2-120.1C975.8,280.4,790.6,223.8,562.1,223.8z"/>
	<path class="st1" d="M692.6,473.6c-0.9,0-1.8-0.4-2.4-1.1c-0.7-0.8-0.9-1.9-0.7-2.9l60.4-228.8c-11.5-1.8-23.1-3.4-34.8-4.9
		L699,296.7c-0.4,1.4-1.6,2.4-3.1,2.4H447.8c-1,0-1.9-0.5-2.5-1.2c-0.6-0.8-0.8-1.8-0.6-2.7l18.1-68.8c0.3-1.3,1.5-2.2,2.8-2.3
		c31.4-2.3,63.8-3.4,96.3-3.4c110.8,0,215,13.2,293.5,37.2c79.6,24.3,123.4,57.2,123.4,92.5c0,28.5-28.3,55.3-81.8,77.7
		c-51.5,21.5-122.1,37.2-204.2,45.6C692.8,473.6,692.7,473.6,692.6,473.6z M756.2,241.7l-59.4,225.1c79.5-8.4,147.9-23.8,197.9-44.6
		c51-21.3,78-46.1,78-71.8c0-16-10.5-31.7-31.2-46.7c-20.6-14.9-50.1-28.2-87.7-39.8C824.5,254.9,791.6,247.5,756.2,241.7z
		 M452,292.8h241.6l15.2-57.7c-46.2-5.4-95.7-8.2-146.7-8.2c-31.5,0-63,1.1-93.6,3.3L452,292.8z"/>
	<path class="st1" d="M410.5,437.7h248.1l27-102.4H437.5L410.5,437.7z"/>
	<path class="st1" d="M658.6,440.8H410.5c-1,0-1.9-0.5-2.5-1.2c-0.6-0.8-0.8-1.8-0.6-2.7l27-102.3c0.4-1.4,1.6-2.4,3.1-2.4h248.1
		c1,0,1.9,0.5,2.5,1.2c0.6,0.8,0.8,1.8,0.6,2.7l-27,102.3C661.3,439.8,660,440.8,658.6,440.8z M414.6,434.5h241.6l25.3-96H439.9
		L414.6,434.5z"/>
	<path class="st1" d="M223.8,1148.5h-42.6c-1,0-1.9-0.5-2.5-1.2c-0.6-0.8-0.8-1.8-0.6-2.7l241.1-914.2c0.3-1.3,1.4-2.2,2.7-2.3
		c14.8-1.6,29.6-3,43.8-4c1-0.1,2,0.3,2.7,1.1c0.7,0.8,0.9,1.8,0.6,2.8l-18.1,68.8c-0.4,1.4-1.6,2.4-3.1,2.4h-7.6
		c-9.5,0-19.3,7.8-21.8,17.3c-1.2,4.4-0.6,8.5,1.7,11.4c2.1,2.8,5.6,4.3,9.7,4.3h7.7c1,0,1.9,0.5,2.5,1.2c0.6,0.8,0.8,1.8,0.6,2.7
		l-27,102.3c-0.4,1.4-1.6,2.4-3.1,2.4h-7.7c-9.5,0-19.3,7.8-21.8,17.3c-1.2,4.4-0.6,8.5,1.7,11.4c2.1,2.8,5.6,4.3,9.7,4.3h7.7
		c1,0,1.9,0.5,2.5,1.2c0.6,0.8,0.8,1.8,0.6,2.7l-27,102.3c-0.4,1.4-1.6,2.4-3.1,2.4h-7.7c-9.5,0-19.3,7.8-21.8,17.3
		c-1.2,4.4-0.6,8.5,1.7,11.4c2.1,2.8,5.6,4.3,9.7,4.3h7.7c1,0,1.9,0.5,2.5,1.2c0.6,0.8,0.8,1.8,0.6,2.7l-27,102.3
		c-0.4,1.4-1.6,2.4-3.1,2.4H328c-9.5,0-19.3,7.8-21.8,17.3c-1.2,4.4-0.6,8.5,1.7,11.4c2.1,2.8,5.6,4.3,9.7,4.3h7.7
		c1,0,1.9,0.5,2.5,1.2c0.6,0.8,0.8,1.8,0.6,2.7l-27,102.3c-0.4,1.4-1.6,2.4-3.1,2.4h-7.7c-9.5,0-19.3,7.8-21.8,17.3
		c-1.2,4.4-0.6,8.5,1.7,11.4c2.1,2.8,5.6,4.3,9.7,4.3h7.7c1,0,1.9,0.5,2.5,1.2c0.6,0.8,0.8,1.8,0.6,2.7l-27,102.3
		c-0.4,1.4-1.6,2.4-3.1,2.4h-7.7c-9.5,0-19.3,7.8-21.8,17.3c-1.2,4.4-0.6,8.5,1.7,11.4c2.1,2.8,5.6,4.3,9.7,4.3h7.7
		c1,0,1.9,0.5,2.5,1.2c0.6,0.8,0.8,1.8,0.6,2.7l-26.8,101.7C226.5,1147.5,225.2,1148.5,223.8,1148.5z M185.3,1142.2h36.1l25.2-95.3
		h-3.5c-6.1,0-11.4-2.4-14.7-6.8c-3.4-4.5-4.5-10.6-2.8-16.9c3.3-12.4,15.5-22,27.9-22h5.2l25.3-96h-3.6c-6.1,0-11.4-2.4-14.7-6.8
		c-3.5-4.5-4.5-10.5-2.8-16.9c3.3-12.4,15.5-22,27.9-22h5.2l25.3-96h-3.5c-6.1,0-11.4-2.4-14.7-6.8c-3.5-4.5-4.5-10.5-2.8-16.9
		c3.3-12.4,15.5-22,27.9-22h5.2l25.3-96h-3.5c-6.1,0-11.4-2.4-14.7-6.8c-3.5-4.5-4.5-10.5-2.8-16.9c3.3-12.4,15.5-22,27.9-22h5.2
		l25.3-96h-3.5c-6.1,0-11.4-2.4-14.7-6.8c-3.5-4.5-4.5-10.5-2.8-16.9c3.3-12.4,15.5-22,27.9-22h5.2l25.3-96h-3.6
		c-6.1,0-11.4-2.4-14.7-6.8c-3.4-4.5-4.5-10.6-2.8-16.9c3.3-12.4,15.5-22,27.9-22h5.2l16.4-62.1c-12.1,0.9-24.5,2.1-37,3.4
		L185.3,1142.2z"/>
	<path class="st1" d="M514.5,1148.5h-42.6c-1,0-1.9-0.5-2.5-1.2c-0.6-0.8-0.8-1.8-0.6-2.7l240.8-912.8c0.4-1.5,1.9-2.5,3.4-2.3
		c13.8,1.7,27.7,3.6,41.2,5.8c0.9,0.1,1.7,0.6,2.1,1.4c0.5,0.7,0.6,1.7,0.4,2.5l-239.3,907.1C517.2,1147.5,516,1148.5,514.5,1148.5z
		 M476,1142.2h36.1l237.8-901.4c-11.5-1.8-23.1-3.4-34.8-4.9L476,1142.2z"/>
</g>
<g class="st0">
	<path class="st1" d="M601.8,800.1c-3.9,0-7.8-0.1-11.6,0c-24.3,0.9-48.6,1.1-72.8,2.9c-17,1.3-33.8,4.6-50.7,7.3
		c-10.8,2.1-13.7,11.9-10.1,16.9c3.6,7.6,11.3,13.9,19,20.1c32.2,26.2,61.8,55.2,90.1,85.4c18.9,20.1,38.2,40,53.8,62.9
		c5.1,7.4,10.4,14.7,14.9,22.4c2.8,4.7,7,5.8,11.3,6c11,0.5,22,0,33,0.3c18,0.6,36,0.6,53.7-3.6c4.5-1.1,9.3-3,12.8-5.9
		c12.4-10.4,24.3-21.4,36.3-32.2c19.2-17.2,38.5-34.3,57.5-51.8c20.3-18.8,39.8-38.3,60.2-56.9c18.9-17.1,38.5-33.4,57.9-50
		c1.8-1.5,4.2-2.2,6.2-3.5c5.3-3.2,5.5-10,0.1-13.1c-2.8-1.6-6.2-2.5-9.4-2.7c-12.2-0.9-24.5-1.3-36.8-2.1
		c-12-0.8-23.9-1.8-35.8-3.1c-27-3-54-1.5-81-1.4c-6.5,0-13.1,0-20.1,0c-0.4-2.6-0.8-4.3-0.8-6c0.9-24.9,2.1-49.7,2.7-74.6
		c0.5-19.2,0.5-38.4,0-57.6c-0.3-15.6-1.9-31.1-2.4-46.7c-1.5-45.1-12-88-34.6-127.2c-20.3-35.1-45.7-66.1-79.5-89.5
		c-27.4-18.9-58.2-29.4-90.3-36.6c-29-6.5-58.3-7-87.7-4.3c-24.2,2.3-48.4,4.9-72.3,8.7c-32.1,5.2-63,15.1-93.2,26.9
		c-17.6,6.9-34.7,14.8-51.7,23.1c-26.4,12.9-52.4,26.6-78.8,39.7c-5.6,2.8-33.3,13.6-33.7,22.5c-0.4,10.2-0.2,15.6,0.4,25.7
		c1.7,27,4,53.9,5.7,80.8c1.2,18.3,1.9,36.6,2.6,54.9c1.2,29.7,2.2,59.4,3.2,89c0.4,12.4,11.3,18.5,22,12.1
		c17-10.1,34-20.2,50.9-30.6c37.6-23.1,77.6-40.5,119.8-53.1c22.1-6.6,44.2-13.3,66.7-18.4c27.9-6.3,56.4-8.5,84.9-6.7
		c19.1,1.2,37.3,5.6,52.9,17.9c13.9,11,24.3,24.2,26.4,42.3c2.8,24.7,5.4,49.5,7.7,74.3c0.9,9.8,0.8,19.8,1.1,29.7
		C602.6,796,602.2,797.4,601.8,800.1z M860.7,824.5c0.5,0.8,0.9,1.5,1.4,2.3c-77.1,50.3-144.2,113-213.8,173.4
		c-5.2-7.3-9.8-13.9-14.6-20.4c-4.6-6.3-9.4-12.5-14.3-18.5c-5.1-6.3-10.4-12.4-15.9-18.4c-5.4-6-11.1-11.8-16.6-17.7
		c-5.3-5.7-10.4-11.6-15.8-17.3c-5.6-5.9-11.3-11.6-17.1-17.3c-5.8-5.7-11.7-11.2-17.6-16.8c-5.9-5.6-11.8-11.2-17.8-16.6
		c-5.8-5.2-11.7-10.3-17.7-15.3c-6-5-13.5-8.2-19.9-14.7c7.6-1.2,13.5-2.5,19.4-2.9c24.8-1.7,49.7-3.2,74.5-4.4
		c13.2-0.7,26.4-0.4,39.6-1c8.7-0.4,11.3-3.7,11.5-12.5c0.6-22.5-0.8-45-3.5-67.3c-2-17-3.6-34-6.8-50.8
		c-4.7-25.4-18.7-45.1-40.3-59.4c-18.9-12.6-40.2-17-62.3-18.2c-26.8-1.5-53.3,1.4-79.7,5.8c-26.7,4.4-52.4,12.4-78.1,20.8
		c-30.8,10.1-61.5,20.3-90,36.1c-21.5,11.9-42.9,24.1-64.4,36.1c-1.9,1.1-4,2-5.6,2.8c-4.4-77.5-8.9-154.3-13.3-231.2
		c4.9-1.3,9.4-2.1,13.6-3.7c29.2-11,58.6-21.3,87.3-33.5c41.8-17.9,85.5-27.9,130.3-33c29.4-3.3,59.2-3.8,89-1.2
		c28.3,2.5,55.4,9.2,81.4,20.9c21.6,9.7,40.9,22.6,58.1,38.8c24.9,23.5,39,53.2,47,85.6c11.7,47.6,19,96,17.6,145.2
		c-0.6,22.5-3.3,44.9-5.1,67.3c-0.8,9.6-1.2,19.2-2.7,28.7c-1.4,8.8,1.9,15.6,10.6,18.1c4.6,1.3,9.3,2.5,14.1,2.8
		c28.4,2,56.8,3.9,85.3,5.5C825.9,823.4,843.3,823.8,860.7,824.5z M363.1,398.5c0-0.2-0.1-0.5-0.1-0.7c4-1.3,7.9-2.8,11.9-4
		c29.4-8.8,59.6-13.4,90-16.6c28.7-3,57.4-4.7,86.2-1.4c25.5,3,50,10.1,73.3,20.8c35.8,16.4,63.3,42.7,86.6,74.1
		c25.9,35,39.9,74.2,44,117.2c1.2,12.5,1.8,25.1,2.4,37.7c0.9,17.4,2.4,34.8,2.1,52.1c-0.7,37.2-2.3,74.4-3.6,111.5
		c-0.1,2.5-1,5-1.2,6.2c-10.8,0-20.3,0-30.9,0c1-12.7,1.9-24.3,2.8-35.8c1.5-18.2,3.5-36.5,4.3-54.7c1.2-28.3-1.9-56.4-5.8-84.3
		C722,599.6,718,578.6,713,558c-8.3-33.9-22.6-65.1-45.6-91.8c-27.9-32.5-63.7-52.5-103.9-65c-20.6-6.4-41.9-10.1-63.5-11.6
		c-30.7-2.2-61.2-1.1-91.7,2C393.1,393.1,378.1,396.2,363.1,398.5z M935.7,820.3c-1.7,1.4-2.6,2.1-3.5,2.7
		c-25.4,16.6-49.1,35.5-71.5,56c-22.5,20.7-44.1,42.4-66.4,63.4c-10.7,10.1-22,19.5-32.9,29.3c-9.6,8.6-19,17.4-28.5,26.2
		c-3.2,2.9-6.6,4.9-11.2,5c-11.4,0.4-22.7,1.2-34.1,1.7c-3.1,0.1-6.3-0.3-10.8-0.6c2-2.1,2.8-3.2,3.9-4.1
		c26.7-22.8,53.5-45.4,79.9-68.5c26-22.8,53.6-43.4,81.9-63.2c17.5-12.2,35.8-23.4,51.6-37.5c12.1-10.8,24.4-13.7,39.2-11.2
		C933.8,819.6,934.1,819.7,935.7,820.3z"/>
	<path class="st1" d="M381.5,445.1c-5.9-1.2-9.6,0.9-12.8,3.5c-4.9,4-9.8,8-14.2,12.4c-25.5,25.4-49.6,52.1-72,80.4
		c-16.5,21-33.2,41.8-49.8,62.7c-1.3,1.6-2.7,3.2-3.8,5c-2,3.1-3.6,6.2-0.4,9.7c3.2,3.6,7,5.3,11.1,2.8c4.2-2.6,8.1-6.2,11.3-10
		c6-7.1,11.2-14.8,17-22.1c23.3-29,46.6-58,70.2-86.7c10.7-13,22.1-25.3,33-38c3.1-3.6,6.1-7.5,8.5-11.6
		C380.9,450.9,380.9,448,381.5,445.1z"/>
	<path class="st1" d="M304.3,458.8c-8.3-0.2-13.6,4.6-18.2,10.3c-9.1,11.2-18.1,22.3-26.9,33.8c-14.8,19.3-29.3,38.7-44,58.1
		c-2.2,3-4.6,5.6-2.4,9.6c2.8,5.2,7.8,6.8,12.8,3.3c3.1-2.2,5.8-5.2,8.2-8.3c13.7-18.2,27.3-36.5,40.9-54.7
		c9.9-13.2,19.7-26.5,29.7-39.6C307.5,467.2,308.9,463.5,304.3,458.8z"/>
	<path class="st1" d="M372.7,509.2c-5.4-0.9-8.2,2.2-10.8,4.9c-11.5,11.8-22.9,23.7-34.2,35.7c-19.3,20.5-38.1,41.5-55,64
		c-0.5,0.7-1.2,1.3-1.8,2c-3.8,5-4,6.7-0.7,10.1c2.9,3.1,7.5,3.6,11.3,0.8c2.4-1.7,4.4-4.1,6.3-6.4c10.9-13.5,21.6-27.2,32.6-40.6
		c15.3-18.4,30.9-36.6,46.3-55C370.3,520.6,374.1,516.2,372.7,509.2z"/>
</g>
<path class="st2" d="M483.6,883.3c30.3,0,59.1-0.2,87.8,0.1c7.5,0.1,15.2,1.2,22.4,3.1c4.4,1.1,8.2,4.5,14.3,8
	c-7.3,8.2-12.7,16-19.7,21.8c-22.5,18.7-46.5,35.6-68.1,55.1c-27,24.3-52.4,50.5-78.4,76.1c-16,15.8-31.6,32-47.7,47.7
	c-5.1,5-10.6,9.8-16.5,13.9c-10,6.9-17.7,6.2-26.4-2.5c-25.4-25.5-50.9-50.8-75.7-76.8c-21.8-22.9-46.1-42.7-71.2-61.8
	c-12.9-9.8-25.1-20.5-37.7-30.5c-5.1-4-7-8.9-6.4-15.3c0.9-9.4,2.4-11.6,11.8-13.5c46.2-9.6,92.3-19,138.5-28.6
	c1.3-0.3,2.4-1.1,5.3-2.6c0-4.1,0-8.9,0-13.7c-0.4-33.3-1.3-66.5-1-99.8c0.4-48.5,1.9-97.1,2.4-145.6
	c0.6-59.2,12.5-116.9,24.3-174.5c7.8-38.1,21.7-74,41.2-107.8c23.3-40.5,57.7-65.7,102.7-77c24.1-6.1,48.3-3.6,72.3-0.5
	c34.6,4.6,67.6,15.4,98,32.5c30.9,17.4,61.6,35.3,91.3,54.6c32.4,20.9,58.4,49,82.2,79.2c48.3,61.4,87.2,128.6,120.1,199.3
	c6.6,14.1,9.6,29.8,14.2,44.8c1.9,6.4-0.5,10.9-5.9,14.9c-7.8,5.8-13.2,6-19.7-1.5c-9.4-10.9-18.1-22.4-27.4-33.3
	c-37.1-43.6-77.5-83.7-122.2-119.7c-17.6-14.2-35.8-27.2-56.6-36.1c-33.4-14.3-66.2-30.7-102.5-36.8c-34.3-5.8-68.3-4.5-100.5,9.9
	c-11.8,5.2-22.5,12.9-33.3,20.1c-2.5,1.7-4,5.9-4.7,9.2c-4.9,26.5-11.6,52.8-13.7,79.6c-3.3,41.2-5.1,82.6-4.6,123.9
	c0.6,48.1,4.2,96.1,6.8,144.1C480.1,856.1,482.1,868.9,483.6,883.3z M538.6,916.3c-0.5-1.2-1-2.4-1.5-3.6c-22.4,0-44.8,0.1-67.3-0.1
	c-5.3,0-10.9-0.4-16-1.9c-9.2-2.6-11.6-8.3-9.9-17.4c1.3-6.9,2.2-14.1,1.8-21.1c-2.6-45.7-6.3-91.4-8.2-137.2
	c-1.3-29.6-0.4-59.3-0.2-89c0.5-68.3,10.2-135.1,33.9-199.6c15.7-42.6,35.5-82.6,68-115.1c13.8-13.8,29.4-25,48.2-31.3
	c2.2-0.7,4.1-2.3,7.3-4.2c-26.7-8-52.4-12.3-78.6-11.2c-41.4,1.7-74.7,20-97.3,54.2c-12,18.1-20.8,38.8-28.3,59.4
	c-14.4,38.9-20.8,79.9-27,120.8c-2.8,18.7-7,37.2-8.1,56c-2.4,40.8-3.4,81.8-4.6,122.7c-0.6,18.9-0.6,37.8-0.5,56.6
	c0.3,41.8,1,83.6,1.2,125.4c0.1,12.6-7.3,22.7-19.3,25.7c-12.6,3.2-25.5,5.1-38.2,7.9c-26.1,5.7-52.2,11.5-79.7,17.6
	c27.9,23.9,55.3,45.6,80.5,69.6c25.3,24.1,48.4,50.5,72.9,76.2C425.3,1023.4,475.3,962.9,538.6,916.3z M509,440.9
	c13.7-4.2,25.4-7.5,36.8-11.5c3.5-1.2,6.6-4.3,9.1-7.2c17.2-20.1,34.2-40.5,51.4-60.6c9.8-11.5,19.8-22.7,31.3-35.9
	c-18.5-2.1-33.5-1.4-47.9,6.5c-23.5,13-40.5,32.6-55.3,54.3C523.3,402.7,515.3,420.5,509,440.9z M659.7,330.3
	c-25,31.8-48.4,61.6-73.1,93.1c13.5,0.7,24.9,1.7,36.4,1.7c3,0,6.4-2.6,8.9-4.8c7.7-6.8,15-14.1,22.7-21.1
	c16.9-15.3,33.9-30.5,51.9-46.7C690.1,344.8,674.9,337.6,659.7,330.3z M724.5,363.1c-12.4,12.8-23.2,24.2-34.3,35.3
	c-11.1,11.1-24.2,20.4-34.8,33.5c11.8,4.1,22.1,7.4,32.1,11.2c5.5,2.1,8.9,0.2,13.3-3.1c19.1-14.1,38.6-27.7,57.9-41.6
	c1.3-0.9,2.3-2.2,4.6-4.2C750.2,383.8,738.1,374.1,724.5,363.1z M804.3,440.2c-9.3-10.8-17.7-20.5-26.6-30.8
	c-20.5,15-40.7,28.5-60.2,45.7c10.4,4.5,18.4,8.4,26.7,11.5c2.6,1,6.3,0.9,8.7-0.3C769.7,458.1,786.4,449.4,804.3,440.2z
	 M799.1,498.6c11.5-6.1,22.7-12,34.8-18.4c-6.3-8.7-11.8-16.2-17.5-24.1c-14.7,8.5-28.4,16.3-43.3,24.9
	C782.5,487.3,790.5,492.7,799.1,498.6z M861,521.7c-5.8-8.9-10.8-16.6-16.2-25c-9.3,6-17.7,11.3-27,17.2c8.2,6.8,14.7,12.2,21.7,18
	C846.5,528.6,853.2,525.4,861,521.7z M858.5,548c12.3,15.2,27,28.8,35.1,32c-7.9-13.8-15.3-26.7-22.9-39.9
	C865.8,543.2,862.4,545.4,858.5,548z"/>
<g class="st0">
	<path class="st3" d="M448.6,655.2c-3.8,5.1-7.5,10.2-11.3,15.2c-12.6,16.7-24.9,33.7-39.1,49.2c-0.5,0.6-1.1,1.2-1.7,1.7
		c-5.8,5.4-10.2,4.8-14.8-1.8c-4.2-6.2-5.8-13.3-6.6-20.5c-2.9-28,2-54.7,12.9-80.6c13.2-31.3,28.7-61.5,44.9-91.4
		c13.1-24.1,26.7-47.8,40.7-71.4c0.9-1.6,1.4-3.3,1.7-5.1c5.5-34.4,14.4-68,26.4-100.7c10-27.5,21.7-54.2,37.6-79
		c5.9-9.3,12.4-18.2,21.4-24.8c7.2-5.3,12.7-5.3,19.7,0.2c9.7,7.8,16.3,18.1,22.3,28.7c14.7,26.1,25.5,53.9,34.4,82.4
		c9.4,30.4,16.5,61.3,20.3,92.9c0.7,6.2,3.4,11.3,6.2,16.5c23.3,43.8,46.1,87.8,65.3,133.5c6.9,16.4,13.8,32.9,17.6,50.4
		c4.3,20.3,5.3,40.8,1,61.2c-1,4.9-2.7,9.7-5.7,13.9c-0.7,1-1.5,1.9-2.4,2.7c-5,4.5-7.8,4.5-12.3-0.3c-9.5-10-17.2-21.3-25.1-32.5
		c-7.8-11-15.4-22.2-23.1-33.3c-0.5-0.7-0.8-2.2-2-1.8c-1.2,0.5-0.6,1.8-0.5,2.7c1.1,15.6,2.4,31.2,2.2,46.8c0,3-0.3,6-0.6,9
		c-0.3,3.7-2,6.6-5,8.9c-2.7,2-5.4,3.9-8.4,5.3c-2.4,1.1-3.1,2.4-2.8,5.1c2.5,20.6,4.8,41.3,7.2,61.9c2.9,25.2,5.8,50.5,8.5,75.7
		c3.4,30.6,9,60.8,15.8,90.8c1.4,6.2,3.2,12.3,3.1,18.8c-0.1,4.7-3.2,6.5-7.3,4.3c-0.8-0.4-1.5-1-2.3-1.5
		c-15.1-11.1-29.8-22.7-44.2-34.8c-0.6-0.5-1.2-1.1-1.8-1.6c-0.5-0.4-0.9-1.3-1.7-0.7c-0.6,0.4-0.1,1.1,0,1.7
		c1.6,8.6,3.2,17.3,4.8,25.9c4,20.8,8.4,41.5,11.4,62.5c0.7,4.9,1.3,9.8,1.1,14.8c-0.3,5.9-2.9,7.5-8.4,5.1
		c-6.2-2.7-11.7-6.7-17.3-10.5c-9.3-6.4-18.3-13.2-27.3-20.1c-2.7-2.1-3.2-2-4.4,1.2c-11.9,29.5-23.9,59-35.8,88.5
		c-0.4,0.9-0.8,1.9-1.1,2.8c-1.1,2.7-3.2,4.2-6.1,4.1c-3,0-5.2-1.6-6.2-4.5c-3-8.3-6-16.7-9-25c-8-22.4-16-44.8-24-67.2
		c-1.3-3.6-1.9-3.7-5.1-1.4c-13.1,9.3-26.1,18.6-40.2,26.3c-2.1,1.2-4.3,2.3-6.6,2.9c-3.9,1-6-0.4-6.5-4.4
		c-0.4-4.2,0.3-8.3,0.9-12.3c3.3-20.3,8.4-40.2,13.1-60.3c2.3-10.1,4.7-20.2,7-30.3c0.2-0.9,1.1-2.1,0-2.7c-0.9-0.5-1.5,0.7-2.2,1.2
		c-15.4,12-31.2,23.6-47.4,34.5c-0.5,0.3-1,0.7-1.5,0.9c-4.2,2.1-7.4-0.1-7.2-4.8c0.2-5.4,1.7-10.5,3.1-15.7
		c7.6-28,14.3-56.3,18.7-85c3.8-24.5,7.5-49,11.2-73.5c3.5-23,7-46,10.6-69c0.4-2.7,0.1-4.2-2.6-5.4c-3.4-1.4-6.4-3.7-9.5-5.8
		c-5-3.4-7.2-8-7.3-14c-0.2-12.8,1.3-25.6,2.5-38.3c0.6-6,1.3-12,1.9-18C449.1,655.4,448.8,655.3,448.6,655.2z M449.5,642.9
		c2-0.7,1.6-2.6,1.8-4.1c1.7-13.1,3.3-26.2,4.9-39.2c4.2-33.4,8.6-66.9,12.7-100.3c1.2-9.4,2.6-18.7,3-28.1c0.1-0.1,0.2-0.2,0.3-0.3
		c-0.1-0.1-0.2-0.2-0.3-0.3c-0.1,0.2-0.1,0.3-0.2,0.5c-0.7,0.1-0.8,0.8-1.1,1.3c-6,10.4-12,20.8-17.9,31.2
		c-20.5,36.4-40.3,73.2-57,111.7c-9,20.6-15.2,41.8-15.6,64.5c-0.1,9.8,0,19.6,2.8,29.1c1,3.4,2.3,6.8,5.9,9.7c0-2.7,0-4.7,0-6.6
		c0-6.6,0-13.1-0.6-19.6c-0.1-1.3,0.1-2.6,1.6-2.7c1.6-0.1,2,1.1,2,2.4c0.1,2,0.3,4,0.4,6c0,6,0,12,0,18.3c6-4.5,9.2-9.6,8.6-17
		c-0.5-6.1-0.2-12.3-0.6-18.4c-0.1-1.4-0.6-3.4,1.7-3.5c2-0.1,1.9,1.7,2,3.1c0.2,2.8,0.4,5.6,0.4,8.5c0.1,4.4,0,8.7,0,13.6
		c4.7-4.2,7.2-8.6,6.8-14.6c-0.3-6.5-0.2-13.1-0.7-19.6c-0.1-1.4-0.3-3.1,1.8-3.2c1.8-0.1,1.8,1.5,1.9,2.8c0.5,6,0.6,12.1,0.6,18.1
		c0,0.9-0.5,2,0.5,2.7c4.6-4.2,7-9.1,6.8-15.5c-0.2-6.8-0.1-13.7-0.7-20.6c-0.1-1.4-0.1-2.8,1.7-3c1.8-0.1,1.9,1.4,2,2.7
		c0.2,3.4,0.4,6.8,0.5,10.3c0.1,4,0,8.1,0,12.9c2.6-3.5,4.6-6.3,6.7-8.9c1.4-1.7,1.9-3.6,2-5.8c0.2-6.8-0.2-13.5-0.6-20.2
		c-0.1-1.4-0.3-2.8,1.5-3.1c1.8-0.2,2.1,1.3,2.1,2.6c0.2,3.8,0.3,7.7,0.5,11.5c0.1,2.1-0.2,4.2,0.5,6.5c3.5-4.4,6.9-8.3,6.7-14.4
		c-0.2-7.4-0.1-14.7-0.6-22.1c-0.1-1.3,0.1-2.6,1.7-2.7c1.6-0.1,1.9,1.1,2,2.4c0.2,3.4,0.3,6.9,0.6,10.3
		C449.4,635.4,448.5,639.2,449.5,642.9c-0.1,0.1-0.2,0.1-0.4,0.1c0.1,0.1,0.1,0.2,0.2,0.4C449.4,643.2,449.5,643,449.5,642.9z
		 M519.2,505.4c-0.2-6.8,0.4-18.4,1.1-29.9c0.3-4.8,2.8-8.1,6.9-10.3c5.6-3.1,11.8-4.1,18-4.5c14.6-1.1,29.2-0.6,43.8,0.5
		c7.1,0.5,14.2,1.8,20.6,5.5c3.4,2,6.1,4.7,6.4,8.9c0.3,4.3,0.5,8.7,0.5,13c0.1,30.8-2.7,61.4-6.9,91.8
		c-4.4,31.8-10.1,63.4-17.2,94.8c-2.6,11.8-5.5,23.5-8.3,35.3c-0.5,2.1-0.7,3.5,2.3,2.8c2.6-0.5,5.2-0.6,7.8-0.9
		c25.9-2.9,50.9-9.2,75.5-17.8c1.4-0.5,2.4-0.9,2.3-2.9c-0.7-16.3-2.1-32.6-3.4-48.9c-1.4-16.9-3-33.7-4.6-50.6
		c-1.3-14.5-2.6-29.1-3.9-43.6c-1.5-17.8-3.1-35.5-4.5-53.3c-1.2-15.6-2.3-31.2-4.3-46.6c-4.1-30.4-10.8-60.3-19.9-89.6
		c-8.1-25.9-17.8-51.2-30.4-75.3c-1.2-2.3-2.5-3.1-5.1-2.9c-17.4,1.2-34.9,1.2-52.3-0.2c-2.4-0.2-3.7,0.5-5,2.6
		c-15.3,26.7-26.9,55-36.6,84.1c-10.6,32-18.5,64.7-22.7,98.2c-2,15.7-3.7,31.4-5.6,47.1c-2.5,20.2-5.1,40.3-7.7,60.5
		c-2.1,16.3-4.1,32.5-6.2,48.8c-2.9,22.1-5.6,44.2-7.7,66.4c-0.2,2,0.4,3,2.3,3.8c27.6,12.7,56.8,19.2,87,21.6
		c3,0.2,2.9-0.7,2.4-3.1c-2.2-10.7-4.4-21.5-6.4-32.3c-6.4-34.8-11.5-69.7-14.7-104.9C520.6,552.5,519.3,531.4,519.2,505.4z
		 M528.2,841.1c-0.7,1.4-1,1.9-1.3,2.5c-4.2,8.4-8.5,16.7-13.8,24.5c-2.7,4-5.5,8-9.6,10.8c-5.5,3.8-10.9,1.7-12.3-4.8
		c-0.9-4.5-1.1-9-1.2-13.5c-0.2-19.8,1.1-39.5,2.7-59.2c1.4-17.4,3-34.8,4.6-52.1c0.2-2.3,0-3.5-2.7-4.2c-7.4-2-14.6-4.7-21.6-7.8
		c-2.1-0.9-2.7-0.5-3,1.7c-4.8,31.8-9.7,63.6-14.6,95.4c-3.7,23.6-6.8,47.3-11.4,70.8c-4.4,22.8-10.4,45.2-16.1,67.6
		c-0.4,1.8-1.2,3.5-0.8,5.8c0.8-0.6,1.4-0.9,2-1.3c11.8-8.1,23.4-16.5,34.8-25.1c5.7-4.3,11.4-8.7,16.7-13.5c1.3-1.2,3-1.8,4.4-1.3
		c1.2,0.5,1.5,2.3,1.5,3.7c0,1.9-0.2,3.8-0.6,5.7c-2,11-4.7,21.9-7.3,32.8c-4.9,20.8-10.2,41.5-13.7,62.6c-0.6,3.3-1.2,6.7-0.9,10.5
		c2.2-1.1,4.1-2,5.9-3c13.3-7.6,25.8-16.5,38.3-25.3c6-4.2,11-2.7,13.5,4.1c9.8,27.5,19.7,55,29.5,82.5c1.3,3.6,2.6,7.1,4,10.8
		c1.5-0.9,1.5-2.2,2-3.3c12-29.6,24-59.2,35.9-88.8c2.6-6.4,7.7-7.9,13.2-3.7c5.7,4.3,11.4,8.7,17.1,12.9
		c7.8,5.7,15.7,11.4,24.1,16.2c1.9,1.1,2.6,1,2.5-1.5c-0.4-5.3-1-10.6-1.8-15.9c-3.9-24.8-9.3-49.3-13.9-74
		c-1.2-6.3-2.6-12.6-2.7-19.1c0-1.6,0.3-3.6,1.7-4.2c1.3-0.5,3.1,0.2,4.3,1.4c14.4,13.5,30.1,25.3,45.6,37.3c2,1.6,4.1,3,6.5,4.8
		c-0.3-3.9-1-7-1.7-10.1c-5.4-24.1-10.5-48.2-14-72.7c-3.1-22-5.2-44.1-7.7-66.1c-2.7-23.9-5.5-47.9-8.2-71.8
		c-0.9-7.5-1.7-15-2.6-22.5c-0.1-0.9,0.5-2.8-1.9-1.9c-7.8,3.1-15.7,5.7-23.8,7.7c-1.4,0.4-1.9,1-1.8,2.5c0.5,8.3,1,16.5,1.4,24.8
		c1.4,27.9,2.7,55.8,2,83.8c-0.2,6.8-0.3,13.7-2.3,20.4c-1.6,5.5-6.7,7.2-11.4,4.1c-3-2-5.2-4.7-7.2-7.7c-6-8.7-10.5-18.1-14.8-27.7
		c-0.5-1-0.7-2.3-1.7-3.1c-0.2,0.3-0.4,0.4-0.5,0.5c-6.1,29.7-12.3,59.4-18.4,89.1c-3.4,16.5-6.8,33-10.2,49.4
		c-0.9,4.2-3,6.3-6.5,6.3c-3.6,0-5.8-2.1-6.6-6.5c-0.6-3.6-1.2-7.2-1.8-10.7c-5.9-35.2-11.8-70.4-17.8-105.6
		C531.1,857.8,529.7,849.9,528.2,841.1z M589.5,660.4c2.5-12.9,5-25.9,7.4-38.8c5.2-28.8,9.3-57.9,11.7-87.1
		c1.5-18.3,2.2-36.6,1.6-55c-0.2-4.5-2-7-5.8-8.5c-1.7-0.7-3.4-1.4-5.2-1.7c-18.1-3.7-36.4-3.4-54.8-2.3c-4.5,0.3-9,1.2-13.2,3.1
		c-3.2,1.4-4.8,3.7-4.9,7.2c-0.2,6.7-0.8,13.5-1,20.2c-0.4,23,0.7,45.9,2.7,68.9c1.9,22.5,4.6,44.9,8,67.2
		c5.1,34,11.3,67.7,19.4,101.1c1.8,7.2,3.8,14.4,5.7,21.6c0.3,1,0.5,2.2,1.7,2.2c1.2,0,1.5-1.1,1.8-2.1c0.6-2,1.1-4.1,1.9-6
		c0.8-2,0.6-3.7-0.2-5.7c-2.3-5.6-4.3-11.3-6.4-17c-0.5-1.3-1.2-3,0.7-3.6c1.8-0.6,2.3,0.9,2.8,2.4c1.7,5,3.3,9.9,5.8,15.3
		c1.3-4.4,2.3-8.2,3.5-12.1c0.5-1.5,0.3-2.7-0.4-4c-3-6.4-5.4-13-7.6-19.8c-0.4-1.4-1.1-3,0.8-3.5c1.9-0.6,2.2,1.1,2.7,2.5
		c1.9,5.5,3.7,11,6.4,16.9c0.7-2.6,1.1-4.8,1.9-6.8c1.2-3.1,0.8-5.9-0.7-8.9c-2.6-5.4-4.6-11.2-6.4-16.9c-0.4-1.3-1.2-3,0.7-3.6
		c2.1-0.7,2.4,1.2,2.9,2.6c0.7,2.2,1.5,4.4,2.3,6.6c1.1,3.1,2.4,6.1,3.5,9.1c1.6-4.4,2.6-8.6,3.7-12.8c0.3-1.2,0.1-2.3-0.5-3.5
		c-3.1-6.7-5.7-13.6-7.9-20.6c-0.4-1.3-0.7-2.7,1-3.3c1.5-0.5,2.1,0.8,2.5,2c0.7,2,1.3,4,2,6c1.4,3.6,2.5,7.4,4.7,11.4
		c1.2-5.3,2.2-9.9,3.2-14.5c0.3-1.1-0.3-1.9-0.7-2.8c-2.8-6.3-5.4-12.8-7.5-19.5c-0.2-0.7-0.5-1.3-0.6-2c-0.2-1.1,0-2.1,1.3-2.3
		c1-0.2,1.7,0.3,2.1,1.3c0.3,0.9,0.6,1.7,0.9,2.6C584.9,650.6,586.5,655.6,589.5,660.4z M558.2,982c0.3,0,0.5,0,0.8,0
		c0.5-2.4,1-4.7,1.5-7.1c9.5-45.9,19-91.8,28.5-137.7c0.5-2.5,1.2-4.8,4.2-5.1c3.1-0.3,4.1,1.9,5.1,4.2c5,11.7,10.2,23.3,17.4,33.8
		c1.4,2.1,3,4,5,5.7c1.6,1.4,2.9,1.5,3.3-1c0.4-2.6,1-5.2,1.2-7.8c1-11.8,0.8-23.6,0.7-35.4c-0.3-27.1-1.9-54.2-3.2-81.3
		c-0.1-1.8-0.6-2.5-2.6-2c-13.8,3-27.6,5.1-41.8,5.4c-4.1,0.1-7.3,0.7-8.3,5.8c-0.6,3.5-3.7,5-7.4,4.9c-3.9-0.1-6.4-2.2-7.5-7
		c-0.6-2.7-1.8-3.3-4.4-3.4c-8-0.1-16-0.9-24-2.1c-7.7-1.2-15.4-2.8-23.1-4.6c-0.1,0.6-0.2,1-0.2,1.4c-3.1,31.8-5.9,63.7-7.1,95.6
		c-0.3,8.9-0.6,17.8,0.7,26.6c0.2,1.2-0.1,2.9,1.5,3.3c1.2,0.3,2.2-0.9,3-1.7c4.3-4,7.4-9,10.4-14c4.7-7.9,8.9-16,12.7-24.4
		c1.2-2.5,2.9-3.9,5.7-3.2c2.5,0.6,2.9,2.8,3.3,4.9c7.1,42,14.2,84.1,21.3,126.1C555.9,968.8,557,975.4,558.2,982z M734.1,724.7
		c0.7-0.5,1-0.6,1.3-0.9c3.4-3.4,4.9-7.9,5.9-12.4c4.3-19.1,3.4-38.3-0.3-57.3c-3.2-16.7-9.8-32.4-16.3-48
		c-18.5-44.7-40.7-87.7-63.3-130.5c-0.2-0.5-0.3-1.2-1.1-1.1c0,1.1-0.1,2.2,0,3.3c1.4,16.5,2.7,32.9,4.1,49.4
		c1.4,16.8,2.9,33.5,4.4,50.3c1.9,22.1,3.9,44.1,5.9,66.2c0.1,1.5,0.2,3,1.8,3.9c0.5-7,1-14,1.5-20.9c0.1-1.4-0.1-3.5,2.2-3.3
		c2.2,0.2,1.6,2.1,1.5,3.6c-0.7,7.5-1.2,15.1-1.4,22.6c-0.1,5.6,3.4,9,6.4,13.6c0.5-6.3,1-11.9,1.4-17.5c0.1-1.5,0-3.5,2.1-3.4
		c2.3,0.1,1.7,2.1,1.6,3.5c-0.4,5.6-0.4,11.3-1.3,16.9c-1.2,7.6,4.4,11.7,7.9,16.9c0.4-1.2,0.4-2.3,0.4-3.4
		c0.2-6.5,0.7-12.9,1.4-19.3c0.1-1.2,0.6-2.2,2-2.1c1.5,0.1,1.7,1.2,1.6,2.4c0,0.4-0.1,0.8-0.1,1.2c-0.7,7.2-1,14.5-1.3,21.7
		c-0.3,6,2.8,10,6,14.1c0.8-0.5,0.6-1,0.6-1.4c0.4-6.3,0.8-12.7,1.3-19c0.1-1.4-0.1-3.5,2.2-3.2c2.2,0.3,1.6,2.1,1.4,3.6
		c-0.7,7.7-1.3,15.5-1.3,23.2c0,4.7,3.5,7.2,5.9,10.4c0.2-7.5,0.9-14.8,1.6-22.1c0.1-1.3,0.4-2.5,2-2.5c1.6,0.1,1.8,1.3,1.7,2.6
		c-0.1,0.8-0.1,1.6-0.2,2.4c-0.6,6.5-0.7,13.1-1.2,19.6c-0.5,6.8,3.8,10.2,8,15.2c-0.2-8.6,0.4-16.3,1.2-24c0.2-1.5,0-3.4,2.3-3.1
		c2.1,0.3,1.5,2.1,1.4,3.4C734.4,707.7,733.6,715.9,734.1,724.7z M672.2,700.2c-10.8,3.7-21.4,7-32.1,9.8c-18.4,4.7-37,7.9-55.9,9.5
		c-1.3,0.1-2.4,0-2.9,1.9c-2.1,8.2-4.4,16.3-6.7,24.4c-0.5,1.8,0,2.1,1.6,2c5.6-0.2,11.2-0.8,16.8-1.4c19.9-2.1,39.2-6.4,57.9-13.7
		c6.3-2.4,12.4-5.2,17.9-9.4c1.8-1.4,2.7-3.1,3-5.3C672.3,712.3,672.4,706.5,672.2,700.2z M451.5,697.9c-0.1,5.5-0.7,10.6-0.1,15.7
		c0.3,2.4,1,4.2,2.8,5.7c2.8,2.3,5.8,4.3,9,6.1c16.6,9,34.4,14.6,52.8,18.5c11,2.3,22.2,3.8,33.4,4c1,0,3.1,1,2.4-1.8
		c-2-8.1-4-16.2-5.9-24.3c-0.3-1.3-0.8-1.7-2.2-1.8c-5.5-0.4-11.1-0.8-16.6-1.5c-20.9-2.4-41.3-7.1-61-14.7
		C461.5,702,456.7,700,451.5,697.9z M543.9,274.8c17.5,1.4,34.4,1.3,51.8,0.3c-5.8-9.1-11.2-17.8-19.5-24.2
		c-4.7-3.6-6.8-3.7-11.6-0.1C556,257,550.2,265.7,543.9,274.8z"/>
	<path class="st3" d="M604.7,376.5c-0.9,18.6-18.3,34.9-36.3,33.8c-19.6-1.2-33.1-18.2-32.7-35.5c0.5-18.1,18.2-34.4,35.6-33.5
		C588.5,342.2,605.5,360.1,604.7,376.5z M560.6,402.4c0.2,0,0.5,0.1,0.7,0.1c-0.1-0.2-0.2-0.4-0.3-0.6c-0.9-1.8-1.8-3.6-2.5-5.5
		c-0.4-0.9-0.3-1.8,0.7-2.3c1.1-0.6,2-0.2,2.5,0.9c0.8,1.5,1.6,3,2.4,4.5c3,5.3,3.9,5.6,9.9,4.6c1.7-0.3,2.1-0.7,1.1-2.2
		c-1.3-2-2.4-4.2-3.6-6.3c-0.7-1.2-1.2-2.6,0.3-3.5c1.6-0.9,2.3,0.4,2.9,1.7c0.5,1.1,1.1,2.2,1.7,3.2c3.4,6.1,4.1,6.2,9.7,1.8
		c1.6-1.2,1.6-2.1,0.5-3.7c-1.1-1.5-1.8-3.1-2.7-4.7c-0.7-1.3-1.7-2.9,0.3-3.9c1.8-0.9,2.4,0.9,3,2.1c1.1,2,1.8,4.2,3.6,5.7
		c4.6-5.1,4.6-5.1,2-10.7c0-0.1-0.1-0.2-0.1-0.3c-0.5-1.1-1-2.4,0.4-3.2c1.4-0.8,2.2,0.1,2.8,1.3c0.3,0.6,0.7,1.2,1.1,1.8
		c1.1-1.2,1.2-2.5,1.4-3.8c1.3-8.8-2-16.1-7.9-22.2c-9.5-9.9-21.4-13.5-34.3-5.6c-9.5,5.9-15.9,17.7-14,27.8
		C544.3,390.3,550.1,398.3,560.6,402.4z"/>
	<path class="st3" d="M519.3,937.3c-1.7,6.3-3.4,12.4-5.1,18.5c-3.4,12.2-6.7,24.5-10.1,36.7c-0.2,0.6-0.3,1.2-0.5,1.7
		c-0.4,1.4-0.9,2.7-2.6,2.1c-1.5-0.5-1.3-1.8-0.9-3c1-3.5,1.9-7,2.9-10.5c4.1-14.9,8.2-29.7,12.3-44.6c0.2-0.6,0.3-1.2,0.5-1.7
		c0.4-1.1,1.1-1.7,2.3-1.4C519.3,935.3,519.4,936.3,519.3,937.3z"/>
	<path class="st3" d="M665.5,939.1c0.1,1.1-0.3,2-1.5,2.2c-1.4,0.2-1.9-0.8-2.2-2c-1.3-5.4-2.5-10.8-3.8-16.2
		c-3.2-13.5-6.3-27.1-9.5-40.6c-0.3-1.4-0.7-2.7,1.1-3.2c1.8-0.4,2.2,1,2.5,2.3c4.4,18.8,8.8,37.6,13.2,56.4
		C665.4,938.5,665.5,938.8,665.5,939.1z"/>
	<path class="st3" d="M451.8,934.8c0.1-0.4,0.2-1.1,0.4-1.8c4.9-17.8,9.8-35.7,14.8-53.5c0.1-0.5,0.3-1,0.4-1.4
		c0.3-1.4,0.9-2.7,2.6-2.1c1.5,0.5,1.3,1.8,0.9,3c-1.5,5.4-3,10.9-4.5,16.3c-3.5,12.8-7,25.6-10.6,38.4c-0.2,0.8-0.4,1.5-0.7,2.3
		c-0.4,1-1.2,1.4-2.2,1.2C451.9,937,451.8,936.1,451.8,934.8z"/>
	<path class="st3" d="M613,996.3c0.1,1.3-0.4,2.2-1.6,2.3c-1.4,0.1-1.8-0.9-2.1-2.1c-1.3-5.5-2.6-11-3.9-16.5
		c-3.1-13.1-6.2-26.3-9.2-39.4c-0.2-0.7-0.4-1.4-0.4-2.1c0-1,0.4-1.8,1.4-2c0.9-0.2,1.6,0.3,1.9,1.1c0.2,0.6,0.4,1.1,0.6,1.7
		c4.4,18.6,8.7,37.2,13.1,55.9C612.9,995.6,612.9,996,613,996.3z"/>
	<path class="st3" d="M557.5,1034.1c0-9.4,0-18.7,0-28.1c0-0.5,0-1,0-1.5c0.1-1.1,0.6-2,1.8-2c1.2,0,1.7,0.9,1.8,2
		c0.1,2.8,0.2,5.6,0.2,8.5c0.1,16.6,0.3,33.2,0.4,49.9c0,1.3,0.5,3.2-1.6,3.3c-2.3,0.1-2-1.8-2-3.3c0-9.6,0-19.1,0-28.7
		C557.9,1034.1,557.7,1034.1,557.5,1034.1z"/>
	<path class="st3" d="M564.4,846.5c0,14.1,0,28.2,0,42.3c0,0.4,0,0.8,0,1.2c0,1.3-0.4,2.5-2,2.4c-1.4-0.1-1.6-1.2-1.6-2.5
		c0.1-6.7,0.2-13.3,0.3-20c0.4-21.7,0.8-43.3,1.2-65c0-0.4,0-0.8,0-1.2c0.1-1.4,0.3-2.8,2-2.7c1.6,0.1,1.6,1.4,1.6,2.7
		c-0.1,6.9-0.3,13.7-0.3,20.6c0,7.4,0,14.7,0,22.1C565.2,846.5,564.8,846.5,564.4,846.5z"/>
	<path class="st3" d="M510.5,830.2c1.4-5.2,2.9-10.5,4.3-15.8c3.6-13,7.2-26,10.8-39c0.2-0.6,0.3-1.2,0.5-1.7
		c0.4-1.3,0.9-2.8,2.6-2.2c1.7,0.6,1.3,2,0.9,3.3c-5.1,18.5-10.2,37.1-15.3,55.6c-0.4,1.3-0.7,2.7-2.5,2.4
		C510.6,832.5,510.4,831.5,510.5,830.2z"/>
	<path class="st3" d="M613.5,831.1c0.1,1.3-0.4,2.1-1.4,2.3c-1.2,0.2-1.9-0.5-2.2-1.6c-0.7-3-1.5-6.1-2.2-9.1
		c-3.7-15.9-7.4-31.8-11.1-47.7c-0.3-1.3-1-3,0.9-3.6c2-0.6,2.3,1.2,2.6,2.5c4.4,18.7,8.8,37.5,13.1,56.2
		C613.4,830.6,613.4,830.9,613.5,831.1z"/>
	<path class="st3" d="M605,732.3c-0.9,0-2.8,0.1-4.6,0c-1.4-0.1-3.4,0.5-3.5-1.8c0-2.2,1.8-1.9,3.4-1.9c7.9,0,15.7-0.6,23.4-2.1
		c9.5-1.8,18.8-4.5,27.5-8.9c1.2-0.6,2.6-1.3,3.4,0.3c1,1.8-0.5,2.5-1.8,3.1c-12,5.9-24.7,9.1-37.9,10.6
		C612,731.8,608.9,732,605,732.3z"/>
	<path class="st3" d="M517.7,732.4c-16.6-1.4-32.4-5-47.2-12.8c-0.4-0.2-0.9-0.5-1.3-0.7c-1.2-0.6-2.1-1.5-1.4-2.9
		c0.8-1.6,2.1-1,3.3-0.3c10.1,5.5,20.9,8.9,32.1,11c6.2,1.2,12.6,1.7,18.9,2.1c1.3,0.1,2.9-0.1,2.9,1.8c0,2-1.6,1.9-3.1,1.9
		C520.6,732.4,519.2,732.4,517.7,732.4z"/>
	<g>
		<path class="st3" d="M555.3,366.5c-1.6,0.2-2.8-0.1-2.7-1.7c0.1-1.8,1.6-2.6,3.2-2.5c1.6,0,2.3,1.2,2.2,2.7
			C557.8,366.7,556.5,366.8,555.3,366.5z"/>
		<path class="st3" d="M570.6,357.3c-0.3,1.4-1.1,2.4-2.6,2.3c-2.3-0.1-1.8-2.3-2.2-3.6c-0.3-1.1,0.8-1.9,1.9-1.7
			C569.3,354.5,570.3,355.6,570.6,357.3z"/>
		<path class="st3" d="M560.6,264.9c-0.2,1.5-1,2.5-2.5,2.5c-2.2-0.1-2-2.2-2.3-3.6c-0.3-1.1,0.7-1.9,1.9-1.7
			C559.3,262.2,560.3,263.3,560.6,264.9z"/>
		<path class="st3" d="M569.8,253.6c1.4,0.4,2.6,1.3,2.7,3c0.1,1.6-1.1,2.5-2.4,2.4c-2.2-0.1-1.9-2.2-2.2-3.6
			C567.5,254.2,568.4,253.6,569.8,253.6z"/>
		<path class="st3" d="M553,486.1c-1.2-0.1-1.8-0.7-1.8-1.9c0.1-2.2,3.4-4.1,5.4-3c0.9,0.4,1.4,1,1.4,2.1c-0.1,1.1-0.9,1.8-1.8,1.6
			C554.7,484.4,554.2,486.1,553,486.1z"/>
		<path class="st3" d="M562,501.4c-1.3,0.1-2.9,0.1-2.7-1.8c0.1-1.8,1.7-2.5,3.3-2.5c1.4,0,2.2,1,2.2,2.4
			C564.7,501.4,563.6,501.7,562,501.4z"/>
		<path class="st3" d="M549.9,516.1c-0.2,1.3-0.8,2.2-2,2c-1.7-0.3-3-1.3-2.9-3.2c0.1-1.3,1-2.2,2.4-2.1
			C549.8,512.8,548.9,515.1,549.9,516.1z"/>
		<path class="st3" d="M541.6,501.1c-1.6,0.2-3-0.1-2.9-1.8c0.1-1.6,1.5-2.3,3-2.5c1.6-0.2,2.4,0.9,2.5,2.4
			C544.2,500.9,543,501.4,541.6,501.1z"/>
	</g>
</g>
<g>
	<path class="st4" d="M1058.2,274.5c-2.6-2.4-5.2,1.4-7.4,2.9c-13.1,9-24.2,20.4-36,31.7c-2.4-5.1-1.2-9.6-1.2-14
		c0-2.7-0.1-5.4-3-6.7c-3-1.4-4.9,0.8-6.7,2.6c-6.9,6.9-14.6,13.1-23.1,17.9c-7.4,4.2-14.6,9-24.5,9.9c4.1-9.5,5.7-18.4,4.9-27.6
		c-1.1-12-3.7-13.5-14.7-8.2c-29.9,14.3-59.9,28.6-89.8,43c-1.5,0.3-3.1,1-4.4-0.4c1-0.5,2.1-1.1,3.1-1.6c1.2-1.1,2.2-2.3,3.5-3.3
		c25.3-19.5,50.6-39,75.8-58.6c8.6-6.7,8.4-9.6-0.6-16c-8.6-6.1-18.5-8.5-29.7-10c13.3-13.7,28.1-22.8,44.8-28.9
		c3.2-1.2,7.8-1.3,8-5.9c0.1-4.5-4.5-4.9-7.4-6.8c-3.2-2.1-7.4-2.7-9.9-6.6c15.9-5.4,31.8-10.3,46.3-18.5c2-1.1,5.7-1.8,4.2-5.3
		c-1.2-2.7-3.9-1.2-6.1-0.9c-21.4,3.2-41.3,11.6-61.6,18.7c-6,2.1-6,7.4-0.2,10.8c5,2.9,10.5,4.9,16.5,7.6c-2.1,1.2-3.3,2.2-4.8,2.8
		c-17.2,7.8-32.1,18.7-44.2,33.1c-2.4,2.8-6.5,5.4-4.2,10c2.4,5,6.7,2.3,10.4,1.9c10.2-1.2,19.9-0.8,28.8,5.8c-1,1.2-1.6,2-2.3,2.5
		c-34.6,26.6-69.3,53.2-103.8,80c-4.6,3.5-6.2,2.9-9.2-1.8c-12-19.2-29.4-30.3-52.2-31.3c-24.3-1.1-45.3,17.4-47.8,41.2
		c-2.1,19.5,13.9,38.8,35.4,42.4c19,3.2,35.3-3,49.9-14.9c11.1-9.1,11.2-9,13.5,4.9c0.2,1,0.2,1.9,0.4,2.9
		c9.9,76.2-42.8,151.6-118.1,169.5c-8.6,2.1-11.3,0.3-13.3-8.4c-11.7-50.4-23.3-100.9-36.6-150.9c-9.5-35.8-29.4-48.9-66.3-46.9
		c-25.1,1.3-50.1,3.4-75.1,5.2c-112.5,8.4-225,16.8-337.4,25.2c-25.7,1.9-51.4,3.2-77,5.7c-25.2,2.5-37.1,16.1-37.4,41.3
		c-0.2,11.1,1.5,22.1,3.1,33.1c10.8,73.8,21.6,147.6,32.5,221.4c2.3,15.8,5.1,31.5,7.7,47.3c0.4,2.5,0.7,5.8,4.2,5.4
		c3.5-0.5,3-3.6,2.8-6.2c-0.1-1.3-0.4-2.6-0.5-3.9C91,650.5,78.8,584.1,70.3,517.2c-3.8-29.7-9.4-59.3-12.2-89.1
		c-2.5-26.7,7.5-37.1,34.2-39c86.2-6,172.4-11.6,258.5-17.6c72.5-5,145.1-9.9,217.5-15.4c36.6-2.8,51.4,6.8,61.1,42.4
		c4.6,16.6,8.2,33.5,12.1,50.3c7.4,31.7,14.7,63.5,21.8,95.2c0.6,2.7,3.4,6.3-0.3,8.7c-5.1,3.4-13.2-0.5-14.6-6.7
		c-4.7-20.6-9.1-41.3-13.9-62c-6-25.7-10.1-51.8-17.9-77.1c-6.2-20.4-18.1-35.1-40.9-38.3c-8.1-1.1-16.2-1.3-24.4-0.5
		c-22.7,2.2-45.4,4.4-68.1,6.6c-110.3,10.7-220.6,21.4-330.9,32.2c-16.8,1.6-33.9,1.6-50.3,6.9c-16.3,5.2-25.4,16.1-27.6,33.1
		c-1.4,11.2-0.2,22.1,1.6,33.1c7.4,44.7,14.7,89.3,22.5,134c9.5,54.5,16.9,109.5,28.9,163.5c0.5,2.5-0.3,6.1,4.6,7
		c-0.5-6.1-0.8-11.9-1.5-17.7c-10.3-79.5-25.2-158.3-37-237.5c-3.5-23.5-8.3-46.9-10.7-70.5c-2.3-23,7.6-34.6,30.2-39.1
		c2.6-0.5,5.1-1.1,7.7-1.3c35-3.4,70.1-6.7,105.1-10c86.6-8.3,173.2-16.8,259.9-24.8c24.3-2.3,48.5-6.2,73-6.6
		c27.1-0.4,40.2,9.2,47.8,35.2c3,10.3,4.9,20.9,7.2,31.4c7.9,35.5,15.8,71.1,23.8,107.2c-7.1,0.3-13.3-1.5-19.5-3.5
		c-21.7-7-44-11.8-66.3-16.5c-29.3-6.1-58.3-6.2-86.2,6.5c-37,16.9-52.6,45.7-46.4,85.8c2,12.9,4.8,25.6,4,38.8
		c-0.5,8-2.8,15.3-8.3,21.4c-3.4,3.7-6.3,6.4-10.1,0c-2.5-4.1-6.6-7.2-11.1-9.4c-2-1-4.3-3.2-6-0.6c-1.8,2.7,1.4,3.8,3,5.1
		c10.3,8.4,15.6,19,14.9,32.4c-0.2,3.3-0.7,7.3,3.9,7.5c4.5,0.2,4.7-3.7,4.8-7c0.1-1.6,0.4-3.3-0.1-4.9c-1.8-6.5,2.3-7,7-7.1
		c3.9,0,6.8,1.9,9.2,4.8c2,2.3,4.3,3.2,6.8,1.1c3-2.5,1.8-5-0.1-7.7c-3.3-4.6-8.9-5.8-13.7-8.4c7.7-10.5,9.9-21.7,10-33.8
		c0.2-13.9-3.5-27.1-5.6-40.6c-2.9-19.3,1.7-36.2,15.2-50.5c10.8-11.5,24.1-18.6,39.1-22.9c24.6-7.1,49-3.7,73.5,0.8
		c27.6,5.1,53.4,17.1,81.3,20.9c5,0.7,4.6,4.7,5.4,8.1c6.4,28.1,12.7,56.2,19.2,84.4c5.4,23.5,10.8,46.9,16.2,70.4
		c0.2,1,2.1,2.1-0.1,2.8c-2,0.6-3.5,0.5-4.3-2.2c-5.9-19.9-21.4-24.7-39.6-24.3c-4.6,0.1-5.5-2.1-6.5-5.3
		c-2.8-8.3-7.6-15.1-15.3-19.6c-4-2.3-13.5-14.7-14.6-18.9c-0.9-3.9-2.8-7.3-5.4-10.2c-6.3-7-14.7-7.5-23.2-7.7
		c0-22.2-8-36.5-24.5-42.9c-12.3-4.8-23.9-3.4-33.5,5.9c-9.2,8.9-13.3,20.5-8.1,32.1c4.1,8.9,0.5,11.1-6.1,13.7
		c-2.6,1-4.8,3.3-7.9,3.1c-1-3.5-1.6-7.1-3-10.3c-4.1-9.4-11.4-15.1-21.7-15.9c-9.6-0.8-18.1,2.2-24,10.3c-2.2,3-5.3,6.9-1.9,10.5
		c4.2,4.5,6.9-0.5,9.6-2.7c6.5-5.4,13.4-8.7,21.4-4.1c7.6,4.4,8.6,11.8,6.9,19.7c-0.6,3-1.2,5.9,1.6,8c3.2,2.4,6.1,0.5,9-1.1
		c9.5-5.1,18.9-10.3,28.5-15c7.3-3.6,7.9-7,2.3-13.2c-9.5-10.6-5.4-25.6,7.9-30.9c13.3-5.4,29,4.1,31.3,19.1c1,6.6-0.1,13-1.8,19.3
		c-0.7,2.4-1.4,5.1,1.3,7.1c2.7,2,5.1,0.9,7.1-0.8c7.8-6.4,15.4-5.2,21.8,1.4c6.6,6.8,5.7,14.4,0.3,21.7c-4.2-2.7-8-5.1-11.9-7.5
		c-1.5-0.9-3.2-0.9-4.4,0.5c-1.3,1.4-0.9,3,0.4,4.3c6.8,7.4,10.3,16.5,13.3,25.8c0.9,2.7,3.2,4.3,6.1,3.7c3.2-0.6,3.9-3.2,3.8-6
		c0-2.3-0.1-4.7-0.8-6.8c-2.7-7.9,3.8-9.3,8.1-9.4c9.4-0.2,21,17.9,17.3,26.7c-1.9,4.6-3.5,8.6,0.2,12.6c4.1,4.6,8.2,1.3,12.4-0.4
		c13.1-5.5,22.7-1.8,28.8,11.9c-160.5,20.4-321,38.2-480.7,62c-0.7,0-1.5,0-2.3,0.1c0.3-0.6,0.6-1.2,0.9-1.8
		c-1.7-13.5-6.6-26.6-5.8-40.5c0.7-12.1,5.1-22.3,15.8-28.7c11.5-6.9,25.7,0.3,27.2,13.3c0.4,3.6-1.5,8.8,4.5,9
		c5.8,0.2,6.4-4.8,6.2-9.2c-0.3-10.7,5.3-17.1,14.9-20.4c9.5-3.3,17.2,0.2,23.4,7.6c2.6,3.1,4.8,6.8,9.5,3.5
		c4.5-3.2,1.8-6.6,0.1-10.2c-6.1-12.7-1.4-27,10.3-32.5c11.6-5.3,20.1,0,19.6,12.3c-0.1,1.6,0,3.3,0.1,4.9c0.3,3.7,0.7,7.7,5.5,7.8
		c5,0.1,6.3-3.5,6.3-8c0-8.3,2.3-15.9,6.4-23.2c2.2-3.9,10.6-6.7,6.3-11.1c-3.5-3.6-8.8,2.8-12.9,5.6c-2,1.4-3.2,3.9-6.1,0.5
		c-7.3-8.3-9.1-26.2-3.2-37.1c6-11.1,18.7-17.3,31.4-14.9c11.5,2.1,20.5,8.1,26.1,18.6c1.3,2.3,2.4,5.1,5.7,4
		c3.2-1.2,2.6-3.8,1.8-6.6c-1.6-5.3-0.9-10.5,3.2-14.5c7.2-7,15.1-6.6,23.1-1.4c1.9,1.2,3.7,3.5,5.9,1.2c2.5-2.7,0.2-4.8-1.7-6.6
		c-5.3-5-11.4-7.1-18.8-5.8c-9.5,1.7-14.9,8.3-19.1,16.1c-19.8-14.9-38-17.4-53.7-7.6c-16.1,10-21.8,28.8-16.5,53.9
		c-22.4,5-28.3,10.3-32.6,31.6c-1.1,5.5-3.8,2.9-6.1,2.5c-11.7-2-22.3,0.2-30.1,9.5c-3.5,4.2-5.2,2.3-8.3-0.1
		c-12.2-9.4-26.5-9.1-38.6,0.5c-10.3,8.2-15.3,19.2-16.7,32c-1.9,16.3,0.9,32,5.6,47.3c-12,2-23.2,3.9-34.4,5.9
		c-2.4,0.4-6.1,0.6-5.5,4.1c0.5,3.3,4,2.5,6.6,2.7c15.1,0.8,29.8-2.6,44.8-3.8c82.2-6.6,164-16.6,245.9-26c1.9-0.2,3.9-0.4,5.8-0.7
		c0.4,0,0.7-0.1,1.1-0.1c0.5,0,1-0.1,1.4-0.2c0,0,0,0,0.1,0c5-0.5,10-1.1,15-1.6c0,0,0-0.1,0-0.1c12.4-1.4,24.9-2.7,37.3-4.1
		c0,0,0-0.1,0-0.1c10-1.1,20-2.2,30.1-3.3c0-0.1,0-0.2,0-0.2c66.3-7.7,132.6-15.5,198.8-23.2c0.1,1.1,0.2,2.2,0.4,3.2
		c-56.8,6.5-113.6,13.1-170.3,19.6c0,0.1,0,0.2,0,0.3c-19.5,2.2-39.1,4.4-58.6,6.7c0,0,0,0,0,0c-0.7,0.1-1.4,0.2-2,0.2v0.1
		c-14.7,1.7-29.4,3.3-44,5c0,0,0.1,0.1,0.2,0.1c-101.2,12.4-202.9,23.3-306.7,38.1c9.9,4.5,17.4,3.8,24.8,3c9.1-1,18.1-2.1,27.2-3.1
		c72.3-7.4,144.6-14.5,216.9-22.2c101.1-10.8,202.2-22.1,303.2-33.1c2.2-0.3,4.8-1.9,6.5,0.1c9,10.5,21.8,16.1,32.6,25.8
		c-4.9,1.3-9,2.1-12.9,3.6c-8.5,3.2-15.4,2.3-21.6-5.1c-2.3-2.7-4.9-6.8-11.1-5.6c4.3,5.3,7.9,9.7,12.2,15.1
		c-10.7,2.4-20.5,4.6-30.2,7c-2.8,0.7-4-1-5.8-2.6c-3.6-3.2-6.3-11.3-11.3-7.8c-4.1,2.8,3.9,7.7,4.4,14.1
		c-13.5-2.1-26.3,13.2-42-2.1c8.3,10.2,1.5,10.1-4.1,11.3c-16.5,3.7-33.1,7.3-49.5,11.5c-27.4,7-55.6,11-82.7,19.6
		c-3.9,1.2-8.6,1.6-11.9,6.8c9.5,0.9,17.5-0.6,25.3-2.2c42.1-8.6,84.2-17.6,126.2-26.4c3.2-0.7,6.7-3,9.4,1.5
		c4,6.6,8.6,12.9,13.5,20.3c-133.6,27.3-266.8,51-398.2,83.1c17-0.7,33.8-2.9,50.3-6c113.4-21.1,226.6-42.8,339.5-66
		c16-3.3,16-3.2,24.3,13.5c-1.6,1.9-4,1.9-6.1,2.4c-148.9,31-298.1,60.6-446.3,94.7c-4,0.9-5.4,0.7-6.9-3.5
		c-14.3-40.5-28.8-80.9-43.3-121.3c-2.1-5.8-4.9-11.3-7.4-17c-0.9-2.1-2.1-4.6-5-3.3c-2.2,1-1.4,3.4-0.9,5.2
		c2.1,7.2,4,14.4,6.5,21.5c12.6,35.6,25.4,71,37.9,106.6c8.7,24.7,9.9,21.5,29.4,17.8c65.3-12.5,130.5-25,195.7-38
		c137.3-27.5,274.4-56.3,411.9-82.5c4.2-0.8,8.5-1.7,9.5-6.9c1-4.9-1.7-7.4-5.1-10.5c-16.5-15.1-35.9-25.9-54.1-38.4
		c-1.3-0.9-3.4-1.7-4.6-2.8c-1.7-0.7-3.2-1.8-4.7-2.8c-0.2-0.1-0.4-0.2-0.6-0.3c-0.2-0.1-0.3-0.3-0.5-0.4c-0.9-0.6-1.9-1.2-2.9-1.8
		c-0.1,0-0.2,0-0.3,0c-0.3-0.1-0.5-0.2-0.7-0.4c-0.1-0.1-0.3-0.2-0.3-0.3c0,0,0-0.1-0.1-0.1c-0.1-0.2-0.3-0.3-0.4-0.5
		c-0.7-0.3-1.4-0.8-1.9-1.4c-0.5-0.4-1.1-0.6-1.6-1c-0.3-0.2-0.6-0.5-0.8-0.8c0-0.1-0.1-0.1-0.1-0.2c-0.3-0.1-0.5-0.2-0.8-0.4
		c-0.8-0.4-1.5-1-2.2-1.5c-0.7-0.5-1.5-0.9-2.2-1.4c-0.7-0.5-1.5-0.9-2.3-1.3c0,0-0.3-0.1-0.4-0.2c-0.1,0-0.3-0.1-0.4-0.2
		c-0.4-0.1-0.8-0.3-1.2-0.4c-0.5-0.2-0.8-0.5-1.1-0.8c-2.6-0.3-2.5-4.4,0.3-4.4c0.8,0,1.4,0.4,1.7,0.9c0.1,0,0.2,0,0.3,0
		c3.3,1,6.3,3,9.1,5c0.2,0.1,0.3,0.3,0.5,0.4c0,0,0.3,0.1,0.4,0.2c0.1,0,0.4,0.2,0.4,0.2c0.3,0.1,0.5,0.2,0.7,0.3
		c0.7,0.3,1.4,0.7,2,1.3c0,0,0.1,0.1,0.1,0.1c0.4,0.3,0.9,0.6,1.3,1c0,0,0,0,0,0c0.4,0.1,0.8,0.3,1.1,0.5c0.1,0.1,0.2,0.2,0.3,0.3
		c0,0,0,0,0,0c0.2,0.1,0.4,0.3,0.5,0.4c0.4,0.3,0.9,0.5,1.3,0.8c0.9,0.5,1.7,1,2.5,1.5c0.2,0.1,0.4,0.3,0.6,0.5c0,0,0.1,0,0.1,0
		c0.8,0.4,1.6,0.8,2.5,1.2c0.7,0.4,1.4,0.9,2.1,1.3c1.5,0.4,3.1,1.9,4.4,2.7c50.5,29.1,100.9,58.3,151.3,87.5
		c6.5,3.8,12.8,7.8,17.7,13.7c7.4,9,7.1,17.8-1,26.2c-6,6.2-13.3,10.7-21.4,13.3c-48.5,15.9-97.1,31.8-145.8,47.4
		c-150.1,48.2-302.2,89.3-456.2,123.3c-20.4,4.5-40.4,10.4-61.7,8.2c-14.7-1.5-26.1-8.2-33.6-20.7c-8.7-14.5-17.4-29-24.9-44.1
		c-13.8-27.8-22.7-57.5-31.3-87.2c-10.1-34.7-19.5-69.6-33.3-103c-2.9-6.9-5.4-14-9.4-20.4c-1.2-1.9-2.1-4.7-4.9-3.6
		c-2.9,1.2-1.5,4-1.1,6c1.3,6.4,2.6,12.8,4.6,18.9c16.6,50.1,33.2,100.1,50.2,150c9.4,27.7,18.5,55.6,29.3,82.8
		c10.9,27.4,32.5,40.4,62.1,40.3c12.2-0.1,24-1.9,35.8-4.5c183.1-39.7,363.7-88.7,540.7-150.3c32.6-11.3,65-23.1,96.7-36.7
		c30.9-13.2,34.9-41.3,9.2-62.9c-8.5-7.2-18.1-12.7-27.8-18.1c-64.2-35.9-128.5-71.7-192.7-107.6c-6.1-3.4-15.3-4.9-10.6-15.9
		c0.7-1.7-0.9-4.4-1.4-6.6c-4.2-16.7-8.4-33.5-12.6-50.2c-8.9-36-17.7-72.1-26.9-108c-1.7-6.6-0.4-8.9,6.1-8.9
		c1.9,0,3.8-0.8,5.7-1.2c87.4-18,145.9-109.1,125.5-196.3c-1.6-7.1,0.5-9.5,6.2-12.2c38.7-18.6,77.3-37.6,115.9-56.4
		c1.6-0.8,3.2-2.4,5.4-0.7c1.2,9.1-2.1,17-6.8,24.7c-2.2,3.5-8.2,6.3-4.3,11.6c3.7,4.9,8.4,0.3,12.7,0.1c1.3-0.1,2.4-0.9,3.7-1.2
		c17.4-4.8,32.4-14.2,47.2-25.7c0,6.3,0.1,11.4,0,16.4c0,2.8,0.5,5.2,3.1,6.7c2.7,1.6,5,0.4,7-1.6c14.7-14.3,30.5-27.6,42.9-44.1
		C1057.1,280.2,1061.6,277.7,1058.2,274.5z M797.3,352.4c-12,10-25.2,17.1-39.7,17.7c-18.2-0.1-30.6-10.8-30-24.3
		c0.7-15.8,15.9-28.2,32.6-26.4c17.3,1.9,29,12.1,37.7,26.4C799.4,348.2,800.1,350.1,797.3,352.4z M704.8,808.1
		c10-2.3,17.3-1,23.5,7.4c3.4,4.6,8.1,8.2,13.1,13.2c-13.1,2.7-24.8,5-36.4,7.6c-5,1.2-6.2-2.5-8.3-5.1
		C682.1,812.9,682.2,813.4,704.8,808.1z M654.5,842c-4.2-6.4-8.7-12.6-13.8-19.8c10.5-2.3,19.9-4.4,29.2-6.5c2.8-0.6,4.9,0,6.7,2.4
		c5,6.7,10.2,13.2,15.9,20.5c-10.7,2.2-20.2,4.1-29.7,6.1C659.5,845.4,656.7,845.4,654.5,842z M679.4,870c-4.7,1.2-6.4-1.6-8.4-4.6
		c-2.3-3.5-4.7-6.9-7.7-11.5c11.5-2.3,22.1-5.4,32.8-6.1c8.9-0.6,9.1,10.1,17.1,14.7C700.1,865.4,689.7,867.4,679.4,870z
		 M724.1,860.1c-9.7,1.5-9.9-9.3-17-14.6c10.6-2,19.2-2.5,27.1-5.3c13.2-4.8,22.1-0.3,29.5,11.6
		C750.3,854.7,737.3,858.1,724.1,860.1z M819,840c-13.8,3-27,5.9-40.2,8.6c-6.5,1.3-6.7,0.9-18.9-13.6C780.2,834.5,800,819,819,840z
		 M788.3,819.1c-11.8,2.5-23.1,4.8-34.3,7.4c-2.7,0.6-4.3-0.4-6-2.1c-6.3-6.5-12.5-13-18.5-19.2
		C753.2,790.1,770.6,803.4,788.3,819.1z M702.1,718.3c1,4.5,2.4,8.6-4.4,8.6c-4.4,0-8.4,3.1-10.2-5.7
		c-8.6-42.7-18.6-85.2-28.2-127.7c-2.1-9.2-4-18.4-6.1-27.6c14.6-1.9,14.7-1.9,17.7,11.4C681.3,624.3,691.6,671.3,702.1,718.3z"/>
	<path class="st4" d="M1304.4,37.7c-11.8-2.9-23.8-4-35.8-4.4c-50.9-2-98.9,9.9-144.6,31.6c-7.9,3.7-14,2.5-19.9-3
		c-6.6-6.2-14.3-10.5-22.9-12.7c-44.2-11.3-83.9-0.9-119.5,26.2c-13.4,10.2-12.2,19.2,2.2,28.1c17.1,10.6,34.5,21,51.9,31.2
		c3.8,2.3,5.5,3.5,1.4,7.5c-5.9,5.5-7.5,13-6.4,20.7c1.9,13.5,4.3,27,6.6,40.5c0.6,3.5,1.5,7.8,6.3,7c4.4-0.7,4.7-4.9,4.6-8.6
		c0-2.6-0.4-5.2-0.9-7.8c-1.9-11.6-4-23.1-5.8-34.7c-0.8-5.5-1.3-11.3,6.1-14.7c3.4,15.1,7.1,29.2,9.7,43.6
		c2.3,12.8,8.1,22.6,18.6,30.4c11.9,8.9,23.1,18.8,34.8,28.4c-6.9,6-12,1.6-17-1.9c-11.1-7.9-22-16.3-33.2-24.1
		c-3.1-2.2-7.5-4.2-10.4,0.2c-2.6,3.9,0.7,6.7,3.7,8.8c10.5,7.7,21,15.4,31.6,23c6.3,4.5,13.6,7.5,21.2,4.9c7.7-2.7,7.6,1.4,7.9,6.7
		c1.4,19.8,2.6,39.7,4.7,59.4c1.7,15.7,8.5,19.4,23.4,13.8c3.1-1.1,6-2.5,8.8-4.1c27.1-15.9,48.2-37.6,61.1-66.5
		c7.6-17,11.4-34.4,5.9-53.2c-1.8-6.2-0.1-12.1,6-16.7c21-15.7,39.6-33.9,55.9-54.4c22.7-28.5,40.6-59.6,49.9-95.3
		C1312.3,41.2,1310.6,39.2,1304.4,37.7z M1032.4,120.2c-2.6,4-4.6,3.1-7.7,1.3c-17.3-9.8-34.6-19.4-52-29c-6.2-3.4-8.1-6.8-1.8-12.4
		c30.8-26.8,88.4-33.2,124.2-13.6c0.5,0.3,0.7,0.9,1.6,2.2C1070.6,80.7,1048.1,96.3,1032.4,120.2z M1056.9,198.6
		c24.3-16.7,48.5-33.5,72.9-50.1c5.2-3.6,13.8-10,16.8-5.2c3.7,5.9-6.5,8.4-11.3,11.4c-22.4,14.4-45,28.5-67.6,42.5
		C1064.5,199.3,1061,203.6,1056.9,198.6z M1164,294.2c-11.2,12.9-24,23.9-39.1,31.9c-8.6,4.5-11.3,3.1-11.8-6.4
		c-1.2-19.8-1.8-39.7-2.8-59.5c-0.2-3.5-0.1-5.8,4.7-6.4c26.7-2.9,49.6-14.7,70.6-30.9c1.2-0.9,2.5-1.7,4.9-3.4
		C1193,249.6,1182.2,273.3,1164,294.2z M1274.8,104.5c-27.3,47.1-66.1,82.6-112.7,110c-16.3,9.6-33.4,17.6-51.3,23.8
		c-2.5,0.9-5.1,3.2-7.9,0c-10.5-12.1-24.6-20.1-36.2-32c23.7-14.9,47.1-29.5,70.4-44.2c6-3.8,12.3-7.5,16.8-13.2
		c2.7-3.4,4.9-7.3,2.1-11.6c-2.6-3.9-6.8-4.9-11.3-4.1c-6.9,1.1-12.9,4.4-18.6,8.3c-21.7,14.9-43.6,29.7-65.2,44.9
		c-5,3.5-6.9,4.1-8.6-2.8c-3.7-15.2-5.6-30.8-11.3-45.5c-1.5-3.9,1.3-5.4,3.2-7.3c48.3-44.8,104.4-73.8,169.7-84.3
		c1.6-0.3,3.2-0.3,4.9-0.5c27-3.8,27-3.8,40.7,19.4l2.6,3.6c0.4,0.8,0.8,1.6,1.2,2.5c4.4,7.5,8.6,15.3,13.5,22.5
		C1279.9,98.7,1276.6,101.4,1274.8,104.5z M1297.2,52c-3.6,11.3-6.5,22.9-13,33.9c-9.6-13-17.3-26.3-24.1-41.1
		c12.4-1.4,23.6,1.1,34.9,3.3C1297.4,48.5,1297.9,49.5,1297.2,52z"/>
	<path class="st4" d="M273.4,1103.5c115.6-24.2,230.6-50.8,344.3-82.8c58.2-16.4,116-34.3,174-51.5c1.9-0.6,3.6-1.4,7-0.2
		C627.2,1031,451.4,1071.6,273.4,1103.5z"/>
	<path class="st4" d="M640.9,978.7c-14.1-13.3-27.3-25.7-40.4-38.2c-1.4-1.3-2.8-2.7-4.2-4.1c-2.6-2.6-3.9-5.4-0.8-8.5
		c3.5-3.5,7-2.7,10.2,0.7c7.8,8.3,15.4,16.8,23.3,25.1c7.8,8.2,14.1,17.8,23.7,24.4c5.1,3.5,3.5,9.4-3.2,11.4
		c-10,3-20.2,5.2-30.2,7.9c-30.4,8.4-61.2,15.6-90.9,25.9c-11.1,3.9-13-0.2-16.9-7.4c-9.3-17.1-19.2-34-28.5-51.1
		c-1.5-2.7-6.1-6.6-2.1-8.9c3.6-2,5,3.8,6.8,6.4c10.5,15.3,20.7,30.8,31,46.2c1.7,2.5,2.5,5.6,7.3,4.1
		c35.2-10.6,70.5-20.8,105.7-31.1C634.2,980.9,636.8,980,640.9,978.7z"/>
	<path class="st4" d="M362.6,532.6c-10.1-9.6-24.3-9.4-34.7,1.6c-3.9,4.1-5.3,2.9-8.9,0.2c-7-5.2-18.3-3.5-19.7,4.3
		c-2.3,12.1-10,20-15.9,29.4c-2,3.2-2.8,7.3-2.6,11.3c-0.3,21.2,22.4,33.5,42.4,22.9c3-1.5,5-4.3,9.3-1.4c7.2,5,14.9,3.9,21.7-1.5
		c6.9-5.5,8.6-13.1,6.4-21.1c-1.2-4.4-1.3-7.1,2.3-10.9C373.1,556.9,372.6,542.2,362.6,532.6z M350.6,564.5
		c-5.8,2.6-6.4,5.6-2.3,10.4c5.1,6,6.2,12.9-0.5,18c-5.6,4.3-12.3,6.3-17.4-1.8c-1.6-2.6-4.2-2.8-6.7-0.7c-1.5,1.3-3.1,2.5-4.7,3.4
		c-9.5,5.3-20.9,3.2-26.3-4.7c-5.6-8.2-3.2-20.5,6.2-26.6c5.7-3.7,9.8-6.1,5.9-14.1c-2.3-4.6,1.4-9.2,6.8-9.6
		c4.3-0.3,9.7,0.2,9.9,6.5c0.1,3.2-0.5,6,3.7,6.3c3.9,0.3,4.5-2.9,5.8-5.5c5.9-11.5,17.2-14.1,25.2-5.9c2.6,2.7,3.9,5.9,4.4,9.3
		C360.1,556.7,356.7,561.8,350.6,564.5z"/>
	<path class="st4" d="M835.6,497.8c-0.4,21.8-24.3,50.5-45.4,54.7c-2.9,0.6-5.4,0.5-6.6-2.4c-1.5-3.3-0.1-5.7,3.3-6.9
		c22.8-7.9,36.2-24.4,43.1-46.8c0.6-1.9,1.2-4.2,3.7-3.5C835.9,493.5,835.9,495.8,835.6,497.8z"/>
	<path class="st4" d="M200,585c-4,4.2-8.1,7.9-8.2,14c-0.1,5.3,1.7,9.5,7.1,11.5c4.9,1.9,9.1,0.8,12.3-3c3.6-4.3,3.3-8.9-0.4-13.2
		c-2.1-2.4-4.8-4.8-2.9-8.5c0.9-1.9,2.8-2.9,4.8-2.6c3.9,0.6,6.1,3.3,7.5,6.8c3.5,8.6,1.7,19-4.7,24.3c-6.7,5.6-14.2,6.1-21.8,2.1
		c-7.1-3.7-10.3-9.8-9.1-17.8C185.8,590,190.8,585,200,585z"/>
	<path class="st4" d="M470.1,513.3c-10.8-0.8-19,2.5-24.7,11.5c-2,3.2-4.6,7.6-9.2,4.1c-3.8-2.9-1.9-7.2,0-10.7
		c5.6-10.7,23.7-18.5,34.4-14.5c3.7,1.4,9.5,2.4,8.2,7.8C477.7,516.2,472.8,513.3,470.1,513.3z"/>
	<path class="st4" d="M854.4,541.6c-0.4,14.6-10.6,29.1-23.3,33.6c-3.6,1.3-7.8,2.4-9.6-1.4c-2.2-4.9,3-5.4,6-6.8
		c11.2-5.2,18-13.6,19.6-26c0.4-2.8,0-6.9,3.9-6.8C856,534.4,853.9,539,854.4,541.6z"/>
	<path class="st4" d="M444.2,481.3c1.9,0.5,4.1,1,6.2,1.7c1.9,0.6,3.7,1.8,3.5,4c-0.1,2.1-1.6,3.7-3.8,3.6
		c-5.8-0.3-8.6,3.4-11.4,7.5c-1.6,2.4-3.6,5.1-7,3.4c-3.7-1.9-4.5-5.4-3.2-9.1C431,485.2,436.4,481.8,444.2,481.3z"/>
	<path class="st4" d="M525.6,691.1c-0.3,4.1-12.3,14-16.3,13.4c-2.6-0.4-3.9-1.9-4-4.6c-0.2-4.7,11.7-15.3,16.2-14.4
		C524.6,686.2,525.8,688.2,525.6,691.1z"/>
	<path class="st4" d="M529.8,716.5c2.6-0.5,3.9,0.6,4.3,2.2c0.6,2.4-10.1,11.6-13.4,11.6c-2.1,0-4.6-1.2-3.9-3.2
		C518.8,720.7,525.1,719,529.8,716.5z"/>
	<path class="st4" d="M1261.4,73.3c-0.4-0.8-0.9-1.6-1.3-2.5c-0.9-1-1.8-2.1-2.7-3.1c-8.4-7.2-16.9-14.2-28.9-14.8
		c-26-1.3-56.2,20.6-62.7,45.8c-5.7,22.1,6.6,41.4,29.1,44.3c25.8,3.3,45.5-8.2,60.5-28.3C1264.9,102.2,1267.9,88.3,1261.4,73.3z
		 M1251,96.7c-2.6,20.4-24.6,37.8-45.2,37.6c-24.3-0.2-37.4-20.6-26.8-42.5c7.4-15.3,19.9-25,36.1-29.1
		C1239.9,56.5,1254.4,69.6,1251,96.7z"/>
</g>
</svg>
