<?xml version="1.0" encoding="utf-8"?>
<!-- Generator: Adobe Illustrator 25.0.0, SVG Export Plug-In . SVG Version: 6.00 Build 0)  -->
<svg version="1.1" id="Layer_1" xmlns="http://www.w3.org/2000/svg" xmlns:xlink="http://www.w3.org/1999/xlink" x="0px" y="0px"
	 viewBox="0 0 834 928" style="enable-background:new 0 0 834 928;" xml:space="preserve">
<style type="text/css">
	.st0{display:none;}
	.st1{display:inline;fill:#F9F4F2;}
	.st2{fill:#F9F4F2;}
</style>
<g class="st0">
	<path class="st1" d="M390.9,684.5H135.1c-6.1,0-11.4-2.4-14.7-6.8c-3.5-4.5-4.5-10.5-2.8-16.9c3.3-12.4,15.5-22,27.9-22h255.8
		c1,0,1.9,0.5,2.5,1.2c0.6,0.8,0.8,1.8,0.6,2.7L394,682.1C393.6,683.5,392.3,684.5,390.9,684.5z M145.5,645.1
		c-9.5,0-19.3,7.8-21.8,17.3c-1.2,4.4-0.6,8.5,1.7,11.4c2.1,2.8,5.6,4.3,9.7,4.3h253.3l8.7-33H145.5L145.5,645.1z"/>
	<path class="st1" d="M428.3,542.8H172.5c-6.1,0-11.4-2.4-14.7-6.8c-3.5-4.5-4.5-10.5-2.8-16.9c3.3-12.4,15.5-22,27.9-22h255.8
		c1,0,1.9,0.5,2.5,1.2c0.6,0.8,0.8,1.8,0.6,2.7l-10.4,39.4C431,541.8,429.7,542.8,428.3,542.8z M182.9,503.4
		c-9.5,0-19.3,7.8-21.8,17.3c-1.2,4.4-0.6,8.5,1.7,11.4c2.1,2.8,5.6,4.3,9.7,4.3h253.3l8.7-33H182.9L182.9,503.4z"/>
	<path class="st1" d="M353.5,826.1H97.8c-6.1,0-11.4-2.4-14.7-6.8c-3.4-4.5-4.5-10.6-2.8-16.9c3.3-12.4,15.5-22,27.9-22H364
		c1,0,1.9,0.5,2.5,1.2c0.6,0.8,0.8,1.8,0.6,2.7l-10.4,39.4C356.2,825.2,355,826.1,353.5,826.1z M108.1,786.8
		c-9.5,0-19.3,7.8-21.8,17.3c-1.2,4.4-0.6,8.5,1.7,11.4c2.1,2.8,5.6,4.3,9.7,4.3H351l8.7-33H108.1L108.1,786.8z"/>
	<path class="st1" d="M465.7,401.1H209.9c-6.1,0-11.4-2.4-14.7-6.8c-3.5-4.5-4.5-10.5-2.8-16.9c3.3-12.4,15.5-22,27.9-22H476
		c1,0,1.9,0.5,2.5,1.2c0.6,0.8,0.8,1.8,0.6,2.7l-10.4,39.4C468.3,400.2,467.1,401.1,465.7,401.1z M220.3,361.8
		c-9.5,0-19.3,7.8-21.8,17.3c-1.2,4.4-0.6,8.5,1.7,11.4c2.1,2.8,5.6,4.3,9.7,4.3h253.3l8.7-33H220.3z"/>
	<path class="st1" d="M503,259.5H247.2c-6.1,0-11.4-2.4-14.7-6.8c-3.5-4.5-4.5-10.5-2.8-16.9c3.3-12.4,15.5-22,27.9-22h255.8
		c1,0,1.9,0.5,2.5,1.2c0.6,0.8,0.8,1.8,0.6,2.7l-10.4,39.4C505.7,258.5,504.5,259.5,503,259.5z M257.6,220.1
		c-9.5,0-19.3,7.8-21.8,17.3c-1.2,4.4-0.6,8.5,1.7,11.4c2.1,2.8,5.6,4.3,9.7,4.3h253.3l8.7-33H257.6z"/>
	<path class="st1" d="M540.4,117.8H284.6c-6.1,0-11.4-2.4-14.7-6.8c-3.4-4.5-4.5-10.6-2.8-16.9c3.3-12.4,15.5-22,27.9-22h255.8
		c1,0,1.9,0.5,2.5,1.2c0.6,0.8,0.8,1.8,0.6,2.7l-10.4,39.4C543.1,116.8,541.8,117.8,540.4,117.8z M295,78.5
		c-9.5,0-19.3,7.8-21.8,17.3c-1.2,4.4-0.6,8.5,1.7,11.4c2.1,2.8,5.6,4.3,9.7,4.3H538l8.7-33H295L295,78.5z"/>
	<path class="st1" d="M277.1,10.5c14.1-1.6,28.6-2.9,43.3-4C138.5,19.9,3.2,69.9,3.2,129.6c0,47.6,86.1,89.1,213.3,110.7L277.1,10.5
		z"/>
	<path class="st1" d="M216.5,243.5c-0.2,0-0.4,0-0.5,0c-63.8-10.8-117.5-26.7-155.3-45.9c-19.3-9.8-34.2-20.4-44.4-31.4
		C5.5,154.4,0,142.1,0,129.6c0-30.4,32-58.8,92.4-81.9C150.1,25.6,231,9.9,320.2,3.4c1.7-0.1,3.3,1.2,3.4,2.9s-1.2,3.3-2.9,3.4
		c-13.4,1-27.2,2.2-41.1,3.7l-60.1,227.7C219.2,242.5,217.9,243.5,216.5,243.5z M272.9,14.2c-69.5,7.9-131.5,21.6-178.2,39.5
		c-57,21.8-88.4,48.8-88.4,76c0,21.7,19.8,43.3,57.2,62.3c36.6,18.6,88.7,34.1,150.6,44.8L272.9,14.2z"/>
	<path class="st1" d="M416.9,3.1c-33.1,0-65.3,1.2-96.1,3.4l-18.2,68.8h248.1l16.8-63.5c14.1,1.7,27.8,3.6,41.1,5.7l-61.3,232.2
		c164.5-16.7,283.2-64.2,283.2-120.1C830.6,59.7,645.4,3.1,416.9,3.1z"/>
	<path class="st1" d="M547.4,252.9c-0.9,0-1.8-0.4-2.4-1.1c-0.7-0.8-0.9-1.9-0.7-2.9l60.4-228.8c-11.5-1.8-23.1-3.4-34.8-4.9
		L553.8,76c-0.4,1.4-1.6,2.4-3.1,2.4H302.6c-1,0-1.9-0.5-2.5-1.2c-0.6-0.8-0.8-1.8-0.6-2.7l18.1-68.8c0.3-1.3,1.5-2.2,2.8-2.3
		C351.8,1.1,384.2,0,416.7,0c110.8,0,215,13.2,293.5,37.2c79.6,24.3,123.4,57.2,123.4,92.5c0,28.5-28.3,55.3-81.8,77.7
		c-51.5,21.5-122.1,37.2-204.2,45.6C547.6,252.9,547.5,252.9,547.4,252.9z M611,21l-59.4,225.1c79.5-8.4,147.9-23.8,197.9-44.6
		c51-21.3,78-46.1,78-71.8c0-16-10.5-31.7-31.2-46.7c-20.6-14.9-50.1-28.2-87.7-39.8C679.3,34.2,646.4,26.8,611,21z M306.8,72.1
		h241.6l15.2-57.7C517.4,9,467.9,6.2,416.9,6.2c-31.5,0-63,1.1-93.6,3.3L306.8,72.1z"/>
	<path class="st1" d="M265.3,217h248.1l27-102.4H292.3L265.3,217z"/>
	<path class="st1" d="M513.4,220.1H265.3c-1,0-1.9-0.5-2.5-1.2c-0.6-0.8-0.8-1.8-0.6-2.7l27-102.3c0.4-1.4,1.6-2.4,3.1-2.4h248.1
		c1,0,1.9,0.5,2.5,1.2c0.6,0.8,0.8,1.8,0.6,2.7l-27,102.3C516.1,219.1,514.8,220.1,513.4,220.1z M269.4,213.8H511l25.3-96H294.7
		L269.4,213.8z"/>
	<path class="st1" d="M78.6,927.8H36c-1,0-1.9-0.5-2.5-1.2c-0.6-0.8-0.8-1.8-0.6-2.7L274,9.7c0.3-1.3,1.4-2.2,2.7-2.3
		c14.8-1.6,29.6-3,43.8-4c1-0.1,2,0.3,2.7,1.1c0.7,0.8,0.9,1.8,0.6,2.8l-18.1,68.8c-0.4,1.4-1.6,2.4-3.1,2.4H295
		c-9.5,0-19.3,7.8-21.8,17.3c-1.2,4.4-0.6,8.5,1.7,11.4c2.1,2.8,5.6,4.3,9.7,4.3h7.7c1,0,1.9,0.5,2.5,1.2c0.6,0.8,0.8,1.8,0.6,2.7
		l-27,102.3c-0.4,1.4-1.6,2.4-3.1,2.4h-7.7c-9.5,0-19.3,7.8-21.8,17.3c-1.2,4.4-0.6,8.5,1.7,11.4c2.1,2.8,5.6,4.3,9.7,4.3h7.7
		c1,0,1.9,0.5,2.5,1.2c0.6,0.8,0.8,1.8,0.6,2.7l-27,102.3c-0.4,1.4-1.6,2.4-3.1,2.4h-7.7c-9.5,0-19.3,7.8-21.8,17.3
		c-1.2,4.4-0.6,8.5,1.7,11.4c2.1,2.8,5.6,4.3,9.7,4.3h7.7c1,0,1.9,0.5,2.5,1.2c0.6,0.8,0.8,1.8,0.6,2.7l-27,102.3
		c-0.4,1.4-1.6,2.4-3.1,2.4h-7.7c-9.5,0-19.3,7.8-21.8,17.3c-1.2,4.4-0.6,8.5,1.7,11.4c2.1,2.8,5.6,4.3,9.7,4.3h7.7
		c1,0,1.9,0.5,2.5,1.2c0.6,0.8,0.8,1.8,0.6,2.7l-27,102.3c-0.4,1.4-1.6,2.4-3.1,2.4h-7.7c-9.5,0-19.3,7.8-21.8,17.3
		c-1.2,4.4-0.6,8.5,1.7,11.4c2.1,2.8,5.6,4.3,9.7,4.3h7.7c1,0,1.9,0.5,2.5,1.2c0.6,0.8,0.8,1.8,0.6,2.7l-27,102.3
		c-0.4,1.4-1.6,2.4-3.1,2.4H108c-9.5,0-19.3,7.8-21.8,17.3c-1.2,4.4-0.6,8.5,1.7,11.4c2.1,2.8,5.6,4.3,9.7,4.3h7.7
		c1,0,1.9,0.5,2.5,1.2c0.6,0.8,0.8,1.8,0.6,2.7L81.6,925.1C81.3,926.8,80,927.8,78.6,927.8z M40.1,921.5h36.1l25.2-95.3h-3.5
		c-6.1,0-11.4-2.4-14.7-6.8c-3.4-4.5-4.5-10.6-2.8-16.9c3.3-12.4,15.5-22,27.9-22h5.2l25.3-96h-3.6c-6.1,0-11.4-2.4-14.7-6.8
		c-3.5-4.5-4.5-10.5-2.8-16.9c3.3-12.4,15.5-22,27.9-22h5.2l25.3-96h-3.5c-6.1,0-11.4-2.4-14.7-6.8c-3.5-4.5-4.5-10.5-2.8-16.9
		c3.3-12.4,15.5-22,27.9-22h5.2l25.3-96H210c-6.1,0-11.4-2.4-14.7-6.8c-3.5-4.5-4.5-10.5-2.8-16.9c3.3-12.4,15.5-22,27.9-22h5.2
		l25.3-96h-3.5c-6.1,0-11.4-2.4-14.7-6.8c-3.5-4.5-4.5-10.5-2.8-16.9c3.3-12.4,15.5-22,27.9-22h5.2l25.3-96h-3.6
		c-6.1,0-11.4-2.4-14.7-6.8c-3.4-4.5-4.5-10.6-2.8-16.9c3.3-12.4,15.5-22,27.9-22h5.2l16.4-62.1c-12.1,0.9-24.5,2.1-37,3.4
		L40.1,921.5z"/>
	<path class="st1" d="M369.3,927.8h-42.6c-1,0-1.9-0.5-2.5-1.2c-0.6-0.8-0.8-1.8-0.6-2.7L564.4,11.1c0.4-1.5,1.9-2.5,3.4-2.3
		c13.8,1.7,27.7,3.6,41.2,5.8c0.9,0.1,1.7,0.6,2.1,1.4c0.5,0.7,0.6,1.7,0.4,2.5L372.2,925.6C372,926.8,370.8,927.8,369.3,927.8z
		 M330.8,921.5h36.1L604.7,20.1c-11.5-1.8-23.1-3.4-34.8-4.9L330.8,921.5z"/>
</g>
<g>
	<path class="st2" d="M456.6,579.5c-3.9,0-7.8-0.1-11.6,0c-24.3,0.9-48.6,1.1-72.8,2.9c-17,1.3-33.8,4.6-50.7,7.3
		c-10.8,2.1-13.7,11.9-10.1,16.9c3.6,7.6,11.3,13.9,19,20.1c32.2,26.2,61.8,55.2,90.1,85.4c18.9,20.1,38.2,40,53.8,62.9
		c5.1,7.4,10.4,14.7,14.9,22.4c2.8,4.7,7,5.8,11.3,6c11,0.5,22,0,33,0.3c18,0.6,36,0.6,53.7-3.6c4.5-1.1,9.3-3,12.8-5.9
		c12.4-10.4,24.3-21.4,36.3-32.2c19.2-17.2,38.5-34.3,57.5-51.8c20.3-18.8,39.8-38.3,60.2-56.9c18.9-17.1,38.5-33.4,57.9-50
		c1.8-1.5,4.2-2.2,6.2-3.5c5.3-3.2,5.5-10,0.1-13.1c-2.8-1.6-6.2-2.5-9.4-2.7c-12.2-0.9-24.5-1.3-36.8-2.1
		c-12-0.8-23.9-1.8-35.8-3.1c-27-3-54-1.5-81-1.4c-6.5,0-13.1,0-20.1,0c-0.4-2.6-0.8-4.3-0.8-6c0.9-24.9,2.1-49.7,2.7-74.6
		c0.5-19.2,0.5-38.4,0-57.6c-0.3-15.6-1.9-31.1-2.4-46.7c-1.5-45.1-12-88-34.6-127.2c-20.3-35.1-45.7-66.1-79.5-89.5
		c-27.4-18.9-58.2-29.4-90.3-36.6c-29-6.5-58.3-7-87.7-4.3c-24.2,2.3-48.4,4.9-72.3,8.7c-32.1,5.2-63,15.1-93.2,26.9
		c-17.6,6.9-34.7,14.8-51.7,23.1c-26.4,12.9-52.4,26.6-78.8,39.7c-5.6,2.8-33.3,13.6-33.7,22.5c-0.4,10.2-0.2,15.6,0.4,25.7
		c1.7,27,4,53.9,5.7,80.8c1.2,18.3,1.9,36.6,2.6,54.9c1.2,29.7,2.2,59.4,3.2,89c0.4,12.4,11.3,18.5,22,12.1
		c17-10.1,34-20.2,50.9-30.6c37.6-23.1,77.6-40.5,119.8-53.1c22.1-6.6,44.2-13.3,66.7-18.4c27.9-6.3,56.4-8.5,84.9-6.7
		c19.1,1.2,37.3,5.6,52.9,17.9c13.9,11,24.3,24.2,26.4,42.3c2.8,24.7,5.4,49.5,7.7,74.3c0.9,9.8,0.8,19.8,1.1,29.7
		C457.4,575.3,457,576.8,456.6,579.5z M715.5,603.8c0.5,0.8,0.9,1.5,1.4,2.3c-77.1,50.3-144.2,113-213.8,173.4
		c-5.2-7.3-9.8-13.9-14.6-20.4c-4.6-6.3-9.4-12.5-14.3-18.5c-5.1-6.3-10.4-12.4-15.9-18.4c-5.4-6-11.1-11.8-16.6-17.7
		c-5.3-5.7-10.4-11.6-15.8-17.3c-5.6-5.9-11.3-11.6-17.1-17.3c-5.8-5.7-11.7-11.2-17.6-16.8c-5.9-5.6-11.8-11.2-17.8-16.6
		c-5.8-5.2-11.7-10.3-17.7-15.3c-6-5-13.5-8.2-19.9-14.7c7.6-1.2,13.5-2.5,19.4-2.9c24.8-1.7,49.7-3.2,74.5-4.4
		c13.2-0.7,26.4-0.4,39.6-1c8.7-0.4,11.3-3.7,11.5-12.5c0.6-22.5-0.8-45-3.5-67.3c-2-17-3.6-34-6.8-50.8
		c-4.7-25.4-18.7-45.1-40.3-59.4c-18.9-12.6-40.2-17-62.3-18.2c-26.8-1.5-53.3,1.4-79.7,5.8c-26.7,4.4-52.4,12.4-78.1,20.8
		c-30.8,10.1-61.5,20.3-90,36.1c-21.5,11.9-42.9,24.1-64.4,36.1c-1.9,1.1-4,2-5.6,2.8c-4.4-77.5-8.9-154.3-13.3-231.2
		c4.9-1.3,9.4-2.1,13.6-3.7c29.2-11,58.6-21.3,87.3-33.5c41.8-17.9,85.5-27.9,130.3-33c29.4-3.3,59.2-3.8,89-1.2
		c28.3,2.5,55.4,9.2,81.4,20.9c21.6,9.7,40.9,22.6,58.1,38.8c24.9,23.5,39,53.2,47,85.6c11.7,47.6,19,96,17.6,145.2
		c-0.6,22.5-3.3,44.9-5.1,67.3c-0.8,9.6-1.2,19.2-2.7,28.7c-1.4,8.8,1.9,15.6,10.6,18.1c4.6,1.3,9.3,2.5,14.1,2.8
		c28.4,2,56.8,3.9,85.3,5.5C680.7,602.7,698.1,603.2,715.5,603.8z M217.9,177.9c0-0.2-0.1-0.5-0.1-0.7c4-1.3,7.9-2.8,11.9-4
		c29.4-8.8,59.6-13.4,90-16.6c28.7-3,57.4-4.7,86.2-1.4c25.5,3,50,10.1,73.3,20.8c35.8,16.4,63.3,42.7,86.6,74.1
		c25.9,35,39.9,74.2,44,117.2c1.2,12.5,1.8,25.1,2.4,37.7c0.9,17.4,2.4,34.8,2.1,52.1c-0.7,37.2-2.3,74.4-3.6,111.5
		c-0.1,2.5-1,5-1.2,6.2c-10.8,0-20.3,0-30.9,0c1-12.7,1.9-24.3,2.8-35.8c1.5-18.2,3.5-36.5,4.3-54.7c1.2-28.3-1.9-56.4-5.8-84.3
		c-2.9-21.1-6.9-42.1-11.9-62.7c-8.3-33.9-22.6-65.1-45.6-91.8c-27.9-32.5-63.7-52.5-103.9-65c-20.6-6.4-41.9-10.1-63.5-11.6
		c-30.7-2.2-61.2-1.1-91.7,2C247.9,172.4,232.9,175.5,217.9,177.9z M790.5,599.7c-1.7,1.4-2.6,2.1-3.5,2.7
		c-25.4,16.6-49.1,35.5-71.5,56c-22.5,20.7-44.1,42.4-66.4,63.4c-10.7,10.1-22,19.5-32.9,29.3c-9.6,8.6-19,17.4-28.5,26.2
		c-3.2,2.9-6.6,4.9-11.2,5c-11.4,0.4-22.7,1.2-34.1,1.7c-3.1,0.1-6.3-0.3-10.8-0.6c2-2.1,2.8-3.2,3.9-4.1
		c26.7-22.8,53.5-45.4,79.9-68.5c26-22.8,53.6-43.4,81.9-63.2c17.5-12.2,35.8-23.4,51.6-37.5c12.1-10.8,24.4-13.7,39.2-11.2
		C788.6,598.9,788.9,599.1,790.5,599.7z"/>
	<path class="st2" d="M236.3,224.4c-5.9-1.2-9.6,0.9-12.8,3.5c-4.9,4-9.8,8-14.2,12.4c-25.5,25.4-49.6,52.1-72,80.4
		c-16.5,21-33.2,41.8-49.8,62.7c-1.3,1.6-2.7,3.2-3.8,5c-2,3.1-3.6,6.2-0.4,9.7c3.2,3.6,7,5.3,11.1,2.8c4.2-2.6,8.1-6.2,11.3-10
		c6-7.1,11.2-14.8,17-22.1c23.3-29,46.6-58,70.2-86.7c10.7-13,22.1-25.3,33-38c3.1-3.6,6.1-7.5,8.5-11.6
		C235.7,230.3,235.6,227.3,236.3,224.4z"/>
	<path class="st2" d="M159.1,238.2c-8.3-0.2-13.6,4.6-18.2,10.3c-9.1,11.2-18.1,22.3-26.9,33.8c-14.8,19.3-29.3,38.7-44,58.1
		c-2.2,3-4.6,5.6-2.4,9.6c2.8,5.2,7.8,6.8,12.8,3.3c3.1-2.2,5.8-5.2,8.2-8.3c13.7-18.2,27.3-36.5,40.9-54.7
		c9.9-13.2,19.7-26.5,29.7-39.6C162.3,246.5,163.7,242.8,159.1,238.2z"/>
	<path class="st2" d="M227.5,288.6c-5.4-0.9-8.2,2.2-10.8,4.9c-11.5,11.8-22.9,23.7-34.2,35.7c-19.3,20.5-38.1,41.5-55,64
		c-0.5,0.7-1.2,1.3-1.8,2c-3.8,5-4,6.7-0.7,10.1c2.9,3.1,7.5,3.6,11.3,0.8c2.4-1.7,4.4-4.1,6.3-6.4c10.9-13.5,21.6-27.2,32.6-40.6
		c15.3-18.4,30.9-36.6,46.3-55C225,300,228.9,295.5,227.5,288.6z"/>
</g>
</svg>
