<?xml version="1.0" encoding="utf-8"?>
<!-- Generator: Adobe Illustrator 25.0.0, SVG Export Plug-In . SVG Version: 6.00 Build 0)  -->
<svg version="1.1" xmlns="http://www.w3.org/2000/svg" xmlns:xlink="http://www.w3.org/1999/xlink" x="0px" y="0px"
	 viewBox="0 0 750 500" style="enable-background:new 0 0 750 500;" xml:space="preserve">
<style type="text/css">
	.st0{fill:url(#SVGID_1_);}
	.st1{clip-path:url(#SVGID_3_);}
	.st2{fill:#FFFFFF;}
	.st3{fill:#8BC8DB;}
	.st4{fill:#00A9E8;}
	.st5{opacity:0.43;fill:#00F8FF;}
	.st6{opacity:0.5;fill:#FFF6E7;}
	.st7{fill:#FFF6E7;}
	.st8{fill:#FFD391;}
	.st9{fill:#E7BB80;}
</style>
<g id="BACKGROUND">
	<linearGradient id="SVGID_1_" gradientUnits="userSpaceOnUse" x1="375" y1="-9.808" x2="375" y2="348.901">
		<stop  offset="0" style="stop-color:#A7F2FF"/>
		<stop  offset="1" style="stop-color:#FFFFFF"/>
	</linearGradient>
	<rect class="st0" width="750" height="500"/>
</g>
<g id="OBJECTS">
	<g>
		<defs>
			<rect id="SVGID_2_" transform="matrix(-1 -1.224647e-16 1.224647e-16 -1 750 500)" width="750" height="500"/>
		</defs>
		<clipPath id="SVGID_3_">
			<use xlink:href="#SVGID_2_"  style="overflow:visible;"/>
		</clipPath>
		<g class="st1">
			<path class="st2" d="M0,46.9c4.9-1.7,10.1-2.6,15.6-2.6c26.6,0,48.1,21.6,48.1,48.1c0,3.2-0.3,6.3-0.9,9.3
				c2.8-0.9,5.8-1.3,8.9-1.3c16.9,0,30.7,13.7,30.7,30.7c0,2.3-0.3,4.6-0.8,6.8c5.1-2,10.6-3.2,16.4-3.2c24.3,0,44.1,19.7,44.1,44.1
				c0,4.3-0.6,8.4-1.8,12.3c3.3-1.2,6.9-1.9,10.7-1.9c16.9,0,30.7,13.7,30.7,30.7c0,16.9-13.7,30.7-30.7,30.7
				c-7.5,0-14.3-2.7-19.7-7.1L0,241V46.9z"/>
			<path class="st2" d="M750,45.4c-4.9-1.7-10.1-2.6-15.6-2.6c-26.6,0-48.1,21.6-48.1,48.1c0,3.2,0.3,6.3,0.9,9.3
				c-2.8-0.9-5.8-1.3-8.9-1.3c-16.9,0-30.7,13.7-30.7,30.7c0,2.3,0.3,4.6,0.8,6.8c-5.1-2-10.6-3.2-16.4-3.2
				c-24.3,0-44.1,19.7-44.1,44.1c0,4.3,0.6,8.4,1.8,12.3c-3.3-1.2-6.9-1.9-10.7-1.9c-16.9,0-30.7,13.7-30.7,30.7
				c0,16.9,13.7,30.7,30.7,30.7c7.5,0,14.3-2.7,19.7-7.1l151.4-2.5V45.4z"/>
			<g>
				<path class="st3" d="M0,196.7v38.7c39.3,0,199.8-6.3,234.5-6.3c-10.8-5.3-42-11.7-63.3-17c-11.1-2.8-22.7-10.8-22.7-10.8
					S26,194,0,196.7z"/>
				<g>
					<path class="st3" d="M65.5,197.7c0,0,4.1-37.6,18-58.5c0.8-1.2,2.2-0.6,1.5,0.8c-9,18.4-9.5,40-7.6,59.3
						C73.7,203.2,65.5,197.7,65.5,197.7z"/>
					<path class="st3" d="M86,137.5c-5.2-4.6-21.1-15.1-29.2-13.3c-9.3,2-11.9,9-11.9,9s15.3,2.4,16.4,2.6c0.4-1.6,2.3-4.9,2.3-4.9
						l-0.9,6.4l3.3,0.2l1.7-3.4l-0.1,2.3l1.6-2.7l0.1,1.8l15.4,3.3L86,137.5z"/>
					<path class="st3" d="M84.5,138.1c-4.5-1.3-23.1,3.6-29.6,8.2c-6.5,4.6-6.5,10.7-6.5,10.7s10.5-3,12-3.8
						c-0.5-1.9-1.1-4.4-1.1-4.4l2.6,3.3l-0.2-1.9l0.9,1.2l7.2-4.2l-1.3-1.4l2,1l14.3-8.1L84.5,138.1z"/>
					<path class="st3" d="M84.6,136.3c0,0-3.4-13.9,2.6-23.7c1.7-2.8,3.7-3.9,3.7-3.9l0.6,13.2l-2.2,1.8l1.9,0.2l-1.5,0.8l1.5,0.6
						c0,0-4.6,10.8-6,12.5C84.5,137.6,84.6,136.3,84.6,136.3z"/>
					<path class="st3" d="M84.5,138.1c0,0,13.5-9.7,22.3-11.5c8.8-1.8,10.6,5,10.6,5l-12.6,3.4l-2.3-2.3l0.6,3l-6.5,2.6l-0.9-2.3
						l0.1,2.6l-11,0.2L84.5,138.1z"/>
					<path class="st3" d="M83.5,138.3c0,0,21.4,7,24.4,8.6c3,1.6,3.7,4.4,3.7,4.4s-6.2-0.4-7.5-1c0.1-0.9,0.1-2.7,0.1-2.7l-1,2.8
						l-0.6-0.4l0.2-1.5l-1.1,1.5l-4.9-1.4l-0.4-2.3l-0.9,2.1l-0.1-1.5l-0.9,1.1l-7.4-5.9l-0.1-1.1l-1,0.7L83.5,138.3z"/>
				</g>
				<g>
					<path class="st3" d="M144.3,208.3c0,0,2.2-21.3-3-34.6c-0.3-0.7-1.1-0.6-0.9,0.3c2.8,11.3,0.4,23.3-2.9,33.7
						C139,210.4,144.3,208.3,144.3,208.3z"/>
					<path class="st3" d="M140.6,172.6c0,0-8.1-7.6-15.5-7.3c-7.3,0.4-11.7,3.3-11.7,3.3s10.4,2.3,12.5,2.5c1.5-0.5,2-2.1,2-2.1
						l-0.6,3l1.1,0.5l0.8-1.8l-0.1,1.9l11.2,1.3L140.6,172.6z"/>
					<path class="st3" d="M141.1,174.1c0,0,10.1-4.7,11.8-5.6c-0.1-0.8-0.7-3-0.7-3l1.3,2.7l2.5-1.2l-0.6-1.4l0.8,0.8l-0.7-2
						l1.7,2.2l9.9-5.2c0,0,0-5.1-9.1-1.6c-9.1,3.5-17.7,14.1-17.7,14.1L141.1,174.1z"/>
					<path class="st3" d="M140.7,173.6l-6.4-11.1l0.4-0.7l-0.8,0.3l-0.3-0.5l1.7-1.1l-2.1,0.6l-0.2-0.5l1.1-0.6l-1.3-0.1l-3.6-6.7
						c0,0,2.3,0,5.2,3.4c2.9,3.4,4.6,7.1,4.6,7.1l-0.3,1.6l0.9-0.6C139.6,164.7,141.2,171.7,140.7,173.6z"/>
					<path class="st3" d="M140.6,174.6c0,0,4.4-7.3,7.4-12.4c-0.1-1-1.6-3.4-1.6-3.4l2.9,2.1l0.6-0.7l-1.5-1.6l2.3,1.2l1.3-2.1
						l-1.3-1.4l0.8,0.1l-0.3-0.6l1.3,0.3l6.4-8.3c0,0-3.7-4.1-9.2-0.3C144.2,151.3,141.3,166.2,140.6,174.6z"/>
					<path class="st3" d="M141.1,174.1l7.7,5.8l1.1-0.9l-0.4,1.1l0.9-1.1l-0.5,1.5l4.8,2.8c0,0,1.9-3.7-2.4-5.8
						c-4.4-2.1-11-3.8-11-3.8L141.1,174.1z"/>
					<path class="st3" d="M141.3,174.2l-7.6,4.8l-1.3-1.5l0.5,1.6l-0.5-0.4l0.4,0.9l-4.4,3.3l-1-0.9l0.5,1.4l-2,1.1
						c0,0-1.9-3.6,0.7-5.3c2.6-1.7,9.8-4.5,9.8-4.5l4.9-1.1L141.3,174.2z"/>
					<path class="st3" d="M140.7,173.6c5.4-3.6,20.5-4.5,24.6,1.3c-10.1,1.7-24.6-0.3-24.6-0.3L140.7,173.6z"/>
				</g>
				<polygon class="st3" points="23.2,197.4 58.2,188.3 82,193.4 84.4,198.6 				"/>
			</g>
			<g>
				<path class="st3" d="M750,200.1v27.2c-48.5,0-233.9,0-276.9,0C591.9,194.2,711.3,197.8,750,200.1z"/>
				<g>
					<path class="st3" d="M683.6,209.1c0,0,1.2-29-6.9-46.5c-0.4-1-1.6-0.7-1.2,0.4c4.7,15,2.6,31.5-1,45.9
						C676.7,212.3,683.6,209.1,683.6,209.1z"/>
					<path class="st3" d="M675.6,161.1c0,0-11.7-9.6-21.6-8.5c-9.9,1.1-15.5,5.5-15.5,5.5s14.3,2.3,17.1,2.3
						c1.9-0.8,2.6-3.1,2.6-3.1l-0.6,4.2l1.6,0.6l0.9-2.5l0.1,2.6l15.3,0.9L675.6,161.1z"/>
					<path class="st3" d="M676.4,163.1c0,0,13.3-7.2,15.4-8.6c-0.2-1-1.2-4-1.2-4l2,3.5l3.3-1.8l-1-1.8l1.2,1l-1.1-2.7l2.4,2.8
						l12.9-7.9c0,0-0.4-6.8-12.5-1.3c-12.1,5.5-22.7,20.6-22.7,20.6L676.4,163.1z"/>
					<path class="st3" d="M675.8,162.5l-9.6-14.4l0.5-0.9l-1.1,0.5l-0.4-0.7l2.2-1.6l-2.8,1l-0.3-0.7l1.4-0.9l-1.8,0l-5.4-8.7
						c0,0,3.2-0.2,7.3,4.1c4.1,4.3,6.8,9.2,6.8,9.2l-0.3,2.1l1.2-0.9C673.6,150.5,676.3,159.8,675.8,162.5z"/>
					<path class="st3" d="M675.8,163.7c0,0,5.3-10.3,9-17.4c-0.2-1.4-2.5-4.4-2.5-4.4l4.1,2.6l0.8-1l-2.1-2l3.2,1.4l1.5-2.9
						l-1.8-1.8l1,0l-0.5-0.8l1.8,0.4l8-11.8c0,0-5.4-5.2-12.5,0.4C678.6,132,676,152.3,675.8,163.7z"/>
					<path class="st3" d="M676.4,163.1l10.9,7.2l1.4-1.3l-0.4,1.5l1.1-1.5l-0.6,2.1l6.8,3.4c0,0,2.3-5.1-3.8-7.6
						c-6.1-2.5-15.2-4.3-15.2-4.3L676.4,163.1z"/>
					<path class="st3" d="M676.7,163.2l-9.8,7.2l-1.9-1.9l0.8,2.1l-0.8-0.5l0.6,1.2l-5.7,4.8l-1.4-1.1l0.8,1.8l-2.6,1.7
						c0,0-2.8-4.7,0.5-7.3c3.4-2.6,12.9-7,12.9-7l6.6-1.9L676.7,163.2z"/>
					<path class="st3" d="M675.8,162.5c6.9-5.3,27.4-7.9,33.3-0.4c-13.5,3.2-33.3,1.7-33.3,1.7L675.8,162.5z"/>
				</g>
				<g>
					<path class="st3" d="M589.8,209.3c0,0,0.8-19-4.5-30.4c-0.3-0.6-1-0.5-0.8,0.3c3.1,9.8,1.7,20.6-0.7,30
						C585.2,211.4,589.8,209.3,589.8,209.3z"/>
					<path class="st3" d="M584.4,179.1c-0.5-3.4,0-14.7,7.8-18.8c7.8-4.1,9.1-3.2,9.1-3.2s-6.6,9-8,10.8c-2.3,0.6-3.4,0-3.4,0l2.3,2
						l-1.5-0.1l0.8,1l-1.2-0.4l-5.2,9.1L584.4,179.1z"/>
					<path class="st3" d="M584.7,178.9c0,0,8.8-6.8,17-8.3c8.1-1.5,13.2-1.9,13.2-1.9s-9.2,6.1-13.3,7.5c-1.3-0.2-2.7-1.8-2.7-1.8
						l0.2,3l-1.4-0.8l-0.2,1c0,0-12.1,2.3-12.8,2.1S584.7,178.9,584.7,178.9z"/>
					<path class="st3" d="M584.8,179.9c-5.3-0.9-13.2-11.5-15.3-15c-2.1-3.5-0.9-8-0.9-8l7.6,11l-0.4,1.4l0.9-0.8l-0.1,1.8l0.9-0.9
						C577.5,169.4,583.7,176.7,584.8,179.9z"/>
					<path class="st3" d="M585,179.4c-1.3-1.4-7.2-17-7.7-21.4s0.4-7,3.5-8.5C581.5,155.6,585,179.4,585,179.4z"/>
					<path class="st3" d="M585,179.4c0,0-13.9-3.8-20.1-3.4c-6.2,0.4-8.6,3.8-8.6,5.8c2.4-0.5,7.9,0,7.9,0l1.5-2.5l-0.2,2.5l1.1,0
						l0.1-1.2l0.4,1.3l2.7-0.2l0.5-2.1l0.4,1.6l0.4-0.8l0.3,0.8l14-1.2L585,179.4z"/>
					<path class="st3" d="M585.2,179.5c0,0-10.1,11.7-12.1,13.7c-0.8-1.2-1.7-2.6,2.1-6.1C579.1,183.6,585.2,179.5,585.2,179.5z"/>
					<path class="st3" d="M585.2,178.8c6.9-1.4,17.4,1.4,18.3,6.1c0.6,1.7,0,2.8,0,2.8s-16.5-6.9-18.4-8.3
						C583.3,178.1,585.2,178.8,585.2,178.8z"/>
				</g>
				<g>
					<path class="st3" d="M632.3,202.2c0,0,0.4-9.1-2.2-14.6c-0.1-0.3-0.5-0.2-0.4,0.1c1.5,4.7,0.8,9.9-0.3,14.4
						C630.2,203.3,632.3,202.2,632.3,202.2z"/>
					<path class="st3" d="M629.8,187.7c-0.3-1.6,0-7.1,3.7-9.1c3.7-2,4.4-1.6,4.4-1.6s-3.2,4.3-3.9,5.2c-1.1,0.3-1.6,0-1.6,0l1.1,1
						l-0.7-0.1l0.4,0.5l-0.6-0.2l-2.5,4.4L629.8,187.7z"/>
					<path class="st3" d="M629.9,187.6c0,0,4.2-3.3,8.2-4c3.9-0.7,6.4-0.9,6.4-0.9s-4.4,2.9-6.4,3.6c-0.6-0.1-1.3-0.9-1.3-0.9
						l0.1,1.4l-0.7-0.4l-0.1,0.5c0,0-5.8,1.1-6.1,1C629.6,187.9,629.9,187.6,629.9,187.6z"/>
					<path class="st3" d="M629.9,188.1c-2.6-0.4-6.4-5.5-7.4-7.2c-1-1.7-0.4-3.8-0.4-3.8l3.7,5.3l-0.2,0.7l0.4-0.4l-0.1,0.8l0.5-0.5
						C626.4,183.1,629.4,186.6,629.9,188.1z"/>
					<path class="st3" d="M630.1,187.8c-0.6-0.7-3.5-8.2-3.7-10.3c-0.3-2.1,0.2-3.4,1.7-4.1C628.4,176.4,630.1,187.8,630.1,187.8z"
						/>
					<path class="st3" d="M630.1,187.8c0,0-6.7-1.8-9.7-1.6c-3,0.2-4.1,1.8-4.1,2.8c1.2-0.2,3.8,0,3.8,0l0.7-1.2l-0.1,1.2l0.5,0
						l0-0.6l0.2,0.6l1.3-0.1l0.2-1l0.2,0.8l0.2-0.4l0.2,0.4l6.7-0.6L630.1,187.8z"/>
					<path class="st3" d="M630.1,187.9c0,0-4.9,5.6-5.8,6.6c-0.4-0.6-0.8-1.3,1-2.9C627.2,189.9,630.1,187.9,630.1,187.9z"/>
					<path class="st3" d="M630.2,187.6c3.3-0.7,8.4,0.7,8.8,2.9c0.3,0.8,0,1.4,0,1.4s-7.9-3.3-8.8-4S630.2,187.6,630.2,187.6z"/>
				</g>
				<path class="st3" d="M522.9,217.2c0,0,48.8-11.7,57.4-14.4c8.6-2.8,13.8-2.4,13.8-2.4l0.3,5.5l31-2.8l1.4-4.1l45.1,8.3l32.7-21
					L750,189v33.4L522.9,217.2z"/>
			</g>
			<g>
				<rect y="227.5" class="st4" width="750" height="194"/>
				<path class="st5" d="M744.1,250.2c-0.7-0.2-0.9-0.6,0.3-1.6c1.9-1.6,3.6-1.9,4-2.5c0.8-1.2-4.3-1.7-19.6-5.4
					c-7.8-1.9-8.7-2.3-12.6-2.6c-5.2-0.5-9.1-0.4-12.6-1.2c-2.6-0.7-3.2-1.5-3.7-2.1c-0.8-1.1,0.6-1.1,1.2-3.6
					c0.2-0.8,0.2-1.1,1.2-1.6c1.3-0.6,3.2-0.8,5.5-1.2c1.2-0.2,2.3-0.5,3.6-0.8h-4.3c-1.5,0.4-3,0.7-4.5,0.6c-1.2,0-2.1-0.3-3-0.6
					h-6.5c0.1,0.1,0.3,0.1,0.4,0.2c5.1,2.5,3,5,2.5,5.6c-2.1,2.3-7.6,3.7-10.2,4.4c-8.4,2.2-13.6,1.7-20,3.8
					c-5.2,1.7-3.7,2.7-8.2,3.2c-7,0.9-17.1-0.6-21.2-1.2c-2-0.3-6.6-1.3-15.9-3.3c-9.8-2.1-3.4-0.8-9.4-2.2c-6.7-1.5-9.7-2-9.4-2.7
					c0.2-0.4,1.4-0.5,4.1-1.4c2.2-0.7,5-1.6,5.3-2.5c0.4-1.2-3.9-1.6-6.9-3.3c-0.3-0.2-0.6-0.4-0.9-0.6h-6.4
					c0.3,0.6,0.9,1.2,2.2,1.8c2.2,1,4.8,1.4,4.9,2.3c0.1,1-3,1.8-4.9,2.3c-7.8,2.2-3.7,3.2-11.5,6.6c-2.5,1.1-10.6,4.6-23.9,5.4
					c-2.2,0.1-5.4,0.3-8.8,0c-4.7-0.4-4.6-1.3-10.6-2.3c-3.8-0.7-4.4-0.4-9.7-1.3c-3.3-0.5-5.3-0.9-7.5-1.5c-3.7-1-3.5-1.7-7.5-2.4
					c-1.5-0.3-2.3-0.3-4.4-0.5c-5.7-0.6-9.4-1.5-11.9-2.1c-4.3-1-9-2.1-11-3.9c-2.1-1.8-0.5-3.4,0.7-4.3H487
					c1.1,0.8,1.8,0.9,1.7,1.4c-0.4,1.4-6.1,2.1-14.1,3.8c-13,2.8-10.7,4-17,4.4c-7.2,0.5-10.3-1.1-32.4-3.8
					c-13.9-1.7-16.2-1.5-18.9-2.5c-2.9-1.1-2-2-1.3-3.3h-7.6c-0.8,0.7-1.9,1.3-3.3,1.9c-7.3,3.2-20.3,4.3-32.1,5.2
					c-6.8,0.6-29.4,2.3-54.5,0c-7.4-0.7-13.4-1.6-18.5-2.5c3.6,0.9,7,2.1,12.4,3.1c16.3,3,44.1,2.6,61.6,0.5
					c12.7-1.5,15.5-3.3,28.8-3.7c2-0.1,17.1-0.5,22.7,1.5c6.1,2.1-2.5,5.9-11,7.8c-0.8,0.2-11,2.3-25.1,2.4c-6.6,0-7.5-0.4-15.3-0.4
					c-9.3,0.1-10.4,0.7-20.8,1.1c-9,0.3-8.2-0.2-23,0c-12.2,0.1-16.6,0.5-19.3-0.2c-3-0.8,0.5-1.8-2.8-3.2c-1.1-0.5-2.1-0.6-11.3-2
					c-10.4-1.6-12.1-1.9-13.8-2.5c-2-0.8-2.7-1.5-3.4-2.2c-1-1.1-1.6-1.7-0.3-2.3c1.9-0.9,7-1.2,10.1-1.2c2.3,0,4.3,0.1,6.1,0.4
					c-4.8-1-8.5-2.1-11.4-2.9c-1.1-0.3-2.1-0.6-3-0.8h-8.6c1.6,1,2.4,1.7,2.2,2.4c-0.5,2.6-13.3,5.5-25.4,5.7
					c-8.3,0.1-11.6-1.1-21.5-0.5c-5.7,0.3-7.2,0.9-11.1,0.7c-6.8-0.4-5.9-2.3-13-3.2c-7.4-0.9-12.2,0.7-26,0
					c-3.8-0.2-6.4-0.5-8.5-0.7c-7.9-0.8-17.3-2.5-24-4.4h-10.1c3.6,4.4,4.1,5.2,2.8,5.9c-4,2-16.9-1.4-47.4-3.4
					c-9.4-0.6-14.1-0.7-18-0.6c-7.1,0.1-9.6,0.6-19.9,0.8c-6.6,0.1-9.9,0.2-13.6,0c-3-0.2-10.3-0.6-17.8-2.7H0.3
					c0.7,0.5,1.4,1.1,2.1,1.7c3.6,3.3,2.9,4.9,7.7,5.3c3.4,0.2,6-0.4,9.3-0.1c4.1,0.4,5.2,2.1,1.9,2.6c-1.9,0.3-4.3,0.1-8.5,0.1
					c-4.8,0-8.6,0.3-12.8,0.8v2.1c1.5,0,3.2,0.1,5.2,0.1c9.2,0.3,11.2,0.7,33.5,2.7c5.7,0.5,9.2,0.8,12.3,1.7c3.6,1,4.9,2.3,5.3,2.7
					c0.7,0.7,0.8,1.3,0.8,2.2c0.1,2,0.2,2.9-1.2,3.5c-4.2,1.7-15.2,0.4-20.4,2.1c-2.3,0.7-1.6,2.7,0,6.6c0.9,2.2,1.4,2.8-0.4,3.2
					c-2.8,0.7-6.9,0.2-22.9,0.4c-5.6,0.1-7.7,0.2-9.4,0.3c-1.1,0.1-2,0.1-2.8,0.2v1.4c2.5-0.1,5.5-0.2,9-0.3
					c23.9-0.9,27.6-1.2,32.5-0.6c4.1,0.6,3.8,1.1,11.9,4.8c8.4,3.8,12.6,5.7,17.5,6.4c11.3,1.5,21.2-0.5,29.4,1.2
					c3.8,0.8,4.7,1.8,6.1,4.5c5.2,9.5,2.3,9.9,6.4,12.2c7.4,4.1,21,5.2,18.1,7.1c-1.9,1.2-9.4,2-15,1.7c-4.5-0.3-7-1.3-8.6-2
					c-8.8-3.7-12.2-6.4-15-7.8c-5.1-2.5-15-3.7-34.9-6.2c-19.7-2.4-36.1-4.4-57.4-4.1v0.9c9,0.2,17.9,1,32.6,2.4
					c29.8,2.9,44.8,4.4,56.4,8c4.2,1.3,24.3,7.9,14.5,14.4c-3.7,2.4-10.7,4.3-18.6,5.7c1.3-0.2,2.8-0.4,4.7-0.5
					c7.2-0.3,14.2,0.8,19,1.5c5.3,0.8,7,1.5,15.5,3.8c12.5,3.5,16.5,4.3,15.3,4.6c-2.1,0.5-17.7-1.4-19.9-1.7
					c-11.9-1.5-12.2-2.2-19.1-2.6c-2.9-0.2-5.4-0.2-7.6-0.1c4.8,0.4,9.6,0.9,14,1.7c7.9,1.4,11.1,3,22.9,4.1c6,0.6,8.3,0.5,16.4,1.3
					c10.3,1,11.3,1.6,19.3,2.6c18.2,2.1,26,0.4,33.4,2.4c4.2,1.1,6.2,2.9,8.4,4.8c0.3,0.3,1.7,1.5,2,2.2c1.6,3.9-27.8,6.2-57,13.5
					c-3.3,0.8-5.9,1.5-8,2.1h4.2c2.9-0.3,3.8-0.3,6.9-0.8c5.5-0.9,5.8-1.7,11.6-2.5c2.6-0.4,5.2-0.7,8.2-0.5
					c3.6,0.2,5.4,1.1,6.1,1.4c1.9,0.9,1.7,1.6,1.8,2.5h5.3c0.1-1.9,1.9-3.7,3.5-5.3c1.7-1.7,2.5-2.5,4.9-3.5c8.8-3.7,26-4.8,27-4.8
					c11.7-0.7,21.2,0.2,33.1,1.2c11.3,1,10.4,1.4,21.4,2.5c22.5,2.1,31.1,0.7,39.8,2.8c9.9,2.4,7.1,6.3,6.7,6.9
					c-0.1,0.1-0.1,0.2-0.2,0.3h9.6c-0.6-0.8-1.6-1.7-3.7-3c-4.2-2.5-7.8-4.7-16.3-5.8c-2.3-0.3-4.6-0.5-4.9-0.9
					c-0.1-0.1,0-0.2,0.2-0.3c-1,0.3-2.2,0.6-3.7,0.8c-7,1.1-38.4-2.7-41.6-3.1c-2.7-0.3-3-1.4-2.2-2.5c-1,0.3-2.2,0.5-3.5,0.7
					c-1.4,0.2-2.9,0.2-6.1,0.1c-11.8-0.2-15-1.2-23.1-1.4c-10.2-0.2-13.4,1.1-17.4,0.4c-4.2-0.7-0.4-2.2-3.9-5.3
					c-2.4-2.1-5.8-2.8-4.1-3.4c2.5-0.8,9.3,0.5,21.7-0.1c6.4-0.3,10.6-1,13.7-0.4c2.1,0.4,2.6,1.2,2.7,1.3c0.6,1-2,1.3-1.4,2
					c1,1.2,10.7,1.7,11.8,1.8c6.8,0.3,9.2-0.2,11.4,0.2c1,0.2,1.5,0.5,1.8,0.9c0.6-0.4,1.2-0.8,1.6-1c2.8-1.7,16.9-0.4,27.2-2.9
					c5.7-1.4,3.9-2.4,9.9-3.3c8.3-1.3,19.3-0.6,21.4-0.4c9.5,0.7,22.5,2.8,23.2,6.1c0.4,1.9-3.1,4.2-10.4,5.1
					c-5.5,0.7-5.8,0.6-22.1,2.3c-2.4,0.3-3.6,0.9-5.4,1.5c3.9-0.9,13.3-1.8,13.9-1.8c13.2-1.2,17-0.3,31.5-1.4
					c10.2-0.8,11-1.4,16.8-1.3c8.2,0.2,16,1.7,19.2,3.6c2.2,1.3,1.6,2.5,0.4,4.4c-1.3,2.3-4.5,3.9-6.1,4.7c-1.6,0.7-3.2,1.5-5.4,2.2
					h4.5c0.2-0.2,0.5-0.4,0.9-0.7c1.7-1.2,2.9-1.2,8-3.3c4.1-1.7,6.1-2.6,6-3.2c-0.2-0.8-2-1.6-0.3-2.7c0.5-0.3,1-0.6,1.2-0.6
					c3.7-0.7,7.5-1.5,12.9-1.9c3.9-0.3,6.4,2.2,7,2.7c0.1,0.1,0.4,0.6,1.1,1.5c0.6,0.8,0.9,1.3,0.9,1.4c0.4,0.9,0.1,1.1,0.5,2.3
					c0.3,0.9,0.4,0.8,0.5,1.2c0.1,1.1-2.4,1.9-4.7,2.9c-0.2,0.1-0.5,0.2-0.7,0.3h8.2c-1.8-1.2,1.1-2.6,1.5-5.3
					c0.8-5.9-12.6-7-8.6-10.9c3-2.9,13.6-5.5,24.9-6.1c9.2-0.4,10.1,0.9,30.6,1.6c12.2,0.4,16.9,0,25.7,1c3.7,0.4,9.6,1,14.3,2.5
					c0.6,0.2,8.3,2.7,5.7,5.8c-1.4,1.7-4.7,1.9-9.8,4.1c-8.8,3.7-3.6,4.9-9.8,6.7c-0.7,0.2-1.5,0.4-2.4,0.6h3.4
					c0.9-0.2,1.9-0.5,2.6-0.6c3.1-0.6,5-2.6,6.1-2.3c0.6,0.2-0.2,1.9-0.2,2.9h3.5c-0.4-1.4,0.5-2.5,0.9-3c0.3-0.4,1.7-2.1,5.5-3.5
					c5.6-2.1,16.1-3.3,58.8-4.5c36.5-1.1,45.4-0.6,55.2-2.8c11.2-2.5,11.6-5.8,17.8-5.7c5.2,0.1,6.1,2.4,17.8,7.2
					c9.4,3.9,13,4,12.9,5.4c-0.3,2.4-11.5,3.5-33.7,7h12.6c2.3-0.4,5-0.9,7.3-1.4c6.7-1.4,13.2-3.2,19.3-3.6c2.2-0.1,3.5,1.8,5,2
					c3.7,0.4,4.7,1.6,4.9,1.8c0.3,0.3,0.1,0.4,0,1.2h5.5c1.1-2.1,1.6-4.3,0.2-6.8c-2.5-4.3-7.4-5.1-4.3-7.5c5-3.8,20.2-3.5,27-7.6
					c5.7-3.4-3-4.8,3.1-8.5c0.7-0.4,7-4.2,19.9-5.5v-1c-4.4,0.3-5.9,0.2-8.4,0.7c-3.1,0.7-3,1.3-5.3,1.4c-2,0.1-4.5-0.4-5.1-0.9
					c-0.4-0.4,0.2-0.8,6.3-2.6c4.5-1.3,6.7-1.9,8.6-2.2c1.3-0.2,2.6-0.4,3.9-0.5v-0.8c-1.2,0.1-2.2,0.1-3,0.2
					c-1.9,0.1-5.4-2-5.1-2.5c0.3-0.5,5-0.7,5.9-0.8c0.6-0.1,1.3-0.3,2.1-0.6v-1.1c-2.4,0.8-4.9,1.4-8.7,1.8c-4,0.4-7.6,0.4-11.6,0.4
					c-2.7,0-11.2,0-25.1-1.5c-2.6-0.3-11.8-1.2-23.3-3.2c-11.2-2-17.8-3.1-22.7-5.3c-4.2-1.9-4.9-3.6-5.5-4.8
					c-1.4-3.1,1.4-5.5,4.9-8.5c2.4-2,3.7-3.1,7.4-4.4c2.3-0.8,6.8-2.4,15.3-3.4c11.4-1.4,23.6-1,30.6-0.3c4.7,0.5,9.2,1.3,9.2,1.3
					c3.8,0.7,3.8,0.9,5.5,1.2c6.8,1,16.4-1.1,24-1.3v-2.3c-0.5,0-0.9,0-1.2-0.1c-8.3-0.4-9.5-1.4-17.2-1.6c-4.2-0.1-7.5,0-13.5,0.3
					c-5.3,0.2-8.1,0.5-11,0.7c-8.8,0.6-10.4,0.1-25.7,0.3c-9.6,0.1-16.2,0.5-25.1,0c-1.8-0.1-4.7-0.3-6.7-0.9
					c-2.7-0.8-2.2-1.8-1.8-2.6c1.9-3.9,2.8-5.8,3.7-6.3c4.6-2.6,9.2-2.1,19-5.3c10-3.3,7.2-4.4,16.5-6.9c1.8-0.5,9.2-2.4,21.4-3.5
					c3.9-0.4,25.9-2.5,41.7-0.2v-1.7C747.5,250.4,745.3,250.6,744.1,250.2z M566.1,248.5c0.2-0.8,1.8-1.5,4-2.2
					c8.3-2.8,13.5-3,19.3-4.9c7-2.3,5.8-4.1,9.5-4.2c4.1-0.1,5.2,2.1,14.7,4.5c10.1,2.6,19.1,2.9,18.7,4c-0.5,1.3-11,0.9-20.5,3.4
					c-5.1,1.4-5.1,2.3-12,3.6c-3.9,0.7-7.6,1.1-10.4,1.4c-7.2,0.7-11.9,1.2-15,0.7c-3-0.5-1-1.2-4.3-3.5
					C567.8,249.8,565.8,249.5,566.1,248.5z M631.4,278c1.4,4.1,4.1,5.1,2,7.3c-0.4,0.4-1.5,1.5-4.6,2.6c-6,2.4-14.7,3.4-26,4.7
					c-6.5,0.7-15.7,1.8-28.7,2.2c-6.9,0.2-11.7,0.1-20.8,0c-19.6-0.3-29.4-0.4-39.7-1.7c-8.6-1.1-14.3-2.5-22.1-4.4
					c-3.4-0.8-8.1-2-13-3.7c-4.9-1.7-10.1-3.6-11.7-6.2c-0.4-0.7-0.3-1.6,0-3.6c0.4-3,0.6-4.6,2.6-5.5c4.9-2.2,15.7-2.8,20.2-3.1
					c10.3-0.6,14.3,0,31.9,0.5c15,0.4,26.7,0.2,44.3,0c18.5-0.2,16.9-0.5,26.7-0.5c17.6,0.1,43.8,1.1,45.6,3.4
					c0.8,1.1-4.2,1.5-6.5,3.9C630.4,275,630.7,276.1,631.4,278z M645,294.3c-0.2,0.1-2.1,1.3-6.1,1.5c-2.2,0.1-4.1-0.2-6.3-0.5
					c-3.5-0.5-3.2-0.8-6.3-1.3c-2.4-0.3-3.1-0.2-6.5-0.6c-3.4-0.4-5.1-0.6-5.3-0.8c-0.5-0.5,4.4-1,12.1-2.4
					c6.7-1.3,7.4-1.8,11.2-1.9c3.7-0.1,8.8,0.1,10.2,0.9c1.5,0.8-2.5,1.2-2.9,3C644.7,293.2,646.2,293.5,645,294.3z M548.8,310.5
					c-0.5,0.3,0.6,1.8-0.6,1.9c-2.5,0.2-7.4-1.3-8-1.3c-1.3-0.1-2.2-0.2-4.1-0.4c0,0-2.3-0.3-4.1-0.6c-0.6-0.1-16.8-3.1-12.9-5.5
					c2.3-1.4,10.4-2,16.5-1.9c4.4,0.1,7.5,0.6,10.4,1c6.3,1,13.5,2.8,11.6,3.9c-0.8,0.4-2.3,0.3-6.3,1.3c-1.8,0.5-2.6,0.8-2.7,1.1
					C548.8,310.2,549.1,310.3,548.8,310.5z M449.5,302.1c-0.7-0.4-2-0.6-1.6-0.8c0.3-0.2,1.5-0.3,2.5-0.3c0.4,0,2-0.1,4.2,0.1
					c1.2,0.1,2,0.2,3.2,0.4c3.3,0.5,4.1,0.7,5.2,0.8c0.4,0.1-0.2,0-0.3,0c0.1,0,1,0.1,3.8,0.5c0,0,4.1,0.3,7.3,0.8
					c4.4,0.6,4.1,0.9,4,1.1c-0.1,0.2-0.2,0.4-1.8,0.6c-2,0.2-3.8,0.2-6,0.2c-1.3,0-1.1,0-2.8,0c-1.3,0-2.4,0-4.6,0.1
					c-2.6,0.1-3.9,0.1-3.9,0.1c-3.8,0.2-4.8,0.8-6.9,0.7c-1.4-0.1-2.1-0.4-2.2-0.4c-0.6-0.3-0.3-0.5,0-0.9c0-0.1-0.1,0.1,0.1-1.4
					C449.8,302.4,449.9,302.3,449.5,302.1z M446.7,302.3c0.6,0.6,0.8,1,0.9,1.4c0,0.1,0.1,0.4,0,0.7c-0.2,0.8-0.4,1.5-1.8,2
					c-2.3,0.8-8.3,1-12,0.5c-4.1-0.6-1.9-1.6-6.9-2.8c-2.2-0.5-3-0.4-8.7-1.6c-3.8-0.8-4.7-1.1-4.6-1.4c0.2-0.4,1.6-0.5,5.4-1.1
					c3.3-0.5,6.5-1,8.1-1.3c2.4-0.4,4.4-1,8.4-2.1c4.5-1.3,5.5-1.7,8.9-2.3c2.4-0.4,4.9-0.9,7.4-0.7c2.5,0.2,3.4,1,3.7,1.2
					c0.7,0.6-0.1,0.7-0.2,1.8c0,0.8,0,1.3,0.8,1.9c0.7,0.6,1.5,0.8,0.9,1c-1,0.3-3.9-0.3-7.2,0c-2.1,0.2-3.8,0.6-4.3,1.1
					C445.3,301,445.5,301,446.7,302.3z M318.6,324.8c-5.9,2.1-13.9,2.7-17.8,3c-3.1,0.2-4.3,0.2-5.2,0.1c-1.8-0.3-2.5-1-0.2-4.6
					c2.4-3.7,4.4-5.1,5.4-5.7c2.7-1.7,4.1-2.5,6.8-2.9c6.2-0.9,11.5,0.6,22.1-0.2c5-0.4,13.7-2.3,15.9-2c3.1,0.4,8.6,0.5,6.2,0.8
					c-1.3,0.2-14.2,2.9-16.1,2.9c-3.9,0.1-10.2,1.3-13.7,3.6C316.3,323.7,321.1,323.9,318.6,324.8z M271.2,293.8
					c-4.6-2.2-0.7-1.4-9.3-9.8c-0.8-0.8-2.3-2.2,0-3.6c0.5-0.3,2.6-1.4,9.3-2.3c13-1.7,31.3-0.8,41.8-0.4c34.6,1.6,52.1,2.3,61,1.6
					c12.3-1,16.4-2.6,29.2-2.5c2.9,0,16.4,0.1,25.2,2.7c2.7,0.8,4.7,2.3,8.6,5.3c4.7,3.6,7,5.4,6.6,6.4c-1.6,3.9-8.2,4.9-10.1,5.6
					c-2.2,0.7-8.2,1.7-8.2,1.7c-3.6,0.2-7.3,1-16.2,1.8c-29.7,2.7-27.5,2.9-35.8,3.4c-16.8,0.9-30.7,0.4-39.8,0
					c-11.9-0.5-21.7-0.8-33.2-2.5C295.3,300.5,280.7,298.3,271.2,293.8z M286.3,300.7c-1.6,1.1-9.7,1.3-22.3,1.6
					c-11.8,0.3-14.3-0.1-26.1,0.4c-8.8,0.3-13.5,0.8-14,0.5c-0.7-0.4,6.6-1.6,19.5-3.7c10.7-1.8,12.3-1.9,13.7-2.7
					c2.1-1.1,1.1-2,4.9-4c2.2-1.1,3.2-1.2,3.7-1.2c2.5,0,3.6,1.6,6.9,3.4C279.3,298.7,288.1,299.5,286.3,300.7z M256.9,276.4
					c-5.3-0.9-11.6-1.4-17.2-2.2c-6.5-0.9-10.1-0.8-38.8-1.6c-27.3-0.8-31.9-1.1-32.3-1.7c-0.4-0.7,6-1.5,9.8-1.9
					c7.7-0.7,13.1-0.3,20.8-0.2c21.4,0.3,28-2.1,38.4-0.7c4.4,0.6,2.7,0.9,9.8,2.7c13.4,3.4,26.6,3.9,25.7,5.1
					c-0.5,0.6-4.8,1-7.8,1.1C261.8,277.3,259.1,276.8,256.9,276.4z M417,261c2-0.4,2.9,0,12.9,0c8.1,0,11.5-0.3,16,0.3
					c2.6,0.3,4.1,0.8,4.4,0.9c2.1,0.6,2.5,1.3,3.1,1.8c2,1.6,6,1.7,8.9,3c2.8,1.3,2.1,2.6,0.9,4.5c-1.8,3.1-6.4,3.8-4.4,5.5
					c1.7,1.5-0.8,2.5-1.8,3.1c-2.1,1.3-15.3-0.4-16.9-0.5c-5.9-0.3-10.6-0.6-15.1-1.6c-1.2-0.3-3.5-1.1-8-2.8
					c-5.7-2.1-7.5-2.9-8-4.1c-0.2-0.5-0.1-0.8,0-1.2c0.5-1.9,3.1-2.7,4.9-4.2C417.2,262.9,413.1,261.7,417,261z M447.4,288.4
					c-1-1.8-5.5-1.8-6.1-3.3c-0.5-1.3,2.3-3.1,7.4-3.5c3.8-0.3,8,0.2,16.2,1.3c5,0.7,7.5,1,10.1,1.6c5.6,1.3,11.4,3.7,8.3,5.6
					c-1,0.6-2.6,1-3.1,1.1c-2.6,0.6-4.9,0.6-13.8,1c-8.8,0.4-10.9,0.7-13.8,0.3c-2.6-0.3-3.9-0.9-4.3-1
					C445.8,290.4,448.1,289.7,447.4,288.4z M335.9,312.7c-3.2,0.6-5.3,1.4-9.5,1.5c-2.8,0.1-6.1-0.2-8.3-0.7c-5.8-1.3,0.1-3.1-5.2-6
					c-2.1-1.1-4.2-1.5-3.4-2.2c1.4-1.2,9.8-1.6,11.3-1.6c3.9-0.2,6.2,0,13.8,0.4c14,0.7,21,1,25.1,1c3.8-0.1,6.8-0.2,11.6,0
					c1.5,0.1,5,0.3,8.9,0.8c1,0.1,13,1.8,12,3.1c-1.1,1.3-15.8,1.8-37.4,2.6C345.7,311.7,340.9,311.7,335.9,312.7z M396.5,308.4
					c0-0.7-1.3-1.2-2.5-1.6c-4.5-1.7-11.5-1.7-11.7-2.4c-0.3-1,13.2-2.7,25.7-2c1.5,0.1,10.7,0.6,15.4,2.6c0.9,0.4,1.9,0.8,2.2,1.4
					c0.7,1.6-4.2,2.9-8.4,4.1c-3.9,1.1-5,1-6.9,1.9c-2.9,1.2-1.5,2.6-3.9,2.9c-3.6,0.4-10-1.4-12.4-2c-2.3-0.6-3.8-0.9-4-1.5
					C389.5,310.4,396.4,309.9,396.5,308.4z M470.4,301.3c-3.5-0.7-7.6-1.6-10.6-3.1c-1.9-1-4.1-2.1-2.5-3.2
					c2.5-1.7,12.3-2.3,15.5-2.4c4.9-0.3,8.6-0.2,13.9,0c5.2,0.2,10.2,0.5,20,1.3c7.9,0.6,9.9,0.8,11.8,1.1c5.1,0.7,8.7,1.1,10.2,2.1
					c2.7,1.6-2.4,3.4-5.7,4.6c-2.6,0.9-5.6,2-11.4,2.6c-6.3,0.7-12.1,0.4-17.2,0.2C482.6,303.8,474.8,302.3,470.4,301.3z
					 M599.1,265.7c-1.5,0.4-3.1,0.2-15.5,0.4c-4,0.1-5.2,0.1-8.2,0.1c-3.6,0-4.6,0-7.4,0c-4.7,0.1-4.9,0.3-7.4,0.3
					c-6.1,0-12.6-1.3-12.3-2.3c0.1-0.4,1.5-0.8,2-0.9c12.4-2.8,15-5.7,30.6-7.2c4-0.4,6.6-0.5,9-0.3c4.8,0.4,6.7,1.8,7.8,2.5
					c2.2,1.6,0.1,2,1.2,4.9C599.8,264.9,600.7,265.3,599.1,265.7z M434.7,246.1c0.5-1.2,1.6-3.9,9.9-5.8c3.4-0.8,10.3-1.3,24.1-2.4
					c8.9-0.7,13.3-0.9,16.3-1c10-0.4,15-0.6,18.4,0c7,1.2,1.3,3.8,9.2,5.8c2.8,0.7,4.8,0.7,16.3,1.7c14.6,1.2,21.8,1.9,24.8,2.4
					c13.2,2.3,17.5,9,5.7,13.4c-8.9,3.4-24.1,4.4-32.6,4.9c-15.7,1-28.8,0.4-36.9,0c-7.1-0.4-21-1.1-34-3.7c-4.1-0.8-9-1.8-12.8-3.6
					c-2-0.9-2.7-1.6-5.7-6.1C434.5,247.1,434.5,246.6,434.7,246.1z M388,245.4c0.8-1.2,5.7-1,12.9-3c3-0.8,4.4-1.5,8.8-2.2
					c1.4-0.2,2.9-0.5,5.1-0.7c1.6-0.1,8.5-0.7,13.3,0.1c3.8,0.6,4.3,1.8,4.9,3.3c0.7,1.8-0.4,2.8-0.8,4.1c-0.9,2.7,1.5,4.9,3.7,6.8
					c4,3.6,9.3,5,6.3,5.8c-1.7,0.5-6.8,0.4-17,0.2c-4.8-0.1-6.4-0.2-8-0.4c-4.4-0.7-5.5-2-5.9-2.4c-0.9-1.1,0.4-1.3,0-2.2
					c-0.5-1.3-3.6-2.2-9.8-4.1c-5-1.5-6.9-1.7-10-2.9C388.9,246.7,387.6,246.1,388,245.4z M340.7,245.1c18.3-0.6,28.2-1.5,34.8,0
					c6.9,1.5,4.2,4.3,13.9,5.7c4.2,0.6,5.5,0.2,9,0.7c7.3,1,9.1,3.7,8.9,7c0,0,0,0,0.1,0c1.9,0.4,6.2,1.4,6.7,2.8
					c0.4,1.1-1.6,2-2.5,2.3c-1.8,0.8-3,0.8-5.2,1.6c-0.6,0.2-1,0.4-1.4,0.6c-1.9,4.3-4.4,5.8-6.7,6.9c-2.4,1.1-7.8,3.6-18.8,5
					c-9.5,1.2-18.7,1-34.8,0.5c-34.9-1.2-52.4-1.8-61.2-2.8c-26.2-3.2-39.1-8.1-45.9-10.7c-7.1-2.7-13.8-5.3-12.5-8.8
					c0.3-0.8,1.6-3.1,8.4-5.3c11.7-3.8,31.6-4.4,55-5.2C315.1,244.6,312.8,246,340.7,245.1z M255.4,234.8c4.1-0.7,4.9-0.7,5.5-0.7
					c2.3,0.2,0,1.5,3.1,2.9c2.3,1.1,5.8,1.4,5.2,1.8c-0.6,0.5-4.7,0.6-6.7,0.6c-4.4,0-7.6-0.6-10.4-1.1c-3.6-0.6-5.7-1-5.8-1.6
					C246.1,236.3,249.3,235.8,255.4,234.8z M228.6,237.4c8.9-0.3,10.4,1.1,24.8,2c19.5,1.3,31.2-0.4,35.2,1.1
					c2.8,1.1-0.3,2.9-4.1,3.9c-4.5,1.2-9,1-25.2,1.9c-15.8,0.9-17.4,1.5-29,1.8c-12.4,0.3-17.7-0.1-20.5-0.4
					c-2.2-0.2-11.5-1.2-12.2-3c-0.1-0.3-0.2-1.2,9-3.5C216.1,238.9,221.1,237.7,228.6,237.4z M124.2,235.9c1.2-0.9,4.5-1.4,11.6-1.8
					c8.6-0.5,14.5-0.3,20.5-0.2c15.9,0.2,13.8-0.7,23.6-0.3c14.2,0.6,14.6,2.2,27.3,2.3c3.2,0,7.5-0.1,9.2,0.7
					c1.7,0.8,0.5,2.1-1,2.2c-1.6,0.1-2.6-1.2-5.5-1.2c-3.4-0.1-7,1.5-8.5,2.6c-1.5,1.1-0.6,1.4-2.4,2.6c-0.7,0.5-1.9,1.3-4.4,2
					c-2.7,0.7-4.5,0.7-10.3,1.5c-3.8,0.5-4.9,0.8-5.9,1c3.3,0,6.2,0,8.7,0.1c4.2,0.1,7.7,0.2,13,0.5c14.9,0.8,22.3,1.2,23.9,1.8
					c3,1.1-2.5,1.9-3.3,5.2c-0.1,0.5,0,1.1,0.2,2.1c0.8,3.5,1.1,5.3,4.5,6.7c5.6,2.3,15.6,2.9,14.1,3.5c-1.2,0.5-8-0.2-22.2-0.2
					c-9.7,0-10.3,0.3-20.6,0.3c-11.2,0-16.8,0-22.2-0.8c-5.9-0.8-9.3-2.1-10.3-3.2c-0.6-0.7-0.2-1.4-0.2-1.5
					c0.5-0.8,1.7-1.3,2.1-1.5c4.2-2.1-6.6-5.9-9.9-7.1c-1.3-0.5-3.6-1.2-3.3-2.2c0.3-0.9,2.3-1.5,2.9-1.7c2.8-0.8,7-1.3,10.8-1.5
					c-1.6,0-3.4-0.1-5.7-0.1c-6.4-0.1-9.5-0.2-10.3-0.3c-5.6-0.7-4.3-2-12-4.4c-2.2-0.7-3.8-1.1-9.9-2.9c-1.9-0.6-3.9-1.2-4.8-2.2
					C123.9,237.4,123.1,236.6,124.2,235.9z M158.5,260.4c-3.6,0.4-9.2-1.1-10.4-1.5c-4-1.1-3.7-1.7-7.4-3.3
					c-1.9-0.9-5.9-2.7-13.2-4.1c-6.3-1.2-11.8-1.6-11.3-2c0.3-0.3,2.8-0.2,10.4-0.4c8.3-0.3,9.3-0.5,11.9-0.3
					c3.5,0.2,5.3,0.8,8.9,2.1c4,1.4,3.5,1.7,9.2,4.3c3.3,1.5,4.8,2.1,4.9,3.1C161.6,258.4,161.8,260,158.5,260.4z M53.6,243.3
					c-3.1-0.4-3.3-0.5-8.8-1.3c-8.8-1.3-8.8-1.1-10.6-1.5c-3.1-0.7-4.1-1.9-5.9-4.3c-1.3-1.8-2-2.7-0.7-3.3c3-1.6,11.7-2,13.9-2.1
					c4.6-0.2,5.5,0,14.6,0.2c9.9,0.1,10.4-0.1,20.5,0c7.8,0.1,11.7,0.2,16.8,0.6c6.9,0.6,11.4,1.5,14.6,2.2c4.9,1,7.7,1.9,11,3
					c4.3,1.4,4.4,1.7,11.7,4.7c7.9,3.3,10.6,4,9.1,5.1c-1.5,1.1-6.6,1.7-7.3,1.8c-7,0.7-11.7-0.5-19,0.4c-3.7,0.4-2.8,0.7-6.6,1.1
					c-7.1,0.7-14.7,0-17.2-0.3c-2.9-0.3-4.7-0.7-8.4-1.5c-9.2-1.9-8.4-2.6-14.3-3.4C62.1,243.9,61.2,244.3,53.6,243.3z M60.6,248.5
					c1.2-2.1,0.8-2.9,2.8-3.1c1.6-0.1,3.1,0.3,12.9,2.6c6.2,1.5,7,1.6,6.9,2c-0.3,0.9-6.3,1-19.3,3c-3.7,0.6-5.2,0.9-6.3,0.7
					C55.4,253.5,58.7,251.9,60.6,248.5z M73.6,275.8c-4.8-0.8-9.9-3.6-20-9.2c-5-2.8-5.5-3.2-5.8-3.9c-1.4-4.1,12.4-7.4,15.8-8.1
					c11.4-2.7,25.9-3.7,36-3.7c6.8,0,13.1,0.4,13.1,0.4c1.2,0.1,6.6,0.5,11.5,1.2c4.7,0.7,8.7,2.3,16.5,5.4
					c4.5,1.8,8.1,3.7,13.3,5.4c4.8,1.6,8.8,2.6,8.1,4c-0.4,0.7-1.8,1.2-4,1.9c-5.1,1.7-11.4,2.5-13.3,2.7
					c-9.7,1.2-12.6,0.4-21.1,1.4c-9,1.1-7.9,2.3-15.3,3.3C98.4,277.9,83.2,277.4,73.6,275.8z M127.5,298.6
					c-5.7-1.7-7.5-3.2-10.6-5.9c-2.2-1.9-3-3.6-4.5-6.7c-2.9-6.1-1.7-7.1,0.8-8.1c4.7-1.8,12.5-2.8,16.6-3.2
					c19.8-2.3,42.8-1.4,79.2,0c0.9,0,7,0.3,15.1,0.7c19.9,1.1,33.3,1.9,36.2,3.7c1.3,0.8-0.9,1-3.8,3.7c0,0-2.4,2.2-3,4.7
					c-1.1,4.4,5.8,5.1,2.3,7.5c-2.9,1.9-9.7,3.1-17.3,4.4c-15.4,2.6-31.9,3.4-39.2,3.7c-12.5,0.5-32.9,1.4-52-0.7
					C135.7,301,129.6,299.2,127.5,298.6z M241.3,330.2c-15.2,0.9-29.2,1.8-45.2,1c-8.3-0.4-6.5-0.8-48.6-7.2
					c-8.8-1.3-17-2.6-26.4-4.8c-7.9-1.9-13-3.1-15.3-5.1c-2.8-2.4-1.4-5.6,6.9-7.7c4.4-1.1,10.1-1.7,42.4-2.1
					c16-0.2,32.6-0.3,59.1-0.3c26.6,0,29.2,0.1,38.9-0.2c23.6-0.6,26.7-1.5,32.7-0.8c20.7,2.4,21.7,18.4-11.8,24.2
					C264.5,328.8,253,329.5,241.3,330.2z M280.7,335c-1,0-4.3,0-11,0c-5.7,0-5.7,0-6.9,0c-6.5,0.2-7.8,0.8-11.4,0.6
					c-2.8-0.1-5.9-0.7-6.5-1.4c-1.3-1.5,9.5-3,11.4-3.2c8.8-1.2,17.6-1.1,20.8-1.1c6.3,0.1,19,0.8,19.6,2.2
					C297.2,333.2,288.3,334.8,280.7,335z M330.9,328.8c-0.3,0.3-1.9,0.6-3.3,0.6c-1.2,0-2.2-0.1-2.7-0.2c-2.4-0.3-4.8-0.3-9-0.3
					c-1.7,0-6.4,0-11,0.6c-4.9,0.7-5.5,1.4-8.4,1.4c-2.4,0-4.9-0.6-4.9-1.1c0-0.7,4-1.1,5.9-1.3c3.4-0.4,4.4-0.2,9-0.5
					c3.8-0.3,6.5-0.5,8.6-1.1c2.9-0.8,2.4-1.6,5.3-1.9c0.4,0,1.8-0.1,3.1,0c2.8,0.3,1,1.4,4.1,2.5
					C329.4,328.3,331.3,328.4,330.9,328.8z M326.2,325.6c-1.6-1.2-5-3.6-0.4-6.1c5.3-2.8,18.1-3.8,29-4.6c9.9-0.7,23.6-1.8,36-0.3
					c7.2,0.9,13.2,2.5,20.4,4.5c5.2,1.4,9.7,3,17.2,3.1c3.5,0.1,4.9-0.2,6.5,0.1c4.5,0.8,1.4,4.6-8.2,6.5c-3.3,0.7-6.5,0.9-8.6,1.1
					c-29.1,2.4-37.9,6.1-52.7,5.1c-2.4-0.2-5.3-0.7-11-1.7C343.9,331.4,331.3,329.2,326.2,325.6z M363.3,340.3
					c-3,0.6-15,1.7-17.3,0.7c-1.8-0.8,6.5-2.7,7.1-3.6c0.5-0.8-4-2.7,0.8-3c1.1,0,10.6,0.9,12,1.1c2.1,0.4-0.2,1.3,7.6,3.2
					C376.8,339.7,364.2,340.2,363.3,340.3z M415.5,341.7c-0.4,0.6-9.7,1.3-11.3,1.5c-2,0.3-3.7,0.1-4.7,0.1c-2.1,0-4.2-0.2-9.9-1.6
					c-7.7-1.9-7-2.3-11.6-3c-1.4-0.2-6.4-1.5-7.1-1.8c-1.5-0.7,4-0.8,7.3-1.4c5.3-1,11.1,0.4,18.3-0.6c4.5-0.6,1.4-1.8,4-1.8
					C406.1,332.9,417.2,338.6,415.5,341.7z M443.8,331.9c-0.4,0.2-1.2,0.2-3.1,0.3c-1.3,0.1-2.5,0.2-3.7,0.4
					c-0.9,0.1-2.4,0.3-9.7,1.6c-2.7,0.5-3.2,0.6-4.4,0.7c-3.1,0.2-5.9-0.2-6.3-0.2c-1.5-0.2-1.3-0.3-3.1-0.7
					c-3.4-0.7-7.5-1.2-8.1-1.6c-0.9-0.5,4.4-0.6,4.9-0.7c2.3-0.5,4.4-0.6,8.8-0.9c5.5-0.5,8.2-0.7,9.2-0.9c4.1-0.7,5-1.5,6.8-1.4
					c1.1,0.1,0.8,0.4,2.7,1.1c2,0.7,3.6,0.8,5.3,1.6C444.2,331.6,444,331.8,443.8,331.9z M471,332.8c-17-1.2-21.8-1.5-26.6-3.8
					c-5.7-2.7,0.5-4.5-6.7-6.9c-6.1-2.1-17.7-3.3-22.1-5.2c-4.8-2.1,0.8-5.3,8.3-7.2c6.3-1.6,18-2.1,41-3.1
					c30.4-1.3,38.9-0.8,45.1,0c1.6,0.2,5.1,0.9,12,2.4c12.8,2.7,19.3,4,22.1,5.7c3.3,2-0.9,2.1,1.8,4.8c3.8,3.8,13,4.8,10.6,7
					c-1.2,1.1-8.1,1.5-13.3,2.5c-5.3,1-10.9,2.1-13.7,4.1C523.9,337,475.9,333.1,471,332.8z M516.4,337.3c-3.3-0.8-5.6-1.1-5.3-1.3
					c0.3-0.2,3.1-0.2,5-0.1c1.7,0.1,3.2,0.5,6.2,1.1c0.4,0.1,0.9,0.2,1,0.4c0.2,0.2-0.3,0.4-0.8,0.7c-0.6,0.4-0.3,0.6-0.7,0.6
					C521,338.8,519.6,338.1,516.4,337.3z M550,344.6c-2.8,0.3-4.2-0.2-8.3,0c-3.2,0.1-3.6,0.5-9.2,1.1c-5.2,0.6-13,1.1-12.3,0.7
					c2.1-1.1,6.4-2.1,5-4.5c-1.1-1.8-3.8-1.6,3.6-2.7c2.8-0.4,8.1,1.8,16.3,2.6c5.5,0.6,8.5,0.5,9.2,1
					C555,343.5,552.8,344.3,550,344.6z M570.7,340.3c-14.8,0-14.3,0-15.6,0c-4.2-0.1-18.8-0.4-23-2.6c-1.9-1-0.9-1.9,0-2.9
					c3.2-3.2,6.1-3.7,6.7-3.8c1.2-0.3,9.3-1.8,11.5-1.8c1.3,0,0.5-0.3,16.8-1c11.4-0.5,12.5,0.3,30.3,0c8.7-0.1,9.2-0.3,27.6-0.9
					c25.3-0.8,27-0.5,27.6-0.2c1.9,0.9-7.1,2.2-24.8,7.3c-10.7,3.1-11.8,3.8-18.4,4.6c-10,1.2-23,1.3-26.7,1.3
					C581.1,340.3,581.6,340.3,570.7,340.3z M652,323.5c0.6-0.9,10.3-1.1,11.8-1.2c1,0,7.6-0.2,8.3,0.3c0.3,0.2-0.9,0.4-2.6,0.9
					c-5.1,1.4-4.5,2.3-7.2,2.4c-2.3,0.1-12.3-0.1-14.8-0.8C645.3,324.6,651.8,323.9,652,323.5z M638.5,338.6
					c-0.4,0.4-6.9,2.8-16.6,3.8c-10.2,1-34.6-0.3-34.7-1.1c-0.1-0.6,20.1-0.3,28.9-2.1c6.1-1.2,18.9-6.3,25.3-7.1
					c4.4-0.5,5.7,2.2,7,2.7C649.6,335.3,640.5,336.8,638.5,338.6z M652.4,334.7c-1.1-0.1-0.7-1.5-3-2.2c-2.6-0.8-2.9-1.2-2.5-1.4
					c2.1-0.7,8.8-3.2,10.7-3.2c1.2,0-2.3,2.1,0.9,3.3c1.7,0.7,2.6,1,3.7,1.2c3.2,0.8,9.4,1,10.2,1.6c0.6,0.4-5.9,2.6-7.4,2.7
					C662.3,337.2,656.2,335.2,652.4,334.7z M682.6,344.9c-1.7-0.3-4-0.8-7.8-2c-3.8-1.2-5.5-2-7.8-3.1c-1.8-0.9-2.2-1.2-1.7-1.5
					c1-0.5,4-0.4,6.7-1.1c2.3-0.6,2.4-1.2,3.4-1.2c0.5,0,0.6,0.2,2.5,1.1c0.4,0.2,0.8,0.4,1.2,0.5c0.4,0.2,0.9,0.4,1.6,0.6
					c0.6,0.2,0.9,0.2,1.8,0.5c1.7,0.5,1.6,0.5,2.2,0.6c1.4,0.3,2.2,0.2,4.9,0.5c2.3,0.2,3.7,0.4,4.5,0.7c0.7,0.3,0.4,0.5,0,1.6
					c-0.4,1-0.6,1.5-0.2,1.8c0.9,0.8,3.2,1,2.7,1.4c-0.7,0.5-5.4,0.5-9,0.3C686.6,345.5,685.1,345.3,682.6,344.9z M700.2,348
					c0.3,0.1,0.4,0.2,0.5,0.5c0.2,0.3,0.3,0.5,0,0.5c-0.2,0.1-1,0.1-2.7,0.2c-1.5,0.1-1.6,0.1-1.9,0.1c-0.8,0.1-1.5,0.1-2.4,0.2
					c-1.9,0.2-1.6,0.2-2,0.2c-1.8,0.1-3.9,0.3-4.4,0.3c-0.4-0.1-2.4,0-2.5-0.1c-0.7-0.2,0.7-1.1,1.1-1.4c0.7-0.6-2.6-1.7-1.1-1.9
					c1.2-0.2,7.4,0.7,7.9,0.5c0.3-0.2,0.6-0.3,0.9-0.3c0.4-0.1,1,0.1,2,0.4c1.3,0.3,1,0.5,2.1,0.7
					C698.8,347.8,699.5,347.8,700.2,348z M723,327.5c0,2.4-1.3,6.3-6.1,7.7c-7.8,2.2-10.3-0.4-18.3,0.1c-8.2,0.6-8.4,3.5-9.3,3.4
					c-7.3-0.2-12.9-4.7-14.6-5.3c-0.8-0.3-2-0.7-3.1-1.3c-0.9-0.5-11.2-1-8.9-3.3c2.4-2.4,17.1-5.9,21.7-6.7
					c7-1.3,12.2-2.2,14.1-2.3c4.2-0.2,29.4,1,31,1.4C733.3,322,723,325.8,723,327.5z M704.5,317c0.2-0.4,0.6-0.6,1.4-1.3
					c1.2-1,1.9-1.5,1.4-1.8c-0.6-0.4-2-0.6-2.7-1.2c-0.3-0.3-0.2-0.4,0-0.5c0.6-0.3,2.4-0.3,3.7-0.4c1.8-0.1,3.2,0,3.5,0
					c3.5,0.1,6.1,0.4,7.8,0.5c3.1,0.2,5.5,0.2,10.4,0.2c6.4,0,8.2-0.3,10,0.1c1.6,0.3,2.1,1,2.5,1.5c0.3,0.4,0.4,0.6,0,0.8
					c-0.8,0.4-2.6,0.5-4.9,0.8c-3.4,0.5-5.3,1.1-7.1,1.7c-3.2,1.1-2.2,1.4-4.5,1.8c-2.1,0.3-4.6,0.2-9.6,0c-2.6-0.1-4.2-0.2-6.9-0.5
					c-3.1-0.3-3.8-0.4-4.3-0.6C704.1,317.9,704.3,317.5,704.5,317z M697.5,318.5c-8.5,3.3-24.9,1.2-53.3,5.1
					c-6.1,0.8-11.9,1.8-22.1,2.4c-2.7,0.2-10.7,0.6-21.1,0.4c-9.2-0.1-25.2-0.4-36.8-3.3c-5.9-1.5-8.3-3.1-9.2-3.7
					c-3.7-2.6-2-5-0.9-6.4c1.2-1.5,2.2-2.8,5.5-4c12.3-4.3,45-2.7,73.5-1.3c3.9,0.2,10.7,0.6,12.9,1.8c1.8,1-1.4,1.7,0,2.6
					c2.4,1.7,15.9,2.4,26.7,2.2c14.4-0.3,20.2-2.1,24.8-1.3C702.1,313.7,702.5,316.5,697.5,318.5z M659.7,303.8c4-0.2,0.5,2,8.4,2.4
					c10.9,0.6,11.9,0.2,15.6,0.6c5.2,0.7,2.6,1.4,9.2,2.5c3.2,0.6,5.8,0.7,6.1,1.2c0.4,0.6-3.1,1.1-3.7,1.2
					c-2.1,0.3-4.7,0.5-12.7,0.6c-8.7,0.1-13.9,0.7-16.6,0.5c-7.5-0.4-10.9-1.9-12.7-2.3c-2.9-0.7-4-1.3-4.9-1.8
					c-1.6-0.9-2.6-1.4-1.2-2C648.2,306.3,656.6,304,659.7,303.8z M654.3,302.6c-1.6,1.3-3.8,2.8-13,4.1c-4.8,0.7-14.8-0.6-19.4-0.5
					c-7.1,0-9.9-0.5-17.4-1c-11.3-0.6-12.6,0.3-22.9-0.2c-1.6-0.1-22.6-1-24.7-3.8c-1.5-1.9,6.6-3.7,8.4-4.1
					c6.9-1.5,14.7-1.8,25.6-2.1c8.3-0.3,19.3-0.6,32.5,0.4c6,0.4,15.1,1.1,22.7,3.1C649.5,299.2,656.4,301,654.3,302.6z
					 M657.7,278.7c6.7,0.5,10.1,0.7,10.7,1.2c1.2,0.8-5,1.3-8.8,3.3c-4.5,2.3-0.9,4.4-5.2,4.8c-1.1,0.1-2.5,0-5.2-0.2
					c-2-0.1-7.8-0.5-9.7-1.6c-1.1-0.6-0.4-1.1,0-1.7c0.6-0.8-0.3-2.1-1.9-4.8c-2.2-3.5-3.6-3.8-2.6-5c1.3-1.5,4.8-2.9,6.2-2.8
					c0.7,0,0.8,0.4,1.3,3.2c0.3,2,0.4,2.2,1.3,2.5C645.7,278.1,648.3,278,657.7,278.7z M672.6,260c-0.9,0.5-0.9,0.3-14.3,3.7
					c-9.2,2.3-9.6,2.5-12.2,2.8c-5.9,0.6-7.3-0.2-20.2,0c-6,0.1-7.8,0.3-11.1,0c-5.7-0.5-8.7-1.9-9.5-2.3c-2.4-1.2-1.6-1.9-2.1-5.4
					c-0.5-3.7-1.6-3.7-0.5-4.7c2-1.9,7.2-2.9,14.9-4.4c14.3-2.8,26.7-3.2,29.7-3.2c5-0.1,9.5-0.2,13.3,0.6c3.9,0.8,4.6,2,6.4,4.3
					C672.1,258,675.1,258.5,672.6,260z M736.1,248.8c-1.9,0.3-3.1,0.3-17.8,1.1c-6.9,0.4-8.7,0.4-11.3,0.8c-3.6,0.5-5,1-8.3,1.9
					c-7.2,1.9-12.8,3.5-16.9,3.2c-1.7-0.1-2-0.5-8-4.6c-4-2.8-4.6-3.1-5.2-3.4c-2.3-1.2-3.5-1.5-4-2.3c-1.1-1.6,1.9-2.9,2.5-3.2
					c2.4-1,6-1.6,13.2-2.7c1.5-0.2,3.3-0.5,6.7-1c7.2-1,10.9-1.5,13.2-1.5c1.6,0,4.4,0,12.9,1.4c7.7,1.3,9.6,2,19.6,4.2
					c9.7,2.1,12.7,2.5,12.6,3.4C745.1,247.6,737.8,248.6,736.1,248.8z"/>
				<path class="st6" d="M0,323c0,0,67,6.6,119.6,16.9c52.5,10.3,76.3,0.2,116.9-7.6s91.2-1.7,181.3,5.1
					c90.2,6.9,91.2,7.5,143.7,1.2c52.5-6.3,125.7,5.5,154.6,11.4c28.9,5.8-80.3,27.6-80.3,27.6L54.2,366.8L0,353.2V323z"/>
				<path class="st7" d="M0,337.5c0,0,57.1,1.1,107.7-3.5c50.5-4.5,89.2,12,152.6,13.2s105-8.2,168.4-13.9
					c63.4-5.7,119.7,13,154.6,19c34.8,6,86.2-9.2,117.9-10.1c31.7-0.8,48.8,5,48.8,5v31.8H0V337.5z"/>
			</g>
			<g>
				<path class="st8" d="M635.8,359.6c-41.6-2.5-149.6-16.7-248.7-16.7s-151.6,23.2-238.8,12.5C61.1,344.8,0,342.9,0,342.9V500h750
					V355.5C750,355.5,677.4,362.2,635.8,359.6z"/>
				<path class="st9" d="M-39.5,365.6c0,0,82.7,1.6,141.6,12.6C64.6,367.3-16.2,360.3-39.5,365.6z"/>
				<path class="st9" d="M157.9,402.5c0,0,39.2,11,113.6,8.8C234.1,407.3,180.8,406.9,157.9,402.5z"/>
				<path class="st9" d="M461.8,369.4c0,0-82.7,3.3-142.1-4.1C357.8,373.9,438.9,376.1,461.8,369.4z"/>
				<path class="st9" d="M784.3,410.5c0,0-81.8,12.4-141.7,11.5C681.3,426.4,762.2,419.7,784.3,410.5z"/>
				<g>
					<path class="st9" d="M274.2,463.8c48.8-1.3,97.8,3.1,145.4,13.8C372.6,473.6,321.1,468.9,274.2,463.8L274.2,463.8z"/>
				</g>
				<path class="st9" d="M497.3,410.3c0,0,94.2-1.8,137-7C601.2,409.8,534.2,415.1,497.3,410.3z"/>
				<path class="st9" d="M496.9,439.5c0,0.9-2.8,1.6-6.2,1.6c-3.4,0-6.2-0.7-6.2-1.6s2.8-1.6,6.2-1.6
					C494.2,437.8,496.9,438.6,496.9,439.5z"/>
				<path class="st9" d="M291.5,395.5c0,0.9-2.8,1.6-6.2,1.6s-6.2-0.7-6.2-1.6c0-0.9,2.8-1.6,6.2-1.6S291.5,394.6,291.5,395.5z"/>
				<path class="st9" d="M70.1,486.6c0,0.9-2.8,1.6-6.2,1.6s-6.2-0.7-6.2-1.6s2.8-1.6,6.2-1.6S70.1,485.7,70.1,486.6z"/>
				<path class="st9" d="M182.4,456.6c0,0.9-2.8,1.6-6.2,1.6c-3.4,0-6.2-0.7-6.2-1.6s2.8-1.6,6.2-1.6
					C179.6,455,182.4,455.8,182.4,456.6z"/>
				<path class="st9" d="M723.8,442.1c0,0.9-2.8,1.6-6.2,1.6c-3.4,0-6.2-0.7-6.2-1.6s2.8-1.6,6.2-1.6
					C721,440.5,723.8,441.2,723.8,442.1z"/>
				<path class="st9" d="M159.8,414.4c0,0.9-2.8,1.6-6.2,1.6c-3.4,0-6.2-0.7-6.2-1.6s2.8-1.6,6.2-1.6
					C157,412.7,159.8,413.5,159.8,414.4z"/>
				<path class="st9" d="M286,482c0,0.9-2.8,1.6-6.2,1.6c-3.4,0-6.2-0.7-6.2-1.6s2.8-1.6,6.2-1.6C283.2,480.3,286,481.1,286,482z"/>
				<path class="st9" d="M547.1,466.3c0,0.9-2.8,1.6-6.2,1.6s-6.2-0.7-6.2-1.6s2.8-1.6,6.2-1.6S547.1,465.4,547.1,466.3z"/>
				<path class="st9" d="M85.2,404.7c0,0.9-2.8,1.6-6.2,1.6s-6.2-0.7-6.2-1.6c0-0.9,2.8-1.6,6.2-1.6S85.2,403.8,85.2,404.7z"/>
				<path class="st9" d="M660.9,373.5c0,0.9-2.8,1.6-6.2,1.6c-3.4,0-6.2-0.7-6.2-1.6c0-0.9,2.8-1.6,6.2-1.6
					C658.2,371.9,660.9,372.6,660.9,373.5z"/>
				<path class="st9" d="M584.9,429.6c0,0.4-1.4,0.8-3.1,0.8c-1.7,0-3.1-0.4-3.1-0.8c0-0.4,1.4-0.8,3.1-0.8
					C583.5,428.8,584.9,429.1,584.9,429.6z"/>
				<path class="st9" d="M706.2,396.3c0,0.4-1.4,0.8-3.1,0.8c-1.7,0-3.1-0.4-3.1-0.8c0-0.4,1.4-0.8,3.1-0.8
					C704.8,395.5,706.2,395.9,706.2,396.3z"/>
				<ellipse class="st9" cx="443" cy="425.4" rx="3.1" ry="0.8"/>
				<ellipse class="st9" cx="607.7" cy="485.2" rx="3.1" ry="0.8"/>
				<path class="st9" d="M320.5,446.6c0,0.4-1.4,0.8-3.1,0.8c-1.7,0-3.1-0.4-3.1-0.8s1.4-0.8,3.1-0.8
					C319.1,445.8,320.5,446.1,320.5,446.6z"/>
				<ellipse class="st9" cx="440.5" cy="462.7" rx="3.1" ry="0.8"/>
				<path class="st9" d="M273.8,375.5c0,0.4-1.4,0.8-3.1,0.8c-1.7,0-3.1-0.4-3.1-0.8c0-0.4,1.4-0.8,3.1-0.8
					C272.4,374.7,273.8,375.1,273.8,375.5z"/>
				<path class="st9" d="M248,429.2c0,0.4-1.4,0.8-3.1,0.8c-1.7,0-3.1-0.4-3.1-0.8c0-0.4,1.4-0.8,3.1-0.8
					C246.6,428.4,248,428.8,248,429.2z"/>
				<path class="st9" d="M386.4,426.4c0,0.4-1.4,0.8-3.1,0.8c-1.7,0-3.1-0.4-3.1-0.8c0-0.4,1.4-0.8,3.1-0.8
					C385,425.5,386.4,425.9,386.4,426.4z"/>
				<ellipse class="st9" cx="135.8" cy="428.8" rx="3.1" ry="0.8"/>
				<path class="st9" d="M23.1,399.9c0,0.4-1.4,0.8-3.1,0.8c-1.7,0-3.1-0.4-3.1-0.8c0-0.4,1.4-0.8,3.1-0.8
					C21.7,399.1,23.1,399.5,23.1,399.9z"/>
			</g>
		</g>
	</g>
</g>
<g id="TEXTS">
</g>
</svg>
