<?xml version="1.0" encoding="utf-8"?>
<!-- Generator: Adobe Illustrator 25.0.0, SVG Export Plug-In . SVG Version: 6.00 Build 0)  -->
<svg version="1.1" id="Layer_1" xmlns="http://www.w3.org/2000/svg" xmlns:xlink="http://www.w3.org/1999/xlink" x="0px" y="0px"
	 viewBox="0 0 171 172" style="enable-background:new 0 0 171 172;" xml:space="preserve">
<style type="text/css">
	.st0{display:none;fill:#2F1664;}
	.st1{display:none;}
	.st2{display:inline;fill:#2F1664;}
	.st3{display:inline;}
	.st4{fill:#FEFEFE;}
	.st5{fill:#FEEA76;}
	.st6{fill:#F4F3F4;}
	.st7{fill:#F5F3F4;}
	.st8{fill:#28261B;}
	.st9{fill:#26221B;}
	.st10{fill:#28241E;}
	.st11{fill:#2E2B21;}
	.st12{fill:#565455;}
	.st13{fill:#4B494B;}
	.st14{fill:#3D3B2E;}
	.st15{fill:#363128;}
	.st16{fill:#454541;}
	.st17{fill:#2A2625;}
	.st18{fill:#534D3E;}
	.st19{fill:#2B2929;}
	.st20{fill:#2F2F22;}
	.st21{fill:#262425;}
	.st22{fill:#5A575A;}
	.st23{fill:#3E3C3F;}
	.st24{fill:#2D2821;}
	.st25{fill:#282319;}
	.st26{fill:#49474A;}
	.st27{fill:#403D40;}
	.st28{fill:#424041;}
	.st29{fill:#2C2818;}
	.st30{fill:#454245;}
	.st31{fill:#545254;}
	.st32{fill:#232313;}
	.st33{fill:#272716;}
	.st34{fill:#242119;}
	.st35{fill:#211F10;}
	.st36{fill:#262416;}
	.st37{fill:#2B2B21;}
	.st38{fill:#352B0F;}
	.st39{fill:#F4F4F4;}
	.st40{fill:#F5F3F5;}
	.st41{fill:#3F3E3F;}
	.st42{fill:#545252;}
	.st43{fill:#373637;}
	.st44{fill:#575555;}
	.st45{fill:#2B292A;}
	.st46{fill:#2F2C2D;}
	.st47{fill:#5D5B5C;}
	.st48{fill:#282626;}
	.st49{fill:#2F2717;}
	.st50{fill:#FDE975;}
	.st51{fill:#FCE874;}
	.st52{fill:#FDE874;}
	.st53{fill:#01040B;}
	.st54{fill:#FDFCFD;}
	.st55{fill:#FAFAF9;}
	.st56{fill:#FDE977;}
	.st57{fill:#2F1664;stroke:#2F1664;stroke-width:3;stroke-miterlimit:10;}
	.st58{display:inline;fill:#0C0909;}
	.st59{display:inline;fill:#FDE977;}
	.st60{display:inline;fill:#E56399;}
	.st61{display:inline;fill:#4969DB;}
	.st62{display:inline;fill:#2F1664;stroke:#2F1664;stroke-miterlimit:10;}
</style>
<path class="st0" d="M168.8,106.2L132.5,86l36.4-20.2c0.9-0.5,1.4-1.6,1.1-2.6c-0.3-1-1.2-1.7-2.2-1.7l-41.6,0.7l21.4-35.7
	c0.5-0.9,0.4-2-0.3-2.8c-0.7-0.7-1.9-0.9-2.8-0.3l-35.7,21.4l0.7-41.6c0-1-0.7-2-1.7-2.2c-1-0.3-2.1,0.2-2.6,1.1L85,38.5L64.8,2.2
	c-0.5-0.9-1.6-1.4-2.6-1.1s-1.7,1.2-1.7,2.2l0.7,41.6L25.6,23.5c-0.9-0.5-2-0.4-2.8,0.3c-0.7,0.7-0.9,1.9-0.3,2.8l21.4,35.7
	L2.3,61.6c-1,0-2,0.7-2.2,1.7c-0.3,1,0.2,2.1,1.1,2.6L37.5,86L1.2,106.2c-0.9,0.5-1.4,1.6-1.1,2.6s1.1,1.7,2.2,1.7l41.6-0.7
	l-21.4,35.7c-0.5,0.9-0.4,2,0.3,2.8c0.7,0.7,1.9,0.9,2.8,0.3l35.7-21.4l-0.7,41.6c0,1,0.7,2,1.7,2.2c1,0.3,2.1-0.2,2.6-1.1L85,133.5
	l20.2,36.4c0.4,0.7,1.2,1.2,2,1.2c0.2,0,0.4,0,0.6-0.1c1-0.3,1.7-1.2,1.7-2.2l-0.7-41.6l35.7,21.4c0.9,0.5,2,0.4,2.8-0.3
	c0.7-0.7,0.9-1.9,0.3-2.8l-21.4-35.7l41.6,0.7c1,0,2-0.7,2.2-1.7C170.2,107.8,169.8,106.7,168.8,106.2z M122.1,105.2
	c-0.8,0-1.6,0.4-2,1.1s-0.4,1.6,0,2.3L139,140l-31.4-18.8c-0.7-0.4-1.6-0.4-2.3,0c-0.7,0.4-1.1,1.2-1.1,2l0.6,36.6l-17.8-32
	c-0.4-0.7-1.2-1.2-2-1.2s-1.6,0.4-2,1.2l-17.8,32l0.6-36.6c0-0.8-0.4-1.6-1.1-2c-0.7-0.4-1.6-0.4-2.3,0L31,140l18.8-31.4
	c0.4-0.7,0.4-1.6,0-2.3c-0.4-0.7-1.1-1.1-2-1.1l-36.6,0.6l32-17.8c0.7-0.4,1.2-1.2,1.2-2s-0.4-1.6-1.2-2l-32-17.8l36.6,0.6
	c0.9,0,1.6-0.4,2-1.1s0.4-1.6,0-2.3L31,32l31.4,18.8c0.7,0.4,1.6,0.4,2.3,0c0.7-0.4,1.1-1.2,1.1-2l-0.6-36.6l17.8,32
	c0.4,0.7,1.2,1.2,2,1.2s1.6-0.4,2-1.2l17.8-32l-0.6,36.6c0,0.8,0.4,1.6,1.1,2s1.6,0.4,2.3,0L139,32l-18.8,31.4
	c-0.4,0.7-0.4,1.6,0,2.3c0.4,0.7,1.1,1.1,2,1.1l36.6-0.6l-32,17.8c-0.7,0.4-1.2,1.2-1.2,2s0.4,1.6,1.2,2l32,17.8L122.1,105.2z"/>
<g class="st1">
	<path class="st2" d="M99.6,172c-1.8-2.9-4.4-5.1-6.8-7.3c-5.6-5.2-9.5-11.5-13.9-17.5c-5-6.8-8.8-14.3-12.9-21.7
		c-1.3-2.3-2.4-2.7-4.8-1.6c-13.8,6.2-28.1,11.3-42.4,16.2c-3.9,1.3-3.9,1.2-5.8-2.4c-0.3-0.6-1-1.4-1.6-1.4
		c-2.9-0.3-2.3-1.9-1.7-3.7c2.7-7.4,6.9-14.1,10.8-20.9c3-5.1,6.3-10,7.9-15.7c0.7-2.3,0.4-4.2-0.9-6.1
		c-4.7-7.2-10.4-13.7-15.7-20.4c-3.7-4.6-7.3-9.3-10.9-13.9c-1.9-2.4-1.4-4,1.4-5c3.3-1.3,6.8-1.5,10.2-1.4
		c11.2,0.4,22.4,0.8,33.6,2.1c2.4,0.3,5,2.2,7,0.7c1.7-1.3,2.3-4,3.4-6c7.8-14.3,17.2-27.2,28.1-39c1.9-2,4-4,6.4-5.4
		c5-3,8.5-1.7,9.8,4c1.3,5.9,1.6,11.9,1.8,17.8c0.3,10.4-0.9,20.8-1,31.1c-0.1,4.9,0.2,5.5,5.1,6.3c10.4,1.8,20.9,3.3,31.3,5.4
		c10,2,19.9,4.6,29.3,8.6c2.7,1.1,3.6,3.6,4,6c0.4,2.8-1.5,4.9-3.7,6.5c-4.3,3.1-9.2,5-14.1,6.8c-13,4.6-26,9.2-39.1,13.7
		c-2.2,0.7-2.8,2.2-3,4.2c-0.7,9.1-1.4,18.3-2.2,27.4c-0.7,8.2-2.2,16.3-3.8,24.4c-0.6,2.9-1.7,5.6-3.4,8
		C101.1,172,100.3,172,99.6,172z M96.5,18.1c-0.2-3-0.4-6.6-0.6-10.1c0-0.6,0.2-1.4-0.4-1.8c-0.9-0.5-1.3,0.5-1.9,0.9
		c-2,1.5-3.1,3.9-4.8,5.7c-6.1,6.4-11.2,13.8-16.4,20.9c-3.8,5.1-7,10.8-10.5,16.1c-1.5,2.2-2.9,4-0.5,6.8c1.9,2.2,0.5,4.1-2.6,4.4
		c-1.7,0.2-3.6-0.6-5,1.1c-0.2,0.3-0.7,0.2-1-0.1c-1.5-1.4-3.4-0.7-5.1-0.9c-3.8-0.5-7.7-0.3-11.4-1.3c-7.4-2-14.9-3.2-22.6-2.9
		c-0.6,0-1.4-0.3-1.8,0.4c-0.3,0.7,0.3,1.2,0.7,1.6c6,7.3,12.1,14.5,18.1,21.8c2.3,2.9,4.6,5.8,6.5,9c3,4.8,2.7,9.3-0.4,13.9
		c-5.3,7.7-10.4,15.6-15.1,23.6c-0.4,0.7-1.2,1.5-0.6,2.3c0.7,0.9,1.5,0.1,2.3-0.2c2.9-1.1,5.7-2.3,8.6-3.5
		c8.7-3.7,17.6-6.8,26.3-10.6c5.4-2.4,8.8-1.2,12,3.7c2.2,3.4,4.2,6.8,6.1,10.3c5.2,9.2,11,18,17.5,26.4c0.5,0.7,1,1.9,2,1.8
		c1.2-0.2,1.1-1.6,1.3-2.5c3.7-14.7,5.1-29.8,6.9-44.9c0.6-5,2.5-8.5,7.2-10.4c0.6-0.2,1.2-0.5,1.8-0.8c6-2.1,12-4.2,18-6.4
		c8.7-3.2,17.3-6.6,25.6-10.8c0.8-0.4,2.1-0.6,2-1.6c-0.1-0.9-1.3-0.8-2.1-1.1c-4.9-1.9-10.1-2.8-15.1-4.1
		c-10.4-2.6-21-4.4-31.5-6.6c-9.6-2-14.5-7.5-14.9-16c-0.1-1.9,0.1-3.7,0.1-5.6C95.3,37.1,96.6,27.9,96.5,18.1z"/>
</g>
<g class="st1">
	<g class="st3">
		<path class="st4" d="M18.4,86c0-27.8,0-55.5,0-83.3c0-1.6,0.3-1.9,1.9-1.9c43.5,0.1,87,0.1,130.6,0c1.6,0,1.9,0.3,1.9,1.9
			c-0.1,55.5-0.1,111,0,166.6c0,1.6-0.3,1.9-1.9,1.9c-43.5-0.1-87-0.1-130.6,0c-1.6,0-1.9-0.3-1.9-1.9
			C18.4,141.5,18.4,113.8,18.4,86z"/>
		<path class="st5" d="M113.9,134c0,0.4,0,0.7,0,1.1c-0.6,1.1-1.7,1.1-2.7,1.1c-1.1,0-2.2,0-3.3,0.2c-1.4,0-1.9-1.1-2.4-2.1
			c-2-4.2-2.5-8.8-3.2-13.3c-0.4-2.6-0.2-5.3-0.8-7.9c-0.9-11.8-0.5-23.7,0-35.5c0.3-1.1,1.2-1.5,2-2.1c2.9-1.8,5.2-4.2,7.2-7
			c0.7-1,1.4-2.1,0.6-3.4c-0.7-1.2-1.9-1.4-3.2-1.4c-1.1,0-2.2-0.1-3.2,0.1c-1.9,0.2-3.2,1.6-3.2,3.6c-0.1,2.4-0.1,4.8,0,7.1
			c0,1.7-0.7,2.5-2.3,3c-3,0.8-6.1,0.8-9.1,0c-1.7-0.5-2.5-1.4-2.1-3.2c0.3-1.6,0.3-3.2,0.2-4.8c-0.2-2.5-1.9-3.6-4.3-2.9
			c-1.7,0.4-2.8,1.6-3.7,2.9c-0.7,1.1-0.5,2.4,0.6,3.3c1.1,1,2.3,1.7,3.7,2.3c1.3,0.6,2.8,1,3.3,2.6c0.1,0.2,0,0.5,0,0.7
			c-1,1.9-1.9,3.9-3.6,5.3c-1.6,1.4-2.5,1.3-3.8-0.4c-1.3-1.7-2.4-3.6-4.1-5c-1.5-1.3-3.2-2.2-5.2-1.8c-2.7,0.4-3.7,2.8-2.4,5.1
			c1.8,3.1,6.4,5.2,9.9,4.6c3.1-0.6,3.4-0.4,4.8,2.7c3.9,9.1,6.3,18.6,8.5,28.1c1.3,5.9,2.4,11.9,3.3,17.8c0.6,3.6,0.5,3.7-3.2,4.5
			c-1.6,0.2-3.2,0.8-4.8,1.1c-1,0.1-1.4-0.5-1.4-1.4c-0.3-7.1-4.2-12.3-8.7-17.3c-7.2-7.8-15.8-13.8-24.8-19.4
			C41.9,95.9,35,86.9,32.7,74.6c0-0.3,0-0.7,0-1c-0.6-2.5-0.9-5.1-0.7-7.6c0.1-1.2,0.3-2.4,0.3-3.6c0.5-6.7,2.6-12.9,5.6-18.8
			c4.8-9.4,11.5-17,21.1-21.6c4.1-2,8.6-3.3,13-4.4c2-0.4,4-1.1,6.1-1.4c2.8-0.5,5.6-1,8.4-0.9c0.2-0.1,0.4-0.1,0.7-0.2
			c0.2-0.5,0.5-0.5,0.9-0.5c3.2,0.4,6.4,0.1,9.5,0.2c0.3,0,0.6,0,0.9,0c1.8,0.7,3.7,0.6,5.5,1.1c15,3,25.1,11.8,30.7,25.9
			c0.5,1.3,1.1,2.5,1.4,3.9c1.2,3.7,1.7,7.6,2.8,11.3v-0.1c0.4,1.5-0.3,3.1,0.2,4.6c0.1,3.6,0,7.2-0.7,10.7
			c-0.1,1.6-0.7,3.2-0.9,4.8c-2.6,10.3-8,19.2-13.6,28c-3.7,5.8-7.6,11.5-9.5,18.3C113.2,126.8,112.6,130.4,113.9,134z"/>
		<path class="st6" d="M85.7,153.5c-0.1-0.4-0.3-0.9-0.4-1.3c-1-4.3-1-4.3,3.3-4.3c0.9,0,1.8,0,2.7,0c1.6-0.1,3.2-0.4,4.9-0.7
			c0.9-0.2,1.9-0.4,2.8-0.6c4.2-0.9,8.5-1.8,12.6-3.1c0.3-0.1,0.8,0,0.8-0.3c-2,0.2-3.8,2-6.1,1.1c-0.6-1.3,0-2.2,1-3
			c1.3-0.9,2.7-1.7,4.4-1.7c2.1,0,4.1-0.5,5.9-1.4c1.1,0.6,0.8,1.6,0.8,2.5c-0.8,0.8-1,1.4,0.4,1.8c1.1,1.5,1.9,3,1.3,5
			c-1.1,1.2-2.8,1.1-4.1,1.9c-1.3,0.6-2.6,1.1-4,1.4c-2.9,0.3-5.6,1.5-8.5,2c-2.6,0.6-5.1,1.1-7.7,1.6c-0.5,0.2-0.9,0.3-1.4,0.3
			c-1.2-0.3-2.4,0.3-3.6,0.3C88.8,155.2,87.1,155,85.7,153.5z"/>
		<path class="st7" d="M104.1,166.1c-0.3,0.1-0.6,0.3-0.9,0.4c-2.3,0.4-4.6,1.1-7,0.9c-2.4-0.2-2.1-2.2-2.5-3.8
			c-0.3-1.4-0.2-2.5,1.5-2.7c1.3-0.1,2.6-0.4,3.9-0.6c0.7-0.5,1.8-0.1,2.3-1c-0.8-0.3-1.2,0.4-1.8,0.7c-0.3,0.2-0.6,0.3-0.9,0.3
			c-1.2,0.2-2.5,0.4-3.7,0.6c-0.3,0.1-0.7,0-1-0.1c-1.6-1.6-3.2-1.2-4.9,0c-1.5-0.2-1.8-1.4-2.1-2.6c-0.2-0.9-0.4-1.8-0.6-2.7
			c0.1-1,0.9-0.8,1.6-0.8c1.8,0.1,3.6,0,5.4-0.2c1.2,0.2,1.3,1.6,2.3,2.1c0.7,0.3,1.5,1.1,2.2,0.4c0.8-0.8-0.2-1.3-0.5-1.9
			c-0.1-0.3-0.3-0.5-0.2-0.8c1.1-0.8,2.3-0.7,3.5-0.9c0.7,0.2,0.6,1.2,1.4,1.4c0.6,0.1,1.2,0.3,1.7-0.1c0.7-0.6-0.1-1-0.2-1.6
			c0-0.2,0.1-0.4,0.3-0.5c1.4-0.1,2.6-0.9,4-0.9c0.3,0.2,0.4,0.6,0.5,1c0.7,3.7,1.6,4.3,5.4,3.5c1.4,0.4,2.7-1.1,4-0.1
			c0.6,1.3,0.8,2.6,0.6,3.9c-0.1,0.6-0.6,0.8-1.1,1.1C113,162.8,108.7,164.8,104.1,166.1z"/>
		<path class="st8" d="M32.7,74.6c0.4,0.1,0.5,0.5,0.6,0.9c2.7,12.5,10.3,21.2,21,27.8c9.4,5.8,18.4,12.2,25.4,21
			c3.6,4.4,6.5,9.2,6.4,15.1c0,0.8,0.5,0.8,1,0.8c0.2,0.2,0.2,0.4,0,0.7c-0.9,0.7-1.9,1-3.1,0.5c-0.2-0.2-0.3-0.4-0.1-0.6
			c1.6-0.2,1.4-1.4,1.3-2.4c-0.3-3.9-1.9-7.4-4.1-10.6c-5.5-8.1-13.2-14-21.1-19.6c-4.6-3.2-9.5-5.8-13.8-9.5
			C39,92.6,34.6,85,32.2,76C32.1,75.4,32,74.9,32.7,74.6z"/>
		<path class="st9" d="M113.9,134c-1.2-0.5-0.9-1.7-1-2.6c-0.6-7,2.3-13,5.7-18.8c4.7-8.2,10.4-15.9,14.4-24.6
			c1.6-3.6,2.9-7.3,4.1-11c0.9,0,0.6,0.5,0.4,1c-1.7,7.4-5.3,14-9.1,20.4c-3.3,5.7-7.1,11.1-10.3,16.9
			C114.9,121.2,112.9,127.2,113.9,134z"/>
		<path class="st10" d="M71.9,17.9c-5.6,1.7-11.3,3.1-16.2,6.3c-12.4,8-19.4,19.7-22.4,34c-0.3,1.2-0.4,2.4-0.7,3.6
			c-1.1-0.3-0.4-1-0.5-1.6c1.7-12.6,7.4-23.1,16.5-31.8c6.2-6,13.9-9.1,22.2-11C71.2,17.3,71.8,17,71.9,17.9z"/>
		<path class="st11" d="M135.6,45.6c-2.8-8.5-7.2-16-14.4-21.6c-5.1-4-11-6.2-17.2-7.8c0.2-0.4,0.7-0.2,1-0.4
			c16,3.5,26,13.5,31,28.9C136.2,45,136.5,45.6,135.6,45.6z"/>
		<path class="st12" d="M95.5,161.1c-2.1,0.4-1.5,1.9-1.3,3.2c0.3,1.3,0.3,2.7,2.3,2.8c2.3,0.2,4.4-1,6.7-0.6
			c-2.5,1.5-5.2,1.6-7.9,1.1c-1.6-0.3-1.8-1.8-1.9-3.1c-0.1-2.2-0.7-3.4-3.3-3.1c-2.6,0.2-3.6-1.2-3.9-5c0.1-0.2,0.2-0.5,0.5-0.5
			c0.3,0.7,0.8,1.3,0.8,2.3c-0.1,1.1,0.4,2.3,1.9,2.4c1.5-0.9,3.1-0.9,4.6,0c0.3,0,0.6,0.1,0.9,0.1S95.5,160.8,95.5,161.1z"/>
		<path class="st13" d="M104.1,166.1c4-1.7,8.1-3.4,12.1-5.1c0.6-0.3,1.2-0.6,1.8-0.9c0.2-0.3,0.5-0.3,0.7,0c0,1-0.9,1-1.4,1.2
			c-3.5,1.5-7.1,2.9-10.6,4.4C106,166.1,105.1,166.2,104.1,166.1z"/>
		<path class="st14" d="M32.1,60.2c0.2,0.5,0,1.1,0.5,1.6c-0.3,3.9-0.1,7.9,0.1,11.8c-0.5-0.3-0.9-0.8-0.9-1.4
			C31.5,68.1,31.2,64.1,32.1,60.2z"/>
		<path class="st15" d="M135.6,45.6c0.1-0.3,0.3-0.7,0.4-1c1.5,4,2.5,8.1,2.7,12.4c-0.8-0.4-0.9-1.1-1-1.9
			C137.3,51.9,136.5,48.7,135.6,45.6z"/>
		<path class="st16" d="M118,141.1c0.4-1,0.2-2-0.3-2.9c-1.5-1.6-3.4-1.5-5.4-1.5c-1.3,0-2.5,0.5-3.8,0.1c-0.4-0.2-0.6-0.5-0.7-0.9
			c2-0.8,4.1-0.1,6.1-0.9c3.1,0.1,4.9,1.5,5.1,4.7C118.4,140,119.3,141.3,118,141.1z"/>
		<path class="st17" d="M137.9,72.4c0.6-3.6,0.6-7.2,0.8-10.8c0-0.9-0.8-1.9,0.5-2.5c0.5,5,0.4,10-0.8,14.9
			C137.8,73.5,138.3,72.9,137.9,72.4z"/>
		<path class="st18" d="M97.5,14.7c-3.1,0.8-6.2,0.8-9.4,0c-0.4-0.1-0.7-0.1-1.1,0.2c1.6-1.2,3.5-0.6,5.2-0.7
			C94.1,14.2,95.8,14,97.5,14.7z"/>
		<path class="st19" d="M91.7,148.4c-1.7,0.1-3.5,0.2-5.2,0.1c-1.4-0.1-1.8,0.2-1.3,1.6c0.2,0.6,0.1,1.3,0.1,2
			c-0.5-0.1-0.6-0.5-0.6-0.8c-0.1-2.4-1.2-4.4-2-6.5c0.2-0.6,0.5-0.8,1.1-0.4c1.2,3.6,4.3,2.9,7.1,3.1
			C91.2,147.7,91.7,147.8,91.7,148.4z"/>
		<path class="st20" d="M86.4,15.2c-2.8,0.4-5.7,0.9-8.5,1.3c-0.4-0.4-1.1,0.1-1.4-0.4C79.7,15.4,83,14.2,86.4,15.2z"/>
		<path class="st21" d="M86.7,155.8c-0.2,0.2-0.3,0.3-0.5,0.5c-0.2-0.9-0.4-1.9-0.5-2.8c2.2,1.1,4.5,1,6.9,0.7
			c0.7-0.1,1.5-0.6,2,0.3c-0.1,0.2-0.3,0.4-0.6,0.4c-2,0-3.9,0.1-5.9,0.1C87.5,155,86.7,154.7,86.7,155.8z"/>
		<path class="st22" d="M121.8,150.3c1.5,3.8,1.3,4.1-2.9,5.1c-0.3-0.1-0.6-0.3-0.5-0.7c0.1-0.3,0.3-0.5,0.6-0.6
			c1.7-0.4,2.3-1.5,2-3.2C121.2,150.5,121.4,150.3,121.8,150.3z"/>
		<path class="st23" d="M121.8,150.3c-0.1,0.2-0.3,0.4-0.4,0.6c-1.5-1.7-3.9-1-5.7-1.8c1.2-0.8,2.6-1.1,4-1.4c0.2-0.2,0.4-0.1,0.6,0
			C120.2,148.8,122,149,121.8,150.3z"/>
		<path class="st24" d="M76.4,16.1c0.5,0.1,1.1-0.1,1.4,0.4c-2,0.5-4,0.9-6,1.4c-0.4-0.2-0.7-0.3-1.1-0.5
			C72.6,16.8,74.5,16.2,76.4,16.1z"/>
		<path class="st25" d="M105.1,15.7c-0.3,0.1-0.7,0.3-1,0.4c-1.9-0.5-4,0.2-5.6-1.4C100.7,14.7,102.9,15.1,105.1,15.7z"/>
		<path class="st26" d="M120.3,147.6c-0.2,0-0.4,0-0.6,0c0.5-1.9-0.2-3.5-1.4-5c0.1-0.3,0.3-0.3,0.6-0.4
			C120.3,143.7,121.3,145.4,120.3,147.6z"/>
		<path class="st27" d="M118.9,142.1c-0.2,0.1-0.4,0.3-0.6,0.4c-0.8-0.1-1.7-0.2-2.5-0.3c0-0.1,0-0.3,0-0.4c0.7-0.3,1.5-0.5,2.2-0.8
			c0.3-0.5,0.6-0.9,0.9-1.4C118.9,140.6,118.9,141.3,118.9,142.1z"/>
		<path class="st28" d="M83.3,144.4c-0.2,0.1-0.5,0.3-0.7,0.4c-0.1-0.9-0.1-1.8-0.2-2.7c-0.1-1.1,0.5-1.5,1.4-1.4c0,0.2,0,0.3,0,0.5
			C84.2,142.4,84.3,143.5,83.3,144.4z"/>
		<path class="st29" d="M137.9,72.4c0.5,0.4,0.3,1,0.5,1.5c0,1.4-0.5,2.8-1,4.1c-0.1-0.3-0.3-0.7-0.4-1
			C137.3,75.5,137.6,73.9,137.9,72.4z"/>
		<path class="st30" d="M118.4,154.9c0.2,0.1,0.3,0.3,0.5,0.4c-0.1,0.1-0.2,0.1-0.4,0.1c-0.3,0.2-0.5,0.8-1.1,0.5
			c-1.2,0.1-2.4,1.3-3.7,0.4C114.9,154.7,116.5,154.4,118.4,154.9z"/>
		<path class="st31" d="M117.4,156c0.4-0.2,0.7-0.3,1.1-0.5c-0.3,1.6,0.7,3,0.3,4.6c-0.2,0-0.5,0-0.7,0
			C118.2,158.6,118.1,157.3,117.4,156z"/>
		<path class="st15" d="M139.2,59c-0.7,0.7-0.3,1.7-0.5,2.5c-0.8-1.6-0.1-3.1,0-4.7C139.1,57.6,139.2,58.3,139.2,59z"/>
		<path class="st5" d="M87.6,78.3c0-0.1,0-0.2,0-0.3c-0.1-1.4,0.9-1,1.6-0.8c3.5,0.9,7,1.1,10.6,0.1c1.5-0.4,1.7,0.6,1.7,1.7
			c-0.2,10.4-0.9,20.9,0,31.3c0.2,6.9,0.9,13.7,2.7,20.4c0.3,1.2,0.7,2.3,1.3,3.4c0.9,1.6,0.4,2.6-1.4,3c-2.4,0.2-4.7,1-7.2,1.2
			c-1.9-0.6-1.6-2.4-1.8-3.7c-2.3-14.1-5.2-28.1-10.1-41.5c-0.7-1.9-1.5-3.9-2.4-5.7c-0.6-1.1-0.5-2,0.7-2.8
			C85.4,83.1,86.6,80.8,87.6,78.3z"/>
		<path class="st32" d="M87.6,78.3c0.1,3-1.8,4.9-4,6.6c-0.7,0.5-1.3,0.7-0.8,1.9c6,13.1,8.9,27,11.6,41c0.5,2.8,1,5.6,1.5,8.4
			c0.1,0.7,0.1,1.4,0.9,1.7c0.1,0.2,0.1,0.4,0,0.7c-1.5,0.9-3,1.5-4.8,1c-0.2-0.1-0.3-0.3-0.2-0.6c3.4-0.9,3.4-0.9,2.8-4.5
			c-2.2-13-4.8-25.9-9.1-38.4c-1-2.8-2.1-5.6-3.3-8.3c-0.5-1.2-1-1.5-2.4-1.2c-3.9,1-7.4-0.1-10.4-2.9c-2.1-2-2.6-4.1-1.4-5.9
			c1.3-2,3.6-2.6,6.3-1.4c3,1.3,4.9,3.7,6.3,6.4c1.1,2.1,2.1,1.7,3.4,0.4c0.9-0.9,1.7-2,2.3-3.2C86.6,79.4,86.7,78.6,87.6,78.3z"/>
		<path class="st33" d="M101,78.8c-0.1-0.6,0.1-1.4-1.1-1c-3.6,1.1-7.2,0.9-10.9-0.1c-0.5-0.1-1.1-0.3-1.4,0.3
			c-0.4-0.8-1.1-1.3-2-1.6c-1.4-0.6-2.8-1.3-4.1-2.1c-3-1.8-3.2-4.4-0.6-6.7c0.9-0.8,1.9-1.3,3-1.6c2.9-0.8,4.8,0.6,5,3.7
			c0.1,1.8,0.1,3.5-0.3,5.3c-0.2,1.1,0,1.6,1.2,1.9c3.2,0.9,6.3,1.1,9.5,0.1c1.1-0.3,1.6-0.8,1.6-2.1c-0.1-2.5,0-4.9-0.1-7.4
			c-0.1-1.6,0.6-2.7,1.9-3.4c2.4-1.3,5-1.4,7.6-0.4c2.2,0.9,2.5,3,0.9,5.2c-2.5,3.5-5.5,6.4-9.4,8.3C101.1,77.4,102.4,78.8,101,78.8
			z"/>
		<path class="st34" d="M41.7,64.1c0.1-2.7,0.1-5.5,1.2-8.2c0.8-2.1,2.3-3.6,4.3-4.6c0.7-0.4,1.7-0.5,2.4,0.2c0.6,0.6,1,1.5,0.6,2.3
			c-2.7,5.1-1.3,10.1,0.1,15.2c0.5,1.7,0.8,3.4,0.6,5.2c-0.2,2-1.1,3.3-3.1,3.8c-2,0.4-3-0.8-3.8-2.3C42.1,72.1,41.8,68.2,41.7,64.1
			z"/>
		<path class="st35" d="M101,78.8c0.9-0.3-0.2-1.6,0.9-1.8c-0.3,12.1-0.6,24.1,0,36.2c0.1,0.3,0.3,0.8-0.1,1
			c-0.7,0.3-0.6-0.3-0.6-0.7c-0.1-0.9,0.2-1.9-0.2-2.8C100.2,100.1,100.5,89.5,101,78.8z"/>
		<path class="st36" d="M101,110.7c0.8,0.9,0.1,2.1,0.5,3c0.3,0.6,0.3-0.2,0.4-0.4c0.7,4.4,0.8,8.9,1.7,13.4
			c0.6,2.8,1.4,5.6,2.6,8.3c0.3,0.7,0.6,1.2,1.5,1.1c0.2,0.2,0.4,0.3,0.6,0.5c-1.3,1-2.8,1.3-4.4,0.8c-0.3-0.2-0.3-0.4-0.2-0.7
			c1.3-0.2,2-0.3,1.3-2.1C101.8,126.9,101.2,118.8,101,110.7z"/>
		<path class="st37" d="M55.8,40.5c0,2.6-3.5,5.4-6,4.6c-1.7-0.5-2-2.2-2-3.8c-0.1-2.2,2.9-5,5-4.9C54.3,36.5,55.8,38.5,55.8,40.5z"
			/>
		<path class="st38" d="M91.7,139c0,0.1,0,0.2,0,0.3c-1.2,1.8-2.8,1.7-4.6,1.3c0-0.1,0-0.3,0-0.4C88.5,139.3,90.2,139.3,91.7,139z"
			/>
		<path class="st39" d="M87.1,140.5c1.5-0.4,3.2-0.4,4.6-1.3c1.8,0.2,3.4-0.5,5.1-0.9c2.2-0.8,4.6-1.2,6.9-1.4
			c1.5-0.2,3.1-0.4,4.6-0.5c2.2-0.1,4.4-0.3,6.6-0.4c1.5-0.1,2.5,0.5,2.7,2.2c-1,2-3,1.9-4.8,2c-1.7,0-3.1,0.5-4.6,1.2
			c-1.3,0.7-2,1.6-1.7,3.1c-1.1,1.4-2.8,1-4.2,1.6c-1,0.4-2.2,0.5-3.3,0.8c-1.2,0.2-2.4,0.6-3.6,0.7c-1.6,0.3-3.2,0.4-4.8,0.4
			c-0.8,0-1.7,0-2.5,0c-3.6,0-3.7-0.1-4.9-3.6c0.2-1-0.6-2.3,0.6-3.2C85,141,86,140.8,87.1,140.5z"/>
		<path class="st40" d="M118.4,154.9c-1.6,0.3-3.2,0.8-4.7,1.4c-3.6,1.9-5.8,0.2-5.8-4.5c1.1-1.2,2.8-0.9,4.1-1.5
			c1.2-0.5,2.5-0.9,3.7-1.4c0.7,0,1.4,0.1,2,0c1.8-0.4,3.1,0,3.7,1.9C122.7,153.9,120.2,154.1,118.4,154.9z"/>
		<path class="st40" d="M94,154.9c0.2-0.1,0.4-0.2,0.6-0.4s0.4-0.3,0.6-0.5c0.7,0.1,1.4-0.1,1.9,0.4c0.9,0.6,2.1,1.1,1.8,2.5
			c-0.1,0.7-0.9,1-1.6,1.1C96.2,158.2,94.2,156.2,94,154.9z"/>
		<path class="st41" d="M99.1,146.6c2.5-0.7,5-1.4,7.4-2.1c2.4-0.6,4.8-1.3,7.2-1.9c0,0.2,0.1,0.4,0.1,0.5c-4.8,1.6-9.7,3.1-14.8,4
			c-0.2-0.1-0.2-0.2-0.2-0.3C99,146.7,99,146.6,99.1,146.6z"/>
		<path class="st42" d="M97.1,154.5c-0.6-0.1-1.4,0.4-1.9-0.4c2.7-0.6,5.4-1.2,8.1-1.7c0.2,0.1,0.5,0.1,0.5,0.4
			c-0.1,0.1-0.1,0.2-0.2,0.3c-0.8,0.7-1.7,1-2.7,0.6C99.7,154,98.4,154.2,97.1,154.5z"/>
		<path class="st43" d="M103.8,152.7c-0.2-0.1-0.4-0.3-0.5-0.4c2.9-0.6,5.6-2,8.7-1.9c-1.2,1-2.8,0.9-4.1,1.5
			C106.5,152.2,105.2,152.5,103.8,152.7z"/>
		<path class="st44" d="M90.7,148c1.6-0.2,3.2-0.5,4.8-0.7c0.3,0.2,0.8,0,1,0.4c-1.5,0.6-3.1,0.6-4.7,0.8
			C91.4,148.3,91,148.1,90.7,148z"/>
		<path class="st45" d="M96.4,147.7c-0.3-0.1-0.6-0.3-1-0.4c1.2-0.2,2.4-0.4,3.6-0.6c0,0.2,0,0.3,0,0.5
			C98.2,147.3,97.3,147.5,96.4,147.7z"/>
		<path class="st40" d="M100.9,153.7c0.9-0.4,1.7-0.7,2.7-0.6c0.8,0.1,1.6,0.4,1.3,1.4c-0.2,0.8-1,1-1.6,0.9
			C102.3,155.2,100.4,156.1,100.9,153.7z"/>
		<path class="st40" d="M94,160.5c-1.5,0.3-3.1,0.4-4.6,0C90.6,158.5,92.9,158.5,94,160.5z"/>
		<path class="st40" d="M106.1,158.2c-0.8-0.1-1.4-0.5-1.1-1.3s1.2-0.7,1.8-0.5c1,0.4,0.4,1.1,0.1,1.6
			C106.7,158.5,106.4,158.5,106.1,158.2z"/>
		<path class="st46" d="M106.1,158.2c0.3,0,0.6-0.1,0.8-0.1c0.9,0.1,1.7-0.8,2.8-0.1c-1.5,0.8-3,0.9-4.5,1.3
			C105.2,158.4,105.9,158.6,106.1,158.2z"/>
		<path class="st47" d="M101.9,159.2c0.3,0,0.8-0.2,1,0.3c0.2,0.6-0.3,0.5-0.6,0.6c-0.9,0.1-1.8,0.3-2.7,0.4
			c-0.2-0.2-0.5-0.2-0.5-0.5c0.2-0.1,0.4-0.3,0.5-0.4C100.3,159.1,101.1,159,101.9,159.2z"/>
		<path class="st48" d="M99,160c0.2,0.2,0.3,0.3,0.5,0.5c-1.3,0.2-2.6,0.7-4,0.6c-0.2-0.2-0.4-0.3-0.5-0.5
			C96.3,160.4,97.7,160.2,99,160z"/>
		<path class="st40" d="M101.9,159.2c-0.7,0.5-1.5,0.4-2.3,0.4C100.2,158.9,100.8,157.6,101.9,159.2z"/>
		<path class="st49" d="M103.7,137c-2.3,0.6-4.6,1.1-6.9,1.4c0-0.1,0-0.3,0-0.4c2.3-0.7,4.6-1.1,6.9-1.3
			C103.7,136.7,103.7,136.9,103.7,137z"/>
		<path class="st50" d="M76.8,85.9c-2.9-0.2-5.5-1.4-7.4-3.9c-0.9-1.1-1.1-2.4-0.4-3.6s1.9-1.6,3.4-1.4c1.8,0.3,3.1,1.2,4.3,2.4
			c0.9,0.9,1.7,1.9,2.4,3c0.6,0.9,1.8,1.9,1.3,2.7C79.8,86.1,78.2,85.9,76.8,85.9z"/>
		<path class="st51" d="M101.9,66.4c1.8-2.2,4.9-3,7.6-2c1.7,0.6,2.2,1.8,1.2,3.2c-2.3,3.3-4.9,6.3-8.6,8
			C101.3,72.5,101.6,69.5,101.9,66.4z"/>
		<path class="st52" d="M87.7,71.9c0,4.3,0,4.3-3.9,2.3c-0.2-0.1-0.4-0.2-0.6-0.3c-1.5-0.9-3.4-1.5-2.8-3.8c0.5-1.8,3.6-3.5,5.6-3.2
			c1.1,0.2,1.6,0.8,1.7,1.8C87.8,69.8,87.7,70.8,87.7,71.9z"/>
		<path class="st53" d="M101.9,66.4c0,3.1,0.1,6.1,0.1,9.2c-1.1-0.8-0.5-2-0.6-3c-0.1-2.1,0-4.1,0-6.2c0,0,0.1-0.1,0.2-0.1
			C101.8,66.3,101.8,66.4,101.9,66.4z"/>
		<path class="st54" d="M42.8,63.9c0.1-2.7,0.1-5.5,1.4-8.2c0.7-1.5,1.9-2.6,3.3-3.4c0.4-0.2,0.9-0.4,1.3,0c0.3,0.3,0.4,0.8,0.2,1.3
			c-2.5,5.3-1.3,10.6,0.2,15.9c0.4,1.3,0.7,2.7,0.6,4.1c-0.1,1.6-0.6,2.9-2.3,3.3c-1.8,0.4-2.4-1-3-2.3
			C43.1,71.3,42.9,67.7,42.8,63.9z"/>
		<path class="st55" d="M50.6,43.9c-1.4,0.1-1.5-1-1.7-2c-0.4-2,1-2.9,2.4-3.7c0.9-0.5,1.8-1,2.6,0.1c0.8,1,1.3,2.1,0.6,3.4
			C53.6,43.1,52.3,43.8,50.6,43.9z"/>
	</g>
</g>
<g>
	<path class="st56" d="M91.5,136.1c-1.6-0.5-3.2-0.5-4.8-0.4c-1.2,0.1-1.7-0.2-1.7-1.6c0.4-9.3,0.4-18.6-0.1-27.8
		c-0.5-8.5-1.2-17-3.4-25.2c-0.2-0.8-0.1-1.1,0.7-1.4c2.9-1,4.8-3,6.1-5.7c0.4-0.9,0.8-1.1,1.8-0.6c3.9,1.9,5.3,2.1,11.4,2.1
		c-0.6,3-1.1,6-1.8,9c-2.5,11.3-4.6,22.6-5.8,34.1c-0.2,1.5-0.1,3-0.2,4.4c0,0.4-0.2,1,0.5,1s0.6-0.6,0.6-1.1
		c0.1-6.9,1.3-13.6,2.4-20.4c1.5-9,3.6-17.9,5.5-26.8c0.1-0.7,0.5-0.9,1.1-1.1c4-1.1,7.3-3.5,10.3-6.3c2.3-2.2,1.9-4.4-1-5.9
		c-1.7-0.9-3.5-1.1-5.4-0.9c-2.7,0.3-3.8,1.5-4.1,4.2c-0.3,2.6-1.1,5.1-1.6,7.7c-0.1,0.4-0.3,0.6-0.7,0.6c-4.1,0.8-7.8-0.3-11.4-2.2
		c-0.8-0.4-0.4-1-0.2-1.5c0.7-1.9,1-3.9,1.4-5.9c0.5-2.7-1-4.5-3.8-4.4c-1.8,0-3.4,0.6-4.8,1.7c-2,1.6-2.2,3.8-0.4,5.7
		c1.4,1.5,3,2.7,4.7,3.8c1,0.6,1.1,1.2,0.5,2.2c-1.2,2.1-2.8,3.9-5.1,4.9c-0.9,0.4-1.4,0.4-1.7-0.7c-0.8-2.5-1.9-4.8-3.5-6.9
		c-1.5-2.1-3.7-2.8-6-3.1c-1.8-0.2-3.8,1.9-3.8,4c0,1,0.3,1.9,0.7,2.8c1.9,3.7,6.2,6,10.4,5.7c1.1-0.1,1.9,0.2,2.2,1.6
		c1.6,6.9,2.4,14,2.9,21.1c0.5,7.2,0.6,14.4,0.6,21.6c0,3.3-0.2,6.6-0.2,9.9c0,0.9-0.2,1.3-1.2,1.3c-2.5,0-4.9,0.1-7.4,0.2
		c-0.5,0-1.1,0.1-0.9-0.8c1.4-6.4-1-12.1-3.9-17.5c-4.7-8.6-11.2-15.7-18.1-22.4c-3.7-3.6-7.6-7-10.7-11.2
		C33.3,72,31.4,59,36.1,45.2c5.1-14.9,14.7-26,29.3-32.4C72,10,79,9.6,86,9.2c10.5-0.5,20.9,0.5,30.7,4.6
		c16,6.6,24.4,18.9,26.5,35.8c2.4,18.9-3.6,35-16,49.1c-5.3,6.1-11.2,11.7-16.3,17.9c-3.5,4.4-6.6,9-7.5,14.7
		c-0.2,1.3-0.3,2.6-0.3,3.9c0.1,1.1-0.3,1.2-1.3,1.1c-1.4-0.2-2.7-0.4-4.1-0.4c-1.2,0-1.6-0.4-1.9-1.6c-0.6-2.5-0.9-5.1-0.9-7.7
		c0-0.4,0.1-1-0.6-1c-0.6,0-0.5,0.6-0.5,1c0,2.5,0.2,5,0.9,7.5c0.4,1.3,0.2,1.8-1.3,1.6c-0.5-0.1-1.1,0.1-1.7,0.2
		C91.8,136.1,91.7,136.1,91.5,136.1z M55.2,40.9c0.4-2-0.7-3.1-2.5-2.7c-2.6,0.7-4.6,2.2-5.8,4.7C44,49,43.1,55.5,44.5,62.1
		c0.5,2.3,1.7,3.3,3.4,3.2c1.9-0.1,3.4-1.4,4-3.5c0.5-1.8,0.3-3.6,0.2-5.5c-0.3-5.3-0.7-10.6,3-15.1C55.1,41.2,55.2,41,55.2,40.9z
		 M55.1,28.2c-0.3,1.6,0.4,3.8,1.3,4.2c1.9,0.8,5.2-0.2,6.4-1.8c1.5-2.1,0.7-5.7-1.5-6.3C59.1,23.7,55.5,26.1,55.1,28.2z"/>
	<path class="st56" d="M75.8,79.2c-3.1-1-5.7-2.8-7-5.9c-0.5-1.2-0.5-2.5,0.5-3.5s2.3-1.3,3.6-0.8c1.6,0.6,2.7,1.7,3.7,3
		c1.4,1.9,2.2,4,3,6.1c0.4,1-0.1,1.2-0.9,1.2C77.8,79.3,76.8,79.5,75.8,79.2z"/>
	<path class="st56" d="M103.3,73.8c0.6-3,1.3-5.8,1.6-8.7c0.1-1.2,1-1.8,2-2.1c2.2-0.6,4.3-0.4,6.3,0.8c1.6,1,1.8,2.4,0.4,3.7
		C110.7,70.2,107.5,72.6,103.3,73.8z"/>
	<path class="st56" d="M89.7,66.8c-1,4.8-1,4.8-4.7,1.8c-0.4-0.4-0.9-0.7-1.3-1.1c-2.3-2-2-4,0.7-5.3c0.4-0.2,0.8-0.4,1.3-0.5
		c3.4-1,5,0.4,4.3,3.8C89.9,65.9,89.8,66.3,89.7,66.8z"/>
	<path class="st57" d="M95.5,164.3c2.1-0.5,3.9-0.9,5.6-1.3c2-0.5,3-2.7,2.2-4.5c-0.3-0.6-0.7-0.4-1.2-0.3c-1.7,0.1-3.5,0.2-5.2,0.4
		l-0.1-0.1c0.1-0.6,0.5-0.4,0.9-0.5c3-0.3,6-0.7,9.1-1c1.2-0.1,1.4-0.6,1.5-1.6c0.2-3.5-1-4.6-4.4-4.2c-8,0.9-16.1,1.6-24.2,1.2
		c-2.1-0.1-4.2-0.4-6.3-1c-1-0.3-1.3-0.1-1.3,1c0,0.5-0.1,0.9-0.1,1.4c0.1,3,0.7,3.7,3.6,4.3c5.3,1,10.6,0.8,15.9,0.5
		c1.3-0.1,2.5-0.1,3.6,0.3c-0.4,0.5-1.2,0.3-1.9,0.3c-4.6,0.3-9.3,0.5-13.9,0.1c-1.1-0.1-1.3,0.3-1.3,1.2c-0.3,4.9-0.1,5.2,4.5,5.5
		c2.8,0.2,5.6-0.2,8.4-0.6c0.6-0.1,1.3-0.4,1.9,0.1c-3.2,1.2-11.2,1.5-14,0.5c-1.2-0.4-1.4-1.3-1.5-2.3c-0.1-1.5,0.6-3.3-0.1-4.3
		c-0.6-0.9-2.6-0.8-3.9-1.2c-1-0.3-1.4-1.1-1.6-2.1c-0.3-1.2-0.4-2.5-0.2-3.7c0.1-1,0.2-1.9-0.2-2.8c-0.1-0.2-0.2-0.4-0.2-0.7
		c0.2-3.6-0.8-7.1-0.7-10.7c0.1-1.2,0.4-2,1.8-1.7c1.4,0.2,1.6-0.9,1.7-1.8c0.7-3.6-0.1-7.1-1.4-10.4c-2.6-7-6.9-12.9-11.7-18.5
		c-4.1-4.9-8.7-9.3-13.3-13.7c-15.3-14.4-19-33.9-9.8-52.8c6.1-12.5,15.3-22,28.4-27.2c6.3-2.5,12.9-3,19.6-3.3
		c9.5-0.5,18.8,0.4,27.9,3.4c18.6,6.2,28.5,19.3,30.7,38.7c2.1,18.7-3.8,34.7-16.1,48.5c-4.9,5.5-9.9,10.8-14.8,16.2
		c-3.6,4-6.7,8.3-8.4,13.5c-0.7,2.3-1,4.6-0.9,7c0,0.7,0.2,1,0.9,1.2c2.4,0.8,3.6,4,2.6,6.4c-0.5,1.2-1,1.7-2.3,1
		c-0.5-0.3-1.2,0-1.9,0c-8.1,0.9-16.2,1.6-24.3,1.2c-2.2-0.1-4.3-0.5-6.4-1.1c-0.8-0.2-1.1-0.1-1.1,0.7c0,0.6,0,1.1,0,1.7
		c0,2.8,0.7,3.6,3.5,4.2c6.1,1.2,12.3,0.8,18.5,0.4c4.2-0.3,8.4-0.8,12.6-1.3c0.9-0.1,1.8-0.2,1.5-1.5c-0.1-0.3,0-0.6,0.4-0.6
		s0.4,0.4,0.3,0.7c-0.9,1.6-0.1,2.9,0.4,4.4c0.1,0.4,0.1,0.8,0.2,1.2c0.2,2.7-0.1,3.1-2.7,3.3c-1.7,0.1-2.3,0.6-2.1,2.4
		c0.2,2.7-0.2,3-2.7,3.6c-1.6,0.4-3.2,0.7-4.9,1.1C96.3,164.7,96.1,164.6,95.5,164.3z M91.8,135.9c0.6-0.1,1.1-0.2,1.7-0.2
		c1.5,0.2,1.7-0.3,1.3-1.6c-0.7-2.4-0.8-5-0.9-7.5c0-0.4-0.1-0.9,0.5-1c0.7-0.1,0.6,0.5,0.6,1c0.1,2.6,0.4,5.1,0.9,7.7
		c0.3,1.2,0.7,1.6,1.9,1.6c1.4,0,2.7,0.2,4.1,0.4c1,0.2,1.4,0,1.3-1.1c-0.1-1.3,0-2.6,0.3-3.9c1-5.7,4-10.3,7.5-14.7
		c5.1-6.3,10.9-11.9,16.3-17.9c12.4-14.1,18.4-30.2,16-49.1c-2.2-16.9-10.6-29.2-26.5-35.8C106.9,9.7,96.5,8.7,86,9.2
		c-7,0.3-14,0.8-20.5,3.6c-14.6,6.4-24.2,17.5-29.3,32.4C31.4,59,33.3,72,41.9,84c3,4.2,7,7.6,10.7,11.2
		c6.9,6.8,13.4,13.9,18.1,22.4c3,5.4,5.3,11.1,3.9,17.5c-0.2,0.9,0.3,0.8,0.9,0.8c2.5-0.1,4.9-0.2,7.4-0.2c1,0,1.2-0.4,1.2-1.3
		c0-3.3,0.2-6.6,0.2-9.9c0-7.2-0.1-14.4-0.6-21.6c-0.5-7.1-1.3-14.1-2.9-21.1c-0.3-1.4-1.1-1.7-2.2-1.6c-4.2,0.3-8.5-2-10.4-5.7
		c-0.5-0.9-0.7-1.8-0.7-2.8c0-2,1.9-4.2,3.8-4c2.4,0.3,4.5,1,6,3.1s2.7,4.4,3.5,6.9c0.3,1.1,0.8,1.1,1.7,0.7c2.3-1,3.9-2.8,5.1-4.9
		c0.6-1,0.5-1.6-0.5-2.2c-1.7-1-3.3-2.3-4.7-3.8c-1.8-1.9-1.6-4,0.4-5.7c1.4-1.1,3-1.7,4.8-1.7c2.8-0.1,4.3,1.7,3.8,4.4
		c-0.4,2-0.7,4-1.4,5.9c-0.2,0.5-0.6,1.1,0.2,1.5c3.6,1.9,7.3,3,11.4,2.2c0.4-0.1,0.6-0.2,0.7-0.6c0.5-2.6,1.4-5.1,1.6-7.7
		c0.3-2.7,1.4-3.9,4.1-4.2c1.9-0.2,3.7,0,5.4,0.9c2.8,1.4,3.3,3.7,1,5.9c-3,2.8-6.3,5.2-10.3,6.3c-0.6,0.2-0.9,0.4-1.1,1.1
		c-1.9,8.9-4,17.8-5.5,26.8c-1.1,6.8-2.2,13.5-2.4,20.4c0,0.4,0.1,1.1-0.6,1.1s-0.5-0.6-0.5-1c0-1.5,0-3,0.2-4.4
		c1.2-11.5,3.2-22.8,5.8-34.1c0.7-3,1.2-6,1.8-9c-6.1,0-7.5-0.2-11.4-2.1c-1-0.5-1.3-0.3-1.8,0.6c-1.3,2.7-3.3,4.7-6.1,5.7
		c-0.8,0.3-0.9,0.6-0.7,1.4c2.2,8.3,2.9,16.7,3.4,25.2c0.5,9.3,0.5,18.6,0.1,27.8c-0.1,1.4,0.5,1.7,1.7,1.6c1.6-0.1,3.2-0.1,4.8,0.4
		c-0.2,0.3-0.4,0.3-0.7,0.3c-5.9-0.1-11.8,0.2-17.6,0.2c-1.8,0-2.2,0.8-2.3,2.3c-0.2,3.9,0.5,4.8,4.4,5.5c0.8,0.1,1.6,0.2,2.4,0.3
		c8.8,0.8,17.6-0.2,26.3-1.1c3.4-0.4,3.6-0.8,2.9-4.2c-0.4-1.8-1.9-1.8-3.1-2.1C99.8,136.3,95.7,136.8,91.8,135.9z M75.8,79.2
		c1,0.3,2,0.1,2.9,0.1c0.8,0,1.3-0.2,0.9-1.2c-0.8-2.1-1.7-4.3-3-6.1c-1-1.3-2.1-2.4-3.7-3c-1.4-0.5-2.6-0.2-3.6,0.8s-1,2.3-0.5,3.5
		C70.2,76.5,72.7,78.2,75.8,79.2z M103.3,73.8c4.2-1.2,7.4-3.6,10.3-6.3c1.4-1.3,1.2-2.7-0.4-3.7c-2-1.2-4.1-1.4-6.3-0.8
		c-1,0.3-1.9,0.9-2,2.1C104.6,68,103.9,70.8,103.3,73.8z M89.7,66.8c0.1-0.4,0.2-0.9,0.3-1.3c0.7-3.4-0.9-4.9-4.3-3.8
		c-0.4,0.1-0.9,0.3-1.3,0.5c-2.7,1.4-3,3.3-0.7,5.3c0.4,0.4,0.9,0.7,1.3,1.1C88.7,71.6,88.7,71.6,89.7,66.8z"/>
	<path class="st57" d="M55.2,40.9c0,0-0.1,0.3-0.2,0.5c-3.7,4.5-3.3,9.8-3,15.1c0.1,1.8,0.3,3.6-0.2,5.5c-0.6,2.1-2.1,3.4-4,3.5
		c-1.7,0-2.9-0.9-3.4-3.2c-1.4-6.7-0.5-13.1,2.4-19.2c1.2-2.5,3.2-4,5.8-4.7C54.5,37.8,55.6,39,55.2,40.9z M53.4,39.2
		c-0.3,0.1-0.7,0.1-1,0.3c-1.8,0.7-3.3,1.8-4.3,3.5c-1.5,2.4-2.1,5-2.6,7.7c-0.7,3.8-1.1,7.7,0,11.5c0.3,1.1,0.8,2.3,2.2,2.2
		s2.3-0.9,2.8-2.1c0.6-1.5,0.6-3,0.4-4.6C50.4,51.8,50,46,53.8,40.9C54.4,40.2,54.4,39.5,53.4,39.2z"/>
	<path class="st57" d="M55.1,28.2c0.4-2.2,4.1-4.5,6.1-3.9c2.2,0.6,3.1,4.2,1.5,6.3c-1.3,1.7-4.5,2.6-6.4,1.8
		C55.4,32,54.8,29.8,55.1,28.2z M62.4,28.6c0.3-1.5-0.8-3.4-1.9-3.2c-1.3,0.2-2.6,0.7-3.6,1.6c-1.2,1-1.1,3.8,0,4.4
		C58.8,32.3,62.1,30.6,62.4,28.6z"/>
	<path class="st4" d="M53.4,39.2c1,0.3,1,1.1,0.6,1.6c-3.8,5.1-3.4,10.9-2.9,16.8c0.1,1.6,0.1,3.1-0.4,4.6c-0.5,1.3-1.4,2.1-2.8,2.1
		c-1.5,0.1-1.9-1.1-2.2-2.2c-1.1-3.8-0.7-7.7,0-11.5c0.5-2.7,1.1-5.3,2.6-7.7c1.1-1.7,2.5-2.8,4.3-3.5
		C52.8,39.3,53.1,39.3,53.4,39.2z"/>
	<path class="st4" d="M62.4,28.6c-0.3,2-3.6,3.7-5.5,2.8c-1.1-0.6-1.2-3.4,0-4.4c1-0.9,2.3-1.3,3.6-1.6
		C61.6,25.2,62.7,27.1,62.4,28.6z"/>
</g>
<g class="st1">
	<path class="st58" d="M135.1,50c-0.5,1.1-0.4,2.3-0.6,3.5c-1.4,9.8-5.8,18.3-12.1,25.8c-4.4,5.2-9.5,9.7-14.3,14.5
		c-1.1,1.1-2.2,2.2-3.3,3.3c-1.9,2-3.4,4.2-4,7c-0.7,3.3-1.8,6.6-2.7,9.8c-0.2,0.6-0.2,1.1,0,1.7c1.7,6.8,3.4,13.6,5.1,20.4
		c0.2,0.7,0.5,0.9,1.1,1.1c3.3,1,3.3,1,2.6,4.3c-1.7,7.9-3.4,15.8-5,23.8c-0.3,1.3-1,1.9-2.1,2.3c-2.3,0.9-4.7,1.1-7.2,1.3
		c-0.3,0-0.7-0.2-0.9,0.2c-4.2,0-8.3,0-12.5,0c-1.4-0.5-2.9-0.4-4.3-0.6c-1.6-0.3-3.2-0.6-4.7-1.3c-0.9-0.4-1.4-0.9-1.6-1.9
		c-1.8-8.6-3.6-17.1-5.4-25.6c-0.2-0.8,0-1.3,0.8-1.5c0.9-0.2,1.8-0.6,2.8-0.8c0.7-0.2,0.9-0.5,1.1-1.2c1.5-6.8,3-13.7,4.5-20.5
		c0.1-0.6,0.1-1.1,0-1.6c-1.2-4.3-2.4-8.7-3.6-13c-0.1-0.4-0.4-0.6-0.6-0.9c-2.8-3.6-6.1-6.7-9.4-9.8c-5.7-5.4-11.3-10.9-15.6-17.6
		c-4.3-6.8-6.8-14.1-7.5-22.1c0-0.2,0.1-0.5-0.2-0.6c0-3.2,0-6.4,0-9.6c0.6-1.7,0.5-3.4,0.9-5.2c2-10.2,7-18.4,15.7-24.2
		C58.9,6.9,66,4.7,73.6,3.5c1.5-0.2,3.1-0.2,4.5-0.6c4.8,0,9.6,0,14.5,0c0.1,0.2,0.3,0.2,0.4,0.2c5.1,0.3,10,1.3,14.9,2.9
		c6.2,2.1,11.8,5.2,16.4,9.8c5.8,5.9,9,13.1,10.2,21.2c0.2,1.3,0.1,2.6,0.6,3.9C135.1,44,135.1,47,135.1,50z M81.3,4.4
		c-2.6-0.1-5.2,0.2-7.7,0.6c-0.9,0.1-1.9,0.2-2.8,0.6C67.4,7.3,65,10,62.9,13c-5.7,8.1-8.1,17.1-7.7,27c0.3,7.1,1.6,14,3.7,20.7
		c2.7,8.7,6.8,16.8,10.7,25c2.2,4.8,4.5,9.5,5.7,14.7c0.2,0.7,0.6,0.8,1.1,0.8c1.8,0.1,3.6,0,5.4,0.2c0.9,0.1,0.9-0.3,0.7-1
		c-0.8-2.6-1.6-5.2-2.3-7.8c-4.2-14.9-7.8-29.8-9.3-45.3c-0.8-8.3-1-16.5,0.6-24.7c1-5.1,2.6-9.9,5.7-14.1
		C78.4,6.9,79.9,5.7,81.3,4.4C81.3,4.4,81.3,4.4,81.3,4.4c0.1-0.1,0.1-0.1,0.1-0.1C81.3,4.4,81.3,4.4,81.3,4.4z M104,6.4
		C103.9,6.4,103.9,6.4,104,6.4C103.9,6.4,104,6.4,104,6.4c0.2,0.2,0.4,0.4,0.6,0.6c7.4,7.7,11.2,16.9,11.9,27.5
		c0.6,9.7-1.2,19.2-4.5,28.3c-2.7,7.6-6.5,14.8-9.9,22.1c-2.3,4.9-4.5,9.9-5.7,15.3c-0.2,0.8,0.1,0.9,0.7,0.8
		c0.8-0.1,1.7-0.2,2.5-0.3c0.6,0,0.9-0.3,1.2-0.8c1.8-2.6,4.1-4.9,6.3-7.1c4.2-4.1,8.5-8,12.4-12.3c5.1-5.6,9.2-11.8,11.6-19
		c2.5-7.5,3-15.1,2.1-22.9c-0.6-5.3-2.1-10.3-4.8-14.9c-4.3-7.4-10.8-12.3-18.7-15.4C107.9,7.5,106,6.7,104,6.4z M97.5,37.3
		c-0.1-4-0.3-7.9-0.9-11.9c-0.7-4.8-1.9-9.4-4.3-13.7c-1.6-2.8-3.5-5.3-6.4-6.9c-0.8-0.4-1.5-0.5-2.4,0c-3,1.8-5.3,4.3-6.9,7.3
		c-3.3,6-4.3,12.6-4.7,19.4c-0.5,10.8,0.8,21.4,2.8,31.9c1.1,5.9,2.5,11.8,3.9,17.7c1.6,6.4,3.5,12.8,5.4,19.1
		c0.1,0.3,0.2,0.7,0.6,0.8c1.3,0.4,2.1,0,2.4-1.3c3.9-13.7,7.1-27.5,9-41.7C97,51.3,97.6,44.3,97.5,37.3z M73.9,101
		c-0.1-0.3-0.1-0.4-0.1-0.6C72.4,95,70,89.9,67.5,84.9c-4.5-9.3-8.9-18.6-11.5-28.7c-2.2-8.7-3.3-17.6-1.7-26.5
		c1.5-8.3,5-15.7,10.9-21.8c0.3-0.4,0.7-0.7,1.1-1.1c-0.5-0.2-0.9,0-1.2,0.1c-2.8,0.8-5.5,1.9-8,3.2c-9.2,4.8-15.4,12.1-18.2,22.2
		c-1.5,5.6-1.9,11.4-1.5,17.2c0.5,7.2,2.5,13.9,6,20.2c4.1,7.2,9.8,13.1,15.7,18.7c3.9,3.8,8,7.4,11.2,11.9c0.2,0.3,0.5,0.5,0.9,0.6
		C72.1,100.8,72.9,100.9,73.9,101z M87.8,4.2c0.5,0.4,0.7,0.6,1,0.8c0.3,0.2,0.5,0.4,0.8,0.6c3.3,3.1,5.3,7.1,6.6,11.4
		c2.2,6.9,2.8,14,2.8,21.2c0,6.3-0.5,12.7-1.3,19c-1.3,10.3-3.3,20.4-5.9,30.4c-1.1,4.2-2.2,8.4-3.4,12.5c-0.3,1,0,1.2,0.9,1.2
		c1.5-0.1,3-0.1,4.4-0.1c0.7,0,0.9-0.3,1-0.9c0.4-1.7,0.8-3.5,1.4-5.1c2.1-6.4,5.2-12.4,8.1-18.5c4.3-8.8,8.1-17.8,9.7-27.6
		c1.2-7.4,1.6-14.9-0.3-22.3c-1.8-7.1-5-13.4-10.2-18.7c-1.1-1.2-2.3-2.4-4-2.8C95.8,4.5,91.9,4.3,87.8,4.2z M65.2,140.3
		c0,0.5,0,0.7,0.1,1c1.4,6.8,2.9,13.6,4.3,20.4c1,4.7,1,4.7,5.8,5.5c0.1,0,0.2,0,0.3,0c5.6,0.8,11.2,0.8,16.7,0.4
		c2.2-0.1,4.3-0.4,6.5-1c1-0.3,1.6-0.8,1.9-2c0.8-4.4,1.8-8.8,2.7-13.1c0.7-3.4,1.4-6.8,2.1-10.2c0.1-0.3,0.6-1.1-0.5-0.8
		c-3.5,1-7,1.5-10.6,1.7c-6.3,0.5-12.7,0.5-19,0C72.1,141.8,68.7,141.3,65.2,140.3z M70.8,102.1c1.1,3.9,2.1,7.6,3.2,11.4
		c0.2,0.7,0.6,0.6,1.1,0.6c6.9,0,13.9,0,20.8,0c0.7,0,1-0.3,1.2-0.9c0.9-3.3,1.8-6.6,2.7-9.8c0.4-1.3,0.3-1.3-1-1.1
		c-6.2,0.7-12.3,0.6-18.5,0.5C77.1,102.6,74,102.5,70.8,102.1z M102,136.6c-1.7-6.9-3.5-13.7-5.1-20.4c-0.2-0.6-0.4-0.7-1-0.7
		c-3,0-5.9,0-8.9,0c-0.7,0-0.9,0.1-0.9,0.8c-0.2,6.1-0.4,12.1-0.6,18.2c0,0.7,0.2,0.8,0.9,0.8c1.5,0,3,0,4.4,0.1
		C94.5,135.5,98.2,135.9,102,136.6z M69.5,136.6c0.2,0,0.4,0,0.5,0c4.4-0.9,8.9-1.2,13.4-1.3c0.7,0,0.8-0.3,0.8-0.8
		c0.2-5.9,0.3-11.9,0.6-17.8c0.1-1.2-0.3-1.3-1.3-1.3c-2.7,0.1-5.5,0.1-8.2,0c-0.9,0-1.2,0.3-1.3,1.1
		C72.5,123.2,71,129.9,69.5,136.6z M83.9,141.1c5.2,0,11.5-0.1,17.8-1.3c0.4-0.1,1,0.1,1-0.6c0-0.6-0.2-1.1-1-1.2
		c-3.7-0.7-7.3-1-11-1.1c-6.8-0.3-13.6,0-20.4,1.2c-0.9,0.2-1.4,0.5-1.3,1.4c0.1,0.8,0.8,0.5,1.3,0.6
		C74.4,140.7,78.6,140.9,83.9,141.1z"/>
	<path class="st59" d="M97.5,37.3c0.1,7-0.5,13.9-1.4,20.8c-1.9,14.1-5.1,28-9,41.7c-0.4,1.3-1.2,1.7-2.4,1.3
		c-0.4-0.1-0.5-0.5-0.6-0.8c-2-6.3-3.8-12.7-5.4-19.1c-1.5-5.9-2.8-11.7-3.9-17.7c-2-10.6-3.3-21.2-2.8-31.9
		c0.3-6.7,1.4-13.4,4.7-19.4c1.7-3,3.9-5.6,6.9-7.3c0.9-0.5,1.5-0.4,2.4,0c2.9,1.6,4.9,4.1,6.4,6.9c2.3,4.3,3.5,8.9,4.3,13.7
		C97.2,29.4,97.5,33.4,97.5,37.3z"/>
	<path class="st59" d="M104,6.4c2,0.3,3.9,1,5.8,1.8c7.9,3.1,14.3,8,18.7,15.4c2.7,4.6,4.2,9.6,4.8,14.9c0.9,7.8,0.4,15.4-2.1,22.9
		c-2.4,7.2-6.5,13.4-11.6,19c-3.9,4.3-8.3,8.2-12.4,12.3c-2.3,2.2-4.5,4.5-6.3,7.1c-0.3,0.5-0.7,0.7-1.2,0.8
		c-0.8,0.1-1.7,0.2-2.5,0.3c-0.7,0.1-0.9,0-0.7-0.8c1.2-5.3,3.4-10.3,5.7-15.3c3.4-7.3,7.2-14.5,9.9-22.1c3.3-9.2,5.1-18.6,4.5-28.3
		c-0.7-10.5-4.5-19.8-11.9-27.5C104.3,6.9,104.2,6.6,104,6.4C104,6.4,104,6.4,104,6.4z"/>
	<path class="st59" d="M73.9,101c-1-0.1-1.8-0.2-2.7-0.3c-0.4,0-0.7-0.2-0.9-0.6c-3.2-4.5-7.3-8.1-11.2-11.9
		c-5.9-5.7-11.7-11.5-15.7-18.7c-3.5-6.3-5.5-13-6-20.2c-0.4-5.8,0-11.5,1.5-17.2c2.8-10.1,8.9-17.4,18.2-22.2
		c2.6-1.3,5.3-2.4,8-3.2c0.4-0.1,0.7-0.3,1.2-0.1c-0.4,0.4-0.7,0.8-1.1,1.1c-6,6.1-9.5,13.5-10.9,21.8c-1.6,9-0.4,17.8,1.7,26.5
		c2.5,10.1,7,19.4,11.5,28.7c2.4,5,4.8,10.1,6.3,15.5C73.8,100.6,73.9,100.7,73.9,101z"/>
	<path class="st60" d="M87.8,4.2c4.2,0.1,8,0.3,11.8,1.1c1.6,0.4,2.8,1.6,4,2.8c5.2,5.2,8.4,11.6,10.2,18.7
		c1.9,7.4,1.6,14.8,0.3,22.3c-1.6,9.8-5.5,18.8-9.7,27.6c-2.9,6.1-6,12.1-8.1,18.5c-0.6,1.7-1,3.4-1.4,5.1c-0.1,0.6-0.4,0.9-1,0.9
		c-1.5,0-3,0-4.4,0.1c-0.9,0.1-1.2-0.2-0.9-1.2c1.2-4.2,2.3-8.3,3.4-12.5c2.5-10,4.5-20.1,5.9-30.4c0.8-6.3,1.3-12.6,1.3-19
		c0-7.2-0.6-14.3-2.8-21.2c-1.4-4.3-3.3-8.3-6.6-11.4c-0.2-0.2-0.5-0.4-0.8-0.6C88.5,4.9,88.3,4.6,87.8,4.2z"/>
	<path class="st60" d="M81.3,4.4c-1.4,1.3-2.9,2.5-4,4.1c-3.1,4.2-4.8,9-5.7,14.1C70,30.8,70.1,39,70.9,47.3
		c1.5,15.4,5.1,30.4,9.3,45.3c0.7,2.6,1.5,5.2,2.3,7.8c0.2,0.7,0.2,1.1-0.7,1c-1.8-0.1-3.6-0.1-5.4-0.2c-0.5,0-1-0.1-1.1-0.8
		c-1.2-5.1-3.5-9.9-5.7-14.7c-3.9-8.2-7.9-16.3-10.7-25C56.8,54,55.5,47.1,55.2,40c-0.4-9.9,2-18.9,7.7-27c2.1-3,4.5-5.7,7.9-7.3
		c0.9-0.4,1.8-0.5,2.8-0.6C76.1,4.6,78.7,4.3,81.3,4.4L81.3,4.4z"/>
	<path class="st61" d="M65.2,140.3c3.5,1,6.9,1.5,10.4,1.8c6.3,0.5,12.7,0.5,19,0c3.6-0.3,7.1-0.8,10.6-1.7c1.1-0.3,0.5,0.5,0.5,0.8
		c-0.7,3.4-1.4,6.8-2.1,10.2c-0.9,4.4-1.9,8.7-2.7,13.1c-0.2,1.2-0.8,1.7-1.9,2c-2.1,0.6-4.3,0.9-6.5,1c-5.6,0.4-11.2,0.4-16.7-0.4
		c-0.1,0-0.2,0-0.3,0c-4.8-0.8-4.8-0.8-5.8-5.5c-1.4-6.8-2.9-13.6-4.3-20.4C65.3,141,65.2,140.7,65.2,140.3z"/>
	<path class="st60" d="M70.8,102.1c3.3,0.4,6.4,0.6,9.5,0.6c6.2,0.1,12.4,0.2,18.5-0.5c1.3-0.1,1.3-0.2,1,1.1
		c-0.9,3.3-1.8,6.6-2.7,9.8c-0.2,0.7-0.5,0.9-1.2,0.9c-6.9,0-13.9,0-20.8,0c-0.5,0-0.9,0-1.1-0.6C72.9,109.7,71.9,106,70.8,102.1z"
		/>
	<path class="st61" d="M83.9,141.1c-5.3-0.2-9.5-0.3-13.7-1.1c-0.5-0.1-1.2,0.1-1.3-0.6c-0.1-0.9,0.5-1.2,1.3-1.4
		c6.7-1.2,13.5-1.5,20.4-1.2c3.7,0.2,7.4,0.4,11,1.1c0.8,0.2,1,0.6,1,1.2c0,0.7-0.6,0.5-1,0.6C95.4,140.9,89.1,141.1,83.9,141.1z"/>
	<path class="st62" d="M79.5,170.1c-0.1,0-0.2,0-0.3-0.1c-0.7-0.3-1.5-0.3-2.3-0.4c-0.6,0-1.2-0.1-1.8-0.2l-0.3-0.1
		c-1.5-0.3-3.1-0.6-4.6-1.3c-1.2-0.5-1.9-1.4-2.1-2.6c-1.7-8.2-3.5-16.5-5.2-24.6l-0.2-1c-0.4-1.9,0.8-2.5,1.5-2.6
		c0.4-0.1,0.8-0.2,1.3-0.4c0.5-0.2,1-0.3,1.5-0.4c0.2-0.1,0.3-0.1,0.4-0.4c1.6-7.5,3.3-14.9,4.5-20.5c0.1-0.4,0.1-0.8,0-1.2
		c-1.2-4.3-2.4-8.7-3.6-13c0-0.1-0.1-0.3-0.3-0.5l-0.1-0.1c-2.5-3.2-5.4-6-8.3-8.8L58.5,91c-6.1-5.8-11.5-11.2-15.7-17.8
		c-4.3-6.8-6.9-14.4-7.7-22.5c0,0,0,0,0,0c-0.1-0.2-0.2-0.4-0.2-0.6v-9.6c0-0.1,0-0.2,0.1-0.3c0.3-0.9,0.4-1.9,0.5-3
		c0.1-0.7,0.2-1.4,0.3-2c2.1-10.7,7.5-19.1,16.1-24.8c5.9-3.9,13-6.5,21.6-7.8c0.6-0.1,1.1-0.1,1.7-0.2c1-0.1,1.9-0.2,2.7-0.4
		c0.1,0,0.2,0,0.3,0h14.5c0.2,0,0.5,0.1,0.6,0.2c5.1,0.4,10.2,1.4,15,3c6.9,2.3,12.4,5.6,16.8,10.1c5.6,5.7,9.2,13,10.5,21.8
		c0.1,0.4,0.1,0.9,0.1,1.3c0.1,0.8,0.1,1.6,0.4,2.3c0,0.1,0.1,0.2,0.1,0.4V50c0,0.1,0,0.3-0.1,0.4c-0.3,0.6-0.3,1.3-0.4,2.1
		c0,0.4-0.1,0.8-0.1,1.2c-1.4,9.5-5.4,18.1-12.3,26.3c-3.3,3.9-7.1,7.5-10.7,11c-1.2,1.2-2.4,2.3-3.7,3.5c-0.8,0.8-1.6,1.6-2.3,2.4
		l-0.9,0.9c-2,2.1-3.2,4.1-3.7,6.5c-0.5,2.4-1.2,4.9-1.9,7.2c-0.3,0.9-0.5,1.8-0.8,2.7c-0.1,0.4-0.1,0.8,0,1.2
		c1.7,6.8,3.4,13.6,5.1,20.4c0.1,0.2,0.1,0.3,0.5,0.4c3.8,1.1,4.1,1.7,3.3,5.4c-0.6,3-1.3,6-1.9,8.9c-1,4.9-2.1,9.9-3.1,14.8
		c-0.3,1.5-1.2,2.5-2.7,3.1c-2.4,0.9-4.9,1.1-7.4,1.4c-0.1,0-0.2,0-0.2,0c-0.1,0-0.1,0-0.2,0c-0.2,0.1-0.4,0.2-0.6,0.2H79.5z
		 M66.8,143.8c1.2,5.9,2.5,11.8,3.7,17.7c0.4,2.1,0.7,3.2,1.2,3.7c0.5,0.5,1.7,0.7,3.8,1l0.3,0c3,0.4,6.2,0.6,9.7,0.6
		c2.1,0,4.4-0.1,6.9-0.2c1.9-0.1,4.1-0.3,6.2-1c0.8-0.2,1.1-0.5,1.2-1.3c0.6-3.3,1.3-6.6,2-9.8l1.3-6.1c0.5-2.3,1-4.6,1.4-6.9
		c-2.9,0.8-6.1,1.2-9.9,1.5c-3.1,0.2-6.2,0.4-9.4,0.4c-3.2,0-6.5-0.1-9.8-0.4c-3.4-0.3-6.4-0.7-9.1-1.4L66.8,143.8z M70.1,139
		c0.1,0,0.2,0,0.2,0c4.2,0.8,8.5,0.9,13.5,1.1c0,0,0.7,0,0.7,0c4.5,0,10.5-0.1,16.5-1.3c-3.7-0.7-7.5-0.9-10.6-1.1
		c-1.7-0.1-3.3-0.1-4.9-0.1c-5.4,0-10.4,0.4-15.2,1.3C70.3,139,70.2,139,70.1,139z M74.9,116.4c0,0,0,0.1-0.1,0.3
		c-1.1,5.1-2.2,10.1-3.4,15.3l-0.8,3.4c3.8-0.7,7.9-1.1,12.4-1.1l0-1.7c0.2-5.2,0.3-10.7,0.6-16c0-0.1,0-0.2,0-0.3c0,0-0.3,0-0.3,0
		c-1.4,0-2.8,0.1-4.1,0.1c-1.4,0-2.8,0-4.2-0.1l-0.1-1v1C75,116.4,75,116.4,74.9,116.4z M87.4,134.3c1.1,0,2.3,0,3.5,0.1
		c3.8,0.2,6.9,0.5,9.8,0.9l-0.8-3c-1.4-5.4-2.7-10.7-4-15.9c0,0,0,0,0,0c-1.6,0-3.1,0-4.6,0c-1.4,0-2.8,0-4.2,0
		c-0.2,6.2-0.4,12.2-0.6,17.9C86.8,134.3,87.1,134.3,87.4,134.3z M74.9,113.1l0.2,1l0-1l10.4,0c3.5,0,6.9,0,10.4,0l0,0
		c0.1,0,0.2,0,0.2,0c0,0,0-0.1,0.1-0.2c0.6-2.2,1.2-4.4,1.8-6.6l0.9-3.2c-3.7,0.4-7.7,0.6-12.6,0.6c-2,0-4,0-6-0.1
		c-2.6-0.1-5.3-0.1-8.1-0.5l0.4,1.5C73.3,107.6,74.1,110.3,74.9,113.1C74.9,113.1,74.9,113.1,74.9,113.1z M90.5,5.3
		c2.9,2.8,5,6.5,6.6,11.5c2.5,7.7,2.8,15.5,2.9,21.5c0,5.9-0.4,12.1-1.3,19.1c-1.3,9.8-3.2,19.8-5.9,30.5c-1,3.9-2.1,8-3.3,12.5
		c1.4-0.1,2.8-0.1,4.4-0.1c0,0,0,0,0,0c0,0,0.1-0.3,0.1-0.3c0.4-1.7,0.8-3.4,1.4-5.1c1.9-5.6,4.5-11,7-16.2l1.2-2.4
		c4-8.4,8-17.5,9.7-27.4c1.4-8.6,1.3-15.6-0.3-21.9c-1.9-7.4-5.2-13.4-10-18.2l-0.2-0.2c-1.1-1.1-2.1-2.1-3.3-2.4
		C96.4,5.6,93.4,5.4,90.5,5.3z M85.1,100.3c0.2,0,0.3,0.1,0.4,0.1c0,0,0,0,0,0c0.2,0,0.5,0,0.7-0.8c4.5-15.8,7.3-29,9-41.5
		c1-7.6,1.5-14.4,1.4-20.7c-0.1-4.4-0.4-8.2-0.9-11.7c-0.9-5.5-2.2-9.8-4.2-13.4c-1.7-3.1-3.6-5.2-6-6.5c-0.3-0.2-0.5-0.2-0.7-0.2
		c-0.1,0-0.3,0-0.7,0.2c-2.7,1.6-4.9,3.9-6.6,7c-3.5,6.5-4.3,13.5-4.5,19c-0.4,9.2,0.4,19,2.8,31.7c1,5.3,2.3,11.1,3.9,17.6
		c1.5,6,3.3,12.2,5.4,19.1C85,100,85.1,100.2,85.1,100.3z M76.2,100.2c0.1,0,0.2,0,0.2,0c0.7,0,1.4,0,2.1,0c1,0,2,0,3,0.1l0,0
		c-0.8-2.4-1.5-5-2.3-7.5c-3.7-13.1-7.8-28.8-9.3-45.4c-0.9-10-0.8-17.7,0.6-25c1.1-6,3-10.6,5.9-14.5C77.2,7,78,6.2,78.8,5.4
		C77,5.5,75.3,5.7,73.7,6c-0.2,0-0.4,0.1-0.6,0.1c-0.7,0.1-1.3,0.2-1.9,0.4c-2.7,1.3-5.1,3.5-7.5,7c-5.4,7.7-7.9,16.6-7.5,26.4
		c0.3,6.8,1.5,13.5,3.7,20.4c2.4,7.6,5.9,15,9.3,22.1l1.3,2.7C72.5,89.7,74.9,94.7,76.2,100.2C76.2,100.1,76.2,100.2,76.2,100.2z
		 M106.8,8.1c6.3,7.3,9.9,16.1,10.5,26.3c0.6,9.1-0.9,18.5-4.5,28.7c-2.1,6-4.9,11.8-7.6,17.4c-0.8,1.6-1.5,3.2-2.3,4.8
		c-2.5,5.3-4.4,9.8-5.5,14.6c0.7-0.1,1.4-0.2,2.1-0.2c0.2,0,0.3,0,0.5-0.4c1.8-2.5,3.9-4.7,6.5-7.3c1.3-1.2,2.5-2.4,3.8-3.7
		c2.9-2.8,5.9-5.6,8.6-8.6c5.5-6.1,9.2-12.2,11.4-18.7c2.4-7,3-14.4,2.1-22.5c-0.6-5.4-2.2-10.3-4.7-14.5c-4-6.8-10-11.7-18.2-15
		L109,9C108.3,8.7,107.6,8.4,106.8,8.1z M63.4,8.4c-2.1,0.7-4,1.5-5.9,2.5c-9.1,4.7-15,12-17.7,21.6c-1.4,5.2-1.9,10.8-1.5,16.9
		c0.5,7.1,2.5,13.7,5.9,19.8c4.2,7.4,10.2,13.4,15.6,18.5l1.5,1.5c3.4,3.2,7,6.6,9.8,10.5c0.1,0.1,0.1,0.1,0.2,0.1
		c0.4,0.1,0.8,0.1,1.3,0.1c-1.4-5-3.7-9.8-5.9-14.4l-0.1-0.3c-4.4-9.2-8.9-18.6-11.4-28.8c-2.6-10.4-3.2-19-1.8-26.9
		C54.9,21.3,58.2,14.2,63.4,8.4z"/>
</g>
</svg>
