<?xml version="1.0" encoding="utf-8"?>
<!-- Generator: Adobe Illustrator 25.0.0, SVG Export Plug-In . SVG Version: 6.00 Build 0)  -->
<svg version="1.1" id="Layer_1" xmlns="http://www.w3.org/2000/svg" xmlns:xlink="http://www.w3.org/1999/xlink" x="0px" y="0px"
	 viewBox="0 0 1920 1080" style="enable-background:new 0 0 1920 1080;" xml:space="preserve">
<style type="text/css">
	.st0{fill:#4969DB;}
	.st1{fill:#FFFFFF;}
	.st2{fill:#F9F4F2;}
</style>
<rect class="st0" width="1920" height="1080"/>
<image style="display:none;overflow:visible;" width="666" height="375" xlink:href="../../../clouds.png"  transform="matrix(2.8829 0 0 2.8829 0 -0.5405)">
</image>
<g>
	<circle class="st1" cx="1756.9" cy="640.7" r="24"/>
	<ellipse class="st1" cx="1900.3" cy="610.5" rx="134.2" ry="113.6"/>
	<ellipse class="st1" cx="59.7" cy="650.6" rx="122.4" ry="112.1"/>
	<ellipse class="st1" cx="163.9" cy="686" rx="52.6" ry="51.9"/>
	<circle class="st1" cx="332.8" cy="764.4" r="43.3"/>
	<circle class="st1" cx="415.4" cy="891" r="135.5"/>
	<circle class="st1" cx="604.5" cy="953.6" r="72.9"/>
	<ellipse class="st1" cx="731.8" cy="917.1" rx="64" ry="69.5"/>
	<ellipse class="st1" cx="863.9" cy="906.1" rx="130" ry="110.8"/>
	<ellipse class="st1" cx="1040.7" cy="924.7" rx="88.1" ry="71.5"/>
	<ellipse class="st1" cx="1165.9" cy="1010.8" rx="104.6" ry="81.8"/>
	<ellipse class="st1" cx="1306.2" cy="1016.2" rx="49.5" ry="42"/>
	<ellipse class="st1" cx="1519" cy="979.6" rx="190.5" ry="141.4"/>
	<ellipse class="st1" cx="1611.6" cy="840.5" rx="50.9" ry="50.5"/>
	<ellipse class="st1" cx="1765.7" cy="756.7" rx="141.7" ry="115.8"/>
	<ellipse class="st1" cx="214.6" cy="779.7" rx="118.2" ry="88.2"/>
	<ellipse class="st1" cx="571.2" cy="974.2" rx="74" ry="39.9"/>
	<ellipse class="st1" cx="1466.5" cy="841.5" rx="33.7" ry="29.4"/>
	<ellipse class="st1" cx="1432.1" cy="851.5" rx="64" ry="69.5"/>
	<ellipse class="st1" cx="1564.2" cy="840.5" rx="130" ry="110.8"/>
</g>
<g>
	<ellipse class="st2" cx="1818.7" cy="886" rx="86" ry="84.1"/>
	<ellipse class="st2" cx="1929.4" cy="776" rx="123.1" ry="110.1"/>
	<ellipse class="st2" cx="-0.8" cy="793.3" rx="140.3" ry="127.3"/>
	<ellipse class="st2" cx="201.4" cy="856.6" rx="83.9" ry="77.7"/>
	<circle class="st2" cx="311.1" cy="866.6" r="40.2"/>
	<ellipse class="st2" cx="359.6" cy="966.6" rx="115.6" ry="113.4"/>
	<circle class="st2" cx="493.7" cy="1030.6" r="74.3"/>
	<circle class="st2" cx="570.1" cy="1008.6" r="22"/>
	<ellipse class="st2" cx="672.6" cy="1014.1" rx="94.2" ry="81.2"/>
	<ellipse class="st2" cx="799.9" cy="987.3" rx="74.3" ry="65.4"/>
	<ellipse class="st2" cx="894.1" cy="979.7" rx="35.1" ry="28.9"/>
	<ellipse class="st2" cx="1011.1" cy="1026.5" rx="116.3" ry="100.4"/>
	<ellipse class="st2" cx="1139.7" cy="1019.6" rx="49.5" ry="41.3"/>
	<ellipse class="st2" cx="1233.3" cy="1060.9" rx="67.4" ry="56.4"/>
	<ellipse class="st2" cx="1380.5" cy="1071.6" rx="101.8" ry="75.3"/>
	<circle class="st2" cx="1446.7" cy="1016.4" r="15"/>
	<ellipse class="st2" cx="1505" cy="1003.1" rx="49.5" ry="39.9"/>
	<ellipse class="st2" cx="1666" cy="980.1" rx="147.9" ry="115.9"/>
	<polygon class="st2" points="-62.7,853.2 -46.7,1142.1 500.9,1185.2 487.1,1060.9 258.8,891 33.1,802.7 	"/>
	<polygon class="st2" points="521.1,1052.7 538.5,1120.1 718.3,1133.8 660.5,994 511,1030.6 	"/>
	<path class="st2" d="M894.8,986.6l77.5,30.3c0,0,204.5,116.9-5.5,125.2c-210,8.3-210,8.3-210,8.3l-79.3-57.8l99.5-83.9L894.8,986.6
		z"/>
	<polygon class="st2" points="1090.2,1037.5 1097.1,1127 1241.1,1146.9 1235.8,1071.6 	"/>
	<polygon class="st2" points="1482.3,1003.1 1420.8,1037.5 1461.7,1175.1 1732.9,1146.9 1686.8,1016.9 	"/>
	<polygon class="st2" points="1993.2,831.2 2017,1175.1 1662.5,1121.9 1649.2,1003.1 	"/>
	<ellipse class="st2" cx="1694.2" cy="885.7" rx="71.5" ry="81.2"/>
</g>
</svg>
