<svg width="429" height="193" viewBox="0 0 429 193" fill="none" xmlns="http://www.w3.org/2000/svg">
<path d="M64.857 107.485C58.9098 111.16 53.782 116.032 49.8013 121.797C45.8623 127.502 43.1376 133.95 41.7887 140.74C35.768 138.831 29.2921 138.808 23.2356 140.699C16.6049 142.769 10.8627 147.012 6.9324 152.745C3.00216 158.478 1.11219 165.368 1.56624 172.306C2.02029 179.245 4.79199 185.829 9.43588 191L9.88288 191.497H10.5519H396.122C404.205 191.604 412.009 188.542 417.868 182.965C423.729 177.386 427.178 169.733 427.479 161.642C427.779 153.552 424.907 145.664 419.476 139.664C414.687 134.374 408.243 130.923 401.252 129.843C403.739 126.537 405.545 122.758 406.552 118.724C407.79 113.764 407.782 108.574 406.528 103.618C405.274 98.6617 402.813 94.0936 399.366 90.3217C396.166 86.8214 392.209 84.108 387.803 82.3858C387.811 82.173 387.817 81.947 387.817 81.7179V81.7174C387.814 73.2668 385.702 64.9508 381.673 57.5253C377.644 50.0998 371.824 43.8003 364.744 39.1995C357.664 34.5987 349.548 31.8426 341.133 31.182C333.577 30.5887 325.996 31.702 318.945 34.4258C319.191 30.8549 318.814 27.2614 317.825 23.808C316.595 19.5178 314.449 15.5462 311.535 12.1682C308.621 8.79028 305.008 6.0867 300.947 4.24476C296.888 2.40359 292.477 1.46736 288.021 1.50087C279.908 1.5049 272.121 4.69608 266.333 10.3879C260.756 15.8726 257.465 23.2572 257.099 31.0531C254.699 32.365 252.462 33.9524 250.431 35.7826C245.46 28.4279 238.795 22.365 230.988 18.1124C222.646 13.5686 213.28 11.2433 203.785 11.3591C194.289 11.4749 184.982 14.0278 176.754 18.7736C168.931 23.2854 162.332 29.6359 157.521 37.2677C150.727 33.9117 143.36 31.8618 135.802 31.2292C127.779 30.5577 119.702 31.4973 112.046 33.9929C104.39 36.4884 97.3088 40.4897 91.2179 45.7619C85.2501 50.9276 80.3507 57.2113 76.7942 64.258C73.0989 66.2429 69.8432 68.9595 67.2262 72.2444C64.5064 75.6583 62.5378 79.609 61.4491 83.8376C60.3605 88.0662 60.1763 92.4774 60.9088 96.7821C61.553 100.568 62.8933 104.196 64.857 107.485Z" fill="#F9F4F2" stroke="#2F1664" stroke-width="3"/>
</svg>
