<svg width="261" height="108" viewBox="0 0 261 108" fill="none" xmlns="http://www.w3.org/2000/svg">
<path d="M242.701 74.4042C240.684 74.4026 238.686 74.8015 236.824 75.5776C234.961 76.3538 233.272 77.4918 231.853 78.9258C230.573 73.3415 227.449 68.3511 222.985 64.7594C225.113 62.6155 226.557 59.8892 227.136 56.9248C227.715 53.9604 227.402 50.8911 226.237 48.1044C225.072 45.3178 223.107 42.9389 220.591 41.2684C218.074 39.5978 215.119 38.7106 212.099 38.7186C212.098 32.6557 209.937 26.7913 206.003 22.1774C202.07 17.5635 196.621 14.502 190.634 13.542C184.647 12.582 178.514 13.7863 173.335 16.939C168.156 20.0916 164.269 24.9863 162.373 30.745C157.321 26.8761 151.324 24.4341 145.006 23.6738C144.236 21.3669 142.925 19.2773 141.184 17.5788C139.443 15.8803 137.322 14.622 134.997 13.9084C132.671 13.1948 130.209 13.0467 127.815 13.4763C125.421 13.9058 123.164 14.9007 121.232 16.3782C119.252 13.1522 116.64 10.3602 113.553 8.17049C110.466 5.98074 106.967 4.43849 103.268 3.63663C99.5686 2.83478 95.7454 2.78991 92.0284 3.50474C88.3114 4.21956 84.7776 5.67928 81.6398 7.79598C78.5019 9.91268 75.825 12.6426 73.7702 15.8212C71.7155 18.9998 70.3254 22.5614 69.6837 26.2915C69.042 30.0216 69.162 33.843 70.0365 37.5255C70.9109 41.2079 72.5217 44.6753 74.7719 47.7188C70.0015 50.3949 66.0308 54.2944 63.2691 59.0156C62.5236 56.9941 61.3591 55.1532 59.8518 53.6135C58.3446 52.0739 56.5288 50.8705 54.5235 50.0822C52.5183 49.2939 50.369 48.9385 48.2167 49.0395C46.0644 49.1405 43.9579 49.6955 42.0353 50.6681C40.1126 51.6407 38.4175 53.0089 37.061 54.6829C35.7046 56.3569 34.7176 58.2988 34.1647 60.3812C33.6118 62.4635 33.5057 64.6393 33.8532 66.7656C34.2006 68.8919 34.9939 70.9207 36.1809 72.7188C32.8991 74.6084 30.0793 77.2051 27.9261 80.3203C25.773 83.4354 24.3405 86.9909 23.7327 90.7286C21.4191 89.8448 18.9252 89.5366 16.466 89.8306C14.0067 90.1246 11.6558 91.0119 9.61571 92.4162C7.57561 93.8205 5.90748 95.6997 4.755 97.8918C3.60251 100.084 3.00022 102.523 3 105H242.701C246.759 105 250.65 103.388 253.519 100.519C256.388 97.6504 258 93.7594 258 89.7021C258 85.6448 256.388 81.7538 253.519 78.8848C250.65 76.0159 246.759 74.4042 242.701 74.4042Z" fill="#F9F4F2"/>
<path fill-rule="evenodd" clip-rule="evenodd" d="M3.29798 102C3.58389 100.573 4.07323 99.1891 4.75527 97.8918C5.90775 95.6997 7.57588 93.8205 9.61598 92.4162C11.6561 91.0119 14.007 90.1246 16.4662 89.8306C17.9216 89.6566 19.3891 89.6935 20.8243 89.9359C21.8141 90.103 22.7886 90.3679 23.733 90.7286C23.8954 89.7297 24.1168 88.7437 24.3951 87.7757C25.158 85.1218 26.3487 82.6028 27.9264 80.3203C29.5091 78.0304 31.4521 76.0207 33.6739 74.366C34.4747 73.7696 35.3118 73.2194 36.1812 72.7188C35.8378 72.1985 35.5273 71.6589 35.251 71.1033C34.5725 69.7385 34.1004 68.2767 33.8534 66.7656C33.5059 64.6393 33.6121 62.4635 34.165 60.3812C34.7178 58.2988 35.7049 56.3569 37.0613 54.6829C38.4177 53.0089 40.1129 51.6407 42.0355 50.6681C43.9581 49.6955 46.0647 49.1405 48.217 49.0395C50.3693 48.9385 52.5186 49.2939 54.5238 50.0822C56.529 50.8705 58.3449 52.0739 59.8521 53.6135C60.5366 54.3127 61.1504 55.0741 61.6864 55.8863C62.3307 56.8625 62.8624 57.9121 63.2693 59.0156C63.8715 57.9863 64.531 56.996 65.2438 56.049C67.1992 53.4511 69.555 51.1784 72.2239 49.3169C73.0445 48.7445 73.8948 48.211 74.7721 47.7188C74.1746 46.9106 73.6222 46.0725 73.1167 45.2085C71.7184 42.8187 70.679 40.2301 70.0368 37.5255C69.1623 33.843 69.0423 30.0216 69.684 26.2915C70.3257 22.5614 71.7158 18.9998 73.7705 15.8212C75.8253 12.6426 78.5022 9.91268 81.64 7.79598C84.7779 5.67928 88.3117 4.21956 92.0287 3.50474C95.7457 2.78991 99.5689 2.83478 103.268 3.63663C106.967 4.43849 110.466 5.98073 113.553 8.17049C115.822 9.77955 117.834 11.7138 119.527 13.9064C120.138 14.6977 120.707 15.5227 121.232 16.3782C122.031 15.7672 122.886 15.2387 123.783 14.7986C125.054 14.1745 126.411 13.7282 127.815 13.4763C130.209 13.0467 132.672 13.1948 134.997 13.9084C137.322 14.622 139.444 15.8803 141.184 17.5788C142.925 19.2773 144.236 21.3669 145.006 23.6738C150.289 24.3095 155.348 26.1212 159.817 28.9598C160.693 29.5158 161.545 30.1113 162.373 30.745C162.699 29.7559 163.083 28.7922 163.523 27.8585C165.643 23.3562 169.045 19.5501 173.335 16.939C178.514 13.7863 184.647 12.582 190.634 13.542C196.621 14.502 202.07 17.5635 206.004 22.1774C209.909 26.7581 212.067 32.5715 212.099 38.588C212.099 38.6315 212.099 38.6751 212.099 38.7186C212.125 38.7186 212.151 38.7186 212.177 38.7186C215.17 38.726 218.096 39.6123 220.591 41.2684C223.107 42.9389 225.072 45.3178 226.237 48.1044C227.402 50.8911 227.715 53.9604 227.136 56.9248C226.751 58.9005 225.98 60.7705 224.88 62.4328C224.329 63.2646 223.695 64.0444 222.986 64.7594C223.769 65.39 224.512 66.0637 225.21 66.7762C227.713 69.3292 229.65 72.3799 230.896 75.7279C231.283 76.7672 231.603 77.8352 231.853 78.9258C232.631 78.1394 233.491 77.4421 234.415 76.8446C235.177 76.3525 235.983 75.9282 236.824 75.5776C238.686 74.8015 240.684 74.4026 242.701 74.4042C246.759 74.4042 250.65 76.0159 253.519 78.8848C256.388 81.7538 258 85.6448 258 89.7021C258 93.7594 256.388 97.6504 253.519 100.519C250.65 103.388 246.759 105 242.701 105H3.00027C3.00036 103.989 3.10077 102.984 3.29798 102ZM242.704 71.4042C240.289 71.4023 237.898 71.8797 235.67 72.8085C234.892 73.1326 234.14 73.5093 233.418 73.9354C231.983 70.3897 229.847 67.1634 227.133 64.4544C228.583 62.3761 229.591 60.0092 230.081 57.4997C230.773 53.9532 230.399 50.2811 229.005 46.9473C227.611 43.6135 225.261 40.7675 222.25 38.769C220.044 37.3046 217.557 36.3433 214.963 35.9378C214.396 30.1655 212.078 24.6785 208.287 20.2311C203.89 15.0744 197.8 11.6528 191.109 10.5798C184.418 9.50692 177.564 10.8529 171.775 14.3764C167.113 17.2142 163.388 21.3149 161.008 26.1659C156.776 23.5536 152.073 21.7811 147.156 20.9537C146.22 18.8933 144.907 17.0195 143.279 15.4315C141.197 13.3995 138.659 11.8941 135.877 11.0404C133.095 10.1868 130.15 10.0095 127.286 10.5234C125.463 10.8504 123.707 11.4512 122.075 12.3004C120.166 9.77938 117.878 7.5601 115.289 5.72351C111.871 3.29954 107.998 1.59234 103.904 0.704723C99.8088 -0.182891 95.5767 -0.232556 91.4621 0.55872C87.3476 1.35 83.4358 2.96584 79.9623 5.30894C76.4889 7.65204 73.5256 10.6739 71.2511 14.1926C68.9765 17.7112 67.4378 21.6538 66.7274 25.7829C66.0171 29.912 66.1499 34.1422 67.1179 38.2186C67.8364 41.2445 69.0041 44.1391 70.577 46.8081C67.9361 48.6403 65.5727 50.8386 63.557 53.3343C63.0782 52.6958 62.5568 52.0879 61.9959 51.5149C60.1927 49.673 58.0203 48.2332 55.6214 47.2902C53.2225 46.3471 50.6512 45.922 48.0764 46.0428C45.5016 46.1636 42.9814 46.8276 40.6813 47.9911C38.3812 49.1547 36.3532 50.7915 34.7305 52.7942C33.1077 54.7968 31.9268 57.1201 31.2654 59.6113C30.604 62.1026 30.477 64.7056 30.8927 67.2494C31.1446 68.7911 31.5925 70.2899 32.2223 71.7104C29.597 73.6059 27.3078 75.9391 25.4585 78.6145C23.6833 81.1829 22.3464 84.0191 21.4945 87.0074C19.7234 86.691 17.909 86.6368 16.1101 86.8518C13.1681 87.2035 10.3556 88.2651 7.91496 89.9451C5.47432 91.6251 3.47865 93.8732 2.09987 96.4958C0.721094 99.1184 0.000534534 102.037 0.000268936 105L0 108H242.701C247.555 108 252.209 106.072 255.641 102.641C259.072 99.2092 261 94.5551 261 89.7021C261 84.8491 259.072 80.195 255.641 76.7635C252.209 73.3325 247.556 71.4048 242.704 71.4042Z" fill="#2F1664"/>
</svg>
