<svg width="143" height="92" viewBox="0 0 143 92" fill="none" xmlns="http://www.w3.org/2000/svg">
<path d="M132.786 46.1002C124.699 33.5627 114.565 24.1861 102.382 17.9705C105.627 23.4955 107.25 29.4721 107.25 35.9002C107.25 45.7283 103.752 54.1354 96.7564 61.1213C89.7607 68.1072 81.3419 71.6002 71.5 71.6002C61.6581 71.6002 53.2393 68.1072 46.2436 61.1213C39.2479 54.1354 35.75 45.7283 35.75 35.9002C35.75 29.4721 37.3726 23.4955 40.6177 17.9705C28.4351 24.1861 18.3006 33.5627 10.2143 46.1002C17.2898 56.9908 26.1608 65.6635 36.8273 72.1182C47.4938 78.5729 59.0513 81.8002 71.5 81.8002C83.9487 81.8002 95.5062 78.5729 106.173 72.1182C116.839 65.6635 125.71 56.9908 132.786 46.1002ZM75.3304 15.5002C75.3304 14.4377 74.958 13.5346 74.2132 12.7908C73.4684 12.0471 72.564 11.6752 71.5 11.6752C64.8501 11.6752 59.1444 14.0525 54.3831 18.8072C49.6217 23.5619 47.2411 29.2596 47.2411 35.9002C47.2411 36.9627 47.6135 37.8658 48.3583 38.6096C49.1031 39.3533 50.0074 39.7252 51.0714 39.7252C52.1354 39.7252 53.0398 39.3533 53.7846 38.6096C54.5294 37.8658 54.9018 36.9627 54.9018 35.9002C54.9018 31.3314 56.5244 27.4268 59.7695 24.1861C63.0147 20.9455 66.9249 19.3252 71.5 19.3252C72.564 19.3252 73.4684 18.9533 74.2132 18.2096C74.958 17.4658 75.3304 16.5627 75.3304 15.5002ZM143 46.1002C143 47.9064 142.468 49.7393 141.404 51.5986C133.956 63.8174 123.941 73.6057 111.36 80.9635C98.778 88.3213 85.4914 92.0002 71.5 92.0002C57.5086 92.0002 44.222 88.308 31.6403 80.9236C19.0587 73.5393 9.0439 63.7643 1.59598 51.5986C0.531994 49.7393 0 47.9064 0 46.1002C0 44.2939 0.531994 42.4611 1.59598 40.6018C9.0439 28.4361 19.0587 18.6611 31.6403 11.2768C44.222 3.89238 57.5086 0.200195 71.5 0.200195C85.4914 0.200195 98.778 3.89238 111.36 11.2768C123.941 18.6611 133.956 28.4361 141.404 40.6018C142.468 42.4611 143 44.2939 143 46.1002Z" fill="#2F1664"/>
</svg>
