<svg width="252" height="630" viewBox="0 0 252 630" fill="none" xmlns="http://www.w3.org/2000/svg">
<g clip-path="url(#clip0_273_28)">
<path d="M461 46.82C461.009 46.6968 461.009 46.5732 461 46.45C460.912 45.915 460.754 45.3939 460.53 44.9L460.35 44.56C460.137 44.1877 459.889 43.8361 459.61 43.51L459.42 43.3C459.293 43.157 459.156 43.0234 459.01 42.9C458.719 42.6497 458.404 42.4286 458.07 42.24L457.96 42.18L381.75 0.73C380.869 0.250693 379.883 -0.00028507 378.88 2.42986e-07C378.609 0.00171656 378.339 0.0184087 378.07 0.0500002L6.14004 52.33H6.08004C5.8969 52.3591 5.71634 52.4025 5.54004 52.46C5.25648 52.5272 4.97889 52.6175 4.71004 52.73L4.40004 52.86L4.00004 53.08C3.72805 53.2409 3.47043 53.4249 3.23004 53.63C3.08042 53.7458 2.9369 53.8693 2.80004 54C2.40847 54.4038 2.07221 54.8578 1.80004 55.35C1.69004 55.55 1.62004 55.72 1.56004 55.85C1.44119 56.1218 1.34422 56.4027 1.27004 56.69C1.21127 56.8591 1.16777 57.0331 1.14004 57.21C1.14004 57.39 1.09004 57.55 1.08004 57.7C1.06827 57.8831 1.06827 58.0669 1.08004 58.25L3.64472e-05 582.49C-0.00373454 583.572 0.285182 584.635 0.836191 585.566C1.3872 586.497 2.17979 587.262 3.13004 587.78L79.33 629.22L79.68 629.39C79.9529 629.515 80.2335 629.621 80.52 629.71L80.9 629.8C81.3229 629.899 81.7557 629.949 82.19 629.95C82.4641 629.948 82.7378 629.932 83.01 629.9L157.41 619.44C158.84 619.238 160.149 618.527 161.096 617.438C162.044 616.348 162.567 614.954 162.57 613.51L163.17 289.97C163.29 226.44 211.17 168.05 269.81 159.8C273.925 159.204 278.073 158.87 282.23 158.8C292.68 175.38 298.16 195.48 298.12 217.09L297.52 540.63C297.519 541.711 297.81 542.773 298.363 543.702C298.916 544.632 299.709 545.395 300.66 545.91L376.85 587.36C376.934 587.409 377.02 587.453 377.11 587.49C377.431 587.649 377.766 587.779 378.11 587.88L378.6 587.98C378.77 587.98 378.98 588.04 379.22 588.06C379.373 588.07 379.527 588.07 379.68 588.06H380.08H380.5L454.9 577.61C456.33 577.408 457.639 576.697 458.586 575.608C459.534 574.518 460.057 573.124 460.06 571.68L461.06 47.44C461.054 47.2322 461.034 47.0251 461 46.82V46.82ZM456.1 571.69C456.105 572.175 455.933 572.646 455.616 573.014C455.3 573.382 454.861 573.622 454.38 573.69L380 584.12H379.66C379.56 584.13 379.46 584.13 379.36 584.12C379.307 584.125 379.253 584.125 379.2 584.12C379.062 584.085 378.927 584.035 378.8 583.97V583.97L302.61 542.52C302.293 542.349 302.027 542.095 301.842 541.785C301.658 541.475 301.56 541.121 301.56 540.76L302.16 217.22C302.21 193.7 295.9 172.22 284.45 154.91H283.53C278.766 154.913 274.008 155.248 269.29 155.91C208.68 164.36 159.3 224.52 159.17 290L158.57 613.53C158.575 614.015 158.403 614.486 158.087 614.854C157.77 615.222 157.331 615.462 156.85 615.53L82.47 625.93C82.377 625.94 82.2831 625.94 82.19 625.93C82.0453 625.929 81.9011 625.912 81.76 625.88H81.64C81.5271 625.844 81.4168 625.801 81.31 625.75H81.24L5.00004 584.26C4.69186 584.082 4.43671 583.825 4.26093 583.516C4.08514 583.206 3.99508 582.856 4.00004 582.5L5.00004 58.26C4.99416 58.1734 4.99416 58.0866 5.00004 58C5.00004 58 5.00004 57.92 5.00004 57.87C4.99675 57.8468 4.99675 57.8232 5.00004 57.8C5.03496 57.6518 5.08523 57.5077 5.15004 57.37C5.1648 57.3325 5.18149 57.2958 5.20004 57.26C5.28704 57.0918 5.40201 56.9396 5.54004 56.81L5.66004 56.71C5.74174 56.6371 5.82864 56.5703 5.92004 56.51C5.92004 56.51 5.98004 56.51 6.00004 56.51L6.20004 56.43C6.3144 56.3769 6.43555 56.3399 6.56004 56.32C6.59656 56.3155 6.63351 56.3155 6.67004 56.32L378.61 4H378.88C379.229 3.99147 379.573 4.0742 379.88 4.24L456 45.69C456.125 45.7605 456.243 45.8443 456.35 45.94L456.44 46.03L456.54 46.14C456.644 46.2636 456.734 46.3977 456.81 46.54V46.6C456.889 46.7645 456.943 46.9397 456.97 47.12C456.97 47.12 456.97 47.21 456.97 47.26C456.97 47.31 456.97 47.39 456.97 47.45L456.1 571.69Z" fill="#2F1664"/>
<path d="M379.721 584.14C379.373 584.149 379.028 584.066 378.721 583.9L302.531 542.45C302.214 542.279 301.948 542.025 301.764 541.715C301.579 541.405 301.481 541.051 301.481 540.69L302.081 217.15C302.161 176.39 283.201 141.73 251.381 124.41C251.138 124.292 250.922 124.126 250.745 123.921C250.569 123.717 250.435 123.479 250.353 123.222C250.271 122.964 250.241 122.693 250.267 122.424C250.292 122.155 250.372 121.894 250.501 121.657C250.63 121.42 250.806 121.211 251.018 121.043C251.23 120.876 251.474 120.753 251.734 120.682C251.995 120.612 252.268 120.595 252.535 120.632C252.803 120.67 253.06 120.761 253.291 120.9L329.481 162.35C332.465 163.973 335.359 165.756 338.151 167.69C339.081 168.34 340.001 169 340.901 169.69C347.29 174.48 353.063 180.038 358.091 186.24C359.531 188.03 360.941 189.89 362.271 191.78C363.601 193.67 364.881 195.64 366.091 197.63C367.911 200.63 369.611 203.79 371.141 207.01C372.141 209.16 373.141 211.39 374.021 213.62C379.614 227.958 382.418 243.231 382.281 258.62L381.681 582.16C381.679 582.509 381.586 582.852 381.41 583.154C381.235 583.455 380.983 583.706 380.681 583.88C380.388 584.047 380.058 584.136 379.721 584.14V584.14ZM305.521 539.5L377.721 578.78L378.321 258.6C378.448 243.72 375.733 228.952 370.321 215.09C369.461 212.93 368.531 210.79 367.541 208.71C366.075 205.631 364.457 202.628 362.691 199.71C361.531 197.79 360.291 195.89 359.011 194.08C357.731 192.27 356.391 190.48 355.011 188.76C350.196 182.812 344.664 177.482 338.541 172.89C337.671 172.24 336.791 171.61 335.901 170.99C333.227 169.138 330.456 167.429 327.601 165.87L275.451 137.5C295.041 157.21 306.171 185.42 306.111 217.17L305.521 539.5Z" fill="#2F1664"/>
<path d="M82.19 623.95L6 582.5L6.97 58.27L83.17 99.72L82.19 623.95Z" fill="#2F1664"/>
<path d="M82.1902 626C81.8416 626.009 81.4969 625.926 81.1902 625.76L5.00019 584.26C4.69201 584.082 4.43687 583.825 4.26109 583.516C4.0853 583.207 3.99524 582.856 4.00019 582.5L5.00019 58.2602C5.00404 57.9128 5.09827 57.5725 5.27361 57.2727C5.44896 56.9728 5.69937 56.7238 6.00019 56.5502C6.30423 56.3746 6.64912 56.2822 7.00019 56.2822C7.35127 56.2822 7.69616 56.3746 8.00019 56.5502L84.1202 98.0002C84.4284 98.1781 84.6835 98.4349 84.8593 98.7443C85.0351 99.0537 85.1251 99.4044 85.1202 99.7602L84.1902 624C84.1864 624.348 84.0921 624.688 83.9168 624.988C83.7414 625.288 83.491 625.537 83.1902 625.71C82.8895 625.896 82.5437 625.996 82.1902 626V626ZM8.00019 581.32L80.2002 620.59L81.2002 100.9L9.00019 61.6302L8.00019 581.32Z" fill="#2F1664"/>
<path d="M83.1707 99.72L6.9707 58.27L378.881 6L455.081 47.45L83.1707 99.72Z" fill="#FFF9F3"/>
<path d="M83.1698 101.72C82.8204 101.726 82.4756 101.64 82.1698 101.47L5.99981 60.0002C5.63314 59.7977 5.33931 59.4852 5.15979 59.1067C4.98026 58.7282 4.9241 58.3029 4.99923 57.8908C5.07436 57.4787 5.27698 57.1006 5.57851 56.8099C5.88004 56.5191 6.26526 56.3303 6.67981 56.2702L378.61 4.00024C379.033 3.94033 379.464 4.01742 379.84 4.22024L456 45.6902C456.371 45.891 456.668 46.2037 456.851 46.5838C457.033 46.9639 457.091 47.3919 457.015 47.8067C456.94 48.2214 456.735 48.6017 456.431 48.8933C456.126 49.1849 455.737 49.3728 455.32 49.4302L83.4498 101.7L83.1698 101.72ZM13.2498 59.4102L83.5398 97.6402L448.8 46.3102L378.51 8.07024L13.2498 59.4102Z" fill="#2F1664"/>
<path d="M455.079 47.4502L454.079 571.68L379.699 582.14L380.299 258.6C380.419 192.1 330.569 145.2 268.949 153.86C207.329 162.52 157.299 223.46 157.169 290L156.569 613.54L82.1895 624L83.1895 99.7702L455.079 47.4502Z" fill="#FFF9F3"/>
<path d="M82.1895 626C81.659 626 81.1503 625.79 80.7752 625.415C80.4002 625.039 80.1895 624.531 80.1895 624L81.1895 99.7604C81.1847 99.2751 81.3565 98.8046 81.673 98.4366C81.9894 98.0687 82.4289 97.8283 82.9095 97.7604L454.799 45.4704C455.085 45.4301 455.375 45.4518 455.651 45.5341C455.927 45.6164 456.182 45.7573 456.398 45.9472C456.615 46.1371 456.788 46.3715 456.905 46.6344C457.023 46.8973 457.082 47.1824 457.079 47.4704L456.079 571.71C456.084 572.196 455.912 572.666 455.596 573.034C455.279 573.402 454.84 573.642 454.359 573.71L379.999 584.12C379.716 584.16 379.428 584.139 379.153 584.058C378.879 583.977 378.625 583.838 378.409 583.65C378.195 583.462 378.023 583.23 377.906 582.969C377.789 582.709 377.728 582.426 377.729 582.14L378.329 258.6C378.389 225.98 365.809 196.28 343.819 177.13C323.569 159.49 297.089 151.93 269.259 155.84C208.679 164.36 159.299 224.52 159.169 290L158.569 613.53C158.574 614.016 158.402 614.486 158.086 614.854C157.769 615.222 157.33 615.462 156.849 615.53L82.4695 625.93C82.3791 625.964 82.2851 625.988 82.1895 626V626ZM85.1895 101.51L84.1895 621.7L154.569 611.81L155.159 290.01C155.289 222.65 206.209 160.71 268.679 151.93C297.679 147.86 325.279 155.75 346.419 174.16C369.289 194.08 382.369 224.87 382.309 258.65L381.709 579.89L452.109 570L453.109 49.8004L85.1895 101.51Z" fill="#2F1664"/>
</g>
<defs>
<clipPath id="clip0_273_28">
<rect width="252" height="630" fill="white"/>
</clipPath>
</defs>
</svg>
