<?xml version="1.0" encoding="utf-8"?>
<!-- Generator: Adobe Illustrator 25.0.0, SVG Export Plug-In . SVG Version: 6.00 Build 0)  -->
<svg version="1.1" id="Layer_1" xmlns="http://www.w3.org/2000/svg" xmlns:xlink="http://www.w3.org/1999/xlink" x="0px" y="0px"
	 viewBox="0 0 1991.6 795.2" style="enable-background:new 0 0 1991.6 795.2;" xml:space="preserve">
<style type="text/css">
	.st0{fill:#FFFFFF;}
	.st1{fill:#E56399;}
	.st2{fill:#4969DB;}
	.st3{fill:#2F1664;}
	.st4{fill:#171618;}
	.st5{fill:#FD4A21;}
	.st6{fill:#FED0C6;}
</style>
<g>
	<path class="st0" d="M1165.1,238.5c-2.3-2.6-4.9-4.4-7.7-5.6c3.6-5.7,5.5-12.4,5.2-19.3c-0.5-10.6-14-17.8-22.1-9.5
		c0.9-3.1,1.8-6,2.7-8.4c2.5-7.1-2.9-13.8-9.1-16.1c-3.8-1.4-7.5-1.8-11.1-1.3c-0.7-3.2-2.6-6.2-5.4-8.4c0.2-25.2,0.4-50.4,0.6-75.6
		c0.1-15.1-21.2-17.3-25.7-3.5c-4.4,13.4-3.8,26.9-3,40.8c0.9,16.2-0.9,26.5-8.8,40.6c-1.4,2.4-1.8,4.9-1.7,7.4
		c-4.5,2.9-6.3,8.3-5.2,13.6c-5-2.2-10.6-2.4-16.4,0.8c-11.1,6-31,25.7-19.1,37.8c-1.3,11.8,9.1,24.9,16.5,33.7
		c13,15.6,27.9,22,48,22.3c9.4,0.2,20.5,1.4,29.6-1.4c7.2-2.2,14.5-7.6,20.9-11.5C1164.9,267.6,1176.9,251.5,1165.1,238.5z"/>
	<path class="st0" d="M1923.8,642.3c-2.7-0.2-5.1,0-7.4,0.4c-2.7-4.8-8-7.9-14.4-5.9c-12.4,4-17.8,13.4-22.2,24.2
		c-1.7,1-3.4,2-5,3.1c-5.7,3.9-9.4,8.9-13.7,14.2c-4.8,6-10.2,9.2-17.1,12.3c-13.7,6.2-28,11.9-42.6,15.7c-15.6,4.1-30.4,2.5-46,3.3
		c-2.7-1.2-5.5-2.4-8.7-3c-12.9-2.5-20,12.4-14.5,20.5c-1.7,1.5-3.2,3.5-4.3,5.9c-4,9.7-3.5,22.8,7,28.4c7.2,3.9,15.6,2,23.6-0.9
		c5.4,0.7,11,1,16.3,1.1c3.5,0.1,7.1,0,10.6-0.1c2.1,2.2,5,3.6,8.7,3.9c20.6,1.2,42.2-1.7,61-10.5c7.2-3.4,11-8.7,12.7-15
		c5.7-5.6,10.4-12.5,14.5-20.4c5-9.6,9.5-19.5,13.7-29.4c0.8-2,2-6,3.4-10.5c10.1-5.2,21.8-9,30.8-13.1
		C1943.1,660.9,1935.5,643,1923.8,642.3z"/>
	<path class="st1" d="M273.5,752.3c-5.2,1.3-10.5,0.4-15.8,0.2c-0.6,0.7-1.8,0.6-2,0.1c-1.7-4-5.3-4.3-8.8-4.6
		c-6.3-0.6-12.2-2.7-18.4-3.5c-11.8-1.6-21.9-6.9-30.7-14.5c-6.9-5.9-11.1-13.8-7.6-22.7c2.8-7.2,7.4-14,13.2-19.3
		c8.3-7.5,17.4-14.3,27.3-19.7c7.7-4.2,14.9-9.2,23-12.7c9.2-3.9,18.1-8.4,27-12.9c12.7-6.4,26-11.3,38.9-17.2
		c0.7-0.3,1.6-0.2,2.4-0.5c11.2-3.4,21.7-8.5,31.6-14.8c4.1-2.6,4-2.8,5,2c0.9,4.5,2.4,8.8,5.4,12.5c8,9.9,17.6,17.4,30.1,20.9
		c1.2,0.3,2.7,0.7,2.9,2.1c0.2,1.5-1.3,2-2.5,2.4c-5.1,1.8-9.3,5.3-14.1,7.8c-13.5,7-25.8,16-38.9,23.8
		c-8.6,5.1-16.9,10.6-25.6,15.7c-3.1,1.8-4,3.8-2.9,6c2.7,5.6,4.8,6.9,8.8,4.8c6-3.3,12.3-6.4,17.7-10.6c10-7.5,21.2-13,31.5-20.1
		c12-8.3,24.8-15.2,37.1-23.1c5-3.2,9.2-7.5,13-12.1c3.7-0.7,6.2-3.3,9-5.5c-0.3,5.7,1.1,6.9,6.2,4.8c3.1-1.3,5.6-3.5,7-6.7
		c2.3-5.2,4.2-10.4,4.7-16.1c0.3-3.7,0.6-3.8,4-1.7c5.1,3.1,10,6.5,15.2,9.4c8.8,5,17.9,9.2,27.8,12c5.1,1.5,10.5,1.7,15.5,4.1
		c2.5,1.2,5.6,1.6,8.4,2.2c6.2,1.4,12.6-0.1,18.7,1.1c10.7,2.2,21.2-0.1,31.5-1.9c18-3,34.9-9.8,50.7-19.2c12.8-7.7,24-17,34.1-27.9
		c7.3-7.9,13.4-16.5,18.8-25.8c0.6-1.1,1-2.5,2.2-2.9c4.7-1.4,8.1-5.1,12.7-6.6c7.2-2.3,13.5-6.4,20.3-9.4c6.7-2.9,12.5-7.3,19-10.6
		c10.4-5.3,20.9-10.5,31.6-15c8-3.4,16.2-6.6,24.9-7.7c19.9-2.6,39.2-7.8,58.4-13.3c17.6-5,35-10.8,52.1-17.4
		c13.8-5.4,27.3-11.5,40.9-17.2c6.8-2.9,13.8-5.5,20.6-8.5c7.8-3.3,16-5.6,23.5-10c6-3.5,10.3-8.4,13.5-14.3
		c6.3-11.5,12.5-22.9,18.5-34.6c3.2-6.3,6.5-12.5,9.3-19c2.6-6.1,5.3-12.3,9-17.8c5.1-7.5,8.7-15.7,12-23.9
		c7-17.5,15.1-34.7,19.8-53.1c0.3-1.3,1-2.7,2.8-3.7c1.5,1.4,3.6,2.1,5.7,2.9c3.7,1.4,7.6,1.5,11,2.8c9.1,3.6,18.3,2.5,27.5,2.4
		c2.4,2,2.1,5.3,3.9,7.7c-1.8-0.2-3.2,0.5-4.3,1.9c-1.8,2.4-2.9,5-3.4,8c-2.9,14.5-7.6,28.7-12.3,42.6
		c-5.6,16.7-10.9,33.6-17.1,50.1c-4.2,11.3-7.4,23-11.5,34.3c-4.1,11.5-8.5,23-12,34.7c-1.3,4.4-3.6,8.6-7.4,11.3
		c-6.2,4.3-12.5,8.5-19.2,11.6c-8.3,3.9-16.2,8.4-24.5,12.3c-11.1,5.2-22.2,10.4-32.9,16.4c-14,7.8-29,13.4-43.5,20.2
		c-12.8,6-25.7,11.9-39.2,16.1c-1.2,0.4-2.3,0.9-3.5,0.3c-7.6-3.3-15.3-6.6-22.9-10.1c-12.4-5.7-25.1-10.1-39.1-8.5
		c-3.7,0.4-7.5,1-11.2,1.7c-10.3,1.8-20.5,3.7-30.9,4.4c-6,0.4-12.1,1.1-17.8,3.2c-3.3,1.3-3.5,1.8-2.2,5.1c0.8,2.2,2.2,3.5,4.4,3.9
		c2.9,0.4,5.7,0.9,8.7,0.7c15.2-0.9,30.2-3.2,45.2-6c10.6-2,20.8-0.8,30.7,3.3c20.4,8.4,40.5,17.6,60.4,27.1
		c20.6,9.9,42,15.4,64.6,17.8c12.8,1.4,25.6,1.3,38.4,1.4c3.6,0,7.4-1,10.6,1.5c4-3.9,9.4-2.3,14.1-3.4c6.7-1.5,13.4-2.9,20-4.4
		c2.5-0.6,3.6-0.1,3.6,3.1c0,9.9-3,19.3-4.4,28.9c-1.1,7.6-4,14.9-5.2,22.4c-1.7,10.2-2,20.7-4.5,30.8c-0.4,1.6-1,3.4-0.6,4.9
		c1,4.7-0.5,9.1-1.4,13.4c-2.3,11.4-4.1,22.9-7.7,34c-1.9,5.7-4.9,10.6-9.9,13.9c-6.5,4.3-6.7,4.5-1.1,9.4c-4.5,3.1-9.7,3-14.8,3.1
		c0-1-0.1-2.1,0.2-3.1c1.3-5.1,0.3-6.9-4.7-7.7c-1.8-0.3-3.8-0.3-5.6-0.2c-8.6,0.5-17.1-0.9-25.6-1.6c-13.5-1-26.9-2.8-40.4-3.5
		c-19.3-1.1-38.7-1.6-58.1-2.5c-11.5-0.5-22.9-1.6-34.4-2.1c-22.3-0.8-44.6-1.3-66.8-2.6c-16.6-1-33.3,0-50-1.2
		c-12.4-0.9-25,0.1-37.5-0.1c-17.5-0.3-35,0.4-52.5,0.8c-22.1,0.5-44.2,0.8-66.3,1.3c-25.6,0.5-51.2,1.8-76.8,2.9
		c-22.1,1-44.1,2.6-66.2,2.9c-6.6,0.1-13.4,1.1-20,0.9c-20.8-0.6-41.6,0-62.4-1.5c-12.6-0.9-25.4-0.3-38.1-0.1
		c-8.1,0.1-16.2,0.6-24.2,1.3C275.1,747.6,274.2,749.5,273.5,752.3z M777.9,595.6c-0.4,0,0.3-1.1-0.5-0.6c-0.4,0.2-0.8,0.8-0.9,1.3
		c-0.1,0.2,0.3,0.9,0.5,0.9C778.2,597.3,778,596.4,777.9,595.6z"/>
	<path class="st2" d="M1050.2,769.9c-7.2-1.6-13.7-4.8-19.5-9.3c3.6-2.5,7.1-5.4,8.7-9.4c2.3-6,5.6-11.7,6.9-18c2.5-11.9,4-24,6-36
		c0.8-4.7,1.3-9.4,2-14c0.7-4.6,2-9.2,2.5-13.9c0.5-3.9,0.1-7.9,0.9-11.8c1.7-8.1,3.1-16.3,5-24.3c2.8-12.3,4.9-24.7,5.3-37.4
		c0.1-3.8,1.7-6.2,5.6-7.3c8.8-2.5,16.7-7.3,24.9-11.2c9.1-4.4,17.5-10.3,26.6-14.9c20.6-10.4,40.2-22.8,60.8-33.2
		c4.4-2.2,8.4-5.3,12.9-7.4c18.4-8.7,35.8-19.2,54.2-27.9c9.7-4.6,19.5-9.1,29.6-13.1c10.8-4.3,21.6-8.7,32.5-12.7
		c14.8-5.5,28.9-12.7,44.8-15c8.3-1.2,16.7-2.2,24.8-0.2c9.1,2.3,17,7.8,24.7,13.1c6.3,4.4,12.1,9.5,18.1,14.3
		c4.7,3.8,9.6,7.4,13.9,11.6c14.6,14,28.7,28.5,41.7,44.1c3.4,4.1,7.3,8,10.3,12.3c7.3,10.5,16,19.9,23.7,30.1
		c5,6.6,10.6,12.8,15.8,19.2c9,11.2,17.8,22.5,26.7,33.8c3.9,4.9,7.9,9.6,11.7,14.6c6.2,8.1,12,16.5,18.3,24.5c4,5.1,4.9,5,11.3,2.8
		c2.1,4.6,6.2,7.7,9.4,11.4c1.4,1.6,2.8,3,3.3,5.1c-1,0.2-2,0.6-3,0.5c-10-0.9-20-0.8-29.9-1.3c-20.6-1-41.1-2.2-61.7-3.4
		c-6.3-0.4-12.6-0.8-20.3-1.3c2-1.1,2.7-1.5,3.3-1.9c4.4-2.7,4.6-3.6,1.3-7.6c-2.8-3.4-5.5-6.9-8.4-10c-7.6-8.2-16-15.7-24.8-22.6
		c-11.9-9.4-24.3-18.1-36.3-27.3c-10.7-8.2-22-15.8-30.6-26.5c-3.8-4.7-8-9-12.3-13.3c-2.2-2.2-4.7-4.2-7.3-5.8
		c-1.8-1.1-4-2.3-6.4-0.6c-2.7,1.9-2,4.3-1.4,6.7c-1-0.2-2.1-0.2-2.9-0.7c-6.5-3.9-12.9-7.8-19.3-11.8c0.5-0.7,1.1-1.3,1.4-2
		c1-2.1,1.6-4.5,0.2-6.5c-1.5-2.1-4-2-6.3-1.6c-2.7,0.4-5.1,1.8-7.5,3.1c-15.4,8.5-29.1,19.4-43.4,29.4
		c-11.1,7.7-21.7,16.1-33.4,22.9c-12.8,7.5-23.9,17.4-36.7,25c-5.9,3.5-11.6,7.3-17.1,11.3c-8.4,6.2-18.4,9.8-26.3,16.8
		c-1.6,1.4-3.8,2.2-5.8,1.8c-3.5-0.6-7.1-0.1-10.6-0.4c-12.8-1-25.3,0.7-37.9,2.5c-1.8,0.3-3.9,0.4-4.1,2.9
		c-0.2,2.6,1.5,3.5,3.8,4.1c6.9,1.8,13.8,3,21,2.7c11.2-0.4,22.5-0.9,33.7-0.5c13.9,0.5,27.7,3.1,41.6,4.5
		c9.1,0.9,18.3,1.9,27.4,1.8c11.3-0.2,22.4,1,33.6,1.8c7.6,0.6,15.3,0.9,23,1.6c14.7,1.4,29.5,1.9,44.2,3c12,0.9,24.1,2.1,36.1,3
		c12.9,0.9,25.7,2.3,38.6,2.7c10.4,0.4,20.8,0.9,31.2,1.9c12,1.1,24.1,1.4,36.2,2.1c18.7,1,37.5,1.1,56.2,2.3
		c17.2,1.1,34.5,1.7,51.8,2.6c16.3,0.9,32.5,1.2,48.8,2.2c19.1,1.2,38.3,2.4,57.4,3.1c4.2,0.1,8.4,0.2,12.5,0.5
		c1.5,0.1,4,0.3,3.6,2.5c-0.6,2.7,0.5,5.2,0,8c-2,11.3,0.2,22.3,3.6,33.1c0.5,1.6,1.4,3.1,1.8,4.6c0.8,2.9,0.1,4-3.1,4.3
		c-8.7,0.9-17.5,0.9-26.2,0.9c-22.7,0-45.5,1.3-68.2,2.2c-20.6,0.8-41.3,1.5-61.8,2.9c-25.2,1.7-50.2,4.3-75.4,6.3
		c-17.8,1.4-35.7,2.5-53.6,3.7c-16.8,1.1-33.6,2.7-50.5,3c-15.6,0.2-31.2,0.9-46.8,2.1c-8.1,0.6-16.2,0.2-24.3,0.8
		c-12.3,0.9-24.6,0.7-36.9,0.9c-13.9,0.2-27.9-0.3-41.8-0.3c-11.4,0-22.9,0.4-34.3,0.5c-11.6,0.1-23.3-0.1-34.9-0.1
		c-10.6,0-21.3,0.9-31.8-0.2c-26.3-2.8-52.8-4.5-78-13.5C1059.6,767.6,1054.6,766.8,1050.2,769.9z"/>
	<path class="st3" d="M398,334.1c2.7-1,5.5-1.4,8.4-1.7c9.7-1,18.4-3.9,24.2-13.1c8-12.4,17.8-23.4,28.9-33.3
		c3.3-3,6.9-5.3,10.9-7.1c1.8,1.8,3.8,1.3,5.8,0.5c3.5-1.4,7-2.7,10.3-4.5c14.3-7.7,29.6-12,45.5-14.2c16.4-2.2,32.7-1.4,49,2.2
		c9.8,2.1,19.2,5.4,28.5,9.1c8.1,3.2,16,7.1,23.1,12.1c12.1,8.4,23.5,17.8,33.2,29.2c5.9,7,11.4,14.4,16.1,22.1
		c9,14.7,14.3,30.9,17.7,47.7c0.9,4.4,1.2,9.1,1.2,13.7c0,2.5-0.7,4.6-3.8,4.7c-3.4,0.2-6.3,2.1-9.6,2.7c-5.3,1-8.9,4.2-11.7,8.6
		c-0.8,1.3-1.1,3.3-3.7,3.3c-3-5.2-7.2-9.8-11.2-14.5c-4.1-4.8-6-5.1-11.6-1.7c-1.6,0.1-3.2-0.7-4.9-0.3c-19.1,4.1-38,2.3-56.7-2.7
		c0.9-1.9,3.4-3,2-6c-1.4-2.8-3.5-2.4-5.8-2.5c-0.8,0-1.7-0.3-2.5-0.1c-4.7,1.4-8.8-2.4-13.4-1.7c-12.1-5.8-23.3-12.7-32.3-22.9
		c-4.1-4.7-6.6-10-8.1-16c-0.6-2.2-1.2-4.5-2.1-6.5c-0.8-1.7-2.1-3.4-4.3-2.9c-2,0.4-4.2,1.1-4.8,3.5c-0.6,2.8-1.5,5.6-0.6,8.6
		c3,9.9,7,19,15.1,26c7.7,6.7,15.2,13.6,24.9,17.2c-3.1,2.5-6.2,4.8-9.2,7.4c-9.8,8.7-20.9,14.7-33.9,17.2c-4.9,0.9-10,0.6-14.6,2.8
		c-4-0.7-7.1-3.5-10.5-5.3c-6.5-3.5-13.1-7.2-17.3-13.7c-2.5-4-5.1-8.1-7.2-12.3c-4.9-9.4-7.3-19-2.4-29.2c0.9-2,0.9-4.4,1.2-6.7
		c0.6-4.7-1-6-5.6-4.7c-2,0.6-3.9,1.7-4.8,3.7c-3,6.6-5.4,13.4-5.3,20.9c0,6.7,2.2,12.7,4.7,18.6c6.4,15,16.3,26.7,31.7,33.1
		c-1.6,0.5-3.1,1.1-4.2,2.5c-5.4,6.7-12.2,11.7-19.2,16.7c-16.1,11.6-34,13.9-52.9,12.1c-5.3-0.5-5.2-0.6-7,4.3
		c-2.5,7-2.3,14.3-2.7,21.6c-8.1,3.6-15.8,7-22.2,14.2c-13.3,15-21.6,31.8-23.4,51.8c-0.5,5.4,0.1,10.9-1,16.1
		c-1.3,5.7,0,10.7,1.9,15.8c1.3,3.3,2.5,6.6,3.9,9.9c1.4,3.3,2,6.8,2,10.4c0,1.3-0.3,3.1-1.7,2.8c-4.9-0.8-8.8,2-13.3,2.8
		c-9.9,1.7-19.2,5.3-28.6,8.6c-17.5,6.1-34.2,14.4-50.9,22.3c-7.7,3.6-15.5,7-23,11c-6.1,3.2-12.1,6.6-17.8,10.3
		c-11.4,7.3-22.6,14.9-31.1,25.6c-8.2,10.3-12.7,21.7-10.6,35.7c-7.8-1.2-15.1,1.1-22.5,2c-3.1,0.4-6.2,0.7-9.3,0.9
		c-10,0.7-20,1.4-29.9,2c-10.6,0.6-21.1,0.6-31.6-1.2c-9.5-1.7-18.8-4-28.1-6.2c-10.5-2.5-20.6-6.4-29.4-13c-5-3.8-7.1-9-8.2-14.9
		c-0.7-3.5,2.5-5.6,3.3-8.5c1.7-6.1,6.4-9.9,11.1-12.9c5.5-3.6,11.1-7.4,17.6-9.4c10-3.1,14.3-10.8,15.8-20.4c0.7-4.8,2-9.4,3-14
		c1.9-8.2,6.5-14.9,13.1-19.9c7.1-5.4,14.5-10.6,22.2-15c8.8-5,18.2-9.1,27.3-13.5c15.3-7.3,31.3-12.6,47.2-18
		c21.9-7.4,44.9-10.9,67.2-17.2c9.8-2.8,19.5-6,28.9-9.8c18.5-7.4,32.9-20.8,47.1-34.1c5.9-5.6,10.2-12.6,14.9-19.2
		c7.8-11,14-22.6,17-35.9c0.2-0.9,0.4-2.1,1.5-2.2c1.5,0.1,1.7,1.3,2.4,2c3.9,4.2,8.1,7.7,14,8.8c2.1,0.4,4-0.2,4.5-2.2
		c0.4-1.6,0.9-4.2-1.3-4.9c-3.5-1.1-5.2-4.2-7.3-6.5c-5-5.4-9.6-11.6-10.4-18.8c-1.6-14.2,0.2-28.2,6.1-41.6c3.1-7,7.6-12.9,11.8-19
		c2.7-3.8,5.3-8.4,9.9-10.2c4.8-1.9,8.1-6.9,13.9-6.7c1.2,0,1.6-1.2,1.7-2.3c0.1-1.1-0.3-2.1-1.4-2.5
		C401.2,335,399.6,334.6,398,334.1z"/>
	<path class="st4" d="M398,334.1c1.6,0.4,3.2,0.8,4.7,1.4c1.1,0.4,1.6,1.3,1.4,2.5c-0.1,1.1-0.5,2.3-1.7,2.3
		c-5.8-0.1-9.1,4.8-13.9,6.7c-4.6,1.8-7.2,6.4-9.9,10.2c-4.3,6.1-8.7,12.1-11.8,19c-5.9,13.4-7.7,27.4-6.1,41.6
		c0.8,7.2,5.4,13.5,10.4,18.8c2.1,2.3,3.8,5.4,7.3,6.5c2.3,0.7,1.8,3.3,1.3,4.9c-0.5,2-2.4,2.6-4.5,2.2c-5.8-1.1-10.1-4.6-14-8.8
		c-0.7-0.7-0.8-1.9-2.4-2c-1.1,0.1-1.3,1.3-1.5,2.2c-3,13.2-9.3,24.8-17,35.9c-4.7,6.6-8.9,13.6-14.9,19.2
		c-14.2,13.4-28.6,26.7-47.1,34.1c-9.4,3.8-19.1,7-28.9,9.8c-22.3,6.3-45.2,9.8-67.2,17.2c-16,5.4-32,10.7-47.2,18
		c-9.2,4.4-18.5,8.5-27.3,13.5c-7.8,4.4-15.1,9.6-22.2,15c-6.6,5-11.2,11.7-13.1,19.9c-1.1,4.6-2.3,9.2-3,14
		c-1.5,9.5-5.8,17.3-15.8,20.4c-6.5,2-12.1,5.8-17.6,9.4c-4.7,3-9.4,6.8-11.1,12.9c-0.8,2.9-4,5-3.3,8.5c1.1,5.8,3.2,11.1,8.2,14.9
		c8.8,6.7,18.9,10.5,29.4,13c9.3,2.2,18.6,4.6,28.1,6.2c10.6,1.9,21.1,1.8,31.6,1.2c10-0.5,20-1.3,29.9-2c3.1-0.2,6.2-0.5,9.3-0.9
		c7.4-1,14.7-3.2,22.5-2c-2.1-14,2.4-25.4,10.6-35.7c8.6-10.8,19.8-18.3,31.1-25.6c5.8-3.7,11.8-7.1,17.8-10.3c7.5-4,15.3-7.3,23-11
		c16.7-7.9,33.4-16.2,50.9-22.3c9.4-3.3,18.7-6.9,28.6-8.6c4.4-0.8,8.4-3.6,13.3-2.8c1.4,0.2,1.7-1.5,1.7-2.8c0-3.6-0.5-7.1-2-10.4
		c-1.4-3.3-2.7-6.6-3.9-9.9c-1.9-5.1-3.2-10.1-1.9-15.8c1.2-5.2,0.5-10.7,1-16.1c1.8-20,10.1-36.8,23.4-51.8
		c6.4-7.2,14.1-10.6,22.2-14.2c1.5,0.6,3.1,1.3,4.7,0.9c1.8-0.4,2.7,0.3,4.2,1.2c5,3,5.7,8.1,7.6,12.7c-0.2,5.1,0.1,10.3-0.6,15.4
		c-1.9,13.7-1.9,27.2,1.2,40.7c0.7,3.3,1.9,6.5,4.4,8.8c4.4,4,9,7.8,13.5,11.7c0.3,2.6,3.2,2.2,4.4,4c4.6,6.7,9.5,13.1,11.4,21.3
		c0.5,2.3,1.9,3.9,3.9,5.3c8.1,5.7,16.3,11.2,25,16c12.2,6.6,25.2,11.8,39.2,13c4.4,0.4,8.2,2.2,12.8,2.3c8.1,0.1,16.1-0.2,24.1-0.6
		c7.3-0.4,14.6-1.5,21.5-3.6c8.4-2.6,17.1-4.5,25-8.8c3.8-2.1,7.5-4.5,11.4-6.3c8.8-4.1,16.5-9.7,23.3-16.2
		c8.8-8.4,17.3-17.1,23.9-27.7c4.6-7.4,8.9-14.9,12.4-22.8c7-15.8,10.4-32.4,11.3-49.5c0.2-4.4,0.5-8.7-0.7-13
		c0.5-11.8-2.3-23-5.4-34.3c-1-3.8-1.9-7.6-4.5-10.8c-2.1-8.3-6.3-15.6-11.1-22.6c-4.2-6.2-7.9-12.7-10.6-19.7
		c5.6-3.4,7.5-3.2,11.6,1.7c4,4.8,8.2,9.3,11.2,14.5c2.6,0,2.9-2,3.7-3.3c2.8-4.4,6.3-7.6,11.7-8.6c3.2-0.6,6.2-2.5,9.6-2.7
		c3.1-0.2,3.7-2.3,3.8-4.7c0.1-4.6-0.3-9.3-1.2-13.7c-3.4-16.8-8.7-33.1-17.7-47.7c-4.7-7.7-10.1-15.1-16.1-22.1
		c-9.7-11.4-21.1-20.8-33.2-29.2c-7.1-4.9-15-8.8-23.1-12.1c-9.3-3.7-18.6-7-28.5-9.1c-16.3-3.6-32.6-4.4-49-2.2
		c-15.9,2.2-31.3,6.5-45.5,14.2c-3.3,1.8-6.8,3.1-10.3,4.5c-2,0.8-4,1.4-5.8-0.5c0.8-4.2,3.7-6.4,6.8-9.1c6.2-5.4,13.4-9,20.7-12.2
		c6.4-2.7,13.2-4.9,20-6.6c15.1-3.6,30.5-4.4,45.9-2.9c14.1,1.4,27.9,4.2,41.3,9.3c10.9,4.2,21.4,9.1,31.4,15.2
		c7.4,4.5,14.2,10.1,20.8,15.7c14.6,12.4,27,26.7,36.1,43.6c8.5,15.7,15.2,32.1,17.2,50.1c0.6,5.1,1.7,10.2,1.8,15.5
		c0.1,2.7,1.2,4.4,4.2,4.2c15-0.9,25.8,6.1,33.6,18.2c6.1,9.5,10.3,19.8,10.7,31.3c0.2,4.9,1.2,9.7,1,14.8c-0.6,15-6.7,27.5-15.7,39
		c-8.5,10.9-19.9,18-32.5,23.4c-3.2,1.3-3.2,1.3-2.4,7.5c1.9,0.8,3.2-0.7,4.5-1.6c10.5-7.6,22.4-12.4,34.3-17.4
		c4.4-1.8,8.7-3.8,13.1-5.5c7.4-2.7,15-4.9,22.9-5.8c11.6-1.4,22.9-4.2,34.1-7.2c17.7-4.7,35.4-9.6,52.6-15.8
		c20.6-7.5,40.9-15.8,61-24.6c11-4.9,22.4-9.1,33.7-13.3c5.4-2,9.4-5.4,12.3-10.1c4.7-7.8,8.9-15.8,13.5-23.7
		c3.7-6.3,7-12.7,10.1-19.3c4.9-10.2,9.6-20.6,14.8-30.6c4.5-8.6,9.2-17.2,12.9-26.2c4.5-10.9,8.5-22,12.9-33
		c2.5-6.2,4.4-12.8,8.3-18.6c4.1-6.1,2.8-8.7-2-14.2c-4.5-5.2-8.7-10.7-12.3-16.7c-3.7-6.1-6.8-12.5-9.8-18.9
		c-4.7-9.9-8-21.1,1.1-31.5c6.8-7.7,14.9-13.2,23.6-18.2c1.8-1,4.1-1.8,6-1.6c4.8,0.6,8.6-3.1,13.4-2.5c1.8,0.3,2.1-1.6,2.6-2.9
		c2.3-5.5,2.2-11.4,3.3-17c1.2-6.1,2.5-12.1,3.5-18.3c0.8-5.1,1.3-10.3,1.7-15.4c0.9-10.7,1.4-21.5,2.5-32.2
		c0.6-6.4,2.1-12.6,6.2-18c2.4-3.2,5.1-4.3,9-4.3c3.7-0.1,6.9,1.3,10.4,1.8c1.5,0.2,2.7,1.3,3.5,2.5c3.5,5.8,6.2,11.6,8,18.4
		c3.1,11.9,3.4,23.9,4.2,36c0.9,12,1.3,24.1-1.3,36c-0.2,1-0.3,2.1-0.2,3.1c0.1,1.7,0.8,2.3,2.8,2c11.7-1.6,19.1,4.1,21.5,15.9
		c0.1,0.4,0.3,0.8,0.3,1.2c1.3,5.4,1.3,5.4,6.8,6c6.8,0.7,13.2,5.9,15.2,12.1c0.8,2.4-0.9,4.8-0.3,6.7c1.6,5.2,1.1,10.3-0.1,15.3
		c-0.5,2,0.7,3,1.5,4.4c5.6,10.3,8.7,21.3,2.3,32c-6.8,11.5-15.5,21.2-29.6,24.7c-7,1.8-13.9,3.6-21.1,4.2c-2.3,0.2-3.8-0.6-5.5-1.8
		c-2.1-1.4-3.7-2.9-3.2-5.5c0.5-2.6,2.8-2.5,5-2.8c5.9-0.8,12-1.2,17.7-3c8.5-2.7,16.6-6.4,21.4-14.6c0.8-1.3,1.9-2.2,2.7-3.4
		c4.7-6.4,6-13.5,5.1-21.3c-4.2,8.9-11.1,14.9-19.3,19.8c-7.8,4.6-14.5,4.1-20-1.9c-1.4-1.6-1.8-3.2-1.7-5.1
		c0.2-2.4,2.9-4.2,4.8-2.7c4.9,3.8,9.4,1.3,13.2-1.2c6.8-4.5,11.2-11.1,13.8-18.8c2.6-7.7,3-15.4,1-23.3c-0.4-1.6-1-3.2-1.8-4.6
		c-1.3-2.2-3.3-3.2-5.8-2.5c-2.5,0.7-1,2.7-1.3,4.1c-3.2,17.3-10.3,32.5-25.1,43c-5.8,4.1-11.6,5-17.9,0.4c-2.5-1.8-3.5-3.7-4.1-6.5
		c-1.4-6.3-0.8-12.5,1.3-18.4c1.7-4.9,3.6-9.7,5.1-14.7c0.6-2.2,1.8-4.4,4.4-4.9c2.1-0.4,6.1,2.1,7.3,4c1.4,2.2,0.1,4-0.5,5.9
		c-2.3,6.9-4.6,13.8-7,20.6c-0.4,1-0.4,2-0.4,3c0,1.3,0,2.6,1.5,3.1c1.1,0.4,2-0.2,2.8-0.9c9.8-7.4,15.9-17.4,19.4-28.8
		c2.4-7.8,1.9-16,0.8-24c-0.3-2.1-1.5-3.9-2.5-5.7c-1.1-1.8-2.7-2.5-4.8-1.8c-2.7,0.9-5.6,1.5-8.3,2.6c-1.9,0.7-3.4,0.6-5.3-0.3
		c-5.1-2.7-5.3-2.6-4.3-8.4c2.2-12.8,2.8-25.7,2.2-38.6c-0.6-12.6-1-25.4-3.5-37.8c-1-4.7-3-9.1-5.4-13.3c-1.7-3-3.9-2.9-5.4,0.1
		c-2.9,5.7-3.9,11.9-4,18.2c-0.3,11.2-1.5,22.4-3,33.5c-1.1,8.7-1.9,17.4-4.8,25.7c-2.2,6.2-3.2,12.9-7.8,18.2
		c-1.6,1.9-1.8,4.1,0.4,6.6c5.1,5.9,5.7,13.8,7.5,21c1.7,6.7,2.1,13.8,1.7,20.9c-0.4,6.2-1.4,12-7.7,15.2c-3,1.5-5.9,1.4-8.8-0.5
		c-7-4.5-11.5-11.2-15.3-18.3c-1.3-2.4-3-4.4-4.5-6.7c-1.3-2-1.3-4,0-5.8c1.3-1.7,3-0.7,4.6-0.3c3.8,0.9,6.5,2.4,8.2,6.6
		c1.8,4.5,5.1,8.5,7.7,12.6c0.5,0.7,1,1.3,2,1.1c1-0.2,1.3-1.1,1.4-1.9c0.3-4.9,1.3-10,0.6-14.8c-0.9-6.5-3-12.9-4.7-19.3
		c-1.1-4-2.4-4.6-6.9-4.5c-2.3,0-3.9,1.1-5.8,1.9c-6.8,2.8-13,6.4-18.6,11.1c-6.2,5.2-9.8,11.5-7.3,19.7c1.5,4.9,3.5,9.7,6,14.1
		c1.1,2,2.1,4,3,6c1,2.3,1.5,4.8,3.8,6.2c1.3,0.8,2,2.2,2.1,3.7c0.2,2,1.2,3.6,2.7,4.8c3.7,2.9,5.7,6.9,7.8,11
		c3.7,7.4,9.9,11.4,18.2,11.9c5.6,0.3,11,1.7,16.2,3.8c1.8,0.7,3.7,0.6,5.4,1.2c3.2,1.2,7.2,2,6.5,6.9c-9.2,0.1-18.4,1.2-27.5-2.4
		c-3.4-1.3-7.4-1.5-11-2.8c-2.1-0.8-4.2-1.5-5.7-2.9c-1.8,1-2.5,2.4-2.8,3.7c-4.7,18.4-12.8,35.6-19.8,53.1
		c-3.3,8.2-6.9,16.4-12,23.9c-3.7,5.5-6.4,11.7-9,17.8c-2.8,6.5-6.1,12.8-9.3,19c-6,11.6-12.2,23.1-18.5,34.6
		c-3.2,5.9-7.5,10.8-13.5,14.3c-7.5,4.4-15.7,6.7-23.5,10c-6.8,2.9-13.8,5.6-20.6,8.5c-13.6,5.7-27.1,11.8-40.9,17.2
		c-17.1,6.7-34.5,12.4-52.1,17.4c-19.2,5.5-38.5,10.7-58.4,13.3c-8.7,1.1-16.8,4.4-24.9,7.7c-10.8,4.5-21.2,9.7-31.6,15
		c-6.5,3.3-12.3,7.7-19,10.6c-6.8,3-13.1,7.1-20.3,9.4c-4.6,1.5-8,5.2-12.7,6.6c-1.2,0.4-1.6,1.8-2.2,2.9
		c-5.4,9.2-11.5,17.9-18.8,25.8c-10.1,10.9-21.3,20.2-34.1,27.9c-15.8,9.5-32.7,16.2-50.7,19.2c-10.3,1.7-20.7,4-31.5,1.9
		c-6.1-1.2-12.4,0.2-18.7-1.1c-2.9-0.6-5.9-1-8.4-2.2c-4.9-2.3-10.4-2.6-15.5-4.1c-9.9-2.8-19-7-27.8-12c-5.2-2.9-10.1-6.3-15.2-9.4
		c-3.4-2.1-3.7-2-4,1.7c-0.5,5.7-2.4,10.9-4.7,16.1c-1.4,3.2-3.9,5.4-7,6.7c-5.1,2.1-6.6,0.9-6.2-4.7c2.6-7.2,5.8-14,6.4-21.9
		c0.4-5.1,0.4-9.8-1.3-14.6c-3.2-8.6-8.6-15.5-15.6-21.3c-3.3-2.8-6.5-5.8-9.7-8.7c-2.8-2.6-5.2-5.5-6.3-9.1
		c-3.6-10.9-4.5-22.3-4.3-33.8c0.1-8.9,1.9-17.7,1.6-26.7c-0.1-2.6-0.7-4.9-2.1-7c-0.9-1.4-2.4-2.1-3.8-1c-2.6,2-6,2.6-8.1,5.4
		c-2.6,3.4-5.5,6.7-8.1,10.1c-8.3,10.7-13.4,22.9-15.3,36.3c-1,7-1.6,14-1.8,21.1c-0.1,4.7,0.4,8.9,2.3,13.3
		c2.6,6.3,6,12.5,5.7,19.6c-0.4,10.1,1.7,19.5,9.2,26.7c5,4.8,10.5,9.5,17.1,12.1c3.8,1.5,7.6,2.6,12.1,0.9c2.1-0.8,4.7-1.4,7.3-1.3
		c4.5,0.2,4.8,0.4,5.8,5.3c-3.8,4.6-8.1,8.9-13,12.1c-12.2,7.9-25.1,14.8-37.1,23.1c-10.3,7.1-21.5,12.6-31.5,20.1
		c-5.5,4.1-11.7,7.3-17.7,10.6c-3.9,2.1-6,0.8-8.8-4.8c-1.1-2.2-0.1-4.2,2.9-6c8.6-5.1,17-10.6,25.6-15.7
		c13-7.8,25.4-16.8,38.9-23.8c4.8-2.5,9-6,14.1-7.8c1.2-0.4,2.7-0.9,2.5-2.4c-0.2-1.3-1.6-1.7-2.9-2.1c-12.5-3.5-22.1-11-30.1-20.9
		c-3-3.6-4.5-7.9-5.4-12.5c-1-4.8-0.8-4.6-5-2c-9.9,6.3-20.3,11.4-31.6,14.8c-0.8,0.2-1.7,0.1-2.4,0.5
		c-12.9,5.9-26.2,10.8-38.9,17.2c-8.9,4.5-17.9,8.9-27,12.9c-8.1,3.5-15.3,8.5-23,12.7c-9.9,5.4-19,12.2-27.3,19.7
		c-5.8,5.3-10.4,12.1-13.2,19.3c-3.4,8.9,0.8,16.8,7.6,22.7c8.8,7.6,18.8,12.9,30.7,14.5c6.2,0.8,12.1,3,18.4,3.5
		c3.4,0.3,7.1,0.6,8.8,4.6c0.2,0.5,1.4,0.6,2-0.1c-2.2-1.1-2.7,0.3-2.7,2c0,1.3,1.8,2.6,0.3,4c-1.7,1.6-3.9,1.8-5.9,1.4
		c-3.7-0.7-7.6-0.3-11.2-1.3c-8.8-2.3-17.9-3.5-26.4-7c-9.2-3.8-17.4-9.1-23.7-16.6c-3.6-4.2-7.6-4.7-12.1-3.8
		c-13.3,2.7-26.6,4.2-40.3,4.1c-8.5-0.1-16.9,1.9-25.5,2.2c-13.1,0.5-25.7-2-38.3-4.9c-4.7-1.1-9.3-2.2-14-3.2
		c-12.2-2.5-23.3-7.6-33.3-14.9c-9.9-7.3-13.8-20.2-10.1-32.1c0.9-2.8,0.5-6.2,2.1-8.4c3.3-4.7,6.2-9.7,10.7-13.5
		c7.2-6.2,15.7-10,24.1-14c3.8-1.8,6.2-4,7.4-8.4c1.4-5.4,2.6-10.7,3.3-16.2c1.9-14.1,10.7-23.3,21.8-31.1
		c15.4-10.8,32.1-19.1,49.2-26.9c16.8-7.7,34.4-13.4,52.1-18.9c19.1-5.8,38.9-8.9,58.1-14.3c18.3-5.2,36.2-11.1,51.6-22.6
		c6.5-4.8,12.4-10.2,18.3-15.7c10.7-9.9,18.3-22.1,25.8-34.3c3.2-5.2,5.4-11,6.6-17c0.6-3.2,2.6-5.7,4-8.4c1.4-2.6,1.8-4.9,0.9-7.7
		c-3.8-11.9-2.2-23.8,0.1-35.7c2.5-12.6,8.1-23.8,15.7-34c3.3-4.5,7.5-8.1,11.8-11.8C383.9,338.2,391,336.5,398,334.1z M750.5,460.8
		c0.4-3.6-1.2-8.9-2.4-14c-2.6-10.7-5.3-21.6-14.3-29.3c-7.6-6.5-16.4-8.4-26-7.8c-3.5,0.2-7,1.1-10.5,1.5
		c-4.3,0.6-8.4,2.4-10.9,6.5c-1.7,2.8-3.5,5.7-5.6,8.2c-1.8,2.1-2,4.1-0.9,6.3c2.3,4.7,3.9,9.6,5.6,14.6c6.1,18,8.5,36.4,7.5,55.4
		c-0.3,6-0.7,12-2,18c-0.4,2,0,3.1,2.7,2.3c3.9-1.2,8.1-1.3,12.1-2.6c12-4.1,22.3-10.9,30.3-20.8
		C744.6,488.3,750.6,476.7,750.5,460.8z M683,550.9c2.6-1,4.3-1.8,6-2.4c6.4-2.3,10-7.6,9.5-14c0-0.5-0.3-1.2-0.7-1.5
		c-1.7-1.2-8.9,0.2-9.7,2.2C686.2,540,684,544.9,683,550.9z"/>
	<path class="st4" d="M1375.5,575.3c-0.6-2.5-1.3-4.8,1.4-6.7c2.4-1.7,4.6-0.5,6.4,0.6c2.7,1.5,5.1,3.6,7.3,5.8
		c4.2,4.3,8.5,8.7,12.3,13.3c8.6,10.7,19.9,18.3,30.6,26.5c12,9.2,24.4,17.9,36.3,27.3c8.8,6.9,17.1,14.5,24.8,22.6
		c2.9,3.1,5.7,6.6,8.4,10c3.2,3.9,3,4.9-1.3,7.6c-0.7,0.4-1.3,0.8-3.3,1.9c7.8,0.5,14,1,20.3,1.3c20.6,1.2,41.1,2.4,61.7,3.4
		c10,0.5,20,0.4,29.9,1.3c1,0.1,2-0.3,3-0.5c4.3,1.4,8.7,1,13,1.1c23.1,0.5,46.1,2.3,69.2,3.5c13.9,0.8,27.9,0.9,41.7,1.9
		c9.5,0.7,19.1,1.9,28.6,2.4c9.2,0.5,18.3,1.4,27.4,2c4.9,0.3,6.5,2.4,5.3,7.3c-1.4,5.3-2.4,6-7.8,5.2c-11.9-1.8-24-2.1-36-3
		c-4.4-0.3-8.7-1.4-13-1.8c-4.3-0.4-4.1-0.2-5.4,3.9c-2.4,7.7-1.3,15.3,0.7,22.6c2.1,7.7,3.3,15.9,7.1,23.1c0.7,1.4,1.2,2.7,3.1,2.5
		c8.7-0.9,17.4,0.2,26.1-0.1c9.8-0.4,19.5-1.1,29.3-0.8c7.3,0.2,14.6,0.3,21.8-0.8c1.4-0.2,2.9,0,4.3,0.4c1.6,0.4,3.2,1.1,4.7,1.8
		c2.1,1,4.5,2,4.3,4.7c-0.3,2.4-2.7,2.7-4.7,3.5c-7.6,2.7-15.4,2.5-23.4,2.4c-11.8,0-23.6,0.6-35.3,0.8c-6.6,0.1-13.3-0.5-19.9-0.1
		c-12.6,0.8-25.2-0.3-37.8,0.6c-8.2,0.6-16.5,0.1-24.8,0.3c-16.8,0.4-33.6,1.2-50.5,1.8c-11.8,0.4-23.6,0.6-35.4,1.4
		c-14.7,1-29.4,1.9-44,2.9c-15.1,1-30.2,2.5-45.4,3.3c-12.4,0.6-24.8,2.2-37.2,3.2c-12.4,1-24.8,1.7-37.2,2.5
		c-11,0.7-21.9,1.6-32.9,2.2c-7.9,0.5-15.7,0.1-23.6,0.6c-10.8,0.7-21.6,1-32.4,1.6c-11.5,0.6-23.1,1.2-34.6,1.4
		c-19.9,0.4-39.8,0.9-59.6,0.2c-8.9-0.3-17.9,0.2-26.8,0.4c-15.6,0.4-31.2,0.5-46.8,0.4c-15.2-0.1-30.4,0.6-45.6-0.6
		c-11.6-0.9-23.1-2.5-34.6-4c-9.9-1.4-19.8-2.8-29.6-5.1c-7.8-1.9-14.7-5.8-21.8-9.2c-2.8-1.3-3-3.8-3.5-6.2
		c4.5-3.1,9.5-2.3,13.8-0.7c25.3,9,51.8,10.6,78,13.5c10.5,1.1,21.2,0.2,31.8,0.2c11.6,0,23.3,0.2,34.9,0.1
		c11.4-0.1,22.9-0.5,34.3-0.5c13.9,0,27.9,0.5,41.8,0.3c12.3-0.2,24.6,0,36.9-0.9c8.1-0.6,16.2-0.1,24.3-0.8
		c15.6-1.2,31.2-1.9,46.8-2.1c16.9-0.2,33.7-1.9,50.5-3c17.9-1.2,35.7-2.3,53.6-3.7c25.1-2,50.2-4.5,75.4-6.3
		c20.6-1.4,41.2-2.1,61.8-2.9c22.7-0.9,45.4-2.2,68.2-2.2c8.8,0,17.5,0,26.2-0.9c3.2-0.3,3.9-1.4,3.1-4.3c-0.4-1.6-1.3-3.1-1.8-4.6
		c-3.4-10.8-5.6-21.8-3.6-33.1c0.5-2.8-0.6-5.3,0-8c0.4-2.1-2.1-2.3-3.6-2.5c-4.2-0.3-8.4-0.4-12.5-0.5c-19.2-0.7-38.3-1.9-57.4-3.1
		c-16.2-1-32.5-1.3-48.8-2.2c-17.3-0.9-34.5-1.5-51.8-2.6c-18.7-1.2-37.5-1.3-56.2-2.3c-12.1-0.6-24.1-0.9-36.2-2.1
		c-10.4-1-20.8-1.5-31.2-1.9c-12.9-0.5-25.7-1.8-38.6-2.7c-12-0.8-24-2.1-36.1-3c-14.7-1-29.5-1.6-44.2-3c-7.7-0.7-15.3-1.1-23-1.6
		c-11.2-0.8-22.3-2-33.6-1.8c-9.1,0.1-18.3-0.9-27.4-1.8c-13.9-1.4-27.6-4-41.6-4.5c-11.2-0.4-22.5,0.1-33.7,0.5
		c-7.2,0.2-14.1-0.9-21-2.7c-2.2-0.6-4-1.5-3.8-4.1c0.2-2.6,2.3-2.7,4.1-2.9c12.6-1.8,25.1-3.6,37.9-2.5c3.5,0.3,7-0.2,10.6,0.4
		c2.1,0.4,4.2-0.4,5.8-1.8c7.9-6.9,17.9-10.6,26.3-16.8c5.5-4,11.3-7.8,17.1-11.3c12.7-7.6,23.8-17.5,36.7-25
		c11.6-6.8,22.3-15.2,33.4-22.9c14.4-10,28.1-20.9,43.4-29.4c2.4-1.3,4.7-2.7,7.5-3.1c2.4-0.4,4.8-0.5,6.3,1.6
		c1.4,2,0.8,4.4-0.2,6.5c-0.4,0.7-1,1.4-1.4,2c-6.6,3.8-13.5,7.3-19.8,11.6c-15.1,10.2-29.7,21.2-44.7,31.6
		c-13.6,9.4-28.1,17.7-41,28.1c-4.6,3.7-9.7,7.1-14.8,9.9c-10.1,5.7-18.9,13.4-29.4,18.3c-0.2,0.1-0.1,0.7-0.2,1.2
		c2.6,1.6,5.6,0.9,8.3,1.4c7.8,1.4,15.6,2.5,23.5,2.9c10.2,0.5,20.4,0.4,30.5,1.3c16.5,1.6,33.1,2,49.7,3.6
		c14.1,1.4,28.3,1.8,42.4,2.6c16.2,0.9,32.5,1.8,48.6,3.7c11.4,1.3,22.9,1.8,34.3,2.4c12.2,0.6,24.5,1.3,36.7,2
		c5.7,0.3,11.3,1.2,17,0.5c-1.8-3.6-4-6.3-6.5-8.9c-7.6-8-15.5-15.6-24.3-22.2c-10.2-7.7-19.6-16.4-30.3-23.7
		c-6.7-4.5-13.1-9.4-19.4-14.4c-4-3.2-8.4-6.1-12-9.9C1392.6,595.5,1384.1,585.4,1375.5,575.3z"/>
	<path class="st4" d="M1600.6,673.2c-6.4,2.2-7.3,2.2-11.3-2.8c-6.3-8-12.1-16.4-18.3-24.5c-3.8-5-7.8-9.7-11.7-14.6
		c-8.9-11.3-17.8-22.6-26.7-33.8c-5.2-6.5-10.8-12.6-15.8-19.2c-7.6-10.2-16.4-19.6-23.7-30.1c-3-4.3-6.9-8.2-10.3-12.3
		c-12.9-15.6-27-30.1-41.7-44.1c-4.3-4.2-9.2-7.8-13.9-11.6c-6-4.8-11.8-9.9-18.1-14.3c-7.7-5.3-15.5-10.8-24.7-13.1
		c-8.1-2-16.5-1.1-24.8,0.2c-15.9,2.3-30,9.5-44.8,15c-10.9,4.1-21.7,8.5-32.5,12.7c-10,4-19.8,8.5-29.6,13.1
		c-18.4,8.7-35.8,19.3-54.2,27.9c-4.5,2.1-8.5,5.1-12.9,7.4c-20.7,10.4-40.2,22.8-60.8,33.2c-9.1,4.6-17.5,10.5-26.6,14.9
		c-8.2,4-16,8.8-24.9,11.2c-3.8,1.1-5.4,3.5-5.6,7.3c-0.4,12.7-2.5,25.1-5.3,37.4c-1.8,8.1-3.3,16.2-5,24.3
		c-0.8,3.9-0.5,7.9-0.9,11.8c-0.6,4.7-1.8,9.3-2.5,13.9c-0.7,4.6-1.3,9.4-2,14c-2,12-3.4,24.1-6,36c-1.4,6.4-4.6,12-6.9,18
		c-1.6,4-5,7-8.7,9.4c-2.7,1.3-5.3,2-7.7-0.4c-5.6-4.9-5.5-5.1,1.1-9.4c5-3.3,8.1-8.2,9.9-13.9c3.6-11.1,5.4-22.6,7.7-34
		c0.9-4.3,2.4-8.7,1.4-13.4c-0.3-1.5,0.2-3.3,0.6-4.9c2.5-10.1,2.8-20.6,4.5-30.8c1.2-7.5,4.1-14.8,5.2-22.4
		c1.4-9.6,4.4-19,4.4-28.9c0-3.2-1.1-3.6-3.6-3.1c-6.7,1.5-13.4,2.9-20,4.4c-4.7,1-10-0.5-14.1,3.4c-3.2-2.5-7-1.5-10.6-1.5
		c-12.8-0.1-25.6,0-38.4-1.4c-22.6-2.4-44-7.9-64.6-17.8c-19.9-9.6-40-18.8-60.4-27.1c-9.9-4.1-20.1-5.2-30.7-3.3
		c-15,2.8-30,5-45.2,6c-3,0.2-5.8-0.2-8.7-0.7c-2.3-0.4-3.6-1.7-4.4-3.9c-1.3-3.3-1.1-3.8,2.2-5.1c5.7-2.2,11.8-2.9,17.8-3.2
		c10.4-0.7,20.7-2.5,30.9-4.4c3.7-0.7,7.4-1.2,11.2-1.7c14-1.6,26.7,2.8,39.1,8.5c7.6,3.5,15.2,6.7,22.9,10.1
		c1.2,0.5,2.3,0.1,3.5-0.3c13.6-4.2,26.5-10.1,39.2-16.1c14.5-6.8,29.6-12.4,43.5-20.2c10.7-6,21.8-11.2,32.9-16.4
		c8.3-3.9,16.2-8.4,24.5-12.3c6.8-3.1,13.1-7.4,19.2-11.6c3.8-2.6,6.1-6.8,7.4-11.3c3.6-11.7,7.9-23.2,12-34.7
		c4-11.3,7.3-23,11.5-34.3c6.2-16.6,11.4-33.4,17.1-50.1c4.7-14,9.4-28.1,12.3-42.6c0.6-2.9,1.6-5.6,3.4-8c1.1-1.4,2.5-2.2,4.3-1.9
		c2.9,1.6,3.8,3.9,3.8,7.2c0,4.2-0.4,8.3-1.5,12.3c-5.8,21.5-12.7,42.6-20,63.6c-7.8,22.6-15.4,45.2-23.2,67.8
		c-3,8.8-5.9,17.7-8.9,26.6c-2.1,6.2-5.9,11.5-12,15.2c-10.7,6.4-21,13.3-32.3,18.4c-8.7,4-16.8,9.1-25.8,12.3
		c-7.8,2.8-14.5,8.1-22.1,11.4c-13.3,5.8-26.4,12.3-39.6,18.4c-9.2,4.3-18.5,8.5-27.8,12.7c-0.9,0.4-2,0.7-2.5,2.2
		c8.5,4,16.8,8.5,25.7,11.9c12,4.5,24.5,7.1,36.9,9.3c10.4,1.8,21.2,1.8,31.8,2.3c9.5,0.4,19,0.7,28.4-0.3
		c9.3-0.9,18.5-2.6,27.6-4.8c7.1-1.7,13.9-3.2,19.3-9.2c3-3.4,7.9-5.3,12.2-7.3c9.8-4.6,19.4-9.4,28.5-15.3
		c10.2-6.6,21.6-10.8,31.9-17c17.4-10.5,35.8-19.1,53.3-29.3c10.9-6.4,22.2-12.1,33.6-17.7c19.6-9.7,39.3-19.2,60-26.7
		c15-5.4,29.7-11.9,44.5-17.9c14.2-5.7,29-8.9,44.5-8c10.8,0.6,20,5.3,28.7,11c2.7,1.8,5.8,2.8,8.4,4.9c12.4,9.8,25,19.3,36.4,30.3
		c5.1,4.9,11,9,15.1,14.8c0,0,0,0,0,0c0.5,0.5,0.9,1,1.4,1.5c0.1,0.6,0.3,0.9,1,0.8c0.9,0.9,1.8,1.8,2.7,2.7c0,0,0,0,0,0
		c1,1.1,2,2.2,3,3.3c0,0,0,0,0,0c0.8,0.8,1.7,1.7,2.5,2.5c0,0,0,0,0,0c0.7,0.9,1.5,1.8,2.2,2.7c0,0-0.1,0.2-0.1,0.2l0.1-0.2
		c0.4,0.5,0.7,1,1.1,1.5c0,0,0,0,0,0c10.2,10.6,19.8,21.8,28.5,33.6c8.7,11.9,18.6,22.7,27.5,34.5c5.7,7.6,11.9,14.9,18,22.2
		c4.1,4.9,8.2,9.9,12,15c6,8.2,12.2,16.2,18.5,24.1c5,6.3,9.4,13.2,14.8,19.2C1603.2,668.1,1603.2,668.2,1600.6,673.2z"/>
	<path class="st4" d="M1901.7,638.1c-3.7,3-6.2,6.7-8.8,9.9c-10.9,13.4-21.8,26.7-33.1,39.7c-7.6,8.7-17.1,13.4-28.2,15.6
		c-0.6,0.1-1.3,0-1.9,0.1c-6.7,1.2-6.7,1.2-9.2-4.6c-1.3-3.2-0.9-4.5,2.3-5.6c2.7-1,5.6-1.7,8.5-2.2c9.1-1.3,15.6-6.8,21.2-13.3
		c9.4-10.8,18.5-21.9,27.8-32.8c8.9-10.5,17.6-21.1,26.6-31.4c9.6-11,19.5-21.6,29.6-32.1c5.5-5.7,10.9-11.2,17.4-15.7
		c6.6-4.6,13.4-4.5,20.2-2.2c3,1,4.1,4.8,4.2,8.4c0.4,11.4-1,22.4-4.3,33.3c-3.4,11.3-6.5,22.8-9.5,34.3c-1.9,7.3-5.5,13.9-7.9,21
		c-5.6,16.8-11.7,33.5-18.8,49.7c-5.1,11.6-10.1,23.2-16,34.5c-3.4,6.6-5.8,13.7-9.8,20.1c-1.9,3.1-4,4.9-7.7,5.5
		c-7.7,1.4-15.3,0.1-22.9,0.5c-10,0.4-19.9-0.5-29.8-0.9c-3-0.1-4.9-1-6.8-3.3c-1.8-2.2-2.8-3.7-2.1-6.9c0.6-2.8,1.3-4.6,3.5-6.5
		c5.2-4.7,11-8.8,15.7-14.1c7.1-8,13.4-16.4,18.1-26c5.4-11,10.7-22.1,14.2-33.9c3.5-12.2,7.2-24.3,8.6-37
		C1903,640.9,1903,639.9,1901.7,638.1z"/>
	<path class="st4" d="M273.5,752.3c0.7-2.8,1.7-4.7,5.2-5c8.1-0.7,16.1-1.2,24.2-1.3c12.7-0.2,25.4-0.9,38.1,0.1
		c20.8,1.5,41.6,0.8,62.4,1.5c6.6,0.2,13.4-0.8,20-0.9c22.1-0.3,44.1-1.9,66.2-2.9c25.6-1.1,51.2-2.4,76.8-2.9
		c22.1-0.5,44.2-0.7,66.3-1.3c17.5-0.4,35-1.1,52.5-0.8c12.5,0.2,25-0.8,37.5,0.1c16.7,1.2,33.4,0.2,50,1.2
		c22.2,1.3,44.5,1.8,66.8,2.6c11.5,0.4,22.9,1.5,34.4,2.1c19.4,0.9,38.8,1.4,58.1,2.5c13.5,0.8,26.9,2.5,40.4,3.5
		c8.5,0.6,17,2.1,25.6,1.6c1.9-0.1,3.8-0.2,5.6,0.2c5,0.8,6,2.6,4.7,7.7c-0.2,1-0.1,2-0.2,3.1c-1.1,1.5-2.7,2-4.4,1.8
		c-8.5-1-17-0.8-25.4-1.7c-15.2-1.7-30.4-3.4-45.7-4.3c-15.6-1-31.2-1.1-46.8-1.7c-7.9-0.3-15.7-1.3-23.6-1.5
		c-11-0.3-21.9-1.4-33-1.2c-6,0.1-12-1-18-1.1c-13.7-0.2-27.4-0.4-41.1-1.5c-10.2-0.8-20.5,0.1-30.7-0.6
		c-12.1-0.9-24.1-0.5-36.1-0.5c-21.8,0-43.6-0.9-65.4,0.4c-9.7,0.6-19.5-0.4-29.1,0.3c-14.9,1.1-29.8,0.4-44.7,1.4
		c-9.9,0.6-19.9,0.4-29.8,0.7c-15,0.6-29.9,0.4-44.9,1.7c-11.8,1-23.6,1.7-35.4,1.9c-15.5,0.2-31,1.3-46.5,1.7
		c-20.4,0.5-40.8,0.6-61.1-0.9c-13.7-1-27.4-0.8-41.1-0.8c-6.8,0-13.6-0.2-20.3-2.1C281.1,754.1,276.8,755,273.5,752.3z"/>
	<path class="st5" d="M1469.3,503.1c-0.6,0.1-0.9-0.2-1-0.8C1468.9,502.2,1469.2,502.5,1469.3,503.1z"/>
	<polygon class="st5" points="1466.9,500.8 1466.9,500.8 1467.1,500.7 	"/>
	<path class="st5" d="M1471.9,505.8C1471.9,505.8,1471.9,505.8,1471.9,505.8C1471.9,505.8,1471.9,505.8,1471.9,505.8z"/>
	<path class="st5" d="M1474.9,509.1C1474.9,509.1,1474.9,509.1,1474.9,509.1C1474.9,509.1,1474.9,509.1,1474.9,509.1z"/>
	<path class="st5" d="M1477.4,511.6C1477.4,511.6,1477.4,511.6,1477.4,511.6C1477.4,511.6,1477.4,511.6,1477.4,511.6z"/>
	<polygon class="st5" points="1479.6,514.4 1479.5,514.5 1479.6,514.4 	"/>
	<polygon class="st5" points="1480.7,515.9 1480.7,515.9 1480.8,515.7 	"/>
	<path class="st0" d="M421.2,642.1c-1-5-1.3-5.1-5.8-5.3c-2.6-0.1-5.2,0.5-7.3,1.3c-4.4,1.6-8.2,0.6-12.1-0.9
		c-6.6-2.7-12.1-7.3-17.1-12.1c-7.5-7.2-9.6-16.6-9.2-26.7c0.3-7.1-3.1-13.3-5.7-19.6c-1.9-4.4-2.4-8.6-2.3-13.3
		c0.2-7.1,0.8-14.2,1.8-21.1c1.9-13.4,7-25.5,15.3-36.3c2.6-3.4,5.5-6.6,8.1-10.1c2.1-2.8,5.5-3.5,8.1-5.4c1.4-1,2.9-0.4,3.8,1
		c1.4,2.1,2,4.4,2.1,7c0.3,9-1.4,17.8-1.6,26.7c-0.2,11.5,0.7,22.8,4.3,33.8c1.2,3.6,3.6,6.5,6.3,9.1c3.2,2.9,6.3,6,9.7,8.7
		c7,5.8,12.4,12.7,15.6,21.3c1.8,4.8,1.7,9.5,1.3,14.6c-0.6,7.9-3.8,14.8-6.4,21.9C427.4,638.8,424.9,641.4,421.2,642.1z"/>
	<path class="st6" d="M777.9,595.6c0.1,0.8,0.3,1.7-1,1.6c-0.2,0-0.6-0.7-0.5-0.9c0.2-0.5,0.5-1.1,0.9-1.3
		C778.2,594.5,777.5,595.6,777.9,595.6z"/>
	<path class="st0" d="M680.7,487.5c1.2,4.3,0.9,8.7,0.7,13c-0.9,17.2-4.3,33.8-11.3,49.5c-3.5,7.9-7.8,15.4-12.4,22.8
		c-6.6,10.6-15.1,19.3-23.9,27.7c-6.8,6.5-14.6,12.2-23.3,16.2c-3.9,1.8-7.6,4.3-11.4,6.3c-7.9,4.3-16.6,6.2-25,8.8
		c-7,2.1-14.3,3.2-21.5,3.6c-8,0.5-16.1,0.8-24.1,0.6c-4.5-0.1-8.4-2-12.8-2.3c-14-1.2-27-6.4-39.2-13c-8.7-4.7-16.9-10.2-25-16
		c-2-1.4-3.4-3-3.9-5.3c-1.9-8.1-6.8-14.6-11.4-21.3c-1.2-1.8-4.1-1.4-4.4-4c2.8-0.5,5.3,1,8,0.8c10.5-1,20.5-3.5,28.5-10.8
		c5.3-4.8,9.4-10.3,10.6-17.7c0.9-5.2-0.1-10.3-0.2-15.4c-0.5-14.7-9-24.3-21.1-30.7c-7.9-4.2-17.1-4.9-26-5.4
		c-6.2-0.4-12.4-0.2-18.2,2.5c-1.9-4.6-2.7-9.7-7.6-12.7c-1.5-0.9-2.4-1.6-4.2-1.2c-1.6,0.4-3.2-0.3-4.7-0.9
		c0.4-7.3,0.2-14.5,2.7-21.6c1.8-4.9,1.7-4.8,7-4.3c18.9,1.8,36.8-0.5,52.9-12.1c7-5,13.8-10,19.2-16.7c1.1-1.4,2.6-2,4.2-2.5
		c4.6,2.5,9.2,4.6,14.4,1.2c2.5-1.7,2.8-3.4,1-5.6c4.6-2.2,9.7-1.8,14.6-2.8c13-2.4,24.1-8.5,33.9-17.2c3-2.6,6.1-5,9.2-7.4
		c2.5,1.6,5.5,1.3,8.2,2.3c7.7,2.8,15.5,4.7,23.6,1c18.7,4.9,37.5,6.7,56.7,2.7c1.8-0.4,3.3,0.4,4.9,0.3c2.6,7,6.4,13.5,10.6,19.7
		c4.8,7,9,14.3,11.1,22.6c-1-0.4-2-0.7-2.9-1.1c-7.2-3.5-14.6-6.1-22.4-8c-4.5-1.1-8.6,0.3-12.9,0.1c-5.2-0.3-9.1,2.2-13.1,4.8
		c-4.6,3-7.6,7.2-10.4,12c-5.9,10.2-7.6,20.7-6.4,32.3c0.9,9.6,5.7,16.3,13.1,21.5c12.4,8.6,25.7,11.2,40.2,5.9
		c7.5-2.8,14.6-6,18.6-13.7C676.2,493,678.6,490.3,680.7,487.5z M585.4,519.7c-0.1-1.7-0.3-5.1-0.7-8.4c-0.8-7-2-8.2-9.1-9.3
		c-3.4-0.6-6.6,0.1-9.7,1.4c-3.2,1.4-6.3,3.1-9.7,4.2c-7,2.3-14.2,4.2-21.3,6.4c-3.4,1.1-6.7,2.4-9.8,4c-4,2.2-5.2,6.7-2,9.2
		c6,4.7,9.3,11.3,13.8,17.1c8.1,10.4,13.6,22.3,20.2,33.6c2.7,4.7,5.8,8.3,10.9,10.2c4.2,1.6,7.5,0.7,10-3c1.9-2.8,2.9-6,3.3-9.3
		c0.9-7.4,2.2-14.8,2.1-22.3C583.4,542.8,585.4,532.1,585.4,519.7z M505.9,476.7c-0.4-0.8-0.7-1.8-1.4-2.5c-2.5-2.3-6.3-2.6-9.1-0.6
		c-4.7,3.4-9.3,6.8-13.7,10.6c-2.4,2.2-4.2,5.1-6.2,7.7c-0.8,1.1-1.1,2.3-0.6,3.5c1.1,2.3,6.6,3.9,8.7,2.3
		c7.3-5.4,14.1-11.5,20.9-17.5C505.6,479.3,505.8,478.1,505.9,476.7z M558,458.1c1.5,2.6,2.5,6.2,6,6.5c9.1,0.9,18.3,0.6,27.5-0.5
		c2-0.2,4.6-1.5,4.3-3.8c-0.3-2.3-1.3-5-4-6c-1.3-0.5-2.8-0.7-4.3-0.8c-7.7-0.2-15.4,0.2-23.1,1C561.7,454.8,559.7,456,558,458.1z
		 M544,493.4c-2.9-0.3-5.2,1-5.4,3c-0.2,1.8,2.1,4.3,4.2,4.6c2.7,0.4,6.7-2.3,6.4-4.6C548.9,493.1,545.5,494.6,544,493.4z"/>
	<path class="st4" d="M498,421.1c1.8,2.2,1.5,3.9-1,5.6c-5.2,3.4-9.8,1.3-14.4-1.2c-15.4-6.4-25.4-18.1-31.7-33.1
		c-2.5-5.9-4.6-11.9-4.7-18.6c0-7.5,2.3-14.3,5.3-20.9c0.9-2,2.7-3.1,4.8-3.7c4.5-1.4,6.1,0,5.6,4.7c-0.3,2.3-0.3,4.7-1.2,6.7
		c-4.9,10.3-2.5,19.9,2.4,29.2c2.2,4.2,4.7,8.3,7.2,12.3c4.1,6.5,10.8,10.2,17.3,13.7C491,417.6,494,420.4,498,421.1z"/>
	<path class="st4" d="M587.5,397.1c-8,3.6-15.9,1.7-23.6-1c-2.7-1-5.7-0.7-8.2-2.3c-9.8-3.7-17.2-10.6-24.9-17.2
		c-8.1-7-12.2-16.1-15.1-26c-0.9-3,0-5.8,0.6-8.6c0.5-2.4,2.8-3,4.8-3.5c2.2-0.5,3.5,1.2,4.3,2.9c0.9,2.1,1.5,4.3,2.1,6.5
		c1.5,5.9,4,11.3,8.1,16c9,10.2,20.2,17.2,32.3,22.9c4.6-0.8,8.7,3.1,13.4,1.7c0.8-0.2,1.7,0,2.5,0.1c2.2,0.1,4.4-0.3,5.8,2.5
		C591,394.1,588.5,395.2,587.5,397.1z"/>
	<path class="st0" d="M750.5,460.8c0,15.9-6,27.6-14.4,38.1c-8,10-18.2,16.7-30.3,20.8c-3.9,1.3-8.1,1.4-12.1,2.6
		c-2.7,0.8-3.2-0.3-2.7-2.3c1.4-5.9,1.7-11.9,2-18c1.1-18.9-1.4-37.4-7.5-55.4c-1.7-4.9-3.3-9.9-5.6-14.6c-1.1-2.2-0.9-4.2,0.9-6.3
		c2.1-2.5,3.9-5.4,5.6-8.2c2.5-4.1,6.5-6,10.9-6.5c3.5-0.5,7-1.3,10.5-1.5c9.5-0.5,18.4,1.4,26,7.8c9,7.7,11.7,18.6,14.3,29.3
		C749.4,451.9,751,457.2,750.5,460.8z"/>
	<path class="st6" d="M680.7,487.5c-2,2.9-4.4,5.6-6,8.7c-4,7.7-11.1,10.9-18.6,13.7c-14.5,5.4-27.9,2.7-40.2-5.9
		c-7.4-5.2-12.2-11.9-13.1-21.5c-1.1-11.6,0.6-22.1,6.4-32.3c2.8-4.8,5.8-8.9,10.4-12c4-2.7,7.9-5.2,13.1-4.8
		c4.3,0.3,8.4-1.2,12.9-0.1c7.8,1.9,15.3,4.5,22.4,8c0.9,0.5,1.9,0.7,2.9,1.1c2.5,3.2,3.4,7.1,4.5,10.8
		C678.3,464.4,681.1,475.7,680.7,487.5z"/>
	<path class="st6" d="M413.2,497.5c5.8-2.7,12-2.9,18.2-2.5c8.9,0.5,18.1,1.2,26,5.4c12.1,6.4,20.7,16,21.1,30.7
		c0.2,5.1,1.1,10.1,0.2,15.4c-1.2,7.5-5.3,12.9-10.6,17.7c-8.1,7.3-18,9.8-28.5,10.8c-2.7,0.2-5.2-1.3-8-0.8
		c-4.5-3.9-9.1-7.7-13.5-11.7c-2.5-2.3-3.7-5.5-4.4-8.8c-3.1-13.5-3.1-27.1-1.2-40.7C413.3,507.9,413,502.7,413.2,497.5z"/>
	<path class="st3" d="M683,550.9c1-5.9,3.2-10.8,5.1-15.8c0.8-2,8-3.4,9.7-2.2c0.4,0.3,0.7,1,0.7,1.5c0.5,6.5-3.1,11.8-9.5,14
		C687.3,549.1,685.6,549.9,683,550.9z"/>
	<path class="st4" d="M585.4,519.7c0,12.4-2.1,23.1-1.9,33.9c0.1,7.5-1.2,14.9-2.1,22.3c-0.4,3.3-1.4,6.5-3.3,9.3
		c-2.5,3.7-5.8,4.6-10,3c-5.1-1.9-8.1-5.5-10.9-10.2c-6.6-11.3-12.1-23.2-20.2-33.6c-4.5-5.8-7.8-12.4-13.8-17.1
		c-3.2-2.5-2.1-7,2-9.2c3.1-1.7,6.4-3,9.8-4c7.1-2.3,14.2-4.1,21.3-6.4c3.3-1.1,6.5-2.8,9.7-4.2c3.1-1.4,6.2-2,9.7-1.4
		c7.1,1.2,8.3,2.3,9.1,9.3C585.2,514.7,585.3,518,585.4,519.7z M536,526c3.7,1.5,2.4,5.4,5.2,7.5c4.4,3.2,7.6,7.5,9.8,12.6
		c1,2.3,2.1,4.9,4.1,6.9c3.5,3.3,5.9,7.6,7.4,11.9c1.4,3.9,3.9,6.6,5.9,10.1c3-5.8,5.8-53.8,3.8-63C560.7,517.3,548.5,520.4,536,526
		z"/>
	<path class="st4" d="M505.9,476.7c-0.1,1.4-0.4,2.6-1.4,3.5c-6.8,6-13.6,12.1-20.9,17.5c-2.2,1.6-7.6,0-8.7-2.3
		c-0.6-1.2-0.3-2.4,0.6-3.5c2-2.6,3.8-5.5,6.2-7.7c4.3-3.8,9-7.3,13.7-10.6c2.9-2.1,6.6-1.7,9.1,0.6
		C505.2,474.8,505.5,475.9,505.9,476.7z"/>
	<path class="st4" d="M558,458.1c1.8-2.1,3.7-3.3,6.5-3.6c7.7-0.8,15.4-1.2,23.1-1c1.4,0,3,0.2,4.3,0.8c2.6,1,3.7,3.7,4,6
		c0.3,2.3-2.3,3.6-4.3,3.8c-9.1,1.1-18.3,1.4-27.5,0.5C560.5,464.3,559.4,460.8,558,458.1z"/>
	<path class="st4" d="M544,493.4c1.5,1.3,4.9-0.3,5.2,3.1c0.2,2.3-3.7,5-6.4,4.6c-2.1-0.3-4.5-2.8-4.2-4.6
		C538.8,494.4,541,493.1,544,493.4z"/>
	<path class="st1" d="M536,526c12.5-5.6,24.7-8.7,36.2-14c2,9.2-0.8,57.2-3.8,63c-2-3.5-4.5-6.2-5.9-10.1c-1.5-4.3-3.9-8.6-7.4-11.9
		c-2.1-2-3.1-4.6-4.1-6.9c-2.2-5.2-5.4-9.4-9.8-12.6C538.3,531.4,539.7,527.5,536,526z"/>
</g>
</svg>
