<?xml version="1.0" encoding="utf-8"?>
<!-- Generator: Adobe Illustrator 25.0.0, SVG Export Plug-In . SVG Version: 6.00 Build 0)  -->
<svg version="1.1" id="Layer_1" xmlns="http://www.w3.org/2000/svg" xmlns:xlink="http://www.w3.org/1999/xlink" x="0px" y="0px"
	 viewBox="0 0 375 484" style="enable-background:new 0 0 375 484;" xml:space="preserve">
<style type="text/css">
	.st0{fill:#FFFFFF;}
	.st1{fill:#2F1664;}
	.st2{display:none;}
	.st3{display:inline;}
	.st4{fill:#F9F4F2;stroke:#2F1664;stroke-width:4;stroke-linecap:round;stroke-linejoin:round;stroke-miterlimit:10;}
	.st5{fill:none;stroke:#2F1664;stroke-width:4;stroke-linecap:round;stroke-linejoin:round;stroke-miterlimit:10;}
</style>
<path class="st0" d="M287.3,419.5c-1.1-4.2-4.3-7.8-9-8.6c-1.6-1.2-3.6-2.6-5.5-3.3c-9.5-6.4-20.3-10.4-31.6-13.5
	c-14.3-4-28.9-8.4-43.9-8.1c-13.9-3.4-28.2-4.8-42.4-4.9c-7.5,0-14.9,0.3-22.4,0.9c-4,0.3-8.3,0.4-12.2,1.4
	c-2.3,0.6-4.6,1.5-6.6,2.7c-0.6,0.3-1.1,0.7-1.6,1.1c-2.9,0.4-5.5,1.6-7.5,3.6c-1.1-0.3-2.2-0.5-3.4-0.4c-17.6,1.4-35.5,2.1-53,4.2
	c-17.7,2.1-33.2,10.5-42.7,25.9c-8.2,13.2,12.6,25.2,20.7,12.1c6.4-10.3,17.2-13.7,28.8-14.6c15.4-1.2,30.8-2.4,46.3-3.6
	c3.4-0.3,6.6-1.7,8.8-4.1c0.1,0,0.1,0,0.2,0.1c4.6,0.8,8.5,0.6,12.7-1.8c2.4-1.4,3.1-2.1,5.7-2.4c7.7-0.7,15.5-1.2,23.3-1.2
	c12-0.1,23.9,0.8,35.6,3.3c1.8,1.2,4,1.9,6.3,1.7c0.3,0,0.5,0,0.8,0c0.3,0.1,0.7,0.2,1,0.3c1.9,0.5,3.6,0.6,5.2,0.4
	c4.1,0.4,8.2,0.9,12.3,1.9c4.7,1.1,9.1,2.9,13.9,3.6c1.6,0.3,3.3,0.3,4.9,0c3,0.9,6,1.8,8.9,2.6c5.2,1.5,9.8,3.6,14.4,6
	c0.9,1.9,2.5,3.6,4.7,4.8c4.2,2.3,8.1,4.7,12,7.5c5.3,3.8,13.4,0.9,16.4-4.3C291.2,428.3,290.3,423.3,287.3,419.5z"/>
<path class="st1" d="M279.4,407.1c-7.5-5.5-18.1-10.4-31.5-14.6c-27.3-8.4-63.5-13.1-101.9-13.1s-74.7,4.6-101.9,13.2
	c-13.5,4.2-24.1,9.1-31.5,14.6C4.2,413.3,0,419.9,0,427c0,4.3,1.6,8.5,4.7,12.5c5.1,6.5,14.3,12.5,27.3,17.7c12.5,5,27.9,9,45.7,12
	c20.8,3.5,44.4,5.3,68.1,5.3s47.3-1.9,68.1-5.3c17.8-3,33.2-7,45.8-12c13-5.1,22.2-11.1,27.3-17.7c3.2-4,4.7-8.3,4.7-12.5
	C292,419.9,287.8,413.3,279.4,407.1z M284.6,435.5c-6.6-7.5-19.3-14.3-37.2-19.9c-27.1-8.4-63.1-13.1-101.4-13.1
	s-74.3,4.6-101.4,13.1c-17.9,5.5-30.5,12.4-37.2,19.9C5.6,433,4.6,430,4.5,427c0-11.1,14.9-22,41-30.1
	c26.9-8.3,62.6-12.9,100.6-12.9s73.7,4.6,100.6,12.9c26,8.1,41,19.1,41,30.1C287.4,430,286.4,433,284.6,435.5L284.6,435.5z"/>
<g class="st2">
	<g class="st3">
		<path class="st4" d="M123.3,161.8c-9.8-39.2-4.2-77.7-14.1-117.7c-2.3-9.4-6.6-9.6-9.7-0.4c-12.8,37.3-8.2,76-8.3,113.8
			c0,4.4,0,8.8-0.1,13.1c-0.1,4.7,0.3,9.5,1.6,14.1c0.8,2.9,1.7,5.7,2.7,8.5c1.9,5.3,4.2,10.5,6.9,15.4c17.1,32.7,47.9,56,69.5,85.5
			c27.1,37,33.3,70.9,22.6,113.6c-2.4,9.8-7.6,22-7.3,32.1c0.3,10.5,3.3,10.3,14.3,10.2c24.1-0.3,82.9-14.6,81.8-30.4
			c-1.6-21.5-9.1-73.3-7.5-95.1c1.2-17.4,1.7-21.4,4.1-38.5c9.4-66.9-62.4-87.8-68.8-148.5c-1.8-17.5-3.1-56.7-3.3-59.7
			c-0.6-6.7-10.3-12-13.3-6c-1.6,3.2-6.2,14.3-6.3,17.1"/>
		<path class="st5" d="M155,177.1c15.6-3,30.8-11.6,46.9-11.7"/>
		<path class="st4" d="M161.8,124.6c1.8-19.9,4.8-43.6,7-63.4c0.7-6.4,0.8-17.5,9.8-13.2c2.2,1,3.7,2.9,4.9,4.9
			c4.7,8.1,4.1,18.5,4.4,27.5c0.8,30.1-4,55.8,6.4,84.8"/>
		<path class="st4" d="M127.9,134.4c-0.5-34.3,1.1-71.8,2.9-106c0.2-4.6,2-15.3,7.5-17.4c7.9-3,9.6,16.5,11.2,21.3
			c1.7,5.4,3.2,10.9,4.3,16.5c2.3,10.9,3.6,21.9,4.5,32.9c1.8,22.3,3.1,41,5.2,63.3c0.7,7.6,1,16.5,7.7,27.4"/>
		<path class="st4" d="M125.5,223.4c-5.3-23.5-3.8-54.3-0.3-78.2c1.2-8,3.8-14.4,10.5-19.6c4.5-3.5,10.4-1.9,13.1,3
			c4.4,7.8,3.3,18.1,3.8,26.7c0.7,9.8,1.5,20.7,5.7,29.7s10.6,17,18.6,22.9c4.4,3.3,9.3,5.9,14.5,7.8c24.1,9,41.4,20.2,51.9,45"/>
	</g>
</g>
<g>
	<path class="st4" d="M342.8,145.6l-47.2,26.1l-41.3-31.6c0,0,7.2-43.6,10.5-50.3c3.3-6.7-1.5-14.5-11.8-27.9
		c-7.9-10.3-21.5-34.3-24.8-44.9c-0.7-2.3-3.9-2.7-5.1-0.6l-1,1.6c-2.1,3.3-2.8,7.3-2,11.2L238.6,95c-2.1,12.4-14.6,37.6-14.6,37.6
		s-11.5,22.4-40.5,6.3c-29-16-13.4-32.3-13.4-32.3s48.5-63.3,48-75.2S213.4,13,200,22.6c-13.4,9.6-42.2,44-54,52.5
		c-21.4,15.3-40.6,37.6-56.4,58.4c-8.4,11.1-38.7,69.9-44.5,89.4c-7,23.7-5.2,51.2-5.9,75.8c-0.6,22.4-0.9,44.9-1.1,67.4
		c-0.2,24-0.3,48-0.2,72.1c0.3,0.8,0.5,1.6,0.9,2.4c1.2,1.7,3.2,2.9,5.3,3.7c0.9,0.2,1.9,0.3,2.9,0.4c17.1-3.1,53.9-10.2,70.7-13.5
		c4.8-0.9,8-5.5,7.2-10.4c-4.3-25.8-16.6-100.5-17.4-112.1c-1-14,8.5-64.1,80.9-80.2c66.7-14.8,77.3-23.2,103.7-37.8
		c5.2-2.9,10.8-5.1,15.6-8.8l38.1-29.4C348.5,149.9,346.5,145.4,342.8,145.6z"/>
	<path class="st4" d="M268.8,151.5c0.6-0.2,80.9-35.5,95.8-41.9c2.8-1.2,5,0.3,5,3.3v0.8c-1.4,5.5-4.7,10.2-9.4,13.4
		c-19.9,13.4-74.6,50.5-86.4,61.1c0,0-11.2,9.3-17.2,12.2"/>
	<path class="st4" d="M252,180.9c0,0,55.1-40.6,61.3-47.6c5-5.6,25.8-56.1,33.8-75.7c1.3-3.2-1.6-6.6-5-5.7
		c-0.3,0.1-0.5,0.1-0.8,0.2c-3,0.8-5.6,2.6-7.3,5.2c-8.6,13.2-35.7,54.5-42.1,59.6c-7.6,6.1-44.9,27.5-44.9,27.5"/>
</g>
</svg>
