<?xml version="1.0" encoding="utf-8"?>
<!-- Generator: Adobe Illustrator 25.0.0, SVG Export Plug-In . SVG Version: 6.00 Build 0)  -->
<svg version="1.1" id="Layer_1" xmlns="http://www.w3.org/2000/svg" xmlns:xlink="http://www.w3.org/1999/xlink" x="0px" y="0px"
	 viewBox="0 0 1080 1080" style="enable-background:new 0 0 1080 1080;" xml:space="preserve">
<style type="text/css">
	.st0{fill:#FFFFFF;}
</style>
<g>
	<path class="st0" d="M349.7,931.4c23.2-46.3,44.8-89.8,66.7-133c77.3-152.1,155-303.9,231.5-456.3c7.7-15.4,13.5-13.5,24.3-5.8
		c19.2,13.5,36.2,29.1,52.2,46.4c7.5,8.1,7.5,14.3,2.7,23.7c-68.9,135.2-137.1,270.8-206.5,405.8c-9.8,19.1-4.5,20.2,13,20.2
		c144,0.3,266.7-98.4,292.9-236.2c26.7-140.6-49.9-277.8-184.2-330.2c-47.4-18.5-97.2-22.8-146.6-17.3c-44.2,5-70.6-8.6-83.1-51.8
		c-4.5-15.5-14.4-29.4-21.6-43.5c1.7-2.2,2.5-4.2,3.4-4.1c83.2,1.7,166.8-8.4,249.4,12.8c177.2,45.6,306.2,230.1,285,412
		c-19.1,163.8-106.4,275.7-260.3,335.2c-26.7,10.3-54.7,17.3-83.1,19.4C508,934.3,430.6,929.9,349.7,931.4z"/>
	<path class="st0" d="M456.4,610.8c-24.3-47.8-46.6-91.7-68.9-135.6c-36.4-71.7-73-143.2-108.8-215.3c-5.6-11.2-12.8-13.3-23.2-12
		c-12.5,1.6-7.2,11.6-7.2,17.7c-0.3,183.1-0.1,366.1-0.6,549.2c0,14.3,4.2,18,17.8,17.4c24.8-1,49.7-0.3,78.4-0.3
		c-16.3,32.5-31.5,62.9-46.8,93.3c-3.4,6.7-9.7,6-15.7,6c-25.6,0-51.2,0.3-76.8-0.1c-35.5-0.5-55.4-20.7-55.4-56.8
		c-0.1-181.6,0-363.1,0-544.7c0-41.4-0.2-82.9,0-124.3c0.2-36.1,19.9-56.4,55.5-56.7c37.7-0.4,75.3,0.4,113-0.2
		c11.3-0.2,17.2,3.4,22.4,13.7c55,109.4,110.6,218.6,166.1,327.7c3.2,6.3,5.8,11.6,2.1,18.9C491.4,541.2,475.1,573.9,456.4,610.8z"
		/>
</g>
</svg>
