<?xml version="1.0" encoding="utf-8"?>
<!-- Generator: Adobe Illustrator 25.0.0, SVG Export Plug-In . SVG Version: 6.00 Build 0)  -->
<svg version="1.1" id="Layer_1" xmlns="http://www.w3.org/2000/svg" xmlns:xlink="http://www.w3.org/1999/xlink" x="0px" y="0px"
	 viewBox="0 0 252 630" style="enable-background:new 0 0 252 630;" xml:space="preserve">
<style type="text/css">
	.st0{display:none;clip-path:url(#SVGID_2_);}
	.st1{display:inline;fill:#2F1664;}
	.st2{display:inline;fill:#FFF9F3;}
	.st3{clip-path:url(#SVGID_2_);}
	.st4{fill:#2F1664;}
	.st5{fill:#FFF9F3;}
	.st6{fill:#FEFEFE;}
</style>
<g>
	<defs>
		<rect id="SVGID_1_" width="252" height="630"/>
	</defs>
	<clipPath id="SVGID_2_">
		<use xlink:href="#SVGID_1_"  style="overflow:visible;"/>
	</clipPath>
	<g class="st0">
		<path class="st1" d="M461,46.8c0-0.1,0-0.2,0-0.4c-0.1-0.5-0.2-1.1-0.5-1.5l-0.2-0.3c-0.2-0.4-0.5-0.7-0.7-1.1l-0.2-0.2
			c-0.1-0.1-0.3-0.3-0.4-0.4c-0.3-0.3-0.6-0.5-0.9-0.7l-0.1-0.1L381.8,0.7c-0.9-0.5-1.9-0.7-2.9-0.7c-0.3,0-0.5,0-0.8,0L6.1,52.3
			H6.1c-0.2,0-0.4,0.1-0.5,0.1c-0.3,0.1-0.6,0.2-0.8,0.3l-0.3,0.1L4,53.1c-0.3,0.2-0.5,0.3-0.8,0.5c-0.1,0.1-0.3,0.2-0.4,0.4
			c-0.4,0.4-0.7,0.9-1,1.3c-0.1,0.2-0.2,0.4-0.2,0.5c-0.1,0.3-0.2,0.6-0.3,0.8c-0.1,0.2-0.1,0.3-0.1,0.5c0,0.2-0.1,0.3-0.1,0.5
			c0,0.2,0,0.4,0,0.5L0,582.5c0,1.1,0.3,2.1,0.8,3.1c0.6,0.9,1.3,1.7,2.3,2.2l76.2,41.4l0.3,0.2c0.3,0.1,0.6,0.2,0.8,0.3l0.4,0.1
			c0.4,0.1,0.9,0.1,1.3,0.2c0.3,0,0.5,0,0.8,0l74.4-10.5c1.4-0.2,2.7-0.9,3.7-2c0.9-1.1,1.5-2.5,1.5-3.9l0.6-323.5
			c0.1-63.5,48-121.9,106.6-130.2c4.1-0.6,8.3-0.9,12.4-1c10.4,16.6,15.9,36.7,15.9,58.3l-0.6,323.5c0,1.1,0.3,2.1,0.8,3.1
			c0.6,0.9,1.3,1.7,2.3,2.2l76.2,41.5c0.1,0,0.2,0.1,0.3,0.1c0.3,0.2,0.7,0.3,1,0.4l0.5,0.1c0.2,0,0.4,0.1,0.6,0.1
			c0.2,0,0.3,0,0.5,0h0.4h0.4l74.4-10.5c1.4-0.2,2.7-0.9,3.7-2c0.9-1.1,1.5-2.5,1.5-3.9l1-524.2C461.1,47.2,461,47,461,46.8
			L461,46.8z M456.1,571.7c0,0.5-0.2,1-0.5,1.3c-0.3,0.4-0.8,0.6-1.2,0.7L380,584.1h-0.3c-0.1,0-0.2,0-0.3,0c-0.1,0-0.1,0-0.2,0
			c-0.1,0-0.3-0.1-0.4-0.2l0,0l-76.2-41.4c-0.3-0.2-0.6-0.4-0.8-0.7c-0.2-0.3-0.3-0.7-0.3-1l0.6-323.5c0-23.5-6.3-45-17.7-62.3h-0.9
			c-4.8,0-9.5,0.3-14.2,1c-60.6,8.4-110,68.6-110.1,134.1l-0.6,323.5c0,0.5-0.2,1-0.5,1.3c-0.3,0.4-0.8,0.6-1.2,0.7l-74.4,10.4
			c-0.1,0-0.2,0-0.3,0c-0.1,0-0.3,0-0.4,0h-0.1c-0.1,0-0.2-0.1-0.3-0.1h-0.1L5,584.3c-0.3-0.2-0.6-0.4-0.7-0.7
			c-0.2-0.3-0.3-0.7-0.3-1L5,58.3c0-0.1,0-0.2,0-0.3c0,0,0-0.1,0-0.1c0,0,0,0,0-0.1c0-0.1,0.1-0.3,0.2-0.4c0,0,0-0.1,0-0.1
			c0.1-0.2,0.2-0.3,0.3-0.4l0.1-0.1c0.1-0.1,0.2-0.1,0.3-0.2c0,0,0.1,0,0.1,0l0.2-0.1c0.1-0.1,0.2-0.1,0.4-0.1c0,0,0.1,0,0.1,0
			L378.6,4h0.3c0.3,0,0.7,0.1,1,0.2L456,45.7c0.1,0.1,0.2,0.2,0.4,0.2l0.1,0.1l0.1,0.1c0.1,0.1,0.2,0.3,0.3,0.4v0.1
			c0.1,0.2,0.1,0.3,0.2,0.5c0,0,0,0.1,0,0.1c0,0.1,0,0.1,0,0.2L456.1,571.7z"/>
		<path class="st1" d="M379.7,584.1c-0.3,0-0.7-0.1-1-0.2l-76.2-41.5c-0.3-0.2-0.6-0.4-0.8-0.7c-0.2-0.3-0.3-0.7-0.3-1l0.6-323.5
			c0.1-40.8-18.9-75.4-50.7-92.7c-0.2-0.1-0.5-0.3-0.6-0.5c-0.2-0.2-0.3-0.4-0.4-0.7c-0.1-0.3-0.1-0.5-0.1-0.8
			c0-0.3,0.1-0.5,0.2-0.8c0.1-0.2,0.3-0.4,0.5-0.6c0.2-0.2,0.5-0.3,0.7-0.4c0.3-0.1,0.5-0.1,0.8,0c0.3,0,0.5,0.1,0.8,0.3l76.2,41.5
			c3,1.6,5.9,3.4,8.7,5.3c0.9,0.6,1.9,1.3,2.8,2c6.4,4.8,12.2,10.3,17.2,16.6c1.4,1.8,2.9,3.6,4.2,5.5c1.3,1.9,2.6,3.9,3.8,5.9
			c1.8,3,3.5,6.2,5,9.4c1,2.2,2,4.4,2.9,6.6c5.6,14.3,8.4,29.6,8.3,45l-0.6,323.5c0,0.3-0.1,0.7-0.3,1c-0.2,0.3-0.4,0.6-0.7,0.7
			C380.4,584,380.1,584.1,379.7,584.1L379.7,584.1z M305.5,539.5l72.2,39.3l0.6-320.2c0.1-14.9-2.6-29.6-8-43.5
			c-0.9-2.2-1.8-4.3-2.8-6.4c-1.5-3.1-3.1-6.1-4.8-9c-1.2-1.9-2.4-3.8-3.7-5.6s-2.6-3.6-4-5.3c-4.8-5.9-10.3-11.3-16.5-15.9
			c-0.9-0.6-1.8-1.3-2.6-1.9c-2.7-1.9-5.4-3.6-8.3-5.1l-52.2-28.4c19.6,19.7,30.7,47.9,30.7,79.7L305.5,539.5z"/>
		<path class="st1" d="M82.2,624L6,582.5L7,58.3l76.2,41.5L82.2,624z"/>
		<path class="st1" d="M82.2,626c-0.3,0-0.7-0.1-1-0.2L5,584.3c-0.3-0.2-0.6-0.4-0.7-0.7c-0.2-0.3-0.3-0.7-0.3-1L5,58.3
			c0-0.3,0.1-0.7,0.3-1C5.4,57,5.7,56.7,6,56.6c0.3-0.2,0.6-0.3,1-0.3c0.4,0,0.7,0.1,1,0.3L84.1,98c0.3,0.2,0.6,0.4,0.7,0.7
			c0.2,0.3,0.3,0.7,0.3,1L84.2,624c0,0.3-0.1,0.7-0.3,1c-0.2,0.3-0.4,0.5-0.7,0.7C82.9,625.9,82.5,626,82.2,626L82.2,626z M8,581.3
			l72.2,39.3l1-519.7L9,61.6L8,581.3z"/>
		<path class="st2" d="M83.2,99.7L7,58.3L378.9,6l76.2,41.5L83.2,99.7z"/>
		<path class="st1" d="M83.2,101.7c-0.3,0-0.7-0.1-1-0.2L6,60c-0.4-0.2-0.7-0.5-0.8-0.9C5,58.7,4.9,58.3,5,57.9
			c0.1-0.4,0.3-0.8,0.6-1.1c0.3-0.3,0.7-0.5,1.1-0.5L378.6,4c0.4-0.1,0.9,0,1.2,0.2L456,45.7c0.4,0.2,0.7,0.5,0.9,0.9
			c0.2,0.4,0.2,0.8,0.2,1.2c-0.1,0.4-0.3,0.8-0.6,1.1c-0.3,0.3-0.7,0.5-1.1,0.5L83.4,101.7L83.2,101.7z M13.2,59.4l70.3,38.2
			l365.3-51.3L378.5,8.1L13.2,59.4z"/>
		<path class="st2" d="M455.1,47.5l-1,524.2l-74.4,10.5l0.6-323.5c0.1-66.5-49.7-113.4-111.4-104.7S157.3,223.5,157.2,290
			l-0.6,323.5L82.2,624l1-524.2L455.1,47.5z"/>
		<path class="st1" d="M82.2,626c-0.5,0-1-0.2-1.4-0.6c-0.4-0.4-0.6-0.9-0.6-1.4l1-524.2c0-0.5,0.2-1,0.5-1.3
			c0.3-0.4,0.8-0.6,1.2-0.7l371.9-52.3c0.3,0,0.6,0,0.9,0.1c0.3,0.1,0.5,0.2,0.7,0.4c0.2,0.2,0.4,0.4,0.5,0.7
			c0.1,0.3,0.2,0.5,0.2,0.8l-1,524.2c0,0.5-0.2,1-0.5,1.3c-0.3,0.4-0.8,0.6-1.2,0.7L380,584.1c-0.3,0-0.6,0-0.8-0.1
			c-0.3-0.1-0.5-0.2-0.7-0.4c-0.2-0.2-0.4-0.4-0.5-0.7c-0.1-0.3-0.2-0.5-0.2-0.8l0.6-323.5c0.1-32.6-12.5-62.3-34.5-81.5
			c-20.2-17.6-46.7-25.2-74.6-21.3c-60.6,8.5-110,68.7-110.1,134.2l-0.6,323.5c0,0.5-0.2,1-0.5,1.3c-0.3,0.4-0.8,0.6-1.2,0.7
			l-74.4,10.4C82.4,626,82.3,626,82.2,626L82.2,626z M85.2,101.5l-1,520.2l70.4-9.9l0.6-321.8c0.1-67.4,51.1-129.3,113.5-138.1
			c29-4.1,56.6,3.8,77.7,22.2c22.9,19.9,35.9,50.7,35.9,84.5l-0.6,321.2l70.4-9.9l1-520.2L85.2,101.5z"/>
	</g>
	<g class="st3">
		<path class="st4" d="M412.5,129c31.4,45.3,49.7,95,57.8,149.6c11.7,78.8,19.7,157.8,25.3,237.2c1.8,26.2,3,52.4,4.5,78.6
			c0.3,5-2.7,7-6.9,7.4c-5.6,0.6-11.3,0.6-16.9,0.7c-16.1,0.4-32.2,0.8-48.2,3.2c-3.5,0.5-7,0.6-10.4-0.4
			c-7.9-2.5-15.9-3.2-24.1-3.5c-7.3-0.3-12.1-6.3-12.1-15.5c0-15.1,0-30.3,0.4-45.4c1.1-42.7-4-84.9-11.4-126.8
			c-7.7-43.6-16.1-87.1-24.5-130.6c-5.3-27.4-15.5-52.9-33.4-74.8c-15.4-18.8-34.7-32.4-57.4-40.8c-18.8-7-36.3-2.2-49.7,13
			c-18.2,20.7-28.8,45.1-34.7,71.9c-7.4,33.7-10,67.8-12,102.1c-4.2,72.4-3.4,144.9-0.9,217.3c0.2,6.8,0,13.6,0,20.5
			c0,4.6-0.3,9.1,2.4,13.5c2.1,3.3,0,6.4-3.5,8c-2,0.9-4.2,0.9-6.4,0.7c-19.9-2-39.9-1-59.8-1.2c-2.1,0-4.3,0.3-6.4,0.7
			c-3.9,0.8-6.9-0.2-9-3.6c-1.2-2-2.9-3-4.9-4c-6.7-3.2-13.4-6.7-20.1-9.9c-2.4-1.1-4.9-1.8-7.7-1.8c-6.2,0-6.7-1.3-7.8-7.6
			c-8.9-50.3-3.3-100.8-3.3-151.2c0-56.9,4.8-113.4,14.4-169.4C52,231,63.1,196.5,77.5,163.1c13.1-30.5,33.3-54.3,62.6-70.6
			c26-14.4,53-26.2,82.1-32.5c19.3-4.2,38.7-2.5,58.2-2c17.1,0.5,34.2,1.2,50.8,6.5c25.6,8.2,46.6,23.1,63.9,43.3
			C401.1,114.8,406.7,122,412.5,129z M411.6,567.6c0.5,0.2,1.1,0.8,1.4-0.1c0.3-0.8-0.4-0.9-1-1c-0.5-0.1-0.9-0.2-1.4-0.3
			c-4.2-0.8-8.4-1.6-12.6-2.3c-1.2-0.2-2.7-0.9-2.9,1.3c-0.1,1.9,1.2,1.6,2.3,1.6c4.3,0.2,8.5,0.3,12.8,0.5
			C410.7,567.5,411.1,567.5,411.6,567.6z M52.7,562.4c0.8,0.7,1.4,0.3,1.8-0.5c-0.6-0.2-1.1-0.3-1.7-0.5c-1.9-0.9-3.8-2-5.8-2.8
			c-1-0.4-2.4-1.8-3.1,0.2c-0.6,1.9,1.2,2,2.5,2.3C48.6,561.5,50.6,561.9,52.7,562.4z M470,501c-0.3-0.1-0.5-0.2-0.8-0.3
			c-0.2,0.6,0.2,0.9,0.7,1c2.9,2,5.7,3.9,8.6,5.9c1.1,0.7,2.9,1.7,3-0.4c0.2-2.3,0.9-5.7-3.2-6C475.5,501,472.7,500.3,470,501z
			 M143.3,568.4c0.2-0.3,0.5-0.6,0.7-0.9c-0.9-0.9-1.7-2-2.7-2.8c-10.4-9.3-20.7-18.7-31.2-27.8c-6.7-5.8-11.7-13.6-20.7-16.9
			c-3.1-1.1-2.9-6.1-0.3-8.6c2.6-2.5,5.8-2.9,9.2-3c13.4-0.4,26.6,1.3,39.8,2.5c3.8,0.3,4.5-0.8,4.4-4.2c-1-48.7-0.1-97.5,2.3-146.1
			c1.9-38.8,5-77.4,13.6-115.4c5.1-22.4,14.1-43.2,26.5-62c10.9-16.6,25.3-31,42.9-41.1c20.7-11.8,42.8-15.3,65.8-8.1
			c22.3,6.9,39.1,21.7,53.5,39.2c20.1,24.5,32.7,53.1,43.5,82.6c21.2,57.9,32.1,118.1,37.4,179.3c1.3,15.2,2.3,30.5,2.6,45.8
			c0,2.1-0.3,4.2,3.2,4.1c13-0.7,25.9,1.3,38.8,2.5c7.6,0.7,7.5,0.8,6.9-6.7c-5.7-67.8-13.1-135.5-23.1-202.9
			c-9.3-62.2-33-117-74.4-164.1c-15.9-18.2-35-32-58.8-37.3c-41.4-9.2-81.9-7.2-120.2,13.4c-16,8.6-31.6,18-44.1,31.5
			c-17,18.5-30.6,39.2-40.7,62.2c-14.8,34-21,70-24.5,106.6c-4.1,42.4-5.2,85-7.1,127.6c-1.4,30.1-3.1,60.1-2.9,90.3
			c0,7.6,2.1,13.2,8.7,17.6c9.9,6.7,18.7,14.8,27.7,22.7C127.9,555,135.6,561.7,143.3,568.4z M241,150.6c5.8,1.2,10.3,1.8,14.5,3.2
			c28.4,9.5,51.8,26.1,70.2,49.6c17.1,21.9,27.4,47,32.9,74.1c8.5,41.8,14.9,84,23.9,125.6c5.4,24.8,7.8,50.1,10.3,75.4
			c0.4,3.6,1.6,5.3,5.3,5.7c4.6,0.5,9.1,1.7,13.7,2.6c5.6,1.2,5.6,1.2,5.5-4.7c-0.6-33.1-4-65.9-8.9-98.7
			c-8.7-58.1-23.2-114.5-49.5-167.3c-10.8-21.7-24.7-41-44.2-55.9C292.6,143.3,268.6,138.9,241,150.6z M172.7,91.5
			c-11.6,4.1-22,10.3-32.3,16.6c-18.7,11.3-33.4,26.3-43.3,45.7c-18.7,36.7-31.3,75.6-38.2,116.1C49.8,322.6,45.5,375.8,45,429.3
			c-0.2,20.4-0.9,40.9-1.3,61.3c-0.1,2.7-0.5,5.5,3.2,6.3c7.2,1.6,14,4.2,20.7,7.2c2.3,1,3,0.3,3-2c-0.1-4-0.2-8-0.1-12
			c1.4-53.5,4.3-107,7-160.5c2-40.3,6.1-80.3,17-119.4c11.1-39.5,31-73.9,59.7-103.2C159.8,101.3,166.7,97,172.7,91.5z M431,539.8
			c0.4,3.7-2.6,7.4,2.3,9.8c17,8.3,32.6,19,48.2,29.5c1.3,0.8,2.3,2.5,4.2,1.9c1-5.3-1-8.5-5.7-11.2
			C463.7,560.2,447.6,550.1,431,539.8z M484.3,567.2c1.5-4.5-1.3-6.4-4.1-8.3c-10.6-7.1-21.3-14.1-31.8-21.4
			c-5.7-3.9-11-8.3-16.7-12.7c-1.5,10.3-1.5,10.2,6.6,14.4c3.2,1.7,6.5,3.4,9.6,5.2C460.3,551.6,472.3,559.3,484.3,567.2z
			 M143.8,583.1c1.4-3.5,0.4-5.7-1.6-7.4c-18.8-16.3-38-32.3-56.8-49.5c-1,4.6-0.6,7.8,3.1,10.4c10.8,7.7,20.7,16.5,30.7,25.2
			C127.3,568.9,135.4,575.9,143.8,583.1z M431.7,522c0.7,0.4,1.2,0.8,1.8,1.1c16.3,8.6,31.6,18.9,46.8,29.3c0.9,0.6,1.9,2.1,2.9,0.9
			c0.6-0.7,0.3-2.2,0.3-3.4c-0.1-1.6-1.4-2.1-2.5-2.8c-3.8-2.4-7.6-4.7-11.4-7.1c-11.7-7.6-23.5-14.9-34.5-23.5
			c-0.9-0.7-2.2-1.7-2.9-1.4c-1.6,0.5-0.8,2.3-0.9,3.5C431.2,519.7,431.5,520.8,431.7,522z M141.7,599.9c-19-15.3-37.3-30-54.7-46.2
			c-0.9,5.2-0.7,6.1,1.7,7.9c14.4,10.4,27.4,22.5,40.3,34.7C132.2,599.3,136,601.1,141.7,599.9z M431.8,503.3
			c-1.7,4.9-0.3,7.7,3.9,9.7c4.8,2.3,9.3,5,13.8,7.9c10.3,6.6,20.4,13.5,30.7,20.2c0.9,0.6,1.9,1.9,3,0.8c1-1,0.7-2.5-0.2-3.6
			c-0.5-0.6-1.2-1.2-1.8-1.6C464.6,525.8,448.1,515.1,431.8,503.3z M486.4,588c-18.6-12.3-37.4-22.7-55.2-35.7c0,3.7-1,6.5,2.7,8.5
			c14.7,7.9,28.8,17,42.9,26C479.4,588.6,482.2,589.7,486.4,588z M143.8,595.2c1.1-3.4-0.8-4.7-2.6-6.2
			c-11.4-9.8-22.8-19.7-34.2-29.5c-6.9-6-13.7-12-20.9-18.3c-0.8,3.7-0.6,6.2,2.2,8.1c13.1,9.3,25.1,20,37.3,30.5
			C131.6,584.9,137.6,589.9,143.8,595.2z M432.1,499.4c1.4,0.9,2,1.3,2.6,1.7c15.3,8.3,29.6,18.1,44.1,27.8c1.3,0.8,2.8,3.1,4.1,1.6
			c1.4-1.5,0.2-3.9-1.1-5.4c-0.8-1-2.1-1.6-3.2-2.3c-12.1-7.2-24.4-14-35.7-22.5C440,498.1,436.6,497.8,432.1,499.4z M110.1,599.9
			c-8.3-7.7-15.5-14.3-23.3-21.6c-0.5,6.7-0.9,12.5-1.3,18.2c-0.1,2,0.7,3.2,2.8,3.3c2.7,0.1,5.4,0.6,8.1-0.4
			c-2.3-3.3-4.5-6.3-7-9.8C97.3,591.1,100.5,600.3,110.1,599.9z M99.5,522.4c15.5,11.8,29.5,24.3,43.9,37.1c1.5-3.7-0.5-5.3-2.5-7.1
			c-10.6-9-21.4-17.9-31.4-27.6C107,522.3,104,521.3,99.5,522.4z M431.3,571.5c-0.1,4.5-0.2,7.7-0.3,11c-0.3,9.6-0.3,9.6,9.2,8.1
			c0.4-0.1,0.8-0.3,1.2-0.5c-1.6-3.8-6.2-5.3-7.6-9.8c8.7,1,14.7,7.3,22.5,9.1C448.4,583.3,439.6,578.9,431.3,571.5z M71.4,532.9
			c1.5-1.5-0.6-5.2-3.6-6.4c-6.8-2.6-13.6-5.2-20.5-7.6c-1.1-0.4-2.9-2.4-3.5,0.1c-0.5,2-1.5,5,1.9,5.7c8,1.7,15.4,5,23,8
			C69.5,533,70.5,533.7,71.4,532.9z M417.4,507.9c0.9-8.3,0.9-8.2-6.9-8.7c-4.2-0.3-8.3-0.8-12.4-1.1c-1.3-0.1-3.4-1.2-3.3,1.4
			c0.1,1.9-0.9,4.7,2.5,5C404.1,504.9,410.8,506.2,417.4,507.9z M73.3,561.3c0.1-0.6,0.4-1.4,0.2-2.2c-0.5-2.5-2.1-4-4.6-4.7
			c-7.2-2-14.2-4.6-21.1-7.4c-1.1-0.4-3-2.8-3.9,0.1c-0.7,2.2-0.3,4.2,2.7,4.9c8.3,1.7,16.1,5.1,23.7,8.8
			C71.2,561.3,72,562.1,73.3,561.3z M123.2,599.4c-12.3-10.6-24.5-20.8-35.9-32.6c-0.6,3.6-0.9,6.1,2.3,8
			c10.5,6.3,19.1,14.7,27.9,23.1C119,599.2,120.3,600.7,123.2,599.4z M450.6,499.3c0.1,1.1,0.9,1.4,1.6,1.8
			c8.9,5.4,17.8,10.8,26.8,16.2c0.9,0.5,2,2,2.9,0.8c1-1.2-0.1-2.5-1-3.5c-0.8-0.8-1.8-1.4-2.8-2c-4.8-3.2-9.9-6.1-14.5-9.5
			C459.6,500,455.4,499.1,450.6,499.3z M417.6,534.8c0.1-0.9,0.4-2,0.3-3.1c-0.1-2-1.6-2.1-3.2-2.3c-5.1-0.7-10.1-1.5-15.2-2.3
			c-1.6-0.2-3.8-2.1-3.9,1.4c0,2.1-1.4,5,3,5.1c5.3,0.1,10.5,1,15.8,1.5C415.4,535.1,416.3,535.7,417.6,534.8z M113.7,522.8
			c10.3,8.6,19.8,16.5,30,25C142.5,542.6,118.7,522.8,113.7,522.8z M75,582.5c0.2-0.7,0.5-1.2,0.5-1.6c-0.3-1.5-1-3.1-2.5-3.5
			c-8.9-2.6-17.6-5.9-26-9.9c-0.6-0.3-1.2-0.6-1.8,0s-0.1,1.2,0.1,1.8c0.4,1.2,1.4,1.8,2.5,2.2c8.6,2.5,16.9,5.8,24.8,10.1
			C73.4,582,74.2,582.2,75,582.5z M70.8,522.3c0.8-1.7-0.1-2.8-1.7-3.4c-7.3-2.7-14.6-5.3-21.9-7.9c-1.1-0.4-2.8-1.4-3.4,0.3
			c-0.5,1.5,0.9,2.3,2.2,2.8c7.4,2.7,14.9,5.5,22.3,8.2C69.2,522.6,69.9,522.9,70.8,522.3z M395.5,521.5c1,1.3,2.3,1.1,3.4,1
			c5.2-0.4,10.3,0.1,15.4,0.7c1.5,0.2,3.6,1,3.7-1.7c0.1-2.5-1.9-2.3-3.5-2.5c-5.4-0.5-10.9-1-16.3-1.5c-0.9-0.1-2.1-0.7-2.4,0.8
			C395.5,519.4,395.6,520.5,395.5,521.5z M396,536.7c-1,1.5-0.8,2.8-0.6,4.1c0.2,1.9,1.8,1.7,3.1,1.6c5.3-0.3,10.6,0,15.8,0.7
			c1.2,0.1,2.8,1,3.2-1.1c0.3-2-1.5-1.9-2.7-2.1c-5.5-1.1-11.1-2-16.6-3C397.5,536.8,396.7,536.8,396,536.7z M73.1,549.8
			c-0.9-1.2-1.1-2-1.6-2.2c-8.6-3.4-17.4-6.6-25.6-11c-0.9-0.5-2-0.9-2.2,0.6c-0.3,1.5-0.3,3.1,1.4,3.9c1.4,0.6,2.9,0.8,4.3,1.2
			C57,544.7,64.7,547.1,73.1,549.8z M43.7,530.4c0.8,1.8,2.1,1.9,3.2,2.2c7.4,1.9,14.4,4.8,21.4,7.9c1,0.5,2.8,2.5,3.7,0.3
			c0.8-2-1.5-2.2-2.7-2.7c-7.8-2.7-15.4-5.9-22.7-9.9c-0.8-0.4-1.6-1.5-2.6-0.5C43.1,528.7,43.6,529.9,43.7,530.4z M395.2,550.1
			c0.7,0.2,1.3,0.6,1.9,0.6c5.9-0.4,11.6,0.3,17.3,1.4c1.3,0.2,2.3,0.1,2.4-1.6c0.1-1.8-1.3-1.8-2.3-1.9c-5.6-0.5-11.2-1.1-16.8-2.4
			c-0.9-0.2-2.1-0.5-2.4,0.9C395.2,548,395.3,549,395.2,550.1z M414.8,511.8c-6.7-0.5-12.9-2.9-19.3-4.2c-1.1,4.1-0.1,5.9,4.3,5.5
			c3.4-0.3,7,0.1,10.5,0.2C411.8,513.2,413.6,514,414.8,511.8z M132.5,524.4c3.8,3,7,5.5,10.3,8.1
			C144,523.4,143.4,522.9,132.5,524.4z M142.7,538.3c0.3-0.4,0.6-0.7,0.9-1.1c-5.6-4.7-11.1-9.4-16.7-14.2c-0.4,0.4-0.7,0.9-1.1,1.3
			C131.4,529,137,533.7,142.7,538.3z M408,558c-2.7-0.7-6.2-1.7-9.7-2.6c-1.1-0.3-2.8-1.5-3,0.8c-0.2,1.8,1.4,2,2.7,2
			C401.7,558.1,405.3,558.9,408,558z M440.8,572.6c0.1-0.3,0.3-0.6,0.4-0.9c-2.4-1.6-4.7-3.2-7.1-4.7c-0.7-0.4-1.6-1.7-2.5-0.5
			c-0.8,1.3,0.3,2.2,1.3,2.7C435.5,570.3,438.1,571.4,440.8,572.6z M403.8,493.8c0.1-0.4,0.1-0.8,0.2-1.2c-2.6-0.5-5.3-1.1-7.9-1.6
			c-0.8-0.2-1.6-0.1-1.7,1.1s0.6,1.4,1.5,1.5C398.4,493.7,401.1,493.7,403.8,493.8z M467.7,588.2c-3.7-2.3-7.4-4.6-11.1-6.9
			C459.3,585.1,463,587.3,467.7,588.2z M414.3,568.4c1,0,1.8,0.1,2.5,0c0.1,0,0.5-0.9-0.2-1.1c-0.6-0.1-1.2-0.2-1.8-0.1
			C414.6,567.2,414.5,567.8,414.3,568.4z"/>
		<path class="st4" d="M404.4,699.1c5.8-3.7,9.6-8.1,14-11.8c2.1-1.7,4-3.5,6.2-5c2.6-1.9,5.7-2.3,8.4-0.6c2.7,1.7,4,4.6,3.4,7.8
			c-4,22.1-6,44.5-8.8,66.8c-0.3,2.7-1.4,5.2-4.5,4.9c-3-0.2-3.2-3-3.4-5.3c-1.2-15.5,0.4-30.9,1.5-46.3c0.2-2.1,0.3-4.2,0.6-7.5
			c-5.9,5.5-11,10.2-16.1,14.8c-2.3,2.1-4.6,4.4-7,6.4c-2.5,2.2-5.4,3.3-8.7,1.5c-3.5-1.8-4.4-4.8-3.7-8.4
			c2.4-13.5,6.2-26.6,9.3-39.9c3.5-14.7,7.4-29.4,10-44.3c0.7-4.1,2.3-7.5,7.2-7.2c4.2,0.2,6.8,3.7,6.2,9.1
			c-1.1,10-3.8,19.6-6.1,29.3C410.3,675,407.5,686.5,404.4,699.1z"/>
		<path class="st4" d="M42,717.7c-4.5,4-8.9,8.1-13.5,12.1c-2.1,1.8-4.5,1.9-7,0.7c-2.6-1.4-4-3.6-3.7-6.5c0.2-2.1,0.8-4.2,1.5-6.3
			c2.8-7.8,5.7-15.6,8.5-23.4c6.6-18.2,12.8-36.5,17.8-55.2c0.3-1.3,0.7-2.6,1.3-3.7c1.7-3.1,4.2-4.9,7.8-3.8c3.6,1,5,3.8,4.6,7.3
			c-0.5,3.4-1.3,6.9-2.3,10.2c-4.1,14.4-8.9,28.6-13.9,42.7c-0.8,2.3-1.6,4.6-1.7,7.4c2.8-2.4,5.6-4.8,8.4-7.1s6-3.2,9.2-0.9
			c3.1,2.2,3.6,5.3,2.4,8.9c-7,21.3-13.9,42.7-20.8,64.1c-0.2,0.5-0.3,1-0.5,1.4c-1.1,2.2-1.7,5.2-5.1,4.3c-3-0.8-2.3-3.7-2.1-5.9
			c0.2-2.5,0.6-5,1.2-7.4c2.6-11.4,5.2-22.7,7.9-34.1c0.3-1.4,0.7-2.8,1-4.2C42.6,718.1,42.3,717.9,42,717.7z"/>
		<path class="st4" d="M514.4,679.8c2.5-4.4,3.6-9.2,5.3-13.9c1.1-3.2,2.9-5.8,6.7-5.5c3.7,0.2,5.5,2.6,6.3,6
			c5.3,23.4,10.7,46.8,16.1,70.3c0.2,1,0.4,1.9,0.5,2.9c0.3,2.3,0.1,4.6-2.6,5.2c-2.6,0.7-3.6-1.7-4.3-3.4
			c-2.9-7.8-5.7-15.6-8.2-23.5c-3-9.3-5.6-18.7-8.6-29c-2.5,5.2-4.7,9.7-6.9,14.1c-1.7,3.4-4.1,6.3-8.4,5.8
			c-4.4-0.6-5.9-4.1-6.6-7.8c-4.4-23.3-8.7-46.6-12.9-69.9c-0.7-3.9,0.4-7.5,5-8.4c4.5-0.8,7.1,1.7,7.8,5.8
			c2.8,14.6,5.5,29.3,8.2,44c0.5,2.4,0.9,4.9,1.4,7.3c0.2,0.3,0.4,0.7,0.7,1C514.1,680.4,514.2,680.1,514.4,679.8z"/>
		<path class="st4" d="M128.5,705.5c3.8-4.6,6.8-8,9.6-11.7c2.3-3.1,5.2-4.3,8.7-2.9c3.4,1.3,4.1,4.4,4,7.8
			c-0.5,18.1-0.8,36.2-1.3,54.3c-0.1,2.2-0.4,4.3-0.8,6.4c-0.3,1.7-0.9,3.2-3.1,3.3c-2.1,0.1-3-1.3-3.3-3c-0.5-2.6-1.1-5.2-1.3-7.8
			c-0.9-12.1-1.8-24.1-2.7-37.2c-3.5,4.2-6.5,7.7-9.5,11.3c-2.5,3-5.3,5.3-9.4,3.6c-3.8-1.5-4.5-4.8-4.5-8.6
			c0.1-23.3,1-46.5-0.6-69.8c-0.2-3-0.6-5.9-0.9-8.9c-0.6-5.5,1.5-9,5.6-9.5c4-0.5,7.3,2.5,7.8,7.9c0.7,8.3,1.3,16.6,1.5,24.9
			C128.5,678.4,128.4,691.2,128.5,705.5z"/>
		<path class="st4" d="M433.7,133.7c-13.5-21.2-27.4-40.6-45.6-56.1c-15.5-13.2-34.1-21-53.3-27.3c-2.2-0.7-4.6-1-6.2-2.9
			c-1.4-1.6-2.3-3.3-1.5-5.4c0.9-2.3,2.8-3.2,5.1-3.1c1.1,0.1,2.3,0.3,3.4,0.7c22.6,7.9,44.3,17.6,61.6,34.4
			c14.2,13.8,24.6,30.5,34.3,47.7c1.7,3,3.3,6.2,4.7,9.4c0.6,1.3,2.1,3.4,0.1,4.4C434.2,136.5,433.9,133.9,433.7,133.7z"/>
		<path class="st4" d="M408.4,58.3c-1.1,0.5-1.9-0.1-2.8-0.6c-7.5-4.8-15.2-9.3-23.9-11.7c-0.8-0.2-2.1-0.6-2-1.9
			c0.1-1.4,1.2-2,2.4-2.2c1.6-0.3,3.4-0.7,4.9-0.4c8.7,1.9,15.8,6.4,21.1,13.7C408.6,56.2,409.8,57.1,408.4,58.3z"/>
		<path class="st5" d="M143.3,568.4c-7.7-6.7-15.4-13.4-23-20.2c-9-7.9-17.8-16-27.7-22.7c-6.6-4.5-8.7-10-8.7-17.6
			c-0.2-30.1,1.6-60.2,2.9-90.3c1.9-42.5,3.1-85.2,7.1-127.6c3.5-36.5,9.7-72.6,24.5-106.6c10.1-23,23.7-43.8,40.7-62.2
			c12.4-13.4,28-22.8,44-31.4c38.2-20.5,78.8-22.5,120.2-13.4c23.8,5.3,42.9,19.1,58.8,37.3c41.4,47.2,65.1,102,74.4,164.1
			c10,67.4,17.4,135,23.1,202.9c0.6,7.4,0.7,7.3-6.9,6.7c-12.9-1.1-25.8-3.2-38.8-2.5c-3.5,0.2-3.2-1.9-3.2-4.1
			c-0.3-15.3-1.2-30.5-2.6-45.8c-5.4-61.3-16.3-121.4-37.4-179.3c-10.8-29.5-23.3-58.1-43.5-82.6c-14.4-17.6-31.2-32.3-53.5-39.2
			c-23.1-7.2-45.1-3.7-65.8,8.1c-17.7,10.1-32,24.4-42.9,41.1c-12.4,18.8-21.4,39.6-26.5,62c-8.7,38-11.7,76.6-13.6,115.4
			c-2.4,48.7-3.3,97.4-2.3,146.1c0.1,3.4-0.6,4.5-4.4,4.2c-13.2-1.2-26.5-2.9-39.8-2.5c-3.4,0.1-6.6,0.5-9.2,3s-2.8,7.5,0.3,8.6
			c9,3.2,13.9,11.1,20.7,16.9c10.6,9.1,20.8,18.5,31.2,27.8c1,0.9,1.8,1.9,2.7,2.8C143.7,567.8,143.5,568.1,143.3,568.4z"/>
		<path class="st5" d="M241,150.6c27.5-11.7,51.5-7.3,73.7,9.7c19.4,14.9,33.4,34.2,44.2,55.9c26.3,52.9,40.8,109.2,49.5,167.3
			c4.9,32.7,8.3,65.6,8.9,98.7c0.1,5.9,0.1,5.9-5.5,4.7c-4.6-1-9.1-2.2-13.7-2.6c-3.8-0.4-5-2.1-5.3-5.7
			c-2.5-25.3-4.9-50.6-10.3-75.4c-9.1-41.7-15.4-83.9-23.9-125.6c-5.5-27-15.8-52.2-32.9-74.1c-18.4-23.5-41.8-40.1-70.2-49.6
			C251.3,152.4,246.8,151.9,241,150.6z"/>
		<path class="st5" d="M172.7,91.5c-6,5.4-12.9,9.8-18.6,15.6c-28.7,29.3-48.7,63.7-59.7,103.2c-10.9,39-15.1,79.1-17,119.4
			c-2.6,53.5-5.6,107-7,160.5c-0.1,4,0,8,0.1,12c0,2.3-0.7,3-3,2c-6.7-2.9-13.5-5.5-20.7-7.2c-3.7-0.8-3.2-3.7-3.2-6.3
			c0.5-20.4,1.1-40.9,1.3-61.3c0.5-53.5,4.8-106.7,13.9-159.4c7-40.5,19.5-79.4,38.2-116.1c9.9-19.5,24.6-34.4,43.3-45.7
			C150.7,101.8,161.1,95.6,172.7,91.5z"/>
		<path class="st6" d="M431,539.8c16.6,10.2,32.7,20.4,49,30c4.7,2.8,6.8,5.9,5.7,11.2c-2,0.6-3-1.1-4.2-1.9
			c-15.7-10.5-31.2-21.2-48.2-29.5C428.4,547.3,431.4,543.5,431,539.8z"/>
		<path class="st6" d="M484.3,567.2c-12-8-24-15.6-36.4-22.7c-3.2-1.8-6.4-3.6-9.6-5.2c-8.1-4.2-8.1-4.1-6.6-14.4
			c5.7,4.4,11.1,8.8,16.7,12.7c10.5,7.3,21.2,14.3,31.8,21.4C483.1,560.8,485.8,562.7,484.3,567.2z"/>
		<path class="st6" d="M143.8,583.1c-8.4-7.3-16.5-14.3-24.5-21.4c-10-8.7-19.9-17.5-30.7-25.2c-3.8-2.7-4.2-5.8-3.1-10.4
			c18.8,17.3,37.9,33.2,56.8,49.5C144.2,577.5,145.2,579.7,143.8,583.1z"/>
		<path class="st6" d="M431.7,522c-0.2-1.1-0.5-2.3-0.5-3.4c0.1-1.2-0.7-3,0.9-3.5c0.8-0.2,2.1,0.8,2.9,1.4
			c11,8.6,22.9,15.9,34.5,23.5c3.7,2.5,7.6,4.8,11.4,7.1c1.1,0.7,2.5,1.2,2.5,2.8c0,1.1,0.3,2.7-0.3,3.4c-1,1.2-2.1-0.3-2.9-0.9
			c-15.2-10.4-30.5-20.7-46.8-29.3C432.9,522.8,432.4,522.4,431.7,522z"/>
		<path class="st6" d="M141.7,599.9c-5.7,1.2-9.5-0.6-12.7-3.7c-12.9-12.2-25.9-24.2-40.3-34.7c-2.4-1.7-2.5-2.7-1.7-7.9
			C104.4,569.9,122.7,584.6,141.7,599.9z"/>
		<path class="st6" d="M431.8,503.3c16.3,11.8,32.8,22.5,49.3,33.3c0.7,0.4,1.3,1,1.8,1.6c0.9,1.1,1.2,2.6,0.2,3.6
			c-1.1,1.1-2.1-0.3-3-0.8c-10.2-6.7-20.4-13.6-30.7-20.2c-4.4-2.9-9-5.6-13.8-7.9C431.5,510.9,430.1,508.2,431.8,503.3z"/>
		<path class="st6" d="M486.4,588c-4.1,1.7-7,0.6-9.7-1.1c-14.1-9.1-28.2-18.1-42.9-26c-3.6-2-2.7-4.8-2.7-8.5
			C449,565.3,467.7,575.7,486.4,588z"/>
		<path class="st6" d="M143.8,595.2c-6.2-5.3-12.2-10.4-18.2-15.5c-12.2-10.5-24.2-21.1-37.3-30.5c-2.8-2-3-4.4-2.2-8.1
			c7.2,6.3,14,12.4,20.9,18.3c11.4,9.9,22.8,19.7,34.2,29.5C143,590.5,145,591.8,143.8,595.2z"/>
		<path class="st6" d="M432.1,499.4c4.5-1.6,7.9-1.4,10.9,0.9c11.3,8.5,23.6,15.3,35.7,22.5c1.1,0.7,2.4,1.3,3.2,2.3
			c1.3,1.6,2.5,3.9,1.1,5.4c-1.3,1.5-2.9-0.8-4.1-1.6c-14.5-9.6-28.8-19.5-44.1-27.8C434.1,500.8,433.5,500.3,432.1,499.4z"/>
		<path class="st6" d="M110.1,599.9c-9.7,0.3-12.9-8.8-20.7-10.3c2.5,3.5,4.7,6.5,7,9.8c-2.7,0.9-5.4,0.5-8.1,0.4
			c-2.1-0.1-2.9-1.3-2.8-3.3c0.4-5.7,0.8-11.5,1.3-18.2C94.7,585.6,101.8,592.2,110.1,599.9z"/>
		<path class="st6" d="M99.5,522.4c4.5-1,7.4-0.1,10,2.4c10,9.7,20.8,18.6,31.4,27.6c2.1,1.8,4,3.4,2.5,7.1
			C129,546.7,115,534.2,99.5,522.4z"/>
		<path class="st6" d="M431.3,571.5c8.3,7.4,17.2,11.8,25,17.9c-7.8-1.9-13.7-8.1-22.5-9.1c1.4,4.5,6,6,7.6,9.8
			c-0.4,0.2-0.8,0.4-1.2,0.5c-9.5,1.5-9.5,1.5-9.2-8.1C431.1,579.3,431.1,576,431.3,571.5z"/>
		<path class="st6" d="M71.4,532.9c-1,0.9-1.9,0.1-2.8-0.2c-7.6-3-15-6.3-23-8c-3.3-0.7-2.4-3.8-1.9-5.7c0.6-2.5,2.4-0.5,3.5-0.1
			c6.9,2.4,13.7,5,20.5,7.6C70.9,527.6,73,531.4,71.4,532.9z"/>
		<path class="st6" d="M417.4,507.9c-6.6-1.7-13.3-3-20.1-3.5c-3.4-0.2-2.4-3.1-2.5-5c-0.1-2.6,2-1.5,3.3-1.4
			c4.1,0.3,8.3,0.8,12.4,1.1C418.3,499.7,418.3,499.7,417.4,507.9z"/>
		<path class="st6" d="M73.3,561.3c-1.4,0.8-2.2,0-3-0.4c-7.6-3.7-15.4-7.1-23.7-8.8c-2.9-0.6-3.4-2.7-2.7-4.9
			c0.9-3,2.8-0.6,3.9-0.1c6.9,2.7,13.9,5.3,21.1,7.4c2.5,0.7,4,2.2,4.6,4.7C73.7,559.9,73.4,560.7,73.3,561.3z"/>
		<path class="st6" d="M123.2,599.4c-2.9,1.3-4.2-0.2-5.7-1.6c-8.8-8.3-17.5-16.8-27.9-23.1c-3.2-1.9-2.9-4.4-2.3-8
			C98.7,578.6,110.9,588.8,123.2,599.4z"/>
		<path class="st6" d="M450.6,499.3c4.7-0.2,9,0.8,12.9,3.8c4.6,3.5,9.7,6.4,14.5,9.5c1,0.6,2,1.2,2.8,2c0.9,0.9,2,2.2,1,3.5
			c-1,1.2-2-0.2-2.9-0.8c-8.9-5.4-17.8-10.8-26.8-16.2C451.5,500.6,450.7,500.3,450.6,499.3z"/>
		<path class="st6" d="M417.6,534.8c-1.2,0.8-2.2,0.3-3.1,0.2c-5.3-0.5-10.5-1.4-15.8-1.5c-4.4-0.1-3-3-3-5.1
			c0.1-3.5,2.3-1.6,3.9-1.4c5.1,0.8,10.1,1.6,15.2,2.3c1.6,0.2,3.1,0.4,3.2,2.3C417.9,532.8,417.7,533.9,417.6,534.8z"/>
		<path class="st6" d="M113.7,522.8c5,0,28.8,19.8,30,25C133.5,539.3,124,531.4,113.7,522.8z"/>
		<path class="st6" d="M75,582.5c-0.9-0.3-1.7-0.5-2.4-0.9c-7.9-4.3-16.1-7.6-24.8-10.1c-1.2-0.3-2.1-1-2.5-2.2
			c-0.2-0.6-0.7-1.2-0.1-1.8c0.6-0.6,1.2-0.3,1.8,0c8.4,3.9,17,7.3,26,9.9c1.5,0.4,2.2,2,2.5,3.5C75.6,581.3,75.3,581.8,75,582.5z"
			/>
		<path class="st6" d="M70.8,522.3c-0.9,0.6-1.6,0.3-2.4,0c-7.4-2.8-14.9-5.5-22.3-8.2c-1.3-0.5-2.8-1.3-2.2-2.8
			c0.6-1.7,2.3-0.7,3.4-0.3c7.3,2.6,14.6,5.2,21.9,7.9C70.7,519.5,71.6,520.6,70.8,522.3z"/>
		<path class="st6" d="M395.5,521.5c0.1-0.9,0-2.1,0.3-3.2c0.3-1.5,1.5-0.9,2.4-0.8c5.4,0.5,10.9,0.9,16.3,1.5
			c1.6,0.2,3.7,0,3.5,2.5c-0.2,2.7-2.2,1.9-3.7,1.7c-5.1-0.6-10.2-1-15.4-0.7C397.8,522.5,396.5,522.8,395.5,521.5z"/>
		<path class="st6" d="M396,536.7c0.6,0.1,1.4,0.1,2.2,0.2c5.5,1,11.1,1.9,16.6,3c1.2,0.2,3,0.2,2.7,2.1c-0.3,2.1-2,1.2-3.2,1.1
			c-5.3-0.7-10.5-1-15.8-0.7c-1.3,0.1-2.8,0.3-3.1-1.6C395.3,539.5,395,538.2,396,536.7z"/>
		<path class="st6" d="M73.1,549.8c-8.4-2.7-16.1-5.1-23.8-7.5c-1.4-0.4-2.9-0.7-4.3-1.2c-1.7-0.7-1.6-2.4-1.4-3.9
			c0.3-1.5,1.3-1.2,2.2-0.6c8.2,4.5,16.9,7.6,25.6,11C72,547.8,72.3,548.6,73.1,549.8z"/>
		<path class="st6" d="M43.7,530.4c-0.2-0.5-0.7-1.7,0.2-2.7s1.8,0.1,2.6,0.5c7.2,4.1,14.9,7.2,22.7,9.9c1.3,0.4,3.6,0.7,2.7,2.7
			c-0.9,2.2-2.7,0.2-3.7-0.3c-6.9-3.1-14-6-21.4-7.9C45.8,532.4,44.6,532.2,43.7,530.4z"/>
		<path class="st6" d="M395.2,550.1c0.1-1.2,0-2.1,0.2-3.1c0.3-1.4,1.4-1.1,2.4-0.9c5.5,1.4,11.1,1.9,16.8,2.4
			c1.1,0.1,2.4,0.1,2.3,1.9c-0.1,1.7-1,1.8-2.4,1.6c-5.7-1-11.5-1.8-17.3-1.4C396.5,550.7,395.9,550.3,395.2,550.1z"/>
		<path class="st6" d="M414.8,511.8c-1.2,2.2-3,1.4-4.6,1.4c-3.5-0.1-7-0.5-10.5-0.2c-4.4,0.4-5.3-1.4-4.3-5.5
			C402,508.9,408.2,511.3,414.8,511.8z"/>
		<path class="st6" d="M132.5,524.4c10.9-1.5,11.6-1,10.3,8.1C139.4,529.9,136.3,527.4,132.5,524.4z"/>
		<path class="st6" d="M470,501c2.8-0.7,5.5,0,8.3,0.2c4.1,0.3,3.3,3.7,3.2,6c-0.1,2-1.9,1.1-3,0.4c-2.9-1.9-5.7-3.9-8.6-5.9
			C469.9,501.5,469.9,501.3,470,501z"/>
		<path class="st6" d="M142.7,538.3c-5.6-4.6-11.2-9.3-16.9-13.9c0.4-0.4,0.7-0.9,1.1-1.3c5.6,4.7,11.1,9.4,16.7,14.2
			C143.3,537.6,143,537.9,142.7,538.3z"/>
		<path class="st6" d="M410.2,567.4c-4.3-0.2-8.5-0.3-12.8-0.5c-1.1,0-2.5,0.3-2.3-1.6c0.1-2.2,1.7-1.6,2.9-1.3
			c4.2,0.8,8.4,1.6,12.6,2.3C410.5,566.7,410.3,567,410.2,567.4z"/>
		<path class="st6" d="M408,558c-2.7,0.9-6.3,0.1-10,0.1c-1.3,0-3-0.1-2.7-2c0.3-2.3,2-1,3-0.8C401.8,556.2,405.3,557.3,408,558z"/>
		<path class="st6" d="M440.8,572.6c-2.6-1.1-5.2-2.2-7.8-3.5c-1.1-0.5-2.1-1.4-1.3-2.7c0.8-1.3,1.8,0,2.5,0.5
			c2.4,1.5,4.8,3.1,7.1,4.7C441,572,440.9,572.3,440.8,572.6z"/>
		<path class="st6" d="M403.8,493.8c-2.7-0.1-5.3-0.1-8-0.2c-0.9,0-1.6-0.3-1.5-1.5s0.9-1.2,1.7-1.1c2.6,0.5,5.3,1,7.9,1.6
			C403.9,493,403.8,493.4,403.8,493.8z"/>
		<path class="st6" d="M467.7,588.2c-4.6-0.9-8.4-3.1-11.1-6.9C460.3,583.6,464,585.9,467.7,588.2z"/>
		<path class="st6" d="M52.7,562.4c-2.1-0.4-4.2-0.8-6.3-1.3c-1.3-0.3-3-0.5-2.5-2.3c0.6-2,2.1-0.6,3.1-0.2c2,0.8,3.9,1.9,5.8,2.8
			C52.8,561.7,52.8,562,52.7,562.4z"/>
		<path class="st6" d="M414.3,568.4c0.2-0.6,0.3-1.2,0.5-1.2c0.6-0.1,1.2,0,1.8,0.1c0.7,0.2,0.3,1,0.2,1.1
			C416.1,568.5,415.3,568.4,414.3,568.4z"/>
		<path class="st6" d="M52.9,561.4c0.6,0.2,1.1,0.3,1.7,0.5c-0.4,0.8-1,1.2-1.8,0.5C52.8,562,52.8,561.7,52.9,561.4z"/>
		<path class="st6" d="M469.8,501.7c-0.5-0.1-0.9-0.3-0.7-1c0.3,0.1,0.5,0.2,0.8,0.3C469.9,501.3,469.9,501.5,469.8,501.7z"/>
		<path class="st6" d="M411.6,567.6c-0.5-0.1-0.9-0.2-1.4-0.2c0.1-0.4,0.3-0.7,0.4-1.1c0.5,0.1,0.9,0.2,1.4,0.3
			C411.9,566.9,411.7,567.3,411.6,567.6z"/>
		<path class="st6" d="M412,566.6c0.6,0.1,1.3,0.2,1,1c-0.3,0.9-0.9,0.3-1.4,0.1C411.7,567.3,411.9,566.9,412,566.6z"/>
		<path class="st6" d="M514.4,679.8c-0.2,0.3-0.3,0.7-0.5,1c-0.2-0.3-0.4-0.7-0.7-1C513.6,679.7,514,679.8,514.4,679.8z"/>
	</g>
</g>
</svg>
