<?xml version="1.0" encoding="utf-8"?>
<!-- Generator: Adobe Illustrator 25.0.0, SVG Export Plug-In . SVG Version: 6.00 Build 0)  -->
<svg version="1.1" id="Layer_1" xmlns="http://www.w3.org/2000/svg" xmlns:xlink="http://www.w3.org/1999/xlink" x="0px" y="0px"
	 viewBox="0 0 75.2 91.3" style="enable-background:new 0 0 75.2 91.3;" xml:space="preserve">
<style type="text/css">
	.st0{display:none;fill:#F9F4F2;stroke:#2F1664;stroke-width:3;}
	.st1{display:none;}
	.st2{display:inline;fill:none;}
	.st3{display:inline;}
	.st4{fill:#2F1664;}
	.st5{fill:#FFF9F3;}
	.st6{fill:none;}
	.st7{fill:#FEFEFE;}
</style>
<path class="st0" d="M58.2,18.5c-5.9,4-10.7,9.5-13.6,16c-3.7-3.1-8.1-5.2-12.9-6.1c-5.5-1-11.1-0.4-16.2,1.7
	C10.4,32.3,6,35.9,3,40.5c-3.1,4.6-4.7,10-4.7,15.6v0c0,0.4,0,0.8,0,1.2c-3.9,1.9-7.4,4.7-10.1,8.1c-2.6,3.3-4.4,7.1-5.3,11.1
	c-2.5-0.7-5.1-0.8-7.6-0.3c-3.6,0.6-6.8,2.3-9.4,4.9c-2.6,2.5-4.3,5.8-4.9,9.4c-0.6,3.5-0.1,7.2,1.4,10.5c1.5,3.3,4,6,7.2,7.8
	l0.3,0.2h0.4h189.4h0.7l0.4-0.5l2.6-3c4.1-0.8,7.8-3,10.5-6.3c2.8-3.5,4.1-7.8,3.8-12.2c-0.3-4.4-2.3-8.5-5.6-11.5
	c-3-2.8-6.9-4.4-11-4.6c-1.7-10.4-7.3-19.7-15.6-26.2c-8.4-6.5-18.9-9.4-29.4-8.4c-2.8-6.9-7.6-12.9-13.7-17.2
	c-6.4-4.5-14.1-7-22-7.1C72.5,11.8,64.8,14.1,58.2,18.5z"/>
<g>
	<g class="st1">
		
			<rect x="10.8" y="9.2" transform="matrix(0.5596 -0.8287 0.8287 0.5596 -0.3971 36.0575)" class="st2" width="45.9" height="18.4"/>
		<g class="st3">
			<path class="st4" d="M64.9,15.9C64.9,15.9,64.9,15.9,64.9,15.9c0-0.1,0-0.1,0-0.1l0,0c0,0,0-0.1,0-0.1l0,0c0,0,0,0,0,0
				c0,0,0-0.1,0-0.1l0,0L62,9.9c0-0.1-0.1-0.1-0.1-0.2c0,0,0,0,0,0l-24.6-12l0,0c0,0,0,0,0,0c0,0,0,0-0.1,0l0,0l0,0c0,0,0,0-0.1,0
				c0,0,0,0,0,0c0,0-0.1,0-0.1,0c0,0,0,0,0,0c0,0,0,0-0.1,0c0,0,0,0,0,0c0,0,0,0,0,0c0,0,0,0,0,0L15.2,29.4c0,0.1-0.1,0.1-0.1,0.2
				c0,0.1,0,0.2,0,0.2l2.9,5.6l0,0c0,0,0,0,0,0.1l0,0c0,0,0.1,0,0.1,0.1c0,0,0,0,0,0l4.9,2.4c0.1,0,0.2,0.1,0.3,0
				c0.1,0,0.2-0.1,0.2-0.2L37,18.4c2.6-3.8,7.9-5.4,11.7-3.5c0.3,0.1,0.5,0.3,0.8,0.4c0,1.4-0.5,2.9-1.4,4.2L34.9,39
				c0,0.1-0.1,0.1-0.1,0.2c0,0.1,0,0.2,0,0.2l2.9,5.6c0,0,0,0,0,0c0,0,0,0,0,0.1l0,0c0,0,0,0,0,0s0,0,0,0l0,0l0,0l4.9,2.4
				c0.1,0,0.2,0.1,0.3,0c0.1,0,0.2-0.1,0.2-0.2L64.9,15.9C64.9,15.9,64.9,15.9,64.9,15.9L64.9,15.9z M43.2,47.4
				C43.2,47.4,43.1,47.4,43.2,47.4c-0.1,0.1-0.2,0.1-0.2,0.1L38.1,45l0,0c0,0,0,0,0,0c0,0,0,0,0,0c0,0,0,0,0,0l0,0l-2.9-5.6
				c0,0,0,0,0-0.1s0-0.1,0-0.1l13.2-19.5c1-1.4,1.5-3,1.5-4.5l-0.1,0c-0.3-0.2-0.6-0.4-0.9-0.5c-4-2-9.4-0.3-12.1,3.6L23.5,37.8
				c0,0-0.1,0.1-0.1,0.1c0,0-0.1,0-0.1,0l-4.9-2.4c0,0,0,0,0,0c0,0,0,0,0,0l0,0c0,0,0,0,0,0l0,0l-2.9-5.6c0,0,0,0,0-0.1
				c0,0,0-0.1,0-0.1L36.9-2c0,0,0,0,0,0l0,0c0,0,0,0,0,0c0,0,0,0,0,0l0,0c0,0,0,0,0,0l0,0c0,0,0,0,0,0l0,0l0,0c0,0,0,0,0,0l0,0
				l24.6,12l0,0c0,0,0,0,0.1,0.1l2.9,5.6c0,0,0,0,0,0l0,0l0,0c0,0,0,0,0,0l0,0c0,0,0,0,0,0l0,0c0,0,0,0,0,0L43.2,47.4z"/>
			<path class="st4" d="M38.1,45C38.1,45,38,45,38.1,45l-3-5.7c0,0,0,0,0-0.1c0,0,0-0.1,0-0.1l13.2-19.5c1.7-2.5,1.9-5.3,0.7-7.7
				c0,0,0,0,0-0.1c0,0,0,0,0-0.1c0,0,0,0,0-0.1s0,0,0,0c0,0,0,0,0.1,0c0,0,0,0,0.1,0c0,0,0,0,0,0c0,0,0,0,0,0.1l2.9,5.6
				c0.1,0.2,0.2,0.4,0.3,0.7c0,0.1,0.1,0.2,0.1,0.2c0.2,0.6,0.3,1.1,0.4,1.7c0,0.2,0,0.3,0,0.5c0,0.2,0,0.3,0,0.5
				c0,0.3,0,0.5-0.1,0.8c0,0.2-0.1,0.3-0.1,0.5c-0.2,1.1-0.7,2.1-1.3,3.1L38.3,45c0,0,0,0-0.1,0C38.2,45,38.2,45,38.1,45
				C38.1,45,38.1,45,38.1,45L38.1,45z M35.4,39.3l2.8,5.3l13.1-19.3c0.6-0.9,1-1.9,1.3-3c0-0.2,0.1-0.3,0.1-0.5
				c0-0.2,0.1-0.5,0.1-0.7c0-0.2,0-0.3,0-0.5c0-0.2,0-0.3,0-0.5c0-0.6-0.2-1.1-0.3-1.6c0-0.1-0.1-0.2-0.1-0.2
				c-0.1-0.2-0.2-0.4-0.3-0.6l-2-3.8c0.4,2-0.1,4.1-1.4,6.1L35.4,39.3z"/>
			<path class="st4" d="M18.5,35.3l-2.9-5.6L37-1.9l2.9,5.6L18.5,35.3z"/>
			<path class="st4" d="M18.4,35.4C18.4,35.4,18.4,35.4,18.4,35.4l-3-5.7c0,0,0,0,0-0.1c0,0,0-0.1,0-0.1L36.9-2c0,0,0,0,0.1,0
				c0,0,0,0,0.1,0c0,0,0,0,0.1,0c0,0,0,0,0,0.1L40,3.6c0,0,0,0,0,0.1c0,0,0,0.1,0,0.1L18.6,35.4c0,0,0,0-0.1,0
				C18.5,35.4,18.5,35.4,18.4,35.4C18.5,35.4,18.4,35.4,18.4,35.4L18.4,35.4z M15.8,29.7l2.8,5.3L39.8,3.7L37-1.7L15.8,29.7z"/>
			<path class="st5" d="M39.9,3.7L37-1.9l24.6,12l2.9,5.6L39.9,3.7z"/>
			<path class="st4" d="M39.8,3.8C39.8,3.8,39.8,3.7,39.8,3.8l-3-5.7c0,0,0-0.1,0-0.1c0,0,0-0.1,0-0.1c0,0,0.1,0,0.1,0
				c0,0,0.1,0,0.1,0l24.6,12c0,0,0.1,0,0.1,0.1l2.9,5.6c0,0,0,0.1,0,0.1c0,0,0,0.1,0,0.1c0,0-0.1,0-0.1,0c0,0-0.1,0-0.1,0L39.8,3.8
				L39.8,3.8z M37.3-1.6L40,3.5l24.1,11.8l-2.7-5.2L37.3-1.6z"/>
			<path class="st5" d="M64.5,15.7L43.1,47.3l-4.9-2.4l13.2-19.5c2.7-4,1.6-8.9-2.5-10.9s-9.6-0.4-12.3,3.7L23.4,37.7l-4.9-2.4
				L39.9,3.7L64.5,15.7z"/>
			<path class="st4" d="M18.4,35.4C18.4,35.4,18.4,35.3,18.4,35.4c-0.1-0.1-0.1-0.2,0-0.2L39.8,3.6c0,0,0.1-0.1,0.1-0.1
				c0,0,0.1,0,0.1,0l24.6,12c0,0,0,0,0.1,0s0,0,0,0.1s0,0,0,0.1c0,0,0,0,0,0.1L43.2,47.4c0,0-0.1,0.1-0.1,0.1c0,0-0.1,0-0.1,0
				L38.1,45c0,0,0,0,0,0c0,0,0,0,0-0.1c0,0,0,0,0-0.1c0,0,0,0,0-0.1l13.2-19.5c1.3-2,1.8-4.3,1.2-6.3c-0.5-1.9-1.8-3.4-3.6-4.3
				c-4-2-9.4-0.3-12.1,3.6L23.5,37.7c0,0-0.1,0.1-0.1,0.1c0,0-0.1,0-0.1,0L18.4,35.4C18.4,35.4,18.4,35.4,18.4,35.4L18.4,35.4z
				 M40,3.9L18.7,35.2l4.7,2.3l13.2-19.4c2.8-4.1,8.4-5.7,12.5-3.7c1.9,0.9,3.3,2.5,3.8,4.5c0.6,2.1,0.1,4.5-1.3,6.6L38.4,44.8
				l4.7,2.3l21.3-31.4L40,3.9z"/>
		</g>
	</g>
	<g>
		
			<rect x="10.8" y="9.2" transform="matrix(0.5596 -0.8287 0.8287 0.5596 -0.3971 36.0575)" class="st6" width="45.9" height="18.4"/>
		<g>
			<path class="st4" d="M58.6,18.9c0,4-0.9,7.8-2.6,11.4c-2.5,5.2-5.2,10.3-8.1,15.3c-1,1.7-2,3.3-2.9,4.9c-0.2,0.3-0.4,0.3-0.7,0.2
				c-0.4-0.2-0.7-0.4-1-0.6c-1-0.6-2-1.3-3-1.8c-0.2-0.1-0.4-0.2-0.6-0.4c-0.4-0.5-0.8-0.8-1.3-1.2c-0.4-0.3-0.5-0.9-0.1-1.4
				c0.6-0.9,1.2-1.8,1.9-2.7c1.8-2.5,3.2-5.3,4.5-8.1c1.3-2.9,2.6-5.9,3.8-8.9c0.8-1.9,1.2-3.8,1-5.9c-0.2-1.8-0.8-3.4-1.8-4.8
				c-0.8-1.2-2.1-1.6-3.5-1.2c-1.9,0.5-3.6,1.5-5,2.9c-1.8,1.7-3.4,3.7-4.9,5.7c-3.2,4.2-6.1,8.6-8.9,13.1c-0.3,0.4-0.6,0.8-0.8,1.2
				c-0.2,0.3-0.4,0.5-0.4,0.9c0,0.3-0.3,0.4-0.5,0.3c-0.2,0-0.3-0.1-0.4-0.2c-1.1-0.9-2.4-1.7-3.6-2.5c-0.1-0.1-0.3-0.2-0.4-0.2
				c-0.3-0.1-0.4-0.3-0.4-0.6c0-0.2-0.1-0.3-0.1-0.4c-0.3-0.5-0.5-1-0.8-1.4c-0.1-0.2-0.2-0.3-0.4-0.4c-0.4-0.3-0.4-0.4-0.2-0.8
				c1.5-3.4,3.9-6.2,6-9.3c2.3-3.4,4.9-6.6,7.8-9.6c1.8-1.9,3.9-3.5,6.1-5c2-1.3,4.2-1.9,6.7-1.7c2.2,0.2,4.3,0.6,6.3,1.4
				c1.3,0.5,2.4,1.4,3.6,2.3c1,0.7,2,1.5,2.8,2.5c1.2,1.5,1.9,3.3,2.1,5.2C58.5,17.5,58.5,18.2,58.6,18.9z M40.7,45.3
				C40.7,45.3,40.7,45.4,40.7,45.3C40.8,45.3,40.8,45.3,40.7,45.3c0-0.1,0-0.1,0-0.1c-0.2-0.2-0.4-0.4-0.7-0.7
				c-0.1-0.1-0.1-0.2-0.2,0c-0.1,0.1,0,0.1,0.1,0.2C40.1,44.9,40.3,45,40.7,45.3C40.6,45.2,40.6,45.3,40.7,45.3z M19.2,30.3
				c0,0.1,0.1,0.1,0.1,0C19.3,30.4,19.3,30.3,19.2,30.3c0-0.2-0.1-0.3-0.2-0.5c0-0.1-0.1-0.2-0.2-0.1c-0.1,0.1,0,0.2,0.1,0.2
				C19,30.1,19.1,30.2,19.2,30.3z M46.9,43.7C46.9,43.6,46.9,43.6,46.9,43.7C46.8,43.6,46.9,43.7,46.9,43.7c0.1,0.3,0.2,0.5,0.2,0.7
				c0,0.1,0.1,0.2,0.2,0.1c0.1-0.1,0.3-0.3,0.1-0.5C47.2,43.9,47.1,43.7,46.9,43.7z M24.4,34.4C24.5,34.4,24.5,34.4,24.4,34.4
				c0.1-0.1,0.1-0.2,0-0.3c-0.2-1-0.5-2-0.8-2.9c-0.2-0.6-0.2-1.3-0.6-1.9c-0.1-0.2,0.1-0.5,0.3-0.5c0.3,0,0.5,0.1,0.7,0.2
				c0.8,0.5,1.6,1.2,2.3,1.8c0.2,0.2,0.3,0.1,0.4-0.1c1.9-3,4-5.9,6.1-8.7c1.7-2.3,3.5-4.5,5.5-6.4c1.2-1.1,2.6-2,4.1-2.7
				c1.3-0.6,2.8-0.8,4.3-0.7c1.7,0.1,3.2,0.8,4.3,2.2c1.1,1.3,1.5,2.9,1.6,4.5c0.2,2.3-0.2,4.5-0.7,6.8C51,30,49.2,34.1,47.1,38
				c-0.5,1-1.1,1.9-1.7,2.9c-0.1,0.1-0.2,0.2,0,0.4c0.8,0.5,1.5,1.1,2.2,1.7c0.4,0.4,0.4,0.4,0.7-0.1c2.4-4.3,4.7-8.7,6.9-13.2
				c2-4.1,2.8-8.4,2.2-12.9c-0.2-1.7-0.8-3.4-2-4.6c-2.1-2.2-4.7-3.8-7.8-4.1c-1.3-0.1-2.6-0.2-3.9,0.1c-1.8,0.4-3.4,1.1-5,2.1
				c-2.3,1.4-4.1,3.4-5.8,5.4c-2,2.4-3.8,4.9-5.6,7.4c-1.3,1.8-2.6,3.5-3.9,5.3c-0.3,0.5-0.4,0.9-0.2,1.4c0.3,0.8,0.5,1.7,0.7,2.5
				C24.1,33,24.3,33.7,24.4,34.4z M47.4,13.2c0.3,0.3,0.5,0.5,0.7,0.8c1.3,1.7,2.1,3.7,2.2,5.9c0.1,2-0.3,4-1,5.8
				c-1.2,2.9-2.5,5.7-3.7,8.6c-0.7,1.7-1.6,3.3-2.5,5c-0.1,0.2-0.1,0.4,0.1,0.6c0.3,0.2,0.5,0.5,0.7,0.7c0.3,0.3,0.3,0.3,0.5-0.1
				c1.3-2,2.4-4.1,3.5-6.3c1.8-3.9,3.3-7.9,3.8-12.1c0.2-1.8,0.2-3.5-0.4-5.2C50.8,14.8,49.5,13.6,47.4,13.2z M45.7,6.8
				c-0.9-0.2-1.7-0.3-2.6-0.3c-1.6-0.1-3.1,0.2-4.5,1c-2.6,1.5-5,3.3-7,5.5c-2.7,2.8-5.1,5.8-7.3,9.1c-0.8,1.2-1.7,2.4-2.6,3.6
				c-0.1,0.2-0.3,0.3-0.1,0.5c0.4,0.4,0.7,0.8,1,1.3c0.1,0.2,0.2,0.1,0.3,0c0.2-0.2,0.3-0.5,0.5-0.7c2.3-3.2,4.6-6.3,7-9.4
				c1.8-2.4,3.6-4.6,5.9-6.5C38.4,8.9,41,7.6,43.9,7C44.5,6.9,45.1,6.9,45.7,6.8z M43,44.4c-0.1,0.2-0.5,0.3-0.3,0.7
				c0.7,1.2,1.2,2.5,1.7,3.7c0,0.1,0,0.2,0.2,0.3c0.3-0.3,0.3-0.6,0.1-0.9C44.1,47,43.6,45.7,43,44.4z M45.1,48.2
				c0.3-0.2,0.2-0.4,0.1-0.7c-0.4-0.9-0.7-1.7-1-2.6c-0.2-0.5-0.3-0.9-0.5-1.4c-0.5,0.6-0.5,0.6-0.2,1.1c0.1,0.2,0.3,0.5,0.4,0.7
				C44.3,46.3,44.7,47.3,45.1,48.2z M23.9,35.3c0.2-0.2,0.3-0.3,0.2-0.5c-0.5-1.8-1-3.5-1.4-5.3c-0.2,0.2-0.4,0.4-0.2,0.8
				c0.3,0.9,0.6,1.8,0.8,2.8C23.5,33.8,23.7,34.5,23.9,35.3z M43.7,43.4c0,0.1,0,0.1,0.1,0.1c0.6,1.2,1.1,2.4,1.6,3.7
				c0,0.1,0,0.2,0.1,0.2c0.1,0,0.1-0.1,0.2-0.2c0.1-0.1,0-0.2,0-0.3c-0.1-0.3-0.3-0.6-0.4-0.9c-0.4-0.9-0.8-1.9-1.1-2.8
				c0-0.1-0.1-0.2-0.1-0.2c-0.1,0-0.1,0.1-0.2,0.2C43.8,43.2,43.8,43.3,43.7,43.4z M23.1,36.2c-0.5-1.7-1-3.3-1.4-5
				c-0.3,0.3-0.3,0.3-0.2,0.5c0.4,1.2,0.7,2.5,1,3.7C22.5,35.8,22.7,36.1,23.1,36.2z M44.5,42.2c-0.3,0.2-0.3,0.5-0.2,0.7
				c0.2,0.3,0.4,0.7,0.5,1c0.4,0.8,0.7,1.6,1,2.5c0,0.1,0,0.2,0.1,0.2c0.1,0,0.1-0.1,0.1-0.2c0-0.1,0-0.1,0-0.2
				C45.6,44.9,45,43.6,44.5,42.2z M44.4,49.6c-0.6-1.5-1.3-2.9-1.9-4.4c-0.2,0.2-0.3,0.4-0.2,0.6c0.6,1.1,1,2.2,1.5,3.3
				C43.9,49.3,44,49.5,44.4,49.6z M23.4,36c0.2-0.2,0.1-0.3,0.1-0.5c-0.3-1.1-0.6-2.1-0.9-3.2c-0.2-0.6-0.3-1.3-0.5-2
				c-0.2,0.2-0.3,0.3-0.2,0.6c0.4,1.1,0.7,2.2,1,3.4C23.1,34.9,23.2,35.5,23.4,36z M44.7,42c0,0.1,0.1,0.2,0.1,0.2
				c0.6,1.1,1,2.3,1.5,3.5c0,0.1,0,0.3,0.2,0.3c0.1,0,0.2-0.2,0.2-0.4c0-0.1-0.1-0.2-0.1-0.3c-0.4-0.9-0.9-1.8-1.2-2.8
				C45.2,42.3,45,42.1,44.7,42z M21.2,35c-0.2-0.8-0.4-1.5-0.5-2.3c-0.3,0.4-0.6,0.7-0.8,1c-0.1,0.1-0.1,0.2,0,0.3
				c0.2,0.1,0.3,0.3,0.5,0.3c0-0.3,0-0.6,0-0.9C20.7,33.9,20.6,34.6,21.2,35z M23.7,29.8c0.5,1.3,0.8,2.7,1.1,4
				c0.2-0.2,0.2-0.3,0.1-0.5c-0.3-1-0.6-2-0.8-2.9C24.1,30.1,24,30,23.7,29.8z M41.7,46.3c-0.2,0.3-0.3,0.5-0.5,0.7
				c-0.4,0.6-0.4,0.6,0.2,0.9c0,0,0.1,0,0.1,0c0.1-0.3-0.2-0.6-0.1-0.9c0.5,0.4,0.6,1,1,1.5C42.3,47.7,41.9,47.1,41.7,46.3z
				 M21.6,29.3c0.2,0,0.2-0.3,0-0.5c-0.3-0.4-0.6-0.9-0.9-1.3c-0.1-0.1-0.1-0.3-0.2-0.1c-0.1,0.1-0.3,0.2-0.1,0.4
				c0.4,0.4,0.7,0.9,1.1,1.4C21.4,29.3,21.5,29.3,21.6,29.3z M43.5,41.9c0.4-0.5,0.4-0.5-0.1-0.8c-0.2-0.2-0.5-0.4-0.7-0.6
				c-0.1-0.1-0.2-0.2-0.3-0.1c-0.1,0.1-0.2,0.2-0.1,0.4C42.8,41.2,43.1,41.6,43.5,41.9z M20.5,31.1c0,0,0.1-0.1,0.1-0.1
				c0.1-0.2,0-0.3-0.1-0.5c-0.4-0.4-0.7-0.9-1-1.3c-0.1-0.1-0.1-0.3-0.2-0.2c-0.1,0.1-0.2,0.2,0,0.4c0.4,0.4,0.8,1,1.1,1.5
				C20.4,31,20.4,31.1,20.5,31.1z M22,35.5c-0.3-1.1-0.6-2.3-0.8-3.4c-0.2,0.2-0.3,0.3-0.2,0.6c0.4,0.8,0.6,1.7,0.7,2.5
				C21.7,35.3,21.7,35.4,22,35.5z M45.8,42.8c0,0.1,0,0.1,0,0.2c0.3,0.7,0.6,1.4,1,2.1c0,0.1,0,0.2,0.1,0.2c0.1,0,0.1-0.2,0.1-0.3
				c0-0.1-0.1-0.2-0.1-0.2c-0.2-0.4-0.3-0.8-0.5-1.2C46.3,43.2,46.1,42.9,45.8,42.8z M42.4,43.6c0-0.1,0.1-0.1,0.1-0.2
				c0.1-0.1,0-0.2-0.1-0.3c-0.3-0.3-0.5-0.5-0.8-0.8c-0.1-0.1-0.1-0.3-0.3-0.1c-0.1,0.1-0.3,0.2,0,0.4c0.3,0.2,0.6,0.5,0.9,0.7
				C42.2,43.5,42.3,43.6,42.4,43.6z M24.5,30.4c0.3,0.9,0.5,1.8,0.8,2.7C25.4,32.8,24.8,30.6,24.5,30.4z M19.7,32.5
				C19.8,32.4,19.8,32.4,19.7,32.5c0.1-0.2,0.2-0.3,0.1-0.4c-0.4-0.5-0.8-1.1-1.2-1.7c0,0,0-0.1-0.1-0.1c-0.1,0-0.1,0.1-0.1,0.1
				c0,0.1,0,0.2,0.1,0.2c0.4,0.5,0.8,1,1.1,1.6C19.7,32.4,19.7,32.4,19.7,32.5z M21.9,28.7c0.1-0.1,0.1-0.2,0-0.3
				c-0.3-0.5-0.7-0.9-1-1.4c-0.1-0.1-0.1-0.2-0.2-0.1c-0.1,0.1,0,0.2,0,0.3c0.3,0.5,0.7,0.9,1,1.4C21.8,28.6,21.9,28.7,21.9,28.7z
				 M41.6,41.9c0,0.1,0.1,0.2,0.2,0.2c0.3,0.2,0.6,0.4,0.9,0.7c0.1,0.1,0.2,0.2,0.3,0c0.1-0.1,0-0.2-0.1-0.3
				c-0.3-0.3-0.6-0.5-0.9-0.8c-0.1,0-0.1-0.1-0.2,0C41.7,41.7,41.6,41.8,41.6,41.9z M41,42.8c-0.1,0-0.2,0.1-0.2,0.2
				c-0.1,0.1,0,0.2,0.1,0.2c0.3,0.2,0.6,0.4,0.9,0.7c0.1,0.1,0.1,0.2,0.2,0.1c0.1-0.1,0-0.2-0.1-0.2c-0.3-0.3-0.6-0.6-0.9-0.9
				C41.1,42.9,41,42.8,41,42.8z M21,30.4c0-0.1,0-0.2,0-0.2c-0.4-0.6-0.8-1.1-1.1-1.7c0-0.1-0.1-0.1-0.2-0.1
				c-0.1,0.1-0.1,0.2-0.1,0.3c0.1,0.1,0.1,0.2,0.2,0.2C20.2,29.5,20.6,29.9,21,30.4z M20,28c0,0.1,0,0.2,0.1,0.3
				c0.4,0.4,0.7,0.9,1,1.3c0,0.1,0.1,0.3,0.2,0.2c0.1-0.1,0-0.2-0.1-0.3c-0.4-0.5-0.7-1-1-1.5c0-0.1,0-0.2-0.1-0.1
				C20,27.9,20,28,20,28z M40.4,43.6c0,0,0.1,0.1,0.1,0.1c0.4,0.2,0.7,0.5,1,0.8c0.1,0.1,0.1,0.1,0.2,0c0.1-0.1,0-0.2-0.1-0.2
				c-0.3-0.3-0.6-0.5-0.9-0.8c0,0-0.1-0.1-0.2,0C40.5,43.4,40.4,43.5,40.4,43.6z M43.1,42.1c-0.4-0.3-0.7-0.7-1-1
				c-0.2,0.2-0.2,0.4,0,0.5c0.2,0.1,0.4,0.3,0.6,0.4C42.9,42,43,42.1,43.1,42.1z M25.6,31.3c0.1,0.3,0.2,0.6,0.3,0.9
				C26.3,31.7,26.3,31.7,25.6,31.3z M25.6,32.6C25.7,32.6,25.7,32.5,25.6,32.6c0-0.5-0.2-1-0.3-1.6c0,0-0.1,0-0.1,0
				C25.3,31.5,25.5,32.1,25.6,32.6z M40.8,44.6c-0.1-0.2-0.3-0.4-0.5-0.6c-0.1-0.1-0.1-0.2-0.2-0.1c-0.1,0.1,0,0.2,0.1,0.2
				C40.5,44.3,40.6,44.5,40.8,44.6z M42.2,46.8C42.3,46.8,42.3,46.8,42.2,46.8c0-0.2-0.1-0.4-0.2-0.6c0-0.1,0-0.2-0.1-0.1
				c-0.1,0-0.1,0.1,0,0.2C42,46.4,42.1,46.6,42.2,46.8z M43.2,40.5C43.2,40.5,43.2,40.5,43.2,40.5c-0.1-0.2-0.2-0.3-0.4-0.5
				c0,0-0.1-0.1-0.1,0c-0.1,0.1,0,0.1,0,0.2C42.9,40.3,43.1,40.4,43.2,40.5z M43.2,48.8c-0.1-0.3-0.3-0.6-0.4-0.9
				C42.8,48.3,43,48.6,43.2,48.8z M40.8,45.5c0.1,0,0.1,0.1,0.2,0.1c0,0,0.1,0,0-0.1C41,45.4,40.9,45.4,40.8,45.5
				C40.9,45.4,40.8,45.4,40.8,45.5z"/>
			<path class="st4" d="M34.9,52.9c0.5,0,0.9-0.1,1.3-0.1c0.2,0,0.4,0,0.6,0c0.2,0,0.4,0.1,0.5,0.3c0.1,0.2,0.1,0.4-0.1,0.6
				c-1.1,1.2-2.2,2.4-3.3,3.7c-0.1,0.2-0.3,0.3-0.5,0.1c-0.2-0.1-0.1-0.3,0-0.5c0.6-1,1.3-1.8,2-2.7c0.1-0.1,0.2-0.2,0.3-0.4
				c-0.6,0.1-1.1,0.2-1.6,0.2c-0.2,0-0.5,0.1-0.7,0.1c-0.2,0-0.5,0-0.6-0.3c-0.1-0.3-0.1-0.5,0.1-0.7c0.7-0.7,1.5-1.4,2.2-2
				c0.8-0.7,1.6-1.5,2.4-2.3c0.2-0.2,0.4-0.4,0.7-0.1c0.2,0.2,0.3,0.5,0,0.8c-0.5,0.6-1,1-1.6,1.5C36.2,51.7,35.6,52.3,34.9,52.9z"
				/>
			<path class="st4" d="M12.2,39.3c-0.4,0.1-0.9,0.1-1.3,0.2c-0.2,0-0.3-0.1-0.5-0.2c-0.1-0.2-0.1-0.4,0-0.5
				c0.1-0.1,0.2-0.2,0.3-0.3c0.5-0.4,1-0.7,1.5-1.1c1.1-0.8,2.3-1.7,3.3-2.6c0.1-0.1,0.1-0.1,0.2-0.2c0.2-0.1,0.5-0.1,0.6,0.1
				c0.2,0.2,0.1,0.4,0,0.6c-0.2,0.2-0.4,0.4-0.6,0.5c-0.8,0.7-1.7,1.4-2.6,2c-0.1,0.1-0.3,0.2-0.4,0.4c0.3,0,0.5-0.1,0.8-0.1
				s0.5,0.1,0.6,0.3c0.1,0.3,0,0.5-0.2,0.6c-1.3,1-2.6,2-3.9,3c0,0-0.1,0-0.1,0.1c-0.2,0.1-0.3,0.2-0.5,0.1c-0.1-0.2,0-0.3,0.1-0.4
				c0.1-0.1,0.2-0.3,0.4-0.4c0.6-0.6,1.2-1.2,1.9-1.7C12.1,39.5,12.2,39.4,12.2,39.3C12.3,39.3,12.3,39.3,12.2,39.3z"/>
			<path class="st4" d="M42.3,56.3c0.3-0.2,0.6-0.4,0.9-0.6c0.2-0.1,0.4-0.2,0.6-0.1C44,55.7,44,56,44,56.2
				c-0.6,1.6-1.3,3.3-1.9,4.9c0,0.1-0.1,0.1-0.1,0.2c-0.1,0.2-0.2,0.3-0.4,0.2c-0.2-0.1-0.1-0.2-0.1-0.4c0.1-0.6,0.3-1.2,0.5-1.8
				c0.2-0.7,0.4-1.4,0.7-2.1c-0.4,0.2-0.7,0.4-1,0.6c-0.2,0.1-0.5,0.2-0.7,0c-0.2-0.2-0.2-0.5-0.1-0.7c0.7-1.6,1.4-3.2,2.1-4.7
				c0.1-0.3,0.3-0.4,0.6-0.3c0.3,0.1,0.4,0.4,0.2,0.7c-0.4,1-0.9,2-1.3,3C42.4,55.9,42.3,56,42.3,56.3
				C42.2,56.2,42.2,56.3,42.3,56.3C42.3,56.3,42.3,56.3,42.3,56.3z"/>
			<path class="st4" d="M18,42.1c0.4-0.1,0.7-0.2,1.1-0.3c0.3-0.1,0.5,0,0.6,0.2c0.2,0.2,0.1,0.4-0.1,0.6c-0.8,1.1-1.5,2.2-2.3,3.2
				c-0.1,0.1-0.2,0.2-0.3,0.4c-0.1,0.1-0.2,0.2-0.3,0.1c-0.1-0.1-0.1-0.2-0.1-0.3c0.1-0.2,0.1-0.4,0.2-0.5c0.4-0.8,0.9-1.5,1.4-2.4
				c-0.4,0.1-0.7,0.2-1,0.3c-0.3,0.1-0.5,0.1-0.7-0.2c-0.2-0.2-0.1-0.5,0.1-0.7c1-1.4,2-2.8,2.8-4.2c0.1-0.2,0.2-0.4,0.3-0.6
				c0.2-0.4,0.5-0.5,0.7-0.3c0.3,0.1,0.3,0.4,0.1,0.8c-0.3,0.5-0.6,1.1-0.9,1.6C19.1,40.4,18.5,41.2,18,42.1z"/>
			<path class="st4" d="M59.7,20c0-1.8,0-3.6-0.5-5.2c-0.4-1.4-1.2-2.7-2.1-3.8c-0.1-0.1-0.2-0.2-0.3-0.4c0-0.2,0-0.3,0.1-0.4
				c0.1-0.1,0.3-0.1,0.4,0c0.1,0.1,0.1,0.1,0.2,0.2c1,1.4,2,2.9,2.3,4.6c0.3,1.4,0.2,2.8,0.1,4.3c0,0.3-0.1,0.5-0.1,0.8
				c0,0.1,0,0.3-0.2,0.3C59.6,20.2,59.7,20,59.7,20z"/>
			<path class="st4" d="M61.2,14.4c-0.1,0-0.1-0.1-0.1-0.2c-0.3-0.6-0.5-1.2-1-1.7c0,0-0.1-0.1,0-0.2c0.1-0.1,0.2-0.1,0.2,0
				c0.1,0,0.2,0.1,0.3,0.2c0.4,0.5,0.7,1,0.7,1.7C61.3,14.3,61.4,14.4,61.2,14.4z"/>
			<path class="st5" d="M24.4,34.4c-0.2-0.7-0.4-1.4-0.6-2.2c-0.2-0.8-0.4-1.7-0.7-2.5c-0.2-0.5-0.1-1,0.2-1.4
				c1.2-1.8,2.6-3.6,3.9-5.3c1.8-2.5,3.7-5,5.6-7.4c1.7-2.1,3.5-4,5.8-5.4c1.5-1,3.2-1.7,5-2.1c1.3-0.3,2.6-0.2,3.9-0.1
				c3.1,0.3,5.7,1.9,7.8,4.1c1.2,1.3,1.8,2.9,2,4.6c0.6,4.5-0.2,8.8-2.2,12.9c-2.1,4.5-4.5,8.9-6.9,13.2c-0.3,0.5-0.3,0.5-0.7,0.1
				c-0.7-0.6-1.4-1.2-2.2-1.7c-0.2-0.1-0.1-0.2,0-0.4c0.6-0.9,1.2-1.9,1.7-2.9c2.2-3.9,4-8,5.1-12.3c0.6-2.2,1-4.5,0.7-6.8
				c-0.2-1.6-0.6-3.2-1.6-4.5c-1.1-1.4-2.6-2.1-4.3-2.2c-1.5-0.1-2.9,0.2-4.3,0.7c-1.5,0.6-2.9,1.5-4.1,2.7
				c-2.1,1.9-3.8,4.1-5.5,6.4c-2.1,2.8-4.2,5.7-6.1,8.7c-0.1,0.2-0.2,0.2-0.4,0.1c-0.7-0.6-1.5-1.3-2.3-1.8
				c-0.2-0.1-0.4-0.2-0.7-0.2c-0.3,0-0.5,0.3-0.3,0.5c0.4,0.6,0.4,1.2,0.6,1.9c0.3,1,0.5,2,0.8,2.9C24.5,34.2,24.5,34.3,24.4,34.4
				C24.5,34.4,24.5,34.4,24.4,34.4z"/>
			<path class="st5" d="M47.4,13.2c2.1,0.4,3.4,1.7,4.1,3.6c0.6,1.7,0.6,3.4,0.4,5.2c-0.6,4.3-2,8.3-3.8,12.1
				c-1,2.2-2.2,4.3-3.5,6.3c-0.2,0.4-0.2,0.4-0.5,0.1c-0.2-0.2-0.5-0.5-0.7-0.7c-0.2-0.2-0.2-0.3-0.1-0.6c0.9-1.6,1.8-3.3,2.5-5
				c1.2-2.9,2.5-5.7,3.7-8.6c0.8-1.9,1.2-3.8,1-5.8c-0.2-2.2-0.9-4.1-2.2-5.9C47.9,13.7,47.7,13.5,47.4,13.2z"/>
			<path class="st5" d="M45.7,6.8c-0.6,0.1-1.2,0.1-1.8,0.2c-2.9,0.6-5.5,1.9-7.8,3.8c-2.2,1.9-4.1,4.2-5.9,6.5
				c-2.3,3.1-4.7,6.2-7,9.4c-0.2,0.2-0.3,0.5-0.5,0.7c-0.1,0.1-0.2,0.2-0.3,0c-0.3-0.4-0.6-0.9-1-1.3c-0.2-0.2,0-0.4,0.1-0.5
				c0.9-1.2,1.7-2.4,2.6-3.6c2.2-3.2,4.6-6.2,7.3-9.1c2.1-2.2,4.4-4,7-5.5c1.4-0.8,2.9-1.1,4.5-1C43.9,6.5,44.8,6.6,45.7,6.8z"/>
			<path class="st7" d="M43,44.4c0.6,1.3,1.1,2.6,1.7,3.8c0.2,0.4,0.2,0.6-0.1,0.9c-0.1,0-0.1-0.2-0.2-0.3c-0.5-1.3-1-2.6-1.7-3.7
				C42.5,44.8,42.9,44.6,43,44.4z"/>
			<path class="st7" d="M45.1,48.2c-0.4-1-0.8-1.9-1.3-2.9c-0.1-0.2-0.2-0.5-0.4-0.7c-0.3-0.6-0.3-0.6,0.2-1.1
				c0.2,0.5,0.3,1,0.5,1.4c0.3,0.9,0.7,1.7,1,2.6C45.3,47.8,45.4,48,45.1,48.2z"/>
			<path class="st7" d="M23.9,35.3c-0.2-0.8-0.4-1.5-0.6-2.3c-0.2-0.9-0.5-1.9-0.8-2.8c-0.1-0.3,0-0.5,0.2-0.8
				c0.4,1.8,0.9,3.5,1.4,5.3C24.1,35,24.1,35.2,23.9,35.3z"/>
			<path class="st7" d="M43.7,43.4c0-0.1,0.1-0.2,0.1-0.2c0.1-0.1,0.1-0.2,0.2-0.2c0.1,0,0.1,0.1,0.1,0.2c0.3,1,0.7,1.9,1.1,2.8
				c0.1,0.3,0.3,0.6,0.4,0.9c0,0.1,0.1,0.2,0,0.3c0,0.1-0.1,0.2-0.2,0.2c-0.1,0-0.1-0.1-0.1-0.2c-0.5-1.2-1-2.5-1.6-3.7
				C43.8,43.5,43.8,43.4,43.7,43.4z"/>
			<path class="st7" d="M23.1,36.2c-0.4-0.2-0.5-0.4-0.6-0.7c-0.3-1.3-0.6-2.5-1-3.7c-0.1-0.2,0-0.3,0.2-0.5
				C22,32.9,22.5,34.5,23.1,36.2z"/>
			<path class="st7" d="M44.5,42.2c0.5,1.4,1.1,2.7,1.6,4c0,0.1,0,0.1,0,0.2c0,0.1,0,0.2-0.1,0.2c-0.1,0-0.1-0.1-0.1-0.2
				c-0.3-0.8-0.7-1.7-1-2.5c-0.1-0.4-0.3-0.7-0.5-1C44.2,42.7,44.2,42.5,44.5,42.2z"/>
			<path class="st7" d="M44.4,49.6c-0.3-0.1-0.4-0.2-0.5-0.5c-0.5-1.1-1-2.2-1.5-3.3c-0.1-0.3,0-0.4,0.2-0.6
				C43,46.7,43.7,48.1,44.4,49.6z"/>
			<path class="st7" d="M23.4,36c-0.2-0.6-0.3-1.1-0.5-1.7c-0.3-1.1-0.6-2.3-1-3.4c-0.1-0.2,0-0.4,0.2-0.6c0.2,0.7,0.3,1.3,0.5,2
				c0.3,1.1,0.6,2.1,0.9,3.2C23.5,35.7,23.6,35.9,23.4,36z"/>
			<path class="st7" d="M44.7,42c0.3,0.1,0.5,0.2,0.6,0.5c0.3,1,0.8,1.9,1.2,2.8c0,0.1,0.1,0.2,0.1,0.3c0,0.1,0,0.3-0.2,0.4
				c-0.1,0-0.1-0.2-0.2-0.3c-0.5-1.2-0.9-2.4-1.5-3.5C44.8,42.2,44.7,42.1,44.7,42z"/>
			<path class="st7" d="M21.2,35c-0.6-0.4-0.4-1.1-0.8-1.5c0,0.3,0,0.6,0,0.9c-0.2-0.1-0.3-0.2-0.5-0.3c-0.1-0.1-0.1-0.2,0-0.3
				c0.3-0.3,0.5-0.7,0.8-1C20.8,33.5,21,34.1,21.2,35z"/>
			<path class="st7" d="M23.7,29.8c0.3,0.1,0.5,0.3,0.5,0.6c0.2,1,0.5,2,0.8,2.9c0.1,0.2,0.1,0.4-0.1,0.5
				C24.5,32.5,24.1,31.2,23.7,29.8z"/>
			<path class="st7" d="M41.7,46.3c0.2,0.8,0.6,1.4,0.8,2.1c-0.4-0.4-0.5-1-1-1.5c-0.1,0.3,0.1,0.6,0.1,0.9c0,0-0.1,0-0.1,0
				c-0.6-0.3-0.6-0.3-0.2-0.9C41.4,46.8,41.5,46.6,41.7,46.3z"/>
			<path class="st7" d="M21.6,29.3c-0.1,0-0.1-0.1-0.2-0.1c-0.3-0.5-0.6-1-1.1-1.4c-0.2-0.2,0-0.3,0.1-0.4c0.1-0.1,0.2,0.1,0.2,0.1
				c0.3,0.4,0.6,0.9,0.9,1.3C21.7,29,21.7,29.3,21.6,29.3z"/>
			<path class="st7" d="M43.5,41.9c-0.3-0.4-0.7-0.7-1.1-1c-0.2-0.2,0-0.3,0.1-0.4c0.1-0.2,0.2,0,0.3,0.1c0.2,0.2,0.5,0.4,0.7,0.6
				C43.8,41.5,43.8,41.5,43.5,41.9z"/>
			<path class="st7" d="M20.5,31.1c-0.1,0-0.1-0.1-0.2-0.1c-0.3-0.5-0.6-1.1-1.1-1.5c-0.2-0.2-0.1-0.3,0-0.4
				c0.2-0.1,0.2,0.1,0.2,0.2c0.3,0.4,0.6,0.9,1,1.3c0.1,0.1,0.2,0.3,0.1,0.5C20.6,31.1,20.5,31.1,20.5,31.1z"/>
			<path class="st7" d="M22,35.5c-0.2,0-0.2-0.2-0.3-0.3c-0.2-0.9-0.4-1.7-0.7-2.5c-0.1-0.2,0-0.4,0.2-0.6
				C21.3,33.2,21.7,34.3,22,35.5z"/>
			<path class="st7" d="M45.8,42.8c0.3,0.2,0.5,0.4,0.6,0.8c0.1,0.4,0.3,0.8,0.5,1.2c0,0.1,0.1,0.2,0.1,0.2c0,0.1,0,0.2-0.1,0.3
				c-0.1,0-0.1-0.1-0.1-0.2c-0.3-0.7-0.6-1.4-1-2.1C45.8,42.9,45.8,42.8,45.8,42.8z"/>
			<path class="st7" d="M42.4,43.6c-0.1,0-0.1-0.1-0.2-0.1c-0.3-0.2-0.6-0.5-0.9-0.7c-0.3-0.2-0.1-0.3,0-0.4c0.1-0.2,0.2,0,0.3,0.1
				c0.3,0.3,0.5,0.5,0.8,0.8c0.1,0.1,0.2,0.2,0.1,0.3C42.5,43.4,42.4,43.5,42.4,43.6z"/>
			<path class="st7" d="M24.5,30.4c0.3,0.2,0.9,2.4,0.8,2.7C25,32.2,24.8,31.4,24.5,30.4z"/>
			<path class="st7" d="M19.7,32.5c0-0.1-0.1-0.1-0.1-0.2c-0.3-0.6-0.7-1.1-1.1-1.6c-0.1-0.1-0.1-0.1-0.1-0.2c0,0,0-0.1,0.1-0.1
				s0.1,0,0.1,0.1c0.3,0.6,0.7,1.1,1.2,1.7C19.9,32.2,19.9,32.3,19.7,32.5C19.8,32.4,19.8,32.4,19.7,32.5z"/>
			<path class="st7" d="M21.9,28.7c-0.1,0-0.1,0-0.1-0.1c-0.3-0.5-0.7-0.9-1-1.4c-0.1-0.1-0.1-0.2,0-0.3c0.1-0.1,0.2,0.1,0.2,0.1
				c0.3,0.5,0.7,0.9,1,1.4C22.1,28.5,22.1,28.6,21.9,28.7z"/>
			<path class="st7" d="M41.6,41.9c0-0.1,0.1-0.1,0.1-0.2c0.1-0.1,0.1,0,0.2,0c0.3,0.3,0.6,0.5,0.9,0.8c0.1,0.1,0.2,0.2,0.1,0.3
				c-0.1,0.2-0.2,0-0.3,0c-0.3-0.2-0.6-0.5-0.9-0.7C41.7,42,41.6,42,41.6,41.9z"/>
			<path class="st7" d="M41,42.8c0,0,0.1,0.1,0.1,0.1c0.3,0.3,0.6,0.6,0.9,0.9c0.1,0.1,0.2,0.1,0.1,0.2c-0.1,0.1-0.2,0-0.2-0.1
				c-0.3-0.3-0.6-0.5-0.9-0.7c-0.1,0-0.2-0.1-0.1-0.2C40.8,42.9,40.9,42.8,41,42.8z"/>
			<path class="st7" d="M21,30.4c-0.4-0.5-0.8-1-1.1-1.4c-0.1-0.1-0.1-0.2-0.2-0.2c-0.1-0.1,0-0.2,0.1-0.3c0.1-0.1,0.1,0,0.2,0.1
				c0.3,0.6,0.7,1.1,1.1,1.7C21,30.3,21,30.3,21,30.4z"/>
			<path class="st7" d="M20,28c0,0,0-0.1,0.1-0.2c0.1,0,0.1,0.1,0.1,0.1c0.3,0.5,0.6,1,1,1.5c0.1,0.1,0.2,0.2,0.1,0.3
				c-0.1,0.1-0.2-0.1-0.2-0.2c-0.3-0.5-0.6-0.9-1-1.3C20,28.3,20,28.2,20,28z"/>
			<path class="st7" d="M40.4,43.6c0.1-0.1,0.1-0.1,0.1-0.2c0.1-0.1,0.1,0,0.2,0c0.3,0.3,0.6,0.6,0.9,0.8c0.1,0.1,0.1,0.1,0.1,0.2
				c-0.1,0.1-0.1,0.1-0.2,0c-0.3-0.3-0.6-0.6-1-0.8C40.5,43.7,40.4,43.6,40.4,43.6z"/>
			<path class="st7" d="M43.1,42.1c-0.2,0.1-0.2,0-0.3-0.1c-0.2-0.1-0.4-0.3-0.6-0.4c-0.3-0.2-0.3-0.3,0-0.5
				C42.5,41.4,42.8,41.8,43.1,42.1z"/>
			<path class="st7" d="M25.6,31.3c0.7,0.4,0.7,0.4,0.3,0.9C25.8,31.9,25.7,31.6,25.6,31.3z"/>
			<path class="st7" d="M46.9,43.7c0.2,0.1,0.3,0.2,0.5,0.4c0.2,0.2,0,0.4-0.1,0.5c-0.1,0.1-0.2,0-0.2-0.1
				C47.1,44.2,47,43.9,46.9,43.7C46.9,43.7,46.9,43.7,46.9,43.7z"/>
			<path class="st7" d="M25.6,32.6c-0.2-0.5-0.3-1-0.5-1.5c0,0,0.1,0,0.1,0C25.4,31.5,25.6,32,25.6,32.6
				C25.7,32.5,25.7,32.6,25.6,32.6z"/>
			<path class="st7" d="M40.6,45.2c-0.3-0.2-0.5-0.4-0.8-0.6c-0.1,0-0.2-0.1-0.1-0.2c0.1-0.1,0.2,0,0.2,0
				C40.2,44.7,40.4,45,40.6,45.2C40.6,45.2,40.6,45.2,40.6,45.2z"/>
			<path class="st7" d="M40.8,44.6c-0.2-0.1-0.4-0.3-0.6-0.4c-0.1-0.1-0.2-0.1-0.1-0.2c0.1-0.1,0.2,0,0.2,0.1
				C40.5,44.2,40.7,44.4,40.8,44.6z"/>
			<path class="st7" d="M42.2,46.8c-0.1-0.2-0.2-0.3-0.3-0.5c0-0.1-0.1-0.2,0-0.2c0.1,0,0.1,0.1,0.1,0.1
				C42.2,46.4,42.2,46.6,42.2,46.8C42.3,46.8,42.3,46.8,42.2,46.8z"/>
			<path class="st7" d="M43.2,40.5c-0.2-0.1-0.3-0.2-0.5-0.3c-0.1,0-0.1-0.1,0-0.2s0.1,0,0.1,0C43,40.2,43.1,40.3,43.2,40.5
				C43.2,40.5,43.2,40.5,43.2,40.5z"/>
			<path class="st7" d="M43.2,48.8c-0.2-0.2-0.4-0.5-0.4-0.9C43,48.2,43.1,48.5,43.2,48.8z"/>
			<path class="st7" d="M19.2,30.3c-0.1-0.1-0.2-0.2-0.3-0.3c-0.1-0.1-0.2-0.2-0.1-0.2c0.1-0.1,0.2,0,0.2,0.1
				C19.1,30,19.2,30.2,19.2,30.3C19.3,30.3,19.2,30.3,19.2,30.3z"/>
			<path class="st7" d="M40.8,45.5C40.8,45.4,40.9,45.4,40.8,45.5c0.1,0,0.2,0,0.2,0c0,0,0,0.1,0,0.1C40.9,45.5,40.9,45.5,40.8,45.5
				z"/>
			<path class="st7" d="M19.3,30.3C19.3,30.3,19.3,30.4,19.3,30.3C19.3,30.4,19.2,30.4,19.3,30.3C19.2,30.3,19.3,30.3,19.3,30.3z"/>
			<path class="st7" d="M46.9,43.7C46.8,43.7,46.8,43.6,46.9,43.7C46.9,43.6,46.9,43.6,46.9,43.7C46.9,43.7,46.9,43.7,46.9,43.7z"/>
			<path class="st7" d="M40.7,45.3C40.6,45.3,40.6,45.2,40.7,45.3c-0.1-0.1,0-0.1,0-0.1C40.7,45.2,40.7,45.2,40.7,45.3
				C40.7,45.3,40.7,45.3,40.7,45.3z"/>
			<path class="st7" d="M40.7,45.2c0,0,0.1,0.1,0,0.1C40.7,45.4,40.7,45.3,40.7,45.2C40.7,45.3,40.7,45.3,40.7,45.2z"/>
			<path class="st7" d="M42.3,56.3C42.3,56.3,42.3,56.3,42.3,56.3C42.2,56.3,42.2,56.2,42.3,56.3C42.3,56.2,42.3,56.2,42.3,56.3z"/>
		</g>
	</g>
</g>
</svg>
