<?xml version="1.0" encoding="utf-8"?>
<!-- Generator: Adobe Illustrator 25.0.0, SVG Export Plug-In . SVG Version: 6.00 Build 0)  -->
<svg version="1.1" id="Layer_1" xmlns="http://www.w3.org/2000/svg" xmlns:xlink="http://www.w3.org/1999/xlink" x="0px" y="0px"
	 viewBox="0 0 375 484" style="enable-background:new 0 0 375 484;" xml:space="preserve">
<style type="text/css">
	.st0{fill:#FFFFFF;}
	.st1{fill:#2F1664;}
	.st2{fill:#F9F4F2;stroke:#2F1664;stroke-width:4;stroke-linecap:round;stroke-linejoin:round;stroke-miterlimit:10;}
	.st3{fill:none;stroke:#2F1664;stroke-width:4;stroke-linecap:round;stroke-linejoin:round;stroke-miterlimit:10;}
</style>
<path class="st0" d="M369.5,414.2c-1.1-4.2-4.3-7.8-9-8.6c-1.6-1.2-3.6-2.6-5.5-3.3c-9.5-6.4-20.3-10.4-31.6-13.5
	c-14.3-4-28.9-8.4-43.9-8.1c-13.9-3.4-28.2-4.8-42.4-4.9c-7.5,0-14.9,0.3-22.4,0.9c-4,0.3-8.3,0.4-12.2,1.4
	c-0.8,0.2-1.6,0.5-2.4,0.8c-0.9-0.2-1.8-0.4-2.7-0.5c-5.2-0.6-10,1.3-15,2.1c-3.6,0.6-9.6,1.2-14,1.8c-4.9,0.7-9.8,1.5-14.7,2.4
	c-2.5,0.4-4.9,0.7-7.3,1.5c-1.1,0.4-2.1,0.9-3.2,1.4c-1.9-0.2-3.6,0.2-5.2,1.1c-2.5,0.2-5,0.5-7.5,0.8c-16.8,2-31.6,9.7-41.3,23.7
	c-2,2.3-3.5,5-4.3,8c-0.8,3-0.4,6.5,1.2,9.2c0.4,0.7,0.9,1.4,1.5,2c1.9,2.3,4.9,3.9,8.8,3.9c4.1,0,7.1-1.7,9-4.2
	c1-1.1,1.7-2.3,2.2-3.7c0-0.1,0.1-0.1,0.1-0.2c1.5-1.3,2.7-2.8,3.5-4.7c6.5-7.3,15.9-10,25.9-10.8c15.4-1.2,30.8-2.4,46.3-3.6
	c3.4-0.3,6.6-1.7,8.8-4.1c0.1,0,0.1,0,0.2,0.1c4.6,0.8,8.5,0.6,12.7-1.8c2.4-1.4,3.1-2.1,5.7-2.4c7.7-0.7,15.5-1.2,23.3-1.2
	c12-0.1,23.9,0.8,35.6,3.3c1.8,1.2,4,1.9,6.3,1.7c0.3,0,0.5,0,0.8,0c0.3,0.1,0.7,0.2,1,0.3c1.9,0.5,3.6,0.6,5.2,0.4
	c4.1,0.4,8.2,0.9,12.3,1.9c4.7,1.1,9.1,2.9,13.9,3.6c1.6,0.3,3.3,0.3,4.9,0c3,0.9,6,1.8,8.9,2.6c5.2,1.5,9.8,3.6,14.4,6
	c0.9,1.9,2.5,3.6,4.7,4.8c4.2,2.3,8.1,4.7,12,7.5c5.3,3.8,13.4,0.9,16.4-4.3C373.4,423,372.5,417.9,369.5,414.2z"/>
<path class="st1" d="M362.4,402.1c-7.5-5.5-18.1-10.4-31.5-14.6c-27.3-8.4-63.5-13.1-101.9-13.1s-74.7,4.6-101.9,13.2
	c-13.5,4.2-24.1,9.1-31.5,14.6C87.2,408.3,83,414.9,83,422c0,4.3,1.6,8.5,4.7,12.5c5.1,6.5,14.3,12.5,27.3,17.7
	c12.5,5,27.9,9,45.7,12c20.8,3.5,44.4,5.3,68.1,5.3s47.3-1.9,68.1-5.3c17.8-3,33.2-7,45.8-12c13-5.1,22.2-11.1,27.3-17.7
	c3.2-4,4.7-8.3,4.7-12.5C375,414.9,370.8,408.3,362.4,402.1z M367.6,430.5c-6.6-7.5-19.3-14.3-37.2-19.9
	c-27.1-8.4-63.1-13.1-101.4-13.1s-74.3,4.6-101.4,13.1c-17.9,5.5-30.5,12.4-37.2,19.9c-1.8-2.5-2.8-5.5-2.9-8.5
	c0-11.1,14.9-22,41-30.1c26.9-8.3,62.6-12.9,100.6-12.9s73.7,4.6,100.6,12.9c26,8.1,41,19.1,41,30.1
	C370.4,425,369.4,428,367.6,430.5L367.6,430.5z"/>
<g>
	<g>
		<path class="st2" d="M123.3,161.8c-9.8-39.2-4.2-77.7-14.1-117.7c-2.3-9.4-6.6-9.6-9.7-0.4c-12.8,37.3-8.2,76-8.3,113.8
			c0,4.4,0,8.8-0.1,13.1c-0.1,4.7,0.3,9.5,1.6,14.1c0.8,2.9,1.7,5.7,2.7,8.5c1.9,5.3,4.2,10.5,6.9,15.4c17.1,32.7,47.9,56,69.5,85.5
			c27.1,37,33.3,70.9,22.6,113.6c-2.4,9.8-7.6,22-7.3,32.1c0.3,10.5,3.3,10.3,14.3,10.2c24.1-0.3,82.9-14.6,81.8-30.4
			c-1.6-21.5-9.1-73.3-7.5-95.1c1.2-17.4,1.7-21.4,4.1-38.5c9.4-66.9-62.4-87.8-68.8-148.5c-1.8-17.5-3.1-56.7-3.3-59.7
			c-0.6-6.7-10.3-12-13.3-6c-1.6,3.2-6.2,14.3-6.3,17.1"/>
		<path class="st3" d="M155,177.1c15.6-3,30.8-11.6,46.9-11.7"/>
		<path class="st2" d="M161.8,124.6c1.8-19.9,4.8-43.6,7-63.4c0.7-6.4,0.8-17.5,9.8-13.2c2.2,1,3.7,2.9,4.9,4.9
			c4.7,8.1,4.1,18.5,4.4,27.5c0.8,30.1-4,55.8,6.4,84.8"/>
		<path class="st2" d="M127.9,134.4c-0.5-34.3,1.1-71.8,2.9-106c0.2-4.6,2-15.3,7.5-17.4c7.9-3,9.6,16.5,11.2,21.3
			c1.7,5.4,3.2,10.9,4.3,16.5c2.3,10.9,3.6,21.9,4.5,32.9c1.8,22.3,3.1,41,5.2,63.3c0.7,7.6,1,16.5,7.7,27.4"/>
		<path class="st2" d="M125.5,223.4c-5.3-23.5-3.8-54.3-0.3-78.2c1.2-8,3.8-14.4,10.5-19.6c4.5-3.5,10.4-1.9,13.1,3
			c4.4,7.8,3.3,18.1,3.8,26.7c0.7,9.8,1.5,20.7,5.7,29.7s10.6,17,18.6,22.9c4.4,3.3,9.3,5.9,14.5,7.8c24.1,9,41.4,20.2,51.9,45"/>
	</g>
</g>
</svg>
