<?xml version="1.0" encoding="utf-8"?>
<!-- Generator: Adobe Illustrator 25.0.0, SVG Export Plug-In . SVG Version: 6.00 Build 0)  -->
<svg version="1.1" id="Layer_1" xmlns="http://www.w3.org/2000/svg" xmlns:xlink="http://www.w3.org/1999/xlink" x="0px" y="0px"
	 viewBox="0 0 500 500" style="enable-background:new 0 0 500 500;" xml:space="preserve">
<style type="text/css">
	.st0{fill:#FFFFFF;}
	.st1{opacity:0.3;}
	.st2{fill:#371A45;}
	.st3{opacity:0.2;}
	.st4{fill:#E56399;}
	.st5{opacity:0.7;}
	.st6{fill:#FDE977;}
	.st7{fill:#E2E8E8;}
	.st8{fill:#E5E5E5;}
	.st9{fill:#C93535;}
	.st10{fill:#D1D1D1;}
	.st11{opacity:0.5;}
	.st12{fill:#4969DB;}
	.st13{clip-path:url(#SVGID_5_);}
	.st14{filter:url(#Adobe_OpacityMaskFilter);}
	.st15{clip-path:url(#SVGID_6_);}
	.st16{clip-path:url(#SVGID_10_);}
	.st17{clip-path:url(#SVGID_11_);fill:url(#SVGID_12_);}
	.st18{clip-path:url(#SVGID_6_);mask:url(#SVGID_7_);fill:url(#SVGID_13_);}
	.st19{opacity:0.7;fill:url(#SVGID_14_);enable-background:new    ;}
	.st20{clip-path:url(#SVGID_17_);}
	.st21{filter:url(#Adobe_OpacityMaskFilter_1_);}
	.st22{clip-path:url(#SVGID_18_);}
	.st23{clip-path:url(#SVGID_22_);}
	.st24{clip-path:url(#SVGID_23_);fill:url(#SVGID_24_);}
	.st25{clip-path:url(#SVGID_18_);mask:url(#SVGID_19_);fill:url(#SVGID_25_);}
	.st26{opacity:0.7;fill:url(#SVGID_26_);enable-background:new    ;}
	.st27{fill:#1C7AEA;}
	.st28{opacity:0.35;}
	.st29{fill:#111A28;}
	.st30{opacity:0.14;}
	.st31{fill:#070707;}
</style>
<g>
	<g>
		<g>
			<g>
				<path class="st0" d="M255.6,182.5l2.1,10.9l1.1,5.5l18.4,95.4c0,0-6.6,0.9-15.5,1.4c-1.7,0.1-3.6,0.2-5.5,0.2
					c-14.1,0.4-31.4-0.6-38.6-7c-10.9-9.6-18.7-61.7-12.6-83.4c2.8-10,22.3-16.5,36.2-19.9c1.6-0.4,3.1-0.7,4.4-1
					C251.5,183.2,255.6,182.5,255.6,182.5z"/>
			</g>
			<g class="st1">
				<path class="st2" d="M257.7,193.4l1.1,5.5l14.6,75.7l3.8,19.6c0,0-0.1,0-0.4,0.1c-0.1,0-0.2,0-0.3,0c-0.1,0-0.2,0-0.2,0
					c-0.1,0-0.1,0-0.2,0c0,0-0.1,0-0.1,0c-0.1,0-0.3,0-0.4,0c0,0-0.1,0-0.1,0c-0.1,0-0.2,0-0.4,0c-0.2,0-0.4,0-0.5,0.1
					c-0.1,0-0.3,0-0.4,0c-0.1,0-0.3,0-0.4,0c-0.2,0-0.4,0-0.6,0.1c-0.4,0-0.9,0.1-1.3,0.1c-0.4,0-0.9,0.1-1.3,0.1
					c-0.5,0-1.1,0.1-1.6,0.1c-2.1,0.2-4.5,0.4-7.2,0.5c-0.5,0-1,0.1-1.6,0.1c-0.4,0-0.7,0-1.1,0c-0.9,0-1.8,0.1-2.8,0.1
					c-14.1,0.4-31.4-0.6-38.6-7c-9-7.9-15.8-44.6-14.6-69.5c1.8,21.3,7.4,43.6,14.1,49.5c3.3,2.9,13.2-10.5,12.1-17.2
					c-3-17.4-3.3-40.3,10.9-55.9C240.4,195.5,250,195.3,257.7,193.4z"/>
			</g>
			<g>
				<path class="st2" d="M251.2,298.1c-13.3,0-28.1-1.5-35-7.6c-11.4-10.1-19.6-62.9-13.2-85.6c2-7.3,11.6-13.6,28.4-18.8
					c12.1-3.8,23.5-5.5,24-5.6l2-0.3l22.3,115.9l-2.2,0.3C276.5,296.5,264.6,298.1,251.2,298.1z M253.9,184.9
					c-13.7,2.4-43.8,9.8-46.9,21.1c-5.8,20.7,1.8,72.4,12,81.3c10.8,9.5,46.4,6.2,55.7,5.2L253.9,184.9z"/>
			</g>
			<g>
				<path class="st0" d="M208.5,250l19.1-1.3c1.7-0.1,3.3,0.9,3.8,2.5c2,5.9,5.9,19.8,0.6,25.4c-4.3,4.6-12.4,5.3-17.6,2
					c-5.9-3.7-8.4-17.5-9.3-24.4C204.8,252,206.3,250.1,208.5,250z"/>
			</g>
			<g class="st1">
				<path class="st2" d="M231.4,251.2c2,5.9,5.9,19.8,0.6,25.4c-4.3,4.6-12.4,5.3-17.6,2c-3.6-2.3-6-8.4-7.4-14.3
					c1.3,2.9,3,5.2,4.9,6.5c10.8,7.8,16.4-4.1,16.4-4.1s1.6,2.5,2.6,2.5c4.2,0,1.5-12.7-0.1-19.2C231,250.3,231.2,250.7,231.4,251.2
					z"/>
			</g>
			<g>
				<path class="st2" d="M221.8,282.7c-3,0-6-0.8-8.6-2.4c-6.2-3.9-9-16.2-10.3-25.9c-0.2-1.6,0.2-3.2,1.3-4.5c1-1.2,2.5-2,4.1-2.1
					l19.1-1.3c2.7-0.2,5.1,1.4,5.9,4c2.6,7.6,6,21.3,0.2,27.5C230.6,281.1,226.2,282.7,221.8,282.7z M208.5,250l0.1,2.1
					c-0.5,0-0.9,0.2-1.2,0.6c-0.3,0.4-0.4,0.8-0.4,1.3c1.6,12.1,4.7,20.6,8.3,22.9c4.6,2.9,11.4,2.1,15-1.7c3.1-3.3,2.7-12-1.1-23.3
					c-0.2-0.7-0.9-1.2-1.7-1.1l-19.1,1.3L208.5,250z"/>
			</g>
			<g>
				<path class="st2" d="M222,279c6.3-4.9,5.8-15.7,3.7-22.7c-0.3-0.6,0.6-1.2,1-0.5c1.5,3.1,2,6.4,2.5,9.8c0.8,5.8-0.4,12.5-5,16.5
					C221.9,283.9,219.5,280.4,222,279L222,279z"/>
			</g>
			<g>
				<path class="st2" d="M233.3,200.9c-9.1,0.9-18.5,1.8-27,5c-2.6,1-4.1-2.8-1.6-3.9c7-2.2,14.2-2.6,21.5-3
					c2.4-0.1,4.7-0.2,7.1-0.2c0.6,0,1.1,0.5,1.1,1.1C234.3,200.4,233.9,200.9,233.3,200.9L233.3,200.9z"/>
			</g>
		</g>
		<g>
			<g>
				<path class="st0" d="M314.1,179.1l47.4,37.2c11.2-3.7,22.4,0,27,11.3l-40.3,15.8L305,192.3L314.1,179.1z"/>
			</g>
			<g>
				<path class="st2" d="M348.1,245.6c-0.6,0-1.3-0.3-1.7-0.8l-43.1-51.1c-0.6-0.8-0.7-1.9-0.1-2.7l9.1-13.2
					c0.3-0.5,0.9-0.8,1.5-0.9c0.6-0.1,1.2,0.1,1.7,0.5l46.5,36.5c12.6-3.7,23.9,1.4,28.6,12.9c0.2,0.6,0.2,1.2,0,1.7
					c-0.2,0.5-0.7,1-1.2,1.2l-40.3,15.8C348.7,245.6,348.4,245.6,348.1,245.6z M307.8,192.2l41,48.6l36.6-14.4
					c-4.4-8.2-13.2-11.3-23.2-8c-0.7,0.2-1.5,0.1-2.1-0.4l-45.5-35.7L307.8,192.2z"/>
			</g>
			<g>
				<path class="st2" d="M335.2,230.3c-1,0-2-0.7-2.2-1.8c-2.5-12.1,3.5-19.5,10.5-26.6c0.9-0.9,2.3-0.9,3.2,0
					c0.9,0.9,0.9,2.3,0,3.2c-6.6,6.7-11.4,12.6-9.4,22.6c0.3,1.2-0.5,2.4-1.7,2.6C335.5,230.3,335.4,230.3,335.2,230.3z"/>
			</g>
			<g>
				<circle class="st0" cx="346.7" cy="223.3" r="5.6"/>
			</g>
			<g>
				<path class="st2" d="M346.7,231.1c-4.3,0-7.8-3.5-7.8-7.8c0-4.3,3.5-7.8,7.8-7.8c4.3,0,7.8,3.5,7.8,7.8
					C354.5,227.6,351,231.1,346.7,231.1z M346.7,219.9c-1.8,0-3.3,1.5-3.3,3.3c0,1.8,1.5,3.3,3.3,3.3c1.8,0,3.3-1.5,3.3-3.3
					C350.1,221.4,348.6,219.9,346.7,219.9z"/>
			</g>
			<g class="st3">
				<path class="st2" d="M325.5,201.9l45.9,26.9l-21.7,7.6C345.2,223.2,336.1,212.2,325.5,201.9z"/>
			</g>
		</g>
		<g>
			<g>
				<g>
					<path class="st4" d="M333.2,447c-0.1,7.3-3.9,14.1-10,18.1c-19.4,12.6-39.5,22.7-60.5,29.3c-3.5,1.1-7,2.1-10.6,3
						c-6.5,0.2-8.8-1.7-5.7-6.7l30.9-27.2c4-3.5,6.1-8.7,5.5-13.9c-0.7-6.1-3.4-13.1-6.6-20.4l48.4-15.9c2.7,6.1,5.2,13,6.8,19.7
						C332.5,437.8,333.2,442.6,333.2,447z"/>
				</g>
				<g class="st5">
					<path class="st0" d="M331.3,433c-1.6-6.7-4.1-13.6-6.8-19.7l-3.9,1.3c1.9,4.8,3.6,9.9,4.8,14.8c1.2,4.9,1.9,9.7,1.8,14.1
						c-0.1,7.3-3.9,14.1-10,18.1c-19.4,12.6-39.5,22.7-60.5,29.3c-3.5,1.1-7,2.1-10.6,3c-0.4,0-0.7,0-1.1,0c-0.4,2.7,2.1,3.8,7,3.6
						c3.6-0.9,7.1-1.9,10.6-3c21-6.6,41.1-16.7,60.5-29.3c6.1-4,9.9-10.8,10-18.1C333.2,442.6,332.5,437.8,331.3,433z"/>
				</g>
				<g>
					<path class="st2" d="M251,500c-2.9,0-6.4-0.5-7.9-3.1c-1.1-2-0.8-4.5,1.1-7.5c0.1-0.2,0.3-0.4,0.5-0.6l30.9-27.2
						c3.4-3,5.1-7.4,4.6-11.7c-0.7-6.4-3.8-13.9-6.4-19.7c-0.3-0.7-0.3-1.4,0-2.1c0.3-0.7,0.8-1.2,1.5-1.4l48.4-15.9
						c1.2-0.4,2.6,0.2,3.1,1.4c4.1,9.3,9,22.9,8.9,34.8c-0.1,8.1-4.2,15.7-11.1,20.2c-24.5,15.9-48,26.6-71.9,32.7
						c-0.2,0-0.4,0.1-0.5,0.1C251.8,500,251.4,500,251,500z M247.5,494.3c0.2,0.2,1.2,0.6,4.2,0.5c23.2-5.9,46.2-16.4,70.1-32
						c5.5-3.6,8.8-9.5,8.8-15.9c0.1-8.1-2.6-18.9-7.6-30.6l-43.5,14.3c2.5,5.7,5,12.5,5.7,18.6c0.7,6-1.7,12-6.3,16.1l-30.6,27
						C247.7,493.6,247.6,494.1,247.5,494.3z"/>
				</g>
			</g>
			<g>
				<g>
					<path class="st4" d="M228.6,278.1c-6.9-2.4-14.6-1.1-20.4,3.3c-18.4,14-34.7,29.6-48,47.1c-2.2,2.9-4.4,5.9-6.4,9
						c-2.4,6-1.3,8.9,4.3,7.6l36-19.9c4.6-2.6,10.2-2.8,15-0.5c5.5,2.7,11.3,7.6,17,13.1l31.3-40.2c-4.9-4.6-10.5-9.3-16.3-13.1
						C237,281.8,232.8,279.5,228.6,278.1z"/>
				</g>
				<g class="st5">
					<path class="st0" d="M241.2,284.5c5.8,3.8,11.4,8.5,16.3,13.1l-2.5,3.2c-3.9-3.4-8.1-6.7-12.4-9.5c-4.2-2.7-8.5-5-12.6-6.5
						c-6.9-2.4-14.6-1.1-20.4,3.3c-18.4,14-34.7,29.6-48,47.1c-2.2,2.9-4.4,5.9-6.4,9c-0.1,0.4-0.3,0.7-0.4,1
						c-2.7-0.5-2.8-3.3-1-7.8c2-3,4.2-6,6.4-9c13.3-17.6,29.5-33.1,48-47.1c5.8-4.4,13.5-5.7,20.4-3.3
						C232.8,279.5,237,281.8,241.2,284.5z"/>
				</g>
				<g>
					<path class="st2" d="M155.9,347.9c-2,0-3.5-0.6-4.5-1.8c-2.3-2.6-1-6.7,0.1-9.6c0.1-0.2,0.2-0.3,0.3-0.5
						c13.7-20.4,31.7-39,55-56.7c6.6-5,15.1-6.4,22.7-3.7c11.2,3.9,22.4,13.1,29.8,20.1c1,0.9,1.1,2.4,0.3,3.4l-31.3,40.2
						c-0.4,0.6-1.1,0.9-1.8,1c-0.7,0-1.4-0.2-1.9-0.7c-4.6-4.4-10.7-9.9-16.4-12.7c-3.9-1.9-8.7-1.8-12.6,0.4l-36,19.9
						c-0.2,0.1-0.4,0.2-0.7,0.3C157.7,347.8,156.8,347.9,155.9,347.9z M155.2,342.8c0.2,0.1,0.8,0.2,2.1-0.1l35.7-19.7
						c5.4-3,11.9-3.2,17.3-0.5c5.5,2.7,11.1,7.4,15.6,11.6l28.1-36.2c-9.4-8.6-18.7-14.8-26.3-17.4c-6.1-2.1-12.8-1-18,2.9
						c-22.7,17.3-40.3,35.4-53.7,55.2C155.1,341.4,155.2,342.5,155.2,342.8z"/>
				</g>
			</g>
			<g>
				<g>
					<g>
						<path class="st6" d="M203.9,455.2c0,0-19.7-6.8-32.8,32.4c-0.6,1.8,0.6,3.8,2.6,4c10.5,1.1,40,2.5,43.3-16.2L203.9,455.2z"/>
					</g>
					<g>
						<path class="st6" d="M205.9,458.1c0,0-14-4.9-23.3,23c-0.4,1.2,0.4,2.5,1.7,2.6c7.3,0.8,28.4,1.9,30.8-11.5L205.9,458.1z"/>
					</g>
					<g>
						<path class="st6" d="M208.2,459.9c0,0-9.4-3.3-15.7,15.5c-0.3,0.8,0.3,1.7,1.2,1.8c4.9,0.5,19.2,1.3,20.8-7.7L208.2,459.9z"/>
					</g>
					<g>
						<path class="st2" d="M184.4,494.1c-4.2,0-8-0.3-10.9-0.6c-1.5-0.2-2.9-1-3.7-2.3c-0.8-1.3-1-2.8-0.5-4.3
							c5.6-16.7,13.1-27.5,22.2-32c7.3-3.6,12.9-1.7,13.1-1.6c0.4,0.1,0.8,0.4,1,0.8l13.1,20.1c0.3,0.4,0.4,0.9,0.3,1.4
							C216.2,491.1,198.3,494.1,184.4,494.1z M200.3,456.7c-5.6,0-18,3.5-27.3,31.5c-0.1,0.4,0,0.7,0.1,0.9c0.1,0.2,0.4,0.4,0.8,0.5
							c8.8,0.9,37.3,2.6,41-13.9l-12.2-18.8C202.2,456.8,201.3,456.7,200.3,456.7z"/>
					</g>
				</g>
				<g>
					<path class="st7" d="M228.8,465.3c-2.6,6.8-8.5,10.6-8.5,10.6s-5.3-2.6-11.2-11.4c-5.9-8.8-6.3-14.6-6.3-14.6s5.9-3.9,13.3-3.6
						L228.8,465.3z"/>
				</g>
				<g>
					<path class="st2" d="M220.3,478c-0.3,0-0.6-0.1-0.9-0.2c-0.2-0.1-5.8-2.9-12-12.1c-6.2-9.1-6.6-15.3-6.7-15.6
						c0-0.7,0.3-1.5,0.9-1.9c0.3-0.2,6.6-4.2,14.5-4c1.1,0,2,1,2,2.1c0,1.1-1,2-2.1,2c-4.8-0.2-9,1.6-10.9,2.7
						c0.4,2,1.8,6.5,5.8,12.4c4,5.9,7.7,8.9,9.4,10.1c1.7-1.4,5-4.5,6.7-8.9c0.4-1.1,1.6-1.6,2.7-1.2c1.1,0.4,1.6,1.6,1.2,2.7
						c-2.8,7.3-9.1,11.4-9.3,11.6C221.1,477.9,220.7,478,220.3,478z"/>
				</g>
				<g>
					<path class="st4" d="M237.1,470.1c-11.5,4.4-19.1-7.4-20.9-10.1c-1.8-2.7-9.9-14.1-1.4-22.9c8.7-8.9,54.5-34.1,64.9-18.6
						C290.2,433.8,248.8,465.6,237.1,470.1z"/>
				</g>
				<g class="st5">
					<path class="st0" d="M214.5,457.3c-1.7-4.6-2.2-10.4,2.7-15.4c8.4-8.7,52.2-32.8,64.1-19.7c-0.2-1.4-0.7-2.6-1.5-3.8
						c-10.4-15.5-56.3,9.8-64.9,18.6C208,444,211.8,452.7,214.5,457.3z"/>
				</g>
				<g>
					<path class="st2" d="M232.1,473.6c-5.3,0-11.6-2.7-17.8-12l-0.3-0.4c-8.9-13.1-5.4-21.3-0.9-25.9c6.8-6.9,38.6-25.9,57.6-24.2
						c5.2,0.5,9,2.5,11.3,5.9c2.3,3.5,2.7,7.7,1.2,12.5c-5.7,17.9-35.9,39.5-45,43l0,0C236.3,473.1,234.3,473.6,232.1,473.6z
						 M268.1,416c-16.4,0-44.8,15.9-51.4,22.8c-4.6,4.8-4.1,11.1,1.5,19.5l0.3,0.5c5.6,8.4,11.4,11.3,17.7,8.9l0,0
						c9.4-3.6,37.2-24.7,42-39.7c1.1-3.3,0.9-6-0.6-8.1c-1.5-2.2-3.9-3.4-7.5-3.7C269.5,416,268.8,416,268.1,416z"/>
				</g>
				<g>
					<path class="st2" d="M253.4,461.4c-0.3,0-0.7-0.1-1-0.3c-11.2-8.9-19.3-20.8-23.3-34.5c-0.2-0.8,0.2-1.7,1-1.9
						c0.8-0.2,1.7,0.2,1.9,1c3.8,13.1,11.5,24.5,22.2,33c0.7,0.5,0.8,1.5,0.3,2.2C254.3,461.2,253.8,461.4,253.4,461.4z"/>
				</g>
				<g>
					<g>
						<path class="st6" d="M155.6,381.2c0,0-19.7-6.8-32.8,32.4c-0.6,1.8,0.6,3.8,2.6,4c10.5,1.1,40,2.5,43.3-16.2L155.6,381.2z"/>
					</g>
					<g>
						<path class="st6" d="M157.5,384.1c0,0-14-4.9-23.3,23c-0.4,1.2,0.4,2.5,1.7,2.6c7.3,0.8,28.4,1.9,30.8-11.5L157.5,384.1z"/>
					</g>
					<g>
						<path class="st6" d="M159.8,385.9c0,0-9.4-3.3-15.7,15.5c-0.3,0.8,0.3,1.7,1.2,1.8c4.9,0.5,19.2,1.3,20.8-7.7L159.8,385.9z"/>
					</g>
					<g>
						<path class="st2" d="M136.1,420.1c-4.2,0-8-0.3-10.9-0.6c-1.5-0.2-2.9-1-3.7-2.3c-0.8-1.3-1-2.8-0.5-4.3
							c5.6-16.7,13.1-27.5,22.2-32c7.3-3.6,12.9-1.7,13.1-1.6c0.4,0.1,0.8,0.4,1,0.8l13.1,20.1c0.3,0.4,0.4,0.9,0.3,1.4
							C167.9,417.1,149.9,420.1,136.1,420.1z M151.9,382.7c-5.6,0-18,3.5-27.3,31.5c-0.1,0.4,0,0.7,0.1,0.9c0.1,0.2,0.4,0.4,0.8,0.5
							c8.8,0.9,37.3,2.6,41-13.9l-12.2-18.8C153.8,382.8,153,382.7,151.9,382.7z"/>
					</g>
				</g>
				<g>
					<path class="st7" d="M180.5,391.3c-2.6,6.8-8.5,10.6-8.5,10.6s-5.3-2.6-11.2-11.4c-5.9-8.8-6.3-14.6-6.3-14.6s5.9-3.9,13.3-3.6
						L180.5,391.3z"/>
				</g>
				<g>
					<path class="st2" d="M171.9,404c-0.3,0-0.6-0.1-0.9-0.2c-0.2-0.1-5.8-2.9-12-12.1c-6.2-9.1-6.6-15.3-6.7-15.6
						c0-0.7,0.3-1.5,0.9-1.9c0.3-0.2,6.6-4.2,14.5-4c1.1,0,2,1,2,2.1c0,1.1-1,2-2.1,2c-4.8-0.2-9,1.6-10.9,2.7
						c0.4,2,1.8,6.5,5.8,12.4c4,5.9,7.7,8.9,9.4,10.1c1.7-1.4,5-4.5,6.7-8.9c0.4-1.1,1.6-1.6,2.7-1.2c1.1,0.4,1.6,1.6,1.2,2.7
						c-2.8,7.3-9.1,11.4-9.3,11.6C172.7,403.9,172.3,404,171.9,404z"/>
				</g>
				<g>
					<path class="st4" d="M188.8,396.1c-11.5,4.4-19.1-7.4-20.9-10.1c-1.8-2.7-9.9-14.1-1.4-22.9c8.7-8.9,54.5-34.1,64.9-18.6
						C241.8,359.8,200.4,391.6,188.8,396.1z"/>
				</g>
				<g class="st5">
					<path class="st0" d="M166.2,383.3c-1.7-4.6-2.2-10.4,2.7-15.4c8.4-8.7,52.2-32.8,64.1-19.7c-0.2-1.4-0.7-2.6-1.5-3.8
						c-10.4-15.5-56.3,9.8-64.9,18.6C159.6,370,163.5,378.7,166.2,383.3z"/>
				</g>
				<g>
					<path class="st2" d="M183.7,399.6c-5.3,0-11.6-2.7-17.8-12l-0.3-0.4c-8.9-13.1-5.4-21.3-0.9-25.9c6.8-6.9,38.6-25.9,57.6-24.2
						c5.2,0.5,9,2.5,11.3,5.9c2.3,3.5,2.7,7.7,1.2,12.5c-5.7,17.9-35.9,39.5-45,43C187.9,399.1,185.9,399.6,183.7,399.6z M219.8,342
						c-16.4,0-44.8,15.9-51.4,22.8c-4.6,4.8-4.1,11.1,1.5,19.5l0.3,0.5c5.6,8.4,11.4,11.3,17.7,8.9c0,0,0,0,0,0
						c9.4-3.6,37.2-24.6,42-39.7c1.1-3.3,0.9-6-0.6-8.1c-1.5-2.2-3.9-3.4-7.5-3.7C221.1,342,220.4,342,219.8,342z"/>
				</g>
				<g>
					<path class="st2" d="M205,387.4c-0.3,0-0.7-0.1-1-0.3c-11.2-8.9-19.3-20.8-23.3-34.5c0-0.1-0.1-0.3-0.1-0.4
						c0-0.9,0.7-1.5,1.5-1.5c0.7,0,1.3,0.5,1.5,1.2c3.8,13,11.5,24.4,22.2,32.9c0.7,0.5,0.8,1.5,0.3,2.2
						C206,387.2,205.5,387.4,205,387.4z"/>
				</g>
				<g>
					<path class="st7" d="M248.8,439.8l-13.3,5.2c-6,2.4-12.9,1.3-17.8-2.8l0,0c-14.7-12.2-25.7-28.1-31.8-46l0,0
						c-2.1-6-0.6-12.7,3.9-17.3l9.8-10.3L248.8,439.8z"/>
				</g>
				<g>
					<path class="st7" d="M188.5,403.2c3.3,7.7,7.5,14.9,12.5,21.6c4.8,6.4,10.4,12.3,16.7,17.4c4.9,4.1,11.8,5.2,17.8,2.8l13.3-5.2
						l-22.3-32.2l-27-39.1l-9.8,10.3c-2.2,2.3-3.7,5.2-4.4,8.2c-0.7,3-0.5,6.2,0.5,9.2C186.6,398.6,187.5,400.9,188.5,403.2z"/>
				</g>
				<g class="st1">
					<g>
						<path class="st0" d="M197,419.1c0.6,0.9,1.2,1.8,1.8,2.6c-3.8-6.3-7-13-9.4-20.1c-1-3-1.2-6.2-0.5-9.2c0.7-3,2.2-5.8,4.4-8.2
							L203,374l-1.8-2.6l-1.7-2.8l-9.8,10.3c-2.2,2.3-3.7,5.2-4.4,8.2c-0.7,3-0.5,6.2,0.5,9.2C188.6,404.3,192.3,412,197,419.1z"/>
					</g>
				</g>
				<g>
					<path class="st0" d="M481.9,236.9c0.1,0.4,0.1,0.8,0.2,1.2c0,0.1,0,0.2,0,0.4c0,0,0,0,0,0c0,0.1,0,0.3,0,0.4c0,0.1,0,0.3,0,0.4
						c0,0.1,0,0.3,0,0.4c0,0.1,0,0.1,0,0.2c0,0.1,0,0.1,0,0.2c0,0,0,0.1,0,0.1c0,0,0,0.1,0,0.1c0,0,0,0,0,0c0,0,0,0.1,0,0.1
						c0,0,0,0,0,0c0,0,0,0,0,0c0,0.1,0,0.1,0,0.2c0,0,0,0,0,0.1c0,0,0,0,0,0.1c0,0.1,0,0.2,0,0.4c0,0.1,0,0.1,0,0.2
						c0,0.1,0,0.1,0,0.2c0,0.1,0,0.1,0,0.2c0,0,0,0.1,0,0.1c0,0,0,0.1,0,0.1c0,0,0,0,0,0.1c0,0,0,0,0,0c0,0,0,0.1,0,0.1
						c0,0.1,0,0.2,0,0.3c0,0.1,0,0.1,0,0.1c0,0,0,0.1,0,0.1l0,0c0,0.1,0,0.1,0,0.2c0,0,0,0,0,0c0,0.1,0,0.1,0,0.2c0,0,0,0.1,0,0.1
						c0,0,0,0.1,0,0.1c0,0,0,0,0,0.1c0,0.1,0,0.3,0,0.4c0,0.2,0,0.3,0,0.5c0,0,0,0.1,0,0.1c0,0.2,0,0.3-0.1,0.5c0,0.2,0,0.4-0.1,0.6
						c0,0.3-0.1,0.5-0.1,0.8c0,0.1,0,0.2,0,0.4c0,0.1,0,0.3-0.1,0.4c0,0.1,0,0.3-0.1,0.5c0,0,0,0.1,0,0.1c0,0.1,0,0.1,0,0.2
						c0,0,0,0,0,0c0,0.1,0,0.3-0.1,0.4c0,0,0,0,0,0.1c0,0.1,0,0.2,0,0.3c0,0,0,0,0,0c0,0,0,0.1,0,0.1c0,0.1,0,0.1,0,0.2
						c0,0,0,0,0,0.1c0,0,0,0.1,0,0.1c0,0.1,0,0.1,0,0.2c0,0,0,0.1,0,0.1c0,0,0,0.1,0,0.1c0,0.1,0,0.3-0.1,0.4c0,0.1,0,0.2-0.1,0.3
						c0,0.1,0,0.2-0.1,0.4c0,0.1,0,0.2,0,0.3c0,0.1,0,0.1,0,0.2c0,0.1,0,0.3-0.1,0.4c0,0,0,0,0,0.1c0,0.1,0,0.3-0.1,0.4
						c0,0,0,0.1,0,0.1c0,0,0,0,0,0c0,0.1,0,0.2-0.1,0.3c0,0.1,0,0.3-0.1,0.4c0,0.1,0,0.1,0,0.2s0,0.1,0,0.2c0,0,0,0,0,0.1
						c0,0,0,0,0,0c0,0.1,0,0.3-0.1,0.4c0,0,0,0,0,0c0,0.1,0,0.1,0,0.2c0,0.2-0.1,0.3-0.1,0.5c0,0.1,0,0.2,0,0.3c0,0,0,0,0,0
						c0,0,0,0.1,0,0.1c0,0.2-0.1,0.4-0.1,0.6c0,0,0,0.1,0,0.1c0,0,0,0,0,0.1c0,0.1,0,0.1,0,0.2c0,0.1,0,0.1,0,0.2c0,0.1,0,0.1,0,0.2
						c0,0.1,0,0.2-0.1,0.3c0,0,0,0,0,0c0,0.1,0,0.1,0,0.2c0,0,0,0.1,0,0.1c0,0,0,0.1,0,0.1c0,0,0,0,0,0.1c0,0,0,0,0,0c0,0,0,0,0,0.1
						c0,0,0,0,0,0c0,0.1,0,0.1,0,0.1c0,0.1,0,0.2-0.1,0.3c0,0.1-0.1,0.3-0.1,0.4c0,0.1,0,0.2-0.1,0.3c0,0.1,0,0.2,0,0.2
						c0,0,0,0,0,0.1c0,0.1,0,0.2-0.1,0.3c0,0.2-0.1,0.4-0.1,0.6c0,0,0,0,0,0c0,0,0,0.1,0,0.1c0,0.1,0,0.1,0,0.2c0,0,0,0.1,0,0.1
						c0,0.1,0,0.2,0,0.2c0,0.1,0,0.1,0,0.2c0,0,0,0.1,0,0.1c0,0,0,0,0,0c0,0.2-0.1,0.4-0.1,0.6c0,0,0,0,0,0c0,0,0,0.1,0,0.1
						c0,0,0,0.1,0,0.1c0,0,0,0.1,0,0.1c0,0,0,0.1,0,0.1c0,0.1-0.1,0.3-0.1,0.4c0,0.1,0,0.2-0.1,0.2c0,0.1,0,0.1,0,0.2
						c0,0.1,0,0.1,0,0.2c0,0,0,0,0,0c0,0.1,0,0.2-0.1,0.3c0,0,0,0,0,0c0,0,0,0,0,0c0,0.1,0,0.2-0.1,0.3l0,0.1c0,0,0,0,0,0.1
						c0,0.1,0,0.1,0,0.2c0,0.1,0,0.1,0,0.2c0,0,0,0.1,0,0.1c0,0.1,0,0.2-0.1,0.2c0,0,0,0.1,0,0.2c0,0,0,0,0,0c0,0,0,0,0,0.1
						c0,0.1,0,0.2-0.1,0.2c0,0,0,0,0,0c0,0.1-0.1,0.2-0.1,0.3c0,0.1,0,0.2-0.1,0.2c-0.1,0.2-0.1,0.4-0.1,0.6c0,0.1,0,0.1,0,0.2
						c0,0,0,0,0,0c0,0.1,0,0.2-0.1,0.2c0,0,0,0,0,0c0,0.1,0,0.1-0.1,0.2c0,0.1,0,0.2-0.1,0.3c-0.1,0.4-0.2,0.9-0.4,1.3
						c0,0.1-0.1,0.2-0.1,0.3c0,0,0,0.1,0,0.1c0,0.1,0,0.2-0.1,0.3c0,0,0,0.1,0,0.1c0,0.1,0,0.1,0,0.2l-0.1,0.4
						c-0.1,0.2-0.1,0.4-0.2,0.6c0,0,0,0,0,0c0,0.1-0.1,0.3-0.1,0.4c0,0.1-0.1,0.2-0.1,0.3c-0.1,0.2-0.1,0.4-0.2,0.7
						c0,0.2-0.1,0.3-0.1,0.5c0,0.1,0,0.2-0.1,0.3c-0.1,0.2-0.1,0.5-0.2,0.7c0,0.2-0.1,0.4-0.2,0.6c0,0.1,0,0.1,0,0.2
						c0,0.1-0.1,0.2-0.1,0.3c-0.1,0.4-0.2,0.8-0.4,1.1c-0.1,0.2-0.2,0.5-0.2,0.7c0,0,0,0,0,0c0,0,0,0,0,0c-0.1,0.2-0.1,0.4-0.2,0.6
						c0,0,0,0.1,0,0.1c0,0.1,0,0.1-0.1,0.2c-0.1,0.3-0.2,0.6-0.3,0.9c-0.1,0.2-0.1,0.3-0.2,0.5c0,0,0,0.1,0,0.1c0,0,0,0,0,0
						c0,0.1-0.1,0.2-0.1,0.3c0,0,0,0.1,0,0.1c0,0.1-0.1,0.2-0.1,0.2c-0.2,0.5-0.3,1-0.5,1.4c0,0,0,0.1,0,0.1
						c-0.1,0.2-0.1,0.3-0.2,0.5c-0.1,0.3-0.2,0.7-0.4,1c-0.1,0.2-0.1,0.3-0.2,0.5c0,0,0,0,0,0c-0.1,0.2-0.2,0.5-0.3,0.7
						c0,0,0,0.1,0,0.1l0,0c-0.1,0.2-0.1,0.4-0.2,0.5c0,0.1-0.1,0.3-0.1,0.4c-0.1,0.2-0.2,0.4-0.2,0.6c-0.2,0.5-0.4,1.1-0.6,1.6
						c0,0.1-0.1,0.2-0.1,0.3c0,0.1-0.1,0.2-0.1,0.3c0,0.1-0.1,0.1-0.1,0.2c-0.1,0.3-0.2,0.5-0.3,0.8l0,0c0,0,0,0.1,0,0.1
						c0,0,0,0,0,0.1c-0.1,0.1-0.1,0.3-0.2,0.4c0,0.1-0.1,0.2-0.1,0.2c-0.1,0.1-0.1,0.3-0.2,0.4c0,0,0,0,0,0c0,0.1-0.1,0.2-0.1,0.3
						c-0.1,0.2-0.2,0.4-0.2,0.5c-0.1,0.1-0.1,0.3-0.2,0.4c-0.1,0.2-0.2,0.4-0.3,0.7c-0.1,0.1-0.1,0.3-0.2,0.5
						c-0.2,0.4-0.3,0.8-0.5,1.2c-0.1,0.1-0.1,0.3-0.2,0.4c0,0.1-0.1,0.1-0.1,0.2c-0.1,0.3-0.3,0.7-0.4,1c-0.1,0.2-0.2,0.4-0.2,0.5
						c-0.1,0.3-0.2,0.5-0.3,0.8c-0.4,0.9-0.8,1.8-1.2,2.7c-0.2,0.4-0.4,0.8-0.5,1.1c0,0.1-0.1,0.1-0.1,0.2c-0.1,0.3-0.3,0.5-0.4,0.8
						c-0.1,0.2-0.2,0.4-0.3,0.6c-0.1,0.1-0.1,0.3-0.2,0.4c-0.4,0.8-0.7,1.5-1.1,2.3c-0.1,0.1-0.1,0.2-0.2,0.3
						c-0.2,0.4-0.4,0.7-0.6,1.1c-0.2,0.3-0.3,0.6-0.4,0.9c0,0,0,0.1-0.1,0.1c0,0.1-0.1,0.1-0.1,0.2c0,0.1-0.1,0.2-0.1,0.3
						c-0.3,0.6-0.6,1.2-0.9,1.7c0,0,0,0,0,0c-0.1,0.2-0.2,0.3-0.3,0.5c-0.1,0.2-0.2,0.4-0.3,0.6c-0.1,0.1-0.1,0.2-0.2,0.3
						c0,0.1-0.1,0.2-0.1,0.3c-0.3,0.5-0.5,0.9-0.8,1.4c0,0,0,0.1-0.1,0.1c0,0,0,0.1,0,0.1c-0.7,1.2-1.4,2.5-2.1,3.7
						c-0.5,0.8-0.9,1.6-1.4,2.4c-0.5,0.8-1,1.6-1.5,2.5c-0.2,0.4-0.5,0.8-0.7,1.2c-0.2,0.4-0.5,0.7-0.7,1.1c-0.5,0.8-1,1.6-1.6,2.4
						c-1.1,1.6-2.2,3.2-3.3,4.8l0,0c-0.4,0.6-0.8,1.1-1.2,1.7c-2,2.8-4.2,5.7-6.4,8.5l-1.2,1.5c-0.1,0.1-0.2,0.2-0.2,0.3
						c-7.8,9.7-17.1,19.6-27.9,29.3c-3.7,3.4-7.7,6.7-11.8,10.1c-1.5,1.2-3.1,2.5-4.7,3.7c-1.4,1.1-2.8,2.2-4.3,3.2
						c-0.7,0.5-1.4,1.1-2.1,1.6c-2.1,1.5-4.2,3.1-6.3,4.5c-2.1,1.5-4.2,2.9-6.2,4.2c-1.1,0.8-2.3,1.5-3.4,2.2
						c-0.4,0.3-0.8,0.5-1.3,0.8c-0.5,0.3-1,0.6-1.5,1c-0.7,0.4-1.4,0.9-2,1.3c-0.6,0.4-1.2,0.7-1.7,1.1c-1.1,0.7-2.3,1.4-3.4,2
						c-0.5,0.3-1.1,0.6-1.6,0.9c-2.6,1.5-5.3,3-7.8,4.4c-0.6,0.3-1.3,0.7-1.9,1c-0.6,0.3-1.3,0.7-1.9,1c-1.3,0.6-2.5,1.3-3.7,1.9
						c-0.6,0.3-1.2,0.6-1.8,0.9c-0.6,0.3-1.2,0.6-1.9,0.9c-1.2,0.6-2.3,1.1-3.5,1.6c-0.1,0.1-0.2,0.1-0.3,0.2
						c-0.9,0.4-1.8,0.8-2.7,1.2c-2.1,0.9-4.2,1.8-6.3,2.7c-0.5,0.2-1.1,0.4-1.6,0.7c-3.2,1.3-6.3,2.5-9.4,3.6
						c-0.5,0.2-0.9,0.3-1.4,0.5c-0.6,0.2-1.2,0.4-1.7,0.6c-1,0.3-1.9,0.6-2.9,1c-1.5,0.5-2.9,0.9-4.3,1.4c-0.4,0.1-0.8,0.3-1.2,0.4
						c-0.6,0.2-1.1,0.3-1.6,0.5c-1.6,0.5-3.2,0.9-4.8,1.3c-1,0.3-2,0.5-2.9,0.8c-0.2,0.1-0.5,0.1-0.7,0.2c-7.6,1.9-14.5,3.2-20.5,4
						c-2.2,0.3-4.3,0.6-6.3,0.8c-11.4,1.2-18.5,0.7-19.9,0.6c-0.2,0-0.3,0-0.3,0l0,0c-0.4-0.3-0.8-0.6-1.2-0.8
						c-0.2-0.2-0.5-0.3-0.7-0.5c-0.8-0.6-1.5-1.1-2.3-1.7c-0.5-0.4-1.1-0.8-1.6-1.3c-0.2-0.1-0.4-0.3-0.6-0.5
						c-2.2-1.8-4.3-3.6-6.4-5.4c0,0-0.1-0.1-0.1-0.1c-0.7-0.6-1.3-1.2-2-1.8c-0.7-0.6-1.3-1.3-2-1.9c-0.1-0.1-0.2-0.2-0.2-0.3
						c-0.6-0.6-1.2-1.2-1.7-1.8c-0.4-0.5-0.9-0.9-1.3-1.4c-0.5-0.5-0.9-1-1.4-1.5c-0.4-0.4-0.7-0.8-1.1-1.2
						c-0.6-0.7-1.2-1.4-1.8-2.1c-0.1-0.1-0.1-0.1-0.2-0.2l0,0c-0.5-0.6-0.9-1.1-1.4-1.7c-0.7-0.8-1.3-1.6-1.9-2.4
						c-0.5-0.6-1-1.3-1.4-1.9c-0.1-0.1-0.1-0.2-0.2-0.3c-1.1-1.5-2.1-3-3.2-4.5c0-0.1-0.1-0.2-0.2-0.2c-0.2-0.3-0.5-0.7-0.7-1
						c-0.5-0.8-1-1.5-1.5-2.3c-0.6-0.9-1.1-1.9-1.7-2.8c-0.3-0.4-0.5-0.9-0.7-1.3c-0.8-1.4-1.6-2.9-2.3-4.4
						c-0.4-0.8-0.8-1.5-1.2-2.3c-0.2-0.5-0.4-0.9-0.6-1.4c-0.2-0.4-0.4-0.8-0.6-1.2c0,0,0,0,0-0.1c-0.3-0.6-0.6-1.2-0.8-1.9
						c-0.1-0.3-0.3-0.6-0.4-1c-0.1-0.3-0.2-0.5-0.3-0.8c-0.1-0.3-0.2-0.5-0.3-0.8c-0.1-0.1-0.1-0.3-0.2-0.4c-0.3-0.6-0.5-1.3-0.8-2
						c-0.2-0.4-0.3-0.9-0.5-1.4c-0.1-0.2-0.2-0.4-0.2-0.6c-0.2-0.6-0.5-1.3-0.7-1.9c-0.4-1-0.7-2.1-1-3.1c-0.1-0.4-0.3-0.8-0.4-1.2
						c-0.2-0.6-0.4-1.2-0.5-1.8c-0.2-0.6-0.4-1.3-0.5-1.9c-0.2-0.7-0.4-1.4-0.6-2.2l0,0c0,0,0,0,0,0c0,0,0,0,0,0c0,0,0,0,0-0.1
						c0,0,0-0.1,0.1-0.2c0-0.1,0.1-0.3,0.1-0.4c0-0.1,0.1-0.3,0.1-0.4c0.1-0.3,0.2-0.7,0.4-1.1c0.1-0.2,0.1-0.3,0.2-0.5
						c0-0.1,0.1-0.3,0.1-0.4c0.2-0.4,0.3-0.9,0.5-1.4c0.1-0.2,0.2-0.4,0.3-0.6c0.2-0.6,0.5-1.1,0.7-1.8c0-0.1,0-0.1,0.1-0.2
						c0.2-0.5,0.5-1.1,0.7-1.7c0,0,0,0,0,0c0.6-1.3,1.2-2.8,2-4.3c0,0,0,0,0,0c0.9-1.9,2-4.1,3.3-6.4c0.1-0.1,0.1-0.3,0.2-0.4
						c0.4-0.7,0.7-1.3,1.1-2c1-1.8,2.1-3.8,3.4-5.8c0.1-0.2,0.2-0.4,0.4-0.6c0,0,0,0,0,0c0.8-1.4,1.7-2.8,2.7-4.3
						c0.2-0.3,0.4-0.6,0.5-0.8c1.7-2.5,3.5-5.1,5.4-7.8c0,0,0,0,0,0c3.8-5.2,8.1-10.6,13.1-16.3c0.3-0.4,0.7-0.8,1-1.2
						c1-1.2,2.1-2.3,3.2-3.5c4-4.3,8.4-8.7,13.3-13.1c0.5-0.4,0.9-0.9,1.4-1.3c3-2.7,6.2-5.5,9.5-8.2c0.6-0.5,1.1-0.9,1.7-1.4
						c0.1-0.1,0.2-0.2,0.3-0.2c1-0.8,2-1.6,3.1-2.5c1.2-0.9,2.4-1.8,3.6-2.8c0.6-0.5,1.2-0.9,1.8-1.4c4.7-3.5,9.7-7,15.1-10.5
						c0.6-0.4,1.2-0.8,1.9-1.2c1.2-0.8,2.5-1.6,3.8-2.4c1.3-0.8,2.6-1.6,3.9-2.4c1.3-0.8,2.6-1.6,4-2.4c0.7-0.4,1.3-0.8,2-1.2
						c0.8-0.4,1.5-0.9,2.3-1.3c0.3-0.2,0.6-0.4,0.9-0.5c0.4-0.3,0.9-0.5,1.3-0.7c0.8-0.4,1.6-0.9,2.4-1.3c0.6-0.3,1.1-0.6,1.7-0.9
						c5-2.7,9.9-5.1,14.7-7.3c0.7-0.3,1.4-0.6,2-0.9c0.2-0.1,0.4-0.2,0.7-0.3c0.7-0.3,1.4-0.6,2.1-0.9c0.1-0.1,0.2-0.1,0.4-0.2
						c0.7-0.3,1.3-0.6,2-0.9c0.1,0,0.2-0.1,0.3-0.1c1.5-0.6,2.9-1.2,4.4-1.8c0.8-0.3,1.5-0.6,2.3-0.9c1.5-0.6,3-1.2,4.5-1.7
						c0.1,0,0.2-0.1,0.3-0.1c0.7-0.3,1.5-0.5,2.2-0.8c0.5-0.2,0.9-0.3,1.4-0.5c0.4-0.1,0.8-0.3,1.2-0.4c0.4-0.1,0.8-0.3,1.2-0.4
						c0.1,0,0.2-0.1,0.3-0.1c3.7-1.3,7.3-2.4,10.8-3.4c0.7-0.2,1.4-0.4,2-0.6c0.6-0.2,1.2-0.3,1.8-0.5c0.9-0.2,1.8-0.5,2.7-0.7
						c1.3-0.3,2.5-0.6,3.8-0.9c0.5-0.1,1-0.2,1.5-0.4c0.2,0,0.3-0.1,0.5-0.1c1.1-0.3,2.2-0.5,3.3-0.7c1.1-0.2,2.2-0.5,3.3-0.7
						c0.1,0,0.2,0,0.2,0c1.9-0.4,3.8-0.7,5.6-1c2.1-0.3,4.1-0.7,6.1-1c0.2,0,0.3,0,0.4-0.1c0.4-0.1,0.8-0.1,1.2-0.2
						c0.1,0,0.2,0,0.2,0c0.9-0.1,1.7-0.2,2.6-0.3c0.4,0,0.7-0.1,1.1-0.1c0,0,0.1,0,0.1,0c0.6-0.1,1.2-0.1,1.8-0.2
						c1.1-0.1,2.3-0.2,3.4-0.3c0,0,0,0,0.1,0c0.5-0.1,1-0.1,1.5-0.1c0.6,0,1.3-0.1,1.9-0.2c0,0,0.1,0,0.1,0c1-0.1,2.1-0.1,3.1-0.2
						c0.1,0,0.1,0,0.2,0c0.1,0,0.1,0,0.2,0c2-0.1,4-0.2,6-0.3c0,0,0.1,0,0.1,0c0.1,0,0.2,0,0.3,0c0.9,0,1.8,0,2.7-0.1
						c0.3,0,0.5,0,0.8,0c0.8,0,1.7,0,2.5,0c0.5,0,1,0,1.5,0c0.6,0,1.3,0,1.9,0c0.4,0,0.7,0,1.1,0c0.2,0,0.3,0,0.5,0
						c0.2,0,0.4,0,0.6,0c0.3,0,0.6,0,0.8,0c0.5,0,0.9,0,1.4,0.1c0.3,0,0.6,0,0.9,0c0.3,0,0.6,0,0.9,0.1c0.2,0,0.4,0,0.6,0
						c0.3,0,0.6,0,0.9,0.1c0.3,0,0.6,0,0.9,0.1c0.3,0,0.6,0,0.9,0.1c0.2,0,0.3,0,0.5,0c0.1,0,0.3,0,0.4,0c0.3,0,0.6,0,1,0.1
						c0.3,0,0.6,0,0.9,0.1c0.3,0,0.5,0,0.8,0.1c0.6,0.1,1.2,0.1,1.8,0.2c0.2,0,0.5,0,0.7,0.1c0.1,0,0.3,0,0.4,0.1
						c0.2,0,0.4,0,0.7,0.1c0.3,0,0.5,0.1,0.8,0.1c0.6,0.1,1.2,0.1,1.8,0.2c0.2,0,0.4,0.1,0.6,0.1c0.4,0.1,0.8,0.1,1.2,0.2
						c0.8,0.1,1.5,0.2,2.3,0.3c0.5,0.1,0.9,0.2,1.4,0.2c0.1,0,0.2,0,0.2,0c1,0.2,2,0.3,2.9,0.5c0.2,0,0.3,0.1,0.5,0.1
						c0.2,0,0.4,0.1,0.6,0.1c0.1,0,0.2,0,0.3,0.1c0.1,0,0.2,0,0.3,0.1c0.4,0.1,0.7,0.1,1.1,0.2c0.5,0.1,1,0.2,1.5,0.3
						c0.6,0.1,1.2,0.2,1.7,0.4c0.1,0,0.1,0,0.2,0c0.2,0,0.3,0.1,0.5,0.1c0.2,0,0.3,0.1,0.5,0.1c0.3,0.1,0.6,0.1,0.9,0.2
						c0,0,0.1,0,0.1,0c0.3,0.1,0.5,0.1,0.8,0.2c0.2,0,0.4,0.1,0.5,0.1c0.2,0.1,0.4,0.1,0.6,0.2c0.2,0,0.4,0.1,0.5,0.1c0,0,0,0,0.1,0
						c0.5,0.1,0.9,0.2,1.3,0.3c0.2,0,0.4,0.1,0.5,0.1c0.2,0,0.4,0.1,0.5,0.1c0.2,0,0.4,0.1,0.5,0.1c0.3,0.1,0.5,0.1,0.8,0.2
						c0.5,0.1,1,0.3,1.5,0.4c0,0,0.1,0,0.1,0c0.2,0.1,0.4,0.1,0.6,0.2c0.2,0.1,0.5,0.1,0.7,0.2c0,0,0.1,0,0.1,0
						c0.2,0.1,0.4,0.1,0.6,0.2c0.5,0.2,1,0.4,1.5,0.6c0.5,0.2,0.9,0.5,1.4,0.8c0.9,0.6,1.7,1.2,2.3,2c0,0,0,0,0,0
						c0.7,0.8,1.2,1.6,1.7,2.5c0.3,0.7,0.6,1.4,0.8,2.2c0,0,0,0,0,0c0,0.1,0.1,0.2,0.1,0.3C481.9,236.8,481.9,236.8,481.9,236.9z"/>
				</g>
				<g>
					<path class="st8" d="M264.3,316.1c0.2-0.4,0.3-0.8,0.5-1.1C264.5,315.5,264.4,315.9,264.3,316.1z"/>
				</g>
				<g>
					<path class="st9" d="M447.7,330c9-12.8,15.6-25.1,20.6-36.5c0.1-0.1,0.1-0.3,0.2-0.4c0.7-1.6,1.3-3.2,2-4.7c0,0,0-0.1,0.1-0.1
						c0.2-0.5,0.4-1.1,0.6-1.6c0.2-0.5,0.4-1.1,0.6-1.6c0.2-0.6,0.4-1.1,0.6-1.7c0.4-1,0.7-2,1-2.9c0.5-1.5,1-3,1.5-4.5
						c0.2-0.5,0.3-1,0.5-1.5c0.6-1.9,1.1-3.8,1.6-5.7c0.1-0.5,0.2-0.9,0.4-1.4c1.1-4.1,1.9-7.9,2.6-11.4c0.1-0.6,0.2-1.2,0.3-1.7
						c0.1-0.6,0.2-1.2,0.3-1.8c0.1-0.6,0.2-1.2,0.3-1.7c0.1-0.5,0.1-0.9,0.2-1.4c0.1-0.7,0.2-1.4,0.3-2c0.4-2.8,0.6-5.3,0.7-7.4
						c-0.8,1.5-1.6,3.1-2.4,4.7c-10.2,19.3-24.1,40.1-43.1,61.1C440.6,313.7,444.3,321.8,447.7,330z"/>
				</g>
				<g>
					<path class="st10" d="M447.7,330c9.1-12.9,15.8-25.4,20.8-36.9c0.5-1.1,0.9-2.2,1.4-3.3c0.2-0.5,0.4-1.1,0.7-1.6l0,0
						c0.2-0.5,0.4-1,0.6-1.6c0.4-1.1,0.8-2.1,1.2-3.1c0.3-0.9,0.7-1.9,1-2.8c0.9-2.6,1.7-5.2,2.5-7.7c0.1-0.4,0.2-0.8,0.4-1.3
						c1.4-4.9,2.5-9.5,3.4-13.7c0.1-0.3,0.1-0.6,0.2-0.9c0.1-0.5,0.2-1,0.3-1.4c0.2-1.2,0.4-2.4,0.6-3.6c0-0.3,0.1-0.6,0.1-0.9
						c0.1-0.6,0.2-1.1,0.2-1.7c0-0.3,0.1-0.5,0.1-0.8c0.1-0.5,0.1-1.1,0.2-1.6c0.1-1,0.2-2,0.3-3c0.2-1.7,0.3-3.2,0.4-4.5
						c0-0.6,0-1.1,0-1.7c0-0.4-0.1-0.8-0.2-1.2c0-0.1-0.1-0.3-0.1-0.4c-10,12.5-27.7,33.1-52.5,56.5
						C436.3,304.8,442.5,317.2,447.7,330z"/>
				</g>
				<g>
					<path class="st4" d="M376.2,226.6c12.4,11.7,23.8,24.3,34,37.8c15.2,20.2,27.8,42.2,37.5,65.6c27.7-39.4,33.3-74.7,34.3-90.3
						c0.3-5.2-2.9-9.9-7.9-11.5c-0.4-0.1-0.8-0.2-1.2-0.4C457.2,223.1,422.4,215.9,376.2,226.6z"/>
				</g>
				<g class="st11">
					<path class="st0" d="M480.3,245.5c0.3-5.2-2.9-9.9-7.9-11.5c-0.4-0.1-0.8-0.2-1.2-0.4c-15-4.6-47.3-11.3-90.3-2.7
						c-1.5-1.5-3-2.9-4.6-4.4c46.2-10.7,81-3.5,96.7,1.3c0.4,0.1,0.8,0.2,1.2,0.4c5,1.6,8.3,6.3,7.9,11.5
						c-0.5,8.2-2.3,21.8-7.9,38.5C478.3,264.1,479.8,252.7,480.3,245.5z"/>
				</g>
				<g>
					<path class="st2" d="M447.7,332.5c-0.1,0-0.2,0-0.3,0c-0.9-0.1-1.7-0.7-2.1-1.6c-16.1-39-39.9-73.5-70.9-102.5
						c-0.7-0.6-1-1.6-0.7-2.5c0.2-0.9,1-1.6,1.9-1.8c46.7-10.8,81.8-3.7,98.5,1.5c6.6,2,10.9,8.2,10.4,15
						c-1.2,17.3-7.4,52-34.7,90.8C449.3,332.1,448.6,332.5,447.7,332.5z M381.5,228c28.7,27.8,51.1,60.2,66.8,96.7
						c24.4-36.3,30-68.3,31.2-84.5c0.3-4.4-2.5-8.5-6.8-9.8C457,225.6,424.6,219,381.5,228z"/>
				</g>
				<g>
					<path class="st2" d="M254.8,442.6c-3.3,0-5.4-0.1-6-0.2c-0.2,0-0.4,0-0.4,0c-0.4-0.1-0.8-0.2-1.2-0.5c-0.4-0.3-0.8-0.6-1.2-0.9
						c-0.1-0.1-0.2-0.2-0.4-0.3c-0.1-0.1-0.2-0.2-0.3-0.2l-0.1-0.1c-0.8-0.5-1.5-1.1-2.2-1.7l-1.7-1.3c-0.2-0.2-0.4-0.3-0.6-0.5
						c-2.2-1.7-4.3-3.6-6.4-5.4c-0.1-0.1-0.2-0.1-0.2-0.2c-0.6-0.6-1.3-1.2-2-1.8c-0.6-0.6-1.2-1.1-1.8-1.7l-0.2-0.2
						c0,0,0,0-0.1-0.1c-0.1-0.1-0.1-0.1-0.2-0.2c-0.6-0.6-1.2-1.2-1.8-1.8l-0.1-0.1c-0.4-0.4-0.8-0.9-1.2-1.3c-0.5-0.5-1-1-1.4-1.6
						c-0.4-0.4-0.8-0.8-1.1-1.3c-0.6-0.7-1.2-1.4-1.8-2.1l-0.1-0.1c-0.1-0.1-0.1-0.1-0.2-0.2l-0.4-0.5c-0.3-0.4-0.6-0.8-1-1.2
						c-0.7-0.9-1.4-1.7-2-2.5c-0.5-0.6-0.9-1.3-1.4-1.9c-0.1-0.1-0.2-0.2-0.3-0.4c-0.6-0.8-1.2-1.7-1.8-2.5c-0.5-0.7-0.9-1.3-1.4-2
						c-0.1-0.1-0.1-0.2-0.2-0.3l-0.2-0.4c-0.2-0.2-0.3-0.5-0.5-0.7c-0.5-0.7-1-1.5-1.4-2.3c-0.6-1-1.2-2-1.7-2.9
						c-0.2-0.4-0.5-0.9-0.8-1.3c-0.8-1.4-1.6-2.9-2.4-4.5c-0.4-0.8-0.8-1.6-1.2-2.4l-0.2-0.5c-0.1-0.3-0.3-0.6-0.4-0.9
						c-0.2-0.4-0.3-0.7-0.5-1.1c0-0.1-0.1-0.2-0.1-0.3c-0.3-0.6-0.6-1.2-0.8-1.9c-0.1-0.2-0.2-0.4-0.2-0.6l-0.2-0.4
						c-0.1-0.1-0.1-0.3-0.2-0.5l-0.3-0.7c-0.1-0.2-0.1-0.3-0.2-0.5c-0.3-0.8-0.6-1.6-1-2.4c-0.2-0.4-0.3-0.9-0.5-1.4
						c-0.1-0.2-0.2-0.4-0.2-0.7c-0.2-0.6-0.5-1.3-0.7-1.9c-0.3-1-0.7-2.1-1-3.2l0-0.1c-0.1-0.4-0.2-0.7-0.3-1.1
						c-0.2-0.6-0.4-1.3-0.5-1.9c-0.2-0.6-0.4-1.3-0.5-1.9c-0.2-0.7-0.4-1.5-0.6-2.2c0-0.1,0-0.1,0-0.2c-0.1-0.4,0-0.8,0.1-1.2
						c0-0.1,0-0.2,0.1-0.2c0-0.1,0.1-0.3,0.1-0.5c0-0.1,0.1-0.3,0.2-0.5c0.1-0.3,0.2-0.7,0.4-1.1h0c0-0.1,0-0.1,0.1-0.2
						c0-0.1,0.1-0.2,0.1-0.3c0-0.1,0.1-0.3,0.2-0.5c0.1-0.4,0.3-0.9,0.5-1.3c0.1-0.2,0.2-0.5,0.3-0.7c0.2-0.5,0.4-1.1,0.7-1.7
						c0-0.1,0.1-0.2,0.1-0.4l0.7-1.6c0,0,0-0.1,0.1-0.1c0.6-1.4,1.3-2.8,2-4.3c0,0,0-0.1,0.1-0.1h0c1-2.1,2.1-4.3,3.3-6.5
						c0.1-0.2,0.2-0.3,0.3-0.5l0.1-0.3c0.3-0.6,0.6-1.2,1-1.8c1.2-2.1,2.3-4,3.4-5.8c0.1-0.2,0.2-0.4,0.4-0.6c0,0,0.1-0.1,0.1-0.1
						c0.9-1.4,1.8-2.8,2.7-4.2c0.1-0.1,0.2-0.3,0.3-0.4c0.1-0.1,0.2-0.3,0.2-0.4c1.8-2.8,3.6-5.3,5.4-7.8c0,0,0.1-0.1,0.1-0.1
						c4-5.5,8.5-11.1,13.3-16.5l1-1.2c1.1-1.2,2.2-2.4,3.3-3.6c4.2-4.5,8.7-8.9,13.4-13.3c0.5-0.4,0.9-0.9,1.4-1.3
						c3.1-2.8,6.3-5.6,9.6-8.3c0.4-0.3,0.8-0.6,1.2-1l0.5-0.4c0.1-0.1,0.2-0.1,0.2-0.2l0.1-0.1c1.1-0.8,2.1-1.7,3.1-2.5
						c1.2-0.9,2.4-1.9,3.6-2.8c0.6-0.5,1.2-0.9,1.8-1.4c4.8-3.6,9.9-7.2,15.2-10.6c0.6-0.4,1.2-0.8,1.9-1.2c1.2-0.8,2.5-1.6,3.8-2.4
						c1.3-0.8,2.6-1.6,3.9-2.4c1.3-0.8,2.7-1.6,4-2.4c0.7-0.4,1.4-0.8,2.1-1.2c0.5-0.3,1.1-0.6,1.6-0.9l1-0.6
						c0.2-0.1,0.4-0.2,0.6-0.3c0.4-0.2,0.8-0.4,1.1-0.6l0.2-0.1c0.8-0.4,1.6-0.9,2.4-1.3c0.4-0.2,0.8-0.5,1.3-0.7l0.5-0.2
						c4.9-2.6,9.9-5.1,14.9-7.4l0.1,0c0.7-0.3,1.3-0.6,2-0.9c0.2-0.1,0.5-0.2,0.7-0.3c0.5-0.2,1.1-0.5,1.7-0.8l0.4-0.2
						c0.1-0.1,0.3-0.1,0.4-0.2l0.8-0.4c0.4-0.2,0.8-0.3,1.1-0.5c0.1,0,0.1,0,0.2-0.1c0.1,0,0.1-0.1,0.2-0.1c1.6-0.7,3.1-1.3,4.4-1.8
						c0.8-0.3,1.5-0.6,2.3-0.9c1.5-0.6,3-1.2,4.5-1.7c0.2-0.1,0.3-0.1,0.4-0.1c0.7-0.3,1.5-0.5,2.2-0.8c0.4-0.2,0.9-0.3,1.4-0.5
						l1.2-0.4c0.5-0.2,1-0.3,1.5-0.5c3.6-1.2,7.3-2.4,10.9-3.4l3.9-1.1c0.9-0.3,1.9-0.5,2.8-0.7c1.7-0.4,3.6-0.9,5.9-1.4
						c0.7-0.2,1.4,0,2,0.4c0,0,0.1,0.1,0.1,0.1c0.1,0.1,0.2,0.1,0.2,0.2c0.5,0.5,1,0.9,1.5,1.4c0.3,0.3,0.6,0.5,0.9,0.8
						c0.5,0.5,1,1,1.5,1.5c0.2,0.2,0.5,0.5,0.8,0.7c0.5,0.5,1.1,1,1.6,1.6c0.6,0.6,1.2,1.2,1.8,1.8c1.9,1.9,3.8,3.9,5.7,5.9
						c0.7,0.8,1.5,1.6,2.2,2.4c0.7,0.7,1.4,1.5,2,2.2c0.1,0.1,0.2,0.2,0.3,0.3c0.7,0.7,1.3,1.5,2,2.3c2.3,2.6,4.5,5.2,6.6,7.8
						l1.5,1.8c0.9,1.2,1.8,2.2,2.6,3.2c1.2,1.6,2.5,3.2,3.5,4.5c0.4,0.6,0.9,1.1,1.3,1.7c1,1.3,2,2.7,3,4.1l1.3,1.9
						c1,1.4,1.9,2.7,2.7,3.9c0.9,1.3,1.8,2.6,2.7,3.9c0.4,0.6,0.8,1.3,1.2,1.9l0.1,0.1c0.4,0.7,0.9,1.4,1.3,2c0.4,0.6,0.8,1.3,1.3,2
						c0.8,1.3,1.7,2.7,2.5,4.1c0.4,0.7,0.8,1.4,1.2,2.1c0.2,0.3,0.4,0.7,0.6,1c0.2,0.3,0.4,0.7,0.6,1.1l0.7,1.2
						c0.2,0.2,0.3,0.6,0.5,0.9c0.8,1.4,1.6,2.8,2.4,4.2c0.3,0.6,0.6,1.2,1,1.7l0.1,0.2c0.5,0.9,1,1.8,1.4,2.7l0.1,0.1
						c0.1,0.1,0.1,0.2,0.2,0.4c0.5,0.9,0.9,1.7,1.3,2.6c0.1,0.2,0.2,0.4,0.3,0.6c0.1,0.1,0.1,0.2,0.1,0.3l0.4,0.8
						c0.3,0.5,0.6,1.1,0.8,1.7l0.3,0.6c0,0,0,0.1,0,0.1c0.1,0.2,0.2,0.3,0.2,0.5l0.2,0.4c0.3,0.6,0.6,1.2,0.9,1.8l0.1,0.2
						c0.1,0.3,0.3,0.5,0.4,0.8c0,0.1,0.1,0.2,0.1,0.3c0.4,0.8,0.8,1.6,1.1,2.4c0.1,0.1,0.1,0.3,0.2,0.4l0.3,0.5c0,0,0,0.1,0.1,0.1
						c0.1,0.2,0.2,0.4,0.3,0.7l0.1,0.2c0,0.1,0.1,0.2,0.1,0.3l0.4,1c0.3,0.7,0.6,1.3,0.9,2l0.1,0.2c0.1,0.1,0.1,0.3,0.2,0.4
						c0.3,0.6,0.5,1.2,0.8,1.7c0,0,0,0.1,0,0.1l0.1,0.2c0.1,0.1,0.1,0.3,0.2,0.4c0.1,0.3,0.3,0.6,0.4,0.9c0.4,0.9,0.8,1.8,1.1,2.7
						c0.4,0.8,0.3,1.8-0.2,2.5l-0.4,0.5c-0.3,0.4-0.6,0.8-0.8,1.2c-2.1,2.9-4.3,5.8-6.5,8.6l-1.4,1.7c0,0-0.1,0.1-0.1,0.1
						c-8.3,10.3-17.8,20.3-28.2,29.6c-4,3.6-8,7-11.9,10.2c-1.5,1.2-3.1,2.4-4.7,3.7c-1.3,1-2.8,2.1-4.3,3.3c-0.5,0.4-1,0.7-1.4,1.1
						l-0.7,0.5c-2.1,1.5-4.2,3-6.4,4.6c-2.1,1.5-4.2,2.9-6.3,4.3c-1.1,0.8-2.3,1.5-3.4,2.2c-0.4,0.3-0.8,0.5-1.2,0.8
						c-0.6,0.3-1.1,0.7-1.6,1l-0.7,0.5c-0.4,0.3-0.9,0.5-1.3,0.8l-0.1,0.1c-0.5,0.3-1.1,0.7-1.6,1c-1.1,0.7-2.3,1.4-3.4,2l-0.4,0.3
						c-0.4,0.2-0.8,0.5-1.2,0.7c-2.5,1.5-5.1,2.9-7.9,4.4c-0.5,0.3-1,0.5-1.4,0.8l-0.7,0.4c-0.5,0.3-1.1,0.6-1.6,0.9
						c-1.3,0.7-2.5,1.3-3.8,1.9l-2.4,1.2c-0.4,0.2-0.9,0.4-1.3,0.6c-1.2,0.6-2.3,1.1-3.5,1.7c-0.1,0-0.1,0.1-0.2,0.1l-0.1,0
						c-1,0.4-1.9,0.9-2.8,1.3c-2.1,0.9-4.1,1.8-6.4,2.7l-1.6,0.7c-3.2,1.3-6.3,2.5-9.5,3.6c-0.5,0.2-1,0.3-1.4,0.5l-1.9,0.6
						c-0.9,0.3-1.9,0.6-2.8,0.9c-1.4,0.5-2.8,0.9-4.4,1.4c-0.4,0.1-0.7,0.2-1.1,0.3l-1.7,0.5c-1.5,0.4-3.1,0.9-4.9,1.4
						c-1,0.3-2,0.5-3,0.8c-0.2,0.1-0.4,0.1-0.7,0.2c-7.1,1.8-14.1,3.1-20.9,4.1c-2.2,0.3-4.4,0.6-6.4,0.8
						C263.2,442.4,258.3,442.6,254.8,442.6z M249.7,437.4c2,0.1,8.7,0.4,19.1-0.6c1.9-0.2,4-0.5,6.2-0.7c6.6-0.9,13.4-2.2,20.3-4
						c0,0,0.1,0,0.1,0c0.2,0,0.4-0.1,0.6-0.1c1-0.3,2-0.5,2.9-0.8c1.7-0.5,3.3-0.9,4.7-1.3l1.7-0.5c0.4-0.1,0.7-0.2,1.1-0.3
						c1.6-0.5,2.9-0.9,4.3-1.4c0.9-0.3,1.8-0.6,2.7-0.9l1.9-0.6c0.5-0.2,0.9-0.3,1.4-0.5c3.1-1.1,6.2-2.3,9.3-3.5l1.6-0.7
						c2.2-0.9,4.2-1.8,6.2-2.7c0.9-0.4,1.8-0.8,2.7-1.2c0.1,0,0.1-0.1,0.2-0.1l0.1,0c1.2-0.5,2.3-1.1,3.5-1.6
						c0.4-0.2,0.9-0.4,1.3-0.6l2.4-1.2c1.2-0.6,2.4-1.2,3.7-1.9c0.5-0.3,1.1-0.6,1.6-0.8l0.7-0.4c0.5-0.2,0.9-0.5,1.4-0.7
						c2.7-1.5,5.3-2.9,7.8-4.3c0.4-0.2,0.8-0.5,1.2-0.7l0.4-0.3c1.1-0.7,2.2-1.3,3.4-2c0.5-0.3,1.1-0.7,1.6-1l0.1-0.1
						c0.4-0.3,0.9-0.5,1.3-0.8l0.8-0.5c0.5-0.3,1-0.6,1.5-1c0.4-0.2,0.8-0.5,1.2-0.8c1.1-0.7,2.2-1.4,3.3-2.2c2-1.3,4.1-2.7,6.2-4.2
						c2.1-1.5,4.2-3,6.2-4.5l0.7-0.5c0.5-0.3,0.9-0.7,1.4-1.1c1.5-1.1,2.9-2.2,4.2-3.2c1.6-1.3,3.2-2.5,4.7-3.7
						c3.9-3.1,7.8-6.5,11.7-10c10.2-9.2,19.5-18.9,27.6-29c0.1-0.1,0.1-0.2,0.2-0.3l1.3-1.6c2.2-2.7,4.3-5.6,6.3-8.4
						c0.1-0.2,0.2-0.3,0.4-0.5c-0.2-0.5-0.4-1-0.6-1.4c0,0,0-0.1,0-0.1c-0.1-0.3-0.2-0.5-0.3-0.8c0,0,0-0.1,0-0.1
						c0-0.1-0.1-0.2-0.1-0.3l-0.1-0.3c0,0,0-0.1,0-0.1c-0.2-0.6-0.5-1.1-0.7-1.7c0,0,0-0.1-0.1-0.1c0-0.1-0.1-0.2-0.1-0.3l-0.1-0.2
						c-0.3-0.6-0.6-1.3-0.9-1.9l-0.5-1c0,0,0-0.1,0-0.1l-0.2-0.4c-0.1-0.2-0.2-0.5-0.3-0.7c-0.1-0.1-0.1-0.2-0.2-0.3l-0.1-0.3
						c0-0.1-0.1-0.1-0.1-0.2c0-0.1-0.1-0.1-0.1-0.2c-0.4-0.8-0.8-1.6-1.1-2.4c0,0,0-0.1-0.1-0.1l0-0.1c0,0,0,0,0-0.1
						c-0.1-0.2-0.2-0.5-0.4-0.7l-0.1-0.2c-0.3-0.6-0.6-1.2-0.9-1.8l-0.2-0.4c-0.1-0.2-0.2-0.4-0.3-0.5c-0.1-0.1-0.1-0.3-0.2-0.4
						l-0.1-0.3c-0.3-0.6-0.5-1.1-0.8-1.6l-0.5-0.9c0,0,0-0.1-0.1-0.1c-0.1-0.2-0.2-0.4-0.3-0.5c0,0,0,0,0-0.1
						c-0.4-0.9-0.9-1.7-1.3-2.6c0,0,0-0.1,0-0.1c0-0.1-0.1-0.1-0.1-0.2l-0.1-0.1c-0.5-0.9-0.9-1.7-1.4-2.6c0-0.1-0.1-0.2-0.2-0.3
						c-0.3-0.5-0.6-1.1-0.9-1.7c-0.8-1.4-1.6-2.8-2.4-4.2c-0.1-0.3-0.3-0.5-0.4-0.8l-0.7-1.3c-0.2-0.3-0.4-0.7-0.6-1
						c-0.2-0.3-0.4-0.7-0.6-1c-0.4-0.7-0.8-1.4-1.2-2c-0.8-1.3-1.6-2.7-2.5-4c-0.4-0.7-0.8-1.3-1.3-2c-0.4-0.7-0.8-1.3-1.3-2
						l-0.1-0.1c-0.4-0.6-0.8-1.3-1.2-1.9c-0.9-1.3-1.7-2.6-2.6-3.9c-0.8-1.3-1.7-2.5-2.7-3.9l-1.3-1.9c-1-1.4-2-2.7-3-4.1
						c-0.4-0.6-0.8-1.1-1.3-1.7c-1-1.3-2.2-2.9-3.4-4.5c-0.8-1-1.6-2-2.5-3.1l-1.5-1.8c-2-2.5-4.2-5.1-6.5-7.6
						c-0.7-0.8-1.3-1.5-2-2.3c0,0,0-0.1-0.1-0.1c0,0-0.1-0.1-0.1-0.1c-0.7-0.8-1.4-1.5-2.1-2.3c-0.7-0.8-1.4-1.6-2.2-2.3
						c-1.8-1.9-3.7-3.9-5.6-5.8c-0.6-0.6-1.2-1.2-1.7-1.7c-0.5-0.5-1-1-1.6-1.5c-0.2-0.2-0.5-0.5-0.7-0.7c-0.5-0.5-1-1-1.5-1.5
						c-0.3-0.3-0.6-0.5-0.9-0.8c-0.2-0.1-0.3-0.3-0.5-0.4c-1.6,0.4-3.1,0.7-4.4,1.1c-0.9,0.2-1.8,0.5-2.7,0.7l-3.8,1.1
						c-3.5,1-7.1,2.2-10.7,3.4c-0.5,0.2-1,0.3-1.5,0.5l-1.2,0.4c-0.4,0.1-0.9,0.3-1.3,0.5c-0.8,0.3-1.5,0.5-2.2,0.8c0,0-0.1,0-0.1,0
						c0,0-0.1,0-0.2,0.1c0,0-0.1,0-0.1,0c-1.5,0.5-2.9,1.1-4.4,1.7c-0.8,0.3-1.5,0.6-2.2,0.9c-1.3,0.5-2.7,1.1-4.3,1.8
						c0,0-0.1,0-0.1,0.1c-0.1,0-0.1,0-0.2,0.1c-0.4,0.2-0.7,0.3-1.1,0.5l-0.8,0.4c0,0-0.1,0-0.1,0c-0.1,0-0.1,0.1-0.2,0.1l-0.4,0.2
						c-0.6,0.3-1.1,0.5-1.7,0.8c-0.2,0.1-0.4,0.2-0.6,0.3c-0.7,0.3-1.3,0.6-2,0.9l-0.1,0c-4.9,2.2-9.8,4.7-14.6,7.3l-0.4,0.2
						c-0.4,0.2-0.8,0.4-1.2,0.7c-0.8,0.4-1.6,0.9-2.4,1.3l-0.2,0.1c-0.4,0.2-0.7,0.4-1.1,0.6c0,0-0.1,0-0.1,0.1
						c-0.2,0.1-0.3,0.2-0.5,0.3l-1,0.6c-0.5,0.3-1.1,0.6-1.6,0.9c-0.7,0.4-1.3,0.8-2,1.2c-1.3,0.8-2.7,1.6-4,2.4
						c-1.3,0.8-2.6,1.6-3.9,2.4c-1.3,0.8-2.5,1.6-3.8,2.4c-0.6,0.4-1.2,0.8-1.8,1.2c-5.2,3.4-10.2,6.9-14.9,10.4
						c-0.6,0.4-1.2,0.9-1.8,1.3c-1.2,0.9-2.4,1.8-3.5,2.7c-1,0.8-2.1,1.6-3.1,2.4l-0.2,0.2c0,0,0,0-0.1,0.1l-0.5,0.4
						c-0.4,0.3-0.8,0.6-1.1,0.9c-3.2,2.6-6.4,5.4-9.4,8.1c-0.5,0.4-0.9,0.9-1.4,1.3c-4.6,4.2-9.1,8.6-13.1,13
						c-1.1,1.2-2.2,2.3-3.2,3.5l-1,1.2c-4.6,5.2-9,10.6-12.9,15.9c0,0.1-0.1,0.1-0.1,0.2c-1.8,2.5-3.6,5-5.3,7.7
						c-0.1,0.1-0.2,0.3-0.3,0.4c-0.1,0.1-0.2,0.2-0.2,0.4c-0.9,1.4-1.8,2.8-2.7,4.2c0,0-0.1,0.1-0.1,0.1c-0.1,0.1-0.2,0.3-0.2,0.4
						c0,0,0,0.1,0,0.1c-1.1,1.8-2.2,3.6-3.3,5.7c-0.3,0.6-0.6,1.1-0.9,1.7l-0.2,0.3c0,0,0,0.1-0.1,0.1c0,0.1-0.1,0.2-0.1,0.2
						c0,0,0,0.1,0,0.1c-1.1,2.1-2.2,4.2-3.2,6.2c0,0,0,0.1-0.1,0.1c-0.7,1.4-1.4,2.9-1.9,4.2c0,0,0,0.1-0.1,0.1l-0.7,1.6
						c0,0,0,0,0,0.1c0,0,0,0.1,0,0.1c-0.3,0.6-0.5,1.2-0.7,1.7c-0.1,0.2-0.2,0.4-0.2,0.6c0,0,0,0,0,0.1c-0.2,0.5-0.3,0.9-0.5,1.3
						c0,0.1,0,0.1-0.1,0.2c0,0,0,0.1,0,0.1c-0.1,0.3-0.2,0.5-0.2,0.7c0,0,0,0,0,0c-0.1,0.4-0.2,0.7-0.3,1c-0.1,0.2-0.1,0.3-0.1,0.4
						c0,0,0,0,0,0c0.1,0.5,0.2,1,0.4,1.4c0.2,0.6,0.3,1.3,0.5,1.9c0.2,0.6,0.4,1.2,0.5,1.8c0.1,0.3,0.2,0.7,0.3,1l0,0.1
						c0.3,1.1,0.7,2.1,1,3c0.2,0.6,0.4,1.2,0.7,1.8c0,0.1,0,0.1,0.1,0.2c0,0.1,0.1,0.3,0.2,0.4c0.2,0.5,0.3,0.9,0.5,1.3
						c0.3,0.8,0.6,1.6,0.9,2.4c0.1,0.2,0.1,0.3,0.2,0.5l0.3,0.7c0.1,0.1,0.1,0.3,0.2,0.4l0.4,1c0.3,0.6,0.5,1.2,0.8,1.8
						c0,0.1,0.1,0.1,0.1,0.2c0.2,0.4,0.3,0.8,0.5,1.1c0,0,0,0,0,0.1c0.1,0.3,0.3,0.6,0.4,0.8l0.2,0.5c0.4,0.8,0.7,1.5,1.1,2.3
						c0.7,1.5,1.5,2.9,2.3,4.3c0.2,0.4,0.5,0.9,0.7,1.3c0.5,0.9,1.1,1.8,1.7,2.8c0.5,0.8,0.9,1.5,1.4,2.3c0.2,0.3,0.3,0.5,0.4,0.7
						l0.3,0.5c0,0,0.1,0.1,0.1,0.1c0.4,0.7,0.9,1.3,1.3,2c0.6,0.8,1.2,1.6,1.7,2.4c0,0,0,0,0,0.1l0.1,0.1c0,0,0.1,0.1,0.1,0.1
						c0.5,0.6,0.9,1.3,1.4,1.9c0.6,0.8,1.2,1.5,1.9,2.4c0.3,0.4,0.6,0.8,0.9,1.1l0.4,0.5c0.1,0.1,0.1,0.2,0.2,0.2
						c0.5,0.6,1.1,1.3,1.7,2c0.3,0.4,0.7,0.8,1,1.1c0,0,0,0,0.1,0.1c0.4,0.5,0.8,0.9,1.3,1.4c0.4,0.4,0.8,0.9,1.2,1.3l0.1,0.1
						c0.6,0.6,1.1,1.2,1.7,1.7c0.1,0.1,0.2,0.2,0.3,0.3l0.1,0.1c0.6,0.6,1.2,1.1,1.7,1.7c0.6,0.6,1.2,1.2,1.9,1.7
						c0.1,0,0.1,0.1,0.2,0.1c2,1.8,4.1,3.6,6.2,5.3c0,0,0.1,0.1,0.1,0.1c0.1,0.1,0.3,0.2,0.4,0.3l1.7,1.3c0.7,0.5,1.4,1.1,2.1,1.6
						l0.1,0c0.1,0.1,0.2,0.2,0.4,0.3c0.1,0.1,0.2,0.1,0.3,0.2C249.2,437.1,249.4,437.2,249.7,437.4z M237.2,427.4
						C237.2,427.4,237.2,427.4,237.2,427.4C237.2,427.4,237.2,427.4,237.2,427.4z M204.5,390.6C204.5,390.6,204.5,390.6,204.5,390.6
						C204.5,390.6,204.5,390.6,204.5,390.6z M204.3,390C204.3,390,204.3,390,204.3,390C204.3,390,204.3,390,204.3,390z M204.3,390
						C204.3,390,204.3,390,204.3,390C204.3,390,204.3,390,204.3,390z M197.4,367.1c-0.1,0.2-0.2,0.4-0.3,0.6c0,0,0,0,0,0
						C197.2,367.4,197.3,367.2,197.4,367.1z M197.4,367.1C197.4,367.1,197.4,367.1,197.4,367.1C197.4,367.1,197.4,367.1,197.4,367.1
						z M204.3,362.7C204.3,362.7,204.3,362.7,204.3,362.7C204.3,362.7,204.3,362.7,204.3,362.7z M392.1,246.4
						C392.1,246.4,392.1,246.4,392.1,246.4C392.1,246.4,392.1,246.4,392.1,246.4z"/>
				</g>
				<g>
					<path class="st2" d="M228.9,448.3c-4.5,0-9-1.5-12.6-4.5c-15-12.4-26.2-28.6-32.4-46.9c-2.3-6.8-0.6-14.2,4.3-19.4l9.8-10.3
						c0.8-0.8,2.1-0.9,2.9-0.1c0.8,0.8,0.9,2.1,0.1,2.9l-9.8,10.3c-3.9,4.1-5.2,10-3.4,15.3c6,17.6,16.8,33.2,31.2,45.1
						c4.4,3.6,10.4,4.6,15.7,2.5l13.3-5.2c1.1-0.4,2.2,0.1,2.7,1.2c0.4,1.1-0.1,2.2-1.2,2.7l-13.3,5.2
						C233.8,447.9,231.3,448.3,228.9,448.3z"/>
				</g>
				<g class="st1">
					<path class="st0" d="M461.8,237c-11.2-5.4-45.1-6.3-48.9,3.9C409.2,250.6,472.9,242.4,461.8,237z"/>
				</g>
				<g>
					
						<ellipse transform="matrix(0.986 -0.167 0.167 0.986 -49.6559 62.2254)" class="st4" cx="345.2" cy="326.4" rx="41.4" ry="40.6"/>
				</g>
				<g class="st5">
					<path class="st0" d="M306.2,340.5c0.5,1.1,1,2.2,1.5,3.2c-6.5-19.8,3.6-41.7,23.5-50c20-8.3,42.8-0.1,52.6,18.3
						c-0.4-1.1-0.8-2.2-1.3-3.3c-8.8-20.7-33-30.3-54.1-21.6C307.4,296,297.4,319.9,306.2,340.5z"/>
				</g>
				<g>
					<path class="st2" d="M345,369.3c-17,0-33.1-9.8-40.1-26.1l0,0c-4.4-10.4-4.5-22-0.2-32.5c4.4-10.8,12.8-19.2,23.7-23.7
						c22.2-9.2,47.8,1,57,22.7c4.4,10.4,4.5,22,0.2,32.5c-4.4,10.8-12.8,19.2-23.7,23.7C356.4,368.2,350.6,369.3,345,369.3z
						 M309,341.4c8.3,19.5,31.3,28.7,51.2,20.4c9.8-4.1,17.3-11.6,21.3-21.3c3.8-9.4,3.8-19.8-0.2-29.1
						c-8.3-19.5-31.3-28.7-51.2-20.4c-9.8,4.1-17.3,11.6-21.3,21.3C305,321.7,305,332.1,309,341.4L309,341.4z"/>
				</g>
				<g>
					<path class="st12" d="M321.3,336.3c3.3,7.7,10.1,13,17.8,14.8c4.3,1,8.9,0.9,13.4-0.4c0.9-0.3,1.7-0.6,2.6-0.9
						c1.3-0.6,2.6-1.2,3.8-2c4.1-2.5,7.2-6,9.3-10.1c3.3-6.4,3.8-14.1,0.8-21.2c-3-7.1-9-12.1-15.9-14.3c-4.4-1.4-9.1-1.6-13.8-0.5
						c-1.4,0.3-2.7,0.8-4.1,1.3c-0.9,0.4-1.7,0.8-2.5,1.2c-4.1,2.2-7.4,5.4-9.7,9.2C318.9,320.1,318,328.5,321.3,336.3z"/>
				</g>
				<g>
					<g>
						<defs>
							<polygon id="SVGID_1_" points="15.8,0.4 16,0.4 15.8,0.6 							"/>
						</defs>
						<defs>
							<polygon id="SVGID_4_" points="15.6,0.1 15.4,0.1 15.6,0 							"/>
						</defs>
						<clipPath id="SVGID_5_">
							<use xlink:href="#SVGID_1_"  style="overflow:visible;"/>
						</clipPath>
						<clipPath id="SVGID_6_" class="st13">
							<use xlink:href="#SVGID_4_"  style="overflow:visible;"/>
						</clipPath>
						<defs>
							<filter id="Adobe_OpacityMaskFilter" filterUnits="userSpaceOnUse" x="323.6" y="304.3" width="47.8" height="28">
								<feColorMatrix  type="matrix" values="1 0 0 0 0  0 1 0 0 0  0 0 1 0 0  0 0 0 1 0"/>
							</filter>
						</defs>
						<mask maskUnits="userSpaceOnUse" x="323.6" y="304.3" width="47.8" height="28" id="SVGID_7_">
							<g class="st14">
								<g>
									<defs>
										<polygon id="SVGID_8_" points="15.8,0.4 16,0.4 15.8,0.6 										"/>
									</defs>
									<defs>
										<polygon id="SVGID_9_" points="15.6,0.1 15.4,0.1 15.6,0 										"/>
									</defs>
									<clipPath id="SVGID_10_" class="st15">
										<use xlink:href="#SVGID_8_"  style="overflow:visible;"/>
									</clipPath>
									<clipPath id="SVGID_11_" class="st16">
										<use xlink:href="#SVGID_9_"  style="overflow:visible;"/>
									</clipPath>
									
										<linearGradient id="SVGID_12_" gradientUnits="userSpaceOnUse" x1="1322.2686" y1="1305.8735" x2="1322.1808" y2="1280.8525" gradientTransform="matrix(-0.3778 0.9259 -0.9259 -0.3778 2047.8182 -417.9292)">
										<stop  offset="0" style="stop-color:#FFFFFF"/>
										<stop  offset="1" style="stop-color:#000000"/>
									</linearGradient>
									<path class="st17" d="M323.6,313.5l47.1,18.8c1.1-4.6,0.8-9.3-0.6-13.5l-36.3-14.5C329.7,306.3,326.2,309.5,323.6,313.5z"
										/>
								</g>
							</g>
						</mask>
						
							<linearGradient id="SVGID_13_" gradientUnits="userSpaceOnUse" x1="1322.2686" y1="1305.8735" x2="1322.1808" y2="1280.8525" gradientTransform="matrix(-0.3778 0.9259 -0.9259 -0.3778 2047.8182 -417.9292)">
							<stop  offset="0" style="stop-color:#FFFFFF"/>
							<stop  offset="1" style="stop-color:#000000"/>
						</linearGradient>
						<path class="st18" d="M323.6,313.5l47.1,18.8c1.1-4.6,0.8-9.3-0.6-13.5l-36.3-14.5C329.7,306.3,326.2,309.5,323.6,313.5z"/>
					</g>
				</g>
				
					<linearGradient id="SVGID_14_" gradientUnits="userSpaceOnUse" x1="1322.2686" y1="1305.8735" x2="1322.1808" y2="1280.8525" gradientTransform="matrix(-0.3778 0.9259 -0.9259 -0.3778 2047.8182 -417.9292)">
					<stop  offset="0" style="stop-color:#FFFFFF"/>
					<stop  offset="1" style="stop-color:#FFFFFF"/>
				</linearGradient>
				<path class="st19" d="M323.6,313.5l47.1,18.8c1.1-4.6,0.8-9.3-0.6-13.5l-36.3-14.5C329.7,306.3,326.2,309.5,323.6,313.5z"/>
				<g>
					<g>
						<defs>
							<polygon id="SVGID_15_" points="15.8,0.4 16,0.4 15.8,0.6 							"/>
						</defs>
						<defs>
							<polygon id="SVGID_16_" points="15.6,0.1 15.4,0.1 15.6,0 							"/>
						</defs>
						<clipPath id="SVGID_17_">
							<use xlink:href="#SVGID_15_"  style="overflow:visible;"/>
						</clipPath>
						<clipPath id="SVGID_18_" class="st20">
							<use xlink:href="#SVGID_16_"  style="overflow:visible;"/>
						</clipPath>
						<defs>
							<filter id="Adobe_OpacityMaskFilter_1_" filterUnits="userSpaceOnUse" x="319.7" y="319.8" width="48.5" height="28.5">
								<feColorMatrix  type="matrix" values="1 0 0 0 0  0 1 0 0 0  0 0 1 0 0  0 0 0 1 0"/>
							</filter>
						</defs>
						<mask maskUnits="userSpaceOnUse" x="319.7" y="319.8" width="48.5" height="28.5" id="SVGID_19_">
							<g class="st21">
								<g>
									<defs>
										<polygon id="SVGID_20_" points="15.8,0.4 16,0.4 15.8,0.6 										"/>
									</defs>
									<defs>
										<polygon id="SVGID_21_" points="15.6,0.1 15.4,0.1 15.6,0 										"/>
									</defs>
									<clipPath id="SVGID_22_" class="st22">
										<use xlink:href="#SVGID_20_"  style="overflow:visible;"/>
									</clipPath>
									<clipPath id="SVGID_23_" class="st23">
										<use xlink:href="#SVGID_21_"  style="overflow:visible;"/>
									</clipPath>
									
										<linearGradient id="SVGID_24_" gradientUnits="userSpaceOnUse" x1="1341.5323" y1="1305.9828" x2="1341.4438" y2="1280.7529" gradientTransform="matrix(-0.3778 0.9259 -0.9259 -0.3778 2047.8182 -417.9292)">
										<stop  offset="0" style="stop-color:#FFFFFF"/>
										<stop  offset="1" style="stop-color:#000000"/>
									</linearGradient>
									<path class="st24" d="M320.5,333l38.5,15.3c3.8-2.3,7-5.5,9.2-9.6l-47.5-18.9C319.4,324.3,319.4,328.8,320.5,333z"/>
								</g>
							</g>
						</mask>
						
							<linearGradient id="SVGID_25_" gradientUnits="userSpaceOnUse" x1="1341.5323" y1="1305.9828" x2="1341.4438" y2="1280.7529" gradientTransform="matrix(-0.3778 0.9259 -0.9259 -0.3778 2047.8182 -417.9292)">
							<stop  offset="0" style="stop-color:#FFFFFF"/>
							<stop  offset="1" style="stop-color:#000000"/>
						</linearGradient>
						<path class="st25" d="M320.5,333l38.5,15.3c3.8-2.3,7-5.5,9.2-9.6l-47.5-18.9C319.4,324.3,319.4,328.8,320.5,333z"/>
					</g>
				</g>
				
					<linearGradient id="SVGID_26_" gradientUnits="userSpaceOnUse" x1="1341.5323" y1="1305.9828" x2="1341.4438" y2="1280.7529" gradientTransform="matrix(-0.3778 0.9259 -0.9259 -0.3778 2047.8182 -417.9292)">
					<stop  offset="0" style="stop-color:#FFFFFF"/>
					<stop  offset="1" style="stop-color:#FFFFFF"/>
				</linearGradient>
				<path class="st26" d="M320.5,333l38.5,15.3c3.8-2.3,7-5.5,9.2-9.6l-47.5-18.9C319.4,324.3,319.4,328.8,320.5,333z"/>
				<g>
					<path class="st2" d="M345,353.4c-10.7,0-20.9-6.2-25.3-16.5l0,0c-2.8-6.6-2.8-13.9-0.1-20.5c2.8-6.8,8.1-12.1,14.9-15
						c14-5.8,30.1,0.6,36,14.3c2.8,6.6,2.8,13.9,0.1,20.5c-2.8,6.8-8.1,12.1-14.9,15C352.2,352.7,348.6,353.4,345,353.4z
						 M322.9,335.6c5.1,12,19.3,17.7,31.6,12.6c6-2.5,10.7-7.2,13.1-13.1c2.4-5.8,2.3-12.2-0.1-17.9c-5.1-12-19.3-17.7-31.6-12.6
						c-6,2.5-10.7,7.2-13.1,13.1C320.4,323.5,320.4,329.9,322.9,335.6L322.9,335.6z"/>
				</g>
				<g>
					<g>
						<path class="st6" d="M167.9,424.6c0,0-19.7-6.8-32.8,32.4c-0.6,1.8,0.6,3.8,2.6,4c10.5,1.1,40,2.5,43.3-16.2L167.9,424.6z"/>
					</g>
					<g>
						<path class="st6" d="M169.8,427.5c0,0-14-4.9-23.3,23c-0.4,1.2,0.4,2.5,1.7,2.6c7.3,0.8,28.4,1.9,30.8-11.5L169.8,427.5z"/>
					</g>
					<g>
						<path class="st6" d="M172.1,429.3c0,0-9.4-3.3-15.7,15.5c-0.3,0.8,0.3,1.7,1.2,1.8c4.9,0.5,19.2,1.3,20.8-7.7L172.1,429.3z"/>
					</g>
					<g>
						<path class="st2" d="M148.4,463.5c-4.2,0-8-0.3-10.9-0.6c-1.5-0.2-2.9-1-3.7-2.3c-0.8-1.3-1-2.8-0.5-4.3
							c5.6-16.7,13.1-27.5,22.2-32c7.3-3.6,12.9-1.7,13.1-1.6c0.4,0.1,0.8,0.4,1,0.8l13.1,20.1c0.3,0.4,0.4,0.9,0.3,1.4
							C180.2,460.4,162.2,463.5,148.4,463.5z M164.2,426.1c-5.6,0-18,3.5-27.3,31.5c-0.1,0.4,0,0.7,0.1,0.9c0.1,0.2,0.4,0.4,0.8,0.5
							c8.8,0.9,37.3,2.6,41-13.9l-12.2-18.8C166.1,426.2,165.3,426.1,164.2,426.1z"/>
					</g>
				</g>
				<g>
					<path class="st7" d="M192.8,434.7c-2.6,6.8-8.5,10.6-8.5,10.6S179,442.7,173,434c-5.9-8.8-6.3-14.6-6.3-14.6s5.9-3.9,13.3-3.6
						L192.8,434.7z"/>
				</g>
				<g>
					<path class="st2" d="M184.2,447.4c-0.3,0-0.6-0.1-0.9-0.2c-0.2-0.1-5.8-2.9-12-12.1c-6.2-9.1-6.6-15.3-6.7-15.6
						c0-0.7,0.3-1.5,0.9-1.9c0.3-0.2,6.6-4.2,14.5-4c1.1,0,2,1,2,2.1c0,1.1-1,2-2.1,2c-4.8-0.2-9,1.6-10.9,2.7
						c0.4,2,1.8,6.5,5.8,12.4c4,5.9,7.7,8.9,9.4,10.1c1.7-1.4,5-4.5,6.7-8.9c0.4-1.1,1.6-1.6,2.7-1.2c1.1,0.4,1.6,1.6,1.2,2.7
						c-2.8,7.3-9.1,11.4-9.3,11.6C185,447.3,184.6,447.4,184.2,447.4z"/>
				</g>
				<g>
					<path class="st4" d="M201.1,439.4c-11.5,4.4-19.1-7.4-20.9-10.1c-1.8-2.7-9.9-14.1-1.4-22.9c8.7-8.9,54.5-34.1,64.9-18.6
						C254.1,403.2,212.7,435,201.1,439.4z"/>
				</g>
				<g class="st5">
					<path class="st0" d="M178.5,426.7c-1.7-4.6-2.2-10.4,2.7-15.4c8.4-8.7,52.2-32.8,64.1-19.7c-0.2-1.4-0.7-2.6-1.5-3.8
						c-10.4-15.5-56.3,9.8-64.9,18.6C171.9,413.4,175.8,422.1,178.5,426.7z"/>
				</g>
				<g>
					<path class="st2" d="M196,442.9c-5.3,0-11.6-2.7-17.8-12l-0.3-0.4c-8.9-13.1-5.4-21.3-0.9-25.9c6.8-6.9,38.6-25.9,57.6-24.2
						c5.2,0.5,9,2.5,11.3,5.9c2.3,3.5,2.7,7.7,1.2,12.5c-5.7,17.9-35.9,39.5-45,43l0,0C200.2,442.5,198.2,442.9,196,442.9z
						 M232,385.4c-16.4,0-44.8,15.9-51.4,22.8c-4.6,4.8-4.1,11.1,1.5,19.5l0.3,0.5c5.6,8.4,11.4,11.3,17.7,8.9l0,0
						c9.4-3.6,37.2-24.6,42-39.7c1.1-3.3,0.9-6-0.6-8.1c-1.5-2.2-3.9-3.4-7.5-3.7C233.4,385.4,232.7,385.4,232,385.4z"/>
				</g>
				<g>
					<path class="st2" d="M217.3,430.8c-0.3,0-0.7-0.1-1-0.3c-11.2-8.9-19.3-20.8-23.3-34.5c-0.2-0.8,0.2-1.7,1-1.9
						c0.8-0.2,1.7,0.2,1.9,1c3.8,13.1,11.5,24.5,22.2,33c0.7,0.5,0.8,1.5,0.3,2.2C218.2,430.6,217.8,430.8,217.3,430.8z"/>
				</g>
			</g>
		</g>
		<g>
			<g>
				<path class="st0" d="M254.7,204.7v40.8c-2.8,0.7-5.7,1.4-8.5,1.9c-44.4,8.5-88.5-6.7-93.5-43.2l4.3-12.7l2.8-8l-5.1-6.6
					l-1.6-2.1l-5.6-7.2c-0.9-1.2-1.3-2.8-0.9-4.3c0.5-2,2.1-3.4,4.3-3.4c1.5,0,2.9,0.8,3.9,1.9l10.9,12.8l-2.5-17.2
					c-0.4-4.7,6.8-5.9,7.9-1.3c5.9,16.1,8.3,32.7,20.6,43.1c13.1,11.8,25.9,14.2,41,11.6c4.7-0.8,9.5-2,14.7-3.6
					C249.5,206.4,252.1,205.6,254.7,204.7z"/>
			</g>
			<g class="st3">
				<path class="st2" d="M244,224.7c0.1-6.8,0.8-12.9,1.7-18c-1.7,0.9-3.7,1.8-6.2,2.6c-2.7,0.9-5.1,1.3-7.1,1.5
					c4.7,4.9,4.4,13.6-1.9,16.8c-32.1,8.3-51.7,1.2-62.9-13.1c-1.2-1.5-1.9-3.5-1.9-5.4c0.1-5.9,6.2-6.6,9.1-3.5l-0.3-13.3l-8.4-0.3
					l-5.5,5c-0.2,2.7,0.1,5.4,1.1,8.2c-2.1-4.3-3.7-8.9-4.8-13.7l-4.3,12.7c5,36.5,49.1,51.7,93.5,43.2
					C244.9,241.2,243.9,233.5,244,224.7z"/>
			</g>
			<g>
				<path class="st2" d="M222.5,251.9c-19.3,0-37-4.5-50.1-13.3c-12.5-8.4-20.1-20.2-22-34.1c0-0.3,0-0.7,0.1-1l6.7-19.6l-11.7-15
					c-1.4-1.8-1.9-4.1-1.3-6.2c0.8-3.1,3.3-5,6.4-5c0,0,0,0,0.1,0c2.1,0,4.1,1,5.6,2.7l5.8,6.9l-1.4-9.5c0,0,0-0.1,0-0.1
					c-0.3-3.7,2.4-6.1,5.3-6.6c3.3-0.5,6.1,1.3,6.9,4.4c1.4,3.9,2.6,7.8,3.8,11.5c3.7,11.9,7.2,23.1,16.1,30.5
					c17.9,16,34.6,14.3,61.1,5.1c0.7-0.2,1.4-0.1,2,0.3c0.6,0.4,0.9,1.1,0.9,1.8v40.8c0,1-0.7,1.9-1.7,2.2
					C244.2,250.5,233.1,251.9,222.5,251.9z M154.9,204.4c1.8,12.4,8.7,23,20,30.5c18.8,12.6,48.4,16,77.5,8.8v-35.9
					c-25.9,8.6-43.9,9.8-62.5-7c-9.8-8.3-13.5-20.1-17.4-32.6c-1.2-3.8-2.4-7.6-3.8-11.4c0-0.1-0.1-0.2-0.1-0.3
					c-0.3-1.3-1.4-1.2-1.9-1.2c-0.3,0-1.6,0.3-1.6,1.7l2.5,17.1c0.1,1-0.4,1.9-1.3,2.4c-0.9,0.4-2,0.2-2.6-0.6l-10.9-12.8
					c-0.6-0.7-1.4-1.1-2.2-1.1c0,0,0,0,0,0c-1.4,0-1.9,1.1-2.1,1.7c-0.2,0.8,0,1.6,0.6,2.4l12.4,16c0.5,0.6,0.6,1.4,0.3,2.1
					L154.9,204.4z M254.7,245.5L254.7,245.5L254.7,245.5z"/>
			</g>
			<g>
				<path class="st0" d="M159.7,183.5l5.6,7.5c0.7,1,1.1,2.2,0.8,3.3c-0.2,0.9-0.8,1.6-1.6,2.1c-1.7,1.1-4,0.6-5.3-1l-9.1-10.8
					c-2.5-2.9-0.5-7.5,3.4-7.6c0.1,0,0.1,0,0.2,0c0.7,0,1.3,0.3,1.7,0.9L159.7,183.5z"/>
			</g>
			<g>
				<path class="st0" d="M153.6,192.3l6.1,7.1c0.8,0.9,1.2,2.1,1,3.3c-0.2,0.9-0.7,1.7-1.4,2.2c-1.6,1.2-3.9,0.8-5.3-0.6l-9.7-10.2
					c-2.7-2.8-1-7.5,2.9-7.8c0.1,0,0.1,0,0.2,0c0.7,0,1.3,0.3,1.8,0.8L153.6,192.3z"/>
			</g>
			<g>
				<path class="st2" d="M162.6,199.2c-1.8,0-3.7-0.8-5-2.3l-9.1-10.8c-1.7-2-2.1-4.8-1-7.2c1.1-2.4,3.4-3.9,6-4l0.2,0
					c1.4,0,2.7,0.6,3.5,1.7l4.3,5.5c0,0,0,0,0,0l5.6,7.5c1.2,1.6,1.6,3.5,1.1,5.2c-0.4,1.5-1.3,2.7-2.5,3.5
					C164.8,198.9,163.7,199.2,162.6,199.2z M153.7,179.3L153.7,179.3c-1.4,0-1.9,1-2.1,1.4c-0.4,0.9-0.3,1.8,0.3,2.6L161,194
					c0.6,0.7,1.7,1,2.4,0.5c0.3-0.2,0.5-0.4,0.6-0.8c0.1-0.4,0-1-0.4-1.5l-5.6-7.5L153.7,179.3C153.7,179.3,153.7,179.3,153.7,179.3
					z"/>
			</g>
			<g>
				<path class="st2" d="M157,207.9c-1.7,0-3.4-0.7-4.7-2l-9.7-10.2c-1.8-1.9-2.4-4.7-1.5-7.2c0.9-2.5,3.1-4.1,5.7-4.4l0.2,0
					c1.3-0.1,2.7,0.5,3.6,1.5l4.6,5.3c0,0,0,0,0,0l6.1,7.1c1.3,1.5,1.8,3.4,1.5,5.1c-0.3,1.5-1.1,2.8-2.3,3.6
					C159.4,207.5,158.2,207.9,157,207.9z M147.3,188.5L147.3,188.5c-1.4,0.1-1.9,1.1-2,1.5c-0.3,0.9-0.1,1.8,0.5,2.5l9.7,10.2
					c0.7,0.7,1.7,0.9,2.4,0.4c0.3-0.2,0.5-0.5,0.5-0.8c0.1-0.5-0.1-1-0.5-1.4l-6.1-7.1L147.3,188.5L147.3,188.5z"/>
			</g>
			<g>
				<path class="st0" d="M176.9,207.5c-4.9-3.2-5.5-10.1-2.4-15.2c-3,0.9-5.8,0.8-8.4-0.3c-1.4-0.6-2-2.2-1.4-3.6
					c4.2-9.1,20.7-13.7,27.1,6.3c0.9,4.6,5.8,9.9,12.7,15.4"/>
			</g>
			<g>
				<path class="st2" d="M176.3,208.5c-6.1-3.3-6.9-11.7-3.6-17.4c0,0,2.5,3.3,2.5,3.3c-3.5,1-8.1,1.2-11.2-1.2
					c-1.5-1.3-2.1-3.7-1.3-5.6c1-2.2,2.5-4.1,4.4-5.6c8.6-6.9,19.3-3.5,24.3,5.8c1.1,2.1,2,4.2,2.7,6.4c0.6,2.5,2.9,4.5,4.9,6.3
					c2.4,2,5,3.9,7.5,5.9c2.2,1.9-0.4,5.3-2.8,3.5c-2.5-2-5-3.9-7.6-6c-2.7-2.3-5.6-4.9-6.5-8.8c-1.3-4.2-4.7-10.7-10.1-12
					c-4.2-1.2-8.9,0.8-11.6,4.2c-0.5,0.6-0.9,1.3-1.2,2c-0.2,0.5,0.4,0.6,0.8,0.8c2,0.7,4.1,0.6,6.3,0c1.2-0.4,2.5,0.2,2.9,1.4
					c0.2,0.7,0.1,1.4-0.3,1.9c-2.8,3.8-2.9,10,1.2,13C178.8,207.4,177.6,209.2,176.3,208.5L176.3,208.5z"/>
			</g>
			<g>
				<path class="st2" d="M208.8,250.7c-0.7,0-1.3-0.4-1.7-1c-7.3-12.9-3.9-30.9,7.5-40c0.8-0.7,2-0.5,2.7,0.3c0.7,0.8,0.5,2-0.3,2.7
					c-10,8-13,23.8-6.6,35.1c0.5,0.9,0.2,2.1-0.7,2.6C209.4,250.7,209.1,250.7,208.8,250.7z"/>
			</g>
			<g class="st1">
				<path class="st2" d="M154.6,176.8l-1.6-2.1l1.4-1.4C154.4,174.5,154.5,175.6,154.6,176.8z"/>
			</g>
		</g>
		<g>
			<g>
				<path class="st0" d="M356.6,327.9c-0.7,2.3-2.2,4.2-4.2,5.4c0,0-0.1,0-0.1,0.1c-12.7,7.5-26.6,10.5-41.2,10.8
					c-3,0-5.9-1.1-7.9-3.2c-6.3-6.4-8.3-18.9-8.3-34c-16.6,3.9-25.7-1-28.8-3c-8.9-5.8-12.3-15.7-16.2-32.5
					c-0.7-3.1-1.5-6.5-2.3-10.2c-2-9.3-3.5-16.3-3.4-26c0.2-14.9,4-26.7,7-34.2c18.8-4.6,37.6-9.2,56.5-13.8l16,13
					c7,5.8,11.9,11.6,11.9,17.4l-28.2,48.8l-1.8,3.1l-0.5,0.9c23,4.3,42.3,4.7,36.5,41.6C352,310.7,359.8,317.3,356.6,327.9z"/>
			</g>
			<g>
				<path class="st2" d="M246.4,234.9c2.4,16.9,3.4,34.4,9,50.5c4.6,12.8,12.6,20.5,26.6,20.6c4.1,0.1,8.3-0.4,12.4-1.2
					c1.2-0.2,2.4,0.6,2.6,1.8c0.2,9.7,0.4,20.4,4.9,29c1.8,3.2,4.5,6.2,8.4,6.3c5.5,0,11.1-0.5,16.5-1.5c7.3-1.4,14.4-3.7,20.9-7.1
					c2.8-1.4,6-2.9,6.8-6.3c1.7-5.4-0.4-10.7-6.1-12.3c-2.1-0.6-4.3-0.7-6.6-0.4c-1.4,0.2-2.7-1.1-2.5-2.6
					c1.3-9.7,2.5-22.1-4.9-29.5c-7.5-7-20-7.6-29.8-9.6c-1.5-0.2-2.3-2-1.5-3.3c0,0,30.5-52.9,30.5-52.9l-0.3,1.1
					c0.3-6.6-5.7-12.4-10.1-16.9c-0.3-0.3-0.3-0.7,0-1c0.2-0.2,0.6-0.3,0.9-0.1c5.9,4.5,13,9.8,13.7,18c0,0.4-0.1,0.8-0.3,1.1
					l-30.5,52.9l-1.5-3.3c10.8,2.2,23.6,2.8,32.1,10.8c8.7,8.6,7.8,22.2,6.2,33.3l-2.5-2.6c2.8-0.4,5.7-0.3,8.5,0.6
					c6.1,1.7,10.2,7.1,9.8,13.6c-0.2,3-0.9,6-2.8,8.4c-1.8,2.3-4.4,3.5-6.9,4.9c-6.9,3.6-14.5,6.1-22.1,7.5
					c-5.1,0.9-10.3,1.4-15.5,1.6c-3,0.2-6-0.4-8.5-2.1c-6.9-4.9-9-13.9-10.2-21.8c-0.7-5.2-0.9-10.3-0.9-15.5l2.7,2.2
					c-4.4,0.8-8.8,1.4-13.4,1.3c-27.8-0.1-33.2-27.1-36.5-49.2c-1.3-8.6-2.3-17.2-3.4-25.8C241.7,232.6,245.9,232,246.4,234.9
					L246.4,234.9z"/>
			</g>
			<g>
				<path class="st2" d="M305,272.4c-2.4-0.1-4.9-0.4-7.2-1.2c-0.4-0.1-0.6-0.6-0.5-1c0.1-0.2,0.3-0.4,0.5-0.5
					c2.4-0.8,4.8-1.1,7.2-1.2C307.5,268.6,307.6,272.4,305,272.4L305,272.4z"/>
			</g>
			<g>
				<path class="st2" d="M354.2,319.3c-3.3-4.5-9.1-5.8-14.5-4.8c-5.8,0.9-10.9,4.1-15.8,7.5c-0.5,0.3-1.2,0.2-1.5-0.3
					c-0.3-0.4-0.2-0.9,0-1.2c1.9-2.6,4.4-4.8,7.2-6.5c2.8-1.7,5.9-3,9.2-3.7c6.7-1.6,14.9,0.4,18.9,6.4
					C359.5,319.1,356,321.6,354.2,319.3L354.2,319.3z"/>
			</g>
			<g>
				<path class="st2" d="M294.8,308.9c-0.1,0-0.3,0-0.4,0c-1-0.2-1.7-1.2-1.5-2.3c3-14.1,9.9-24.3,19.5-28.9
					c7.5-3.5,16.1-3.3,23.7,0.5c0.9,0.5,1.3,1.6,0.8,2.6c-0.5,0.9-1.6,1.3-2.6,0.8c-6.5-3.3-13.9-3.5-20.3-0.5
					c-8.5,4-14.6,13.3-17.4,26.2C296.5,308.3,295.7,308.9,294.8,308.9z"/>
			</g>
			<g class="st3">
				<path class="st2" d="M352.1,333c0,0-0.1,0-0.1,0.1c-12.7,7.5-26.6,10.5-41.2,10.8c-3,0-5.9-1.1-7.9-3.2
					c-6.3-6.4-8.3-18.9-8.3-34c-16.6,3.9-25.7-1-28.8-3c-8.9-5.8-12.3-15.7-16.2-32.5l0.3-0.9l43.1-10.4l14,6.4l13.2,6
					c-2.9-0.9-8.6-2.5-15-2.8c-4.7-0.2-9.8,0.3-14.3,2.4c-2.3,1.1-5.9,2.8-7,6.4c-1.2,4,1.4,7.8,1.9,8.5c1.2,1.7,2.7,2.8,4.2,3.6
					c8.3,4.3,15.4,10.7,19.7,19c2.4,4.6,4.4,9.3,5.6,14.1c1.7,6.4,7,11.4,13.6,12.3C335.5,336.4,343.6,335.1,352.1,333z"/>
			</g>
			<g class="st3">
				<path class="st2" d="M320.6,184.2c-11.7,13.1-28.5,24.1-48.3,33.8c-6.7,3.3-10.3,10.7-8.8,18l4.6,21.7l-20.5,3.6
					c-4.3-24.7-5.5-47.6,1.2-65.8L320.6,184.2z"/>
			</g>
		</g>
		<g>
			<g>
				<path class="st0" d="M347.2,249.5l-36.5,16.9c-4.3,2-9.5,0.1-11.5-4.2l-9-19.4c-1.8-3.8-0.5-8.2,2.7-10.6c0.5-0.3,1-0.6,1.5-0.9
					l36.5-16.9c4.3-2,9.5-0.1,11.5,4.2l7.1,15.4l1.9,4C353.5,242.3,351.6,247.5,347.2,249.5z"/>
			</g>
			<g>
				<path class="st0" d="M347.2,249.5l-36.5,16.9c-4.3,2-9.5,0.1-11.5-4.2l-9-19.4c-1.8-3.8-0.5-8.2,2.7-10.6c0.5-0.3,1-0.6,1.5-0.9
					l36.5-16.9c4.3-2,9.5-0.1,11.5,4.2l7.1,15.4l1.9,4C353.5,242.3,351.6,247.5,347.2,249.5z"/>
			</g>
			<g>
				<path class="st0" d="M347.2,249.5l-36.5,16.9c-4.3,2-9.5,0.1-11.5-4.2l-9-19.4c-1.8-3.8-0.5-8.2,2.7-10.6c0.5-0.3,1-0.6,1.5-0.9
					l36.5-16.9c4.3-2,9.5-0.1,11.5,4.2l7.1,15.4l1.9,4C353.5,242.3,351.6,247.5,347.2,249.5z"/>
			</g>
			<g class="st3">
				<path class="st2" d="M347,249.2L310.5,266c-4.3,2-9.5,0.1-11.5-4.2l-9-19.4c-1.8-3.8-0.5-8.2,2.7-10.6c2.7,0.4,4.4,0.7,4.4,0.7
					c9,14.8,17,20.5,36.5,11.8c8.4-3.7,13.1-7.4,15.6-10.7l1.9,4C353.2,242,351.3,247.2,347,249.2z"/>
			</g>
			<g>
				<path class="st2" d="M308,268.5c-4.6,0-9-2.6-11.1-7.1l-7.6-16.5c-1.4-2.9-1.5-6.3-0.4-9.3c1.1-3.1,3.4-5.5,6.3-6.9l33.5-15.5
					c2.9-1.4,6.3-1.5,9.3-0.4c3.1,1.1,5.5,3.4,6.9,6.3l7.6,16.5c1.4,2.9,1.5,6.3,0.4,9.3c-1.1,3.1-3.4,5.5-6.3,6.9l-33.5,15.5
					l-0.8-1.7l0.8,1.7C311.4,268.2,309.7,268.5,308,268.5z M333.8,216c-1.2,0-2.4,0.3-3.5,0.8l-33.5,15.5c-2,0.9-3.6,2.6-4.3,4.7
					c-0.8,2.1-0.7,4.4,0.2,6.4l7.6,16.5c0.9,2,2.6,3.6,4.7,4.3c2.1,0.8,4.4,0.7,6.4-0.2l33.5-15.5c4.2-1.9,6-6.9,4.1-11.1l-7.6-16.5
					c-0.9-2-2.6-3.6-4.7-4.3C335.8,216.2,334.8,216,333.8,216z"/>
			</g>
			<g>
				<path class="st0" d="M334.3,255.3l0,0.2l-23.5,10.9c-3.2,1.5-6.8,0.8-9.3-1.3c-0.9-0.8-1.7-1.8-2.2-2.9l-4-8.6l-1.3-2.8l-2.3-5
					l-1.4-2.9c-2-4.3-0.1-9.5,4.2-11.5l7.9-3.6c-3.3,2.4-4.6,6.8-2.8,10.7l2.7,5.8l2.2,4.7l4.1,8.9c2,4.3,7.2,6.2,11.5,4.2
					L334.3,255.3z"/>
			</g>
			<g class="st3">
				<path class="st2" d="M337.7,253.3l0,0.2l-27.2,12.6c-3.2,1.5-6.8,0.8-9.3-1.3c-0.9-0.8-1.7-1.8-2.2-2.9l-4-8.6l-1.3-2.8l-2.3-5
					c1.5-0.9,3.7-1.7,5.9,0.1c3.1,2.5,4.3,0.7,4.7-1.8l2.2,4.7l4.1,8.9c2,4.3,7.2,6.2,11.5,4.2L337.7,253.3z"/>
			</g>
			<g>
				<path class="st2" d="M307.2,269.1c-1.2,0-2.5-0.2-3.7-0.7c-2.7-1-4.8-2.9-5.9-5.5l-9-19.4c-1.2-2.6-1.3-5.4-0.3-8.1
					c1-2.7,2.9-4.8,5.5-5.9l7.9-3.6l1.9,3.3c-2.6,1.9-3.6,5.4-2.2,8.3l9,19.4c0.8,1.6,2.1,2.9,3.8,3.5c1.7,0.6,3.5,0.6,5.1-0.2
					c0,0,23.1-10.5,23.8-10.8l1.7-0.8l0.8,1.7c0.6,1.3-0.1,2-1,2.5l0,0l-33,15.3C310.2,268.7,308.7,269.1,307.2,269.1z M297.2,232.1
					l-1.8,0.9c-1.6,0.8-2.9,2.1-3.5,3.8c-0.6,1.7-0.6,3.5,0.2,5.2l9,19.4c0.8,1.6,2.1,2.9,3.8,3.5c1.7,0.6,3.5,0.6,5.1-0.2l2.1-1
					c-2.3-1-4.2-2.9-5.2-5.2l-9-19.4C296.8,236.8,296.6,234.4,297.2,232.1z"/>
			</g>
			<g>
				<path class="st12" d="M318.6,241.6c0.4,0.7,2.3,6.9,2.3,6.9s-1.8,0.9-4,2.1c-2.8,1.4-6.5-0.3-8.3-3.8c-1.8-3.5-1.1-7.5,1.7-9
					c1.9-1,4-2.1,4-2.1S318,240.5,318.6,241.6z"/>
			</g>
			<g>
				<path class="st27" d="M318.6,241.6c0.4,0.7,2.3,6.9,2.3,6.9s-1.8,0.9-4,2.1c-2.8,1.4-6.5-0.3-8.3-3.8c-1.8-3.5-1.1-7.5,1.7-9
					c1.9-1,4-2.1,4-2.1S318,240.5,318.6,241.6z"/>
			</g>
			<g>
				<path class="st2" d="M314.8,252.3c-2.8,0-5.7-1.9-7.3-5c-1-2-1.4-4.1-1-6.1c0.4-2.1,1.5-3.7,3.2-4.6l2.8-1.4
					c1.2-0.6,2.8-0.3,3.6,0.8c2,2.6,3.2,4.3,3.6,5l0,0c0.1,0.2,0.3,0.7,2,5.8c0.4,1.4-0.2,2.8-1.4,3.5l-2.8,1.4
					C316.6,252.1,315.7,252.3,314.8,252.3z M313.8,237.5c-0.1,0-0.1,0-0.2,0l-2.8,1.4c-1,0.5-1.6,1.5-1.9,2.8c-0.3,1.4,0,3,0.8,4.4
					c1.5,2.9,4.4,4.3,6.6,3.2l2.8-1.4c0.2-0.1,0.2-0.3,0.2-0.4c-1.1-3.5-1.7-5.1-1.8-5.4c-0.1-0.2-0.6-1.1-3.3-4.6
					C314.1,237.5,313.9,237.5,313.8,237.5z"/>
			</g>
			<g>
				
					<ellipse transform="matrix(0.8876 -0.4606 0.4606 0.8876 -75.8172 173.4963)" class="st12" cx="317.6" cy="242.1" rx="5.6" ry="7.2"/>
			</g>
			<g class="st5">
				<path class="st0" d="M312.6,244.7c0.1,0.3,0.3,0.5,0.4,0.8c-0.9-3.1,0-6.2,2.3-7.4c2.5-1.3,5.9,0,7.9,3
					c-0.2-0.5-0.4-1.1-0.6-1.6c-1.8-3.5-5.5-5.2-8.3-3.8C311.5,237.2,310.8,241.2,312.6,244.7z"/>
			</g>
			<g>
				<path class="st2" d="M318.8,250.2c-2.8,0-5.7-1.9-7.3-5c-1-2-1.4-4.1-1-6.1c0.4-2.1,1.5-3.7,3.2-4.6c3.4-1.8,7.9,0.2,10,4.3l0,0
					c2.1,4.1,1.1,8.9-2.2,10.7C320.6,250,319.7,250.2,318.8,250.2z M316.4,236.5c-0.5,0-1.1,0.1-1.5,0.4c-1,0.5-1.6,1.5-1.9,2.8
					c-0.3,1.4,0,3,0.8,4.4c1.5,2.9,4.4,4.3,6.6,3.2c2.1-1.1,2.6-4.4,1.1-7.2C320.3,237.9,318.3,236.5,316.4,236.5z"/>
			</g>
			<g>
				<path class="st2" d="M336.6,255.4c-0.6,0-1.1-0.3-1.4-0.9l-4.8-9.7c-1.4-2.7-1.3-5.9,0.3-8.6c1-1.8,1.1-3.9,0.1-5.7l-7.1-13.5
					c-0.4-0.8-0.1-1.7,0.7-2.1c0.8-0.4,1.7-0.1,2.1,0.7l7.1,13.5c1.4,2.8,1.4,6-0.2,8.7c-1,1.7-1.1,3.8-0.2,5.6l4.8,9.7
					c0.4,0.8,0.1,1.7-0.7,2.1C337,255.3,336.8,255.4,336.6,255.4z"/>
			</g>
			<g>
				<g>
					<path class="st0" d="M289.8,249.7c0,0,8.2-2.8,10.8,3.2c2.7,6-5.4,10.1-5.4,10.1s-28.5,13-51.3,13.5
						c-10.5-3.2-3.9-12.9-3.9-12.9S266.4,260.5,289.8,249.7z"/>
				</g>
				<g class="st3">
					<path class="st2" d="M294.9,262.7c0,0-28.5,13-51.3,13.5c-4.7-1.4-6-4.2-6-6.7c0.8,0.6,1.9,1.1,3.2,1.5
						c22.9-0.5,51.3-13.5,51.3-13.5s5.8-3,5.9-7.5c0.9,0.6,1.7,1.4,2.3,2.7C302.9,258.6,294.9,262.7,294.9,262.7z"/>
				</g>
				<g>
					<path class="st2" d="M243.7,278.1l-0.2-0.1c-3.5-1.1-5.7-2.9-6.7-5.5c-1.6-4.6,1.7-9.6,1.9-9.8l0.4-0.6l0.7-0.1
						c0.3,0,26.5-3.2,49.4-13.8l0.2-0.1c3.3-1.1,10.2-1.7,12.8,4c2.6,5.8-2.9,10.5-6.1,12.2l-0.1,0c-1.2,0.5-29,13.2-51.9,13.6
						L243.7,278.1z M240.9,265.1c-0.7,1.2-2,4-1.2,6.4c0.5,1.5,2,2.7,4.4,3.5c21.8-0.6,49.2-12.8,50.4-13.3c0.5-0.3,6.6-3.6,4.6-8.1
						c-1.9-4.4-8-2.6-8.8-2.4C269.3,260.9,245.4,264.5,240.9,265.1z"/>
				</g>
			</g>
		</g>
		<g>
			<g>
				<path class="st0" d="M206.7,183.6l1.2-0.4c0.7-0.2,1.1-0.9,0.9-1.6l-12.1-39.1c-0.2-0.7-0.9-1.1-1.6-0.9l-1.2,0.4
					c-7.2,2.2-11.3,9.9-9,17.1l4.8,15.5C191.8,181.8,199.5,185.8,206.7,183.6z"/>
				<path class="st2" d="M202.7,184.6c-2.3,0-4.5-0.6-6.6-1.6c-3.3-1.8-5.8-4.7-6.9-8.3l-4.8-15.5c-2.3-7.4,1.9-15.3,9.3-17.6
					l1.2-0.4c0.4-0.1,0.9-0.1,1.3,0.1c0.4,0.2,0.7,0.6,0.8,1l12.1,39.1c0.3,0.9-0.2,1.9-1.1,2.2l-1.2,0.4
					C205.5,184.4,204.1,184.6,202.7,184.6z M195.5,142c-0.1,0-0.2,0-0.3,0l-1.2,0.4c-7,2.1-10.9,9.6-8.8,16.5l4.8,15.5
					c1,3.4,3.3,6.2,6.5,7.8c3.1,1.7,6.7,2,10.1,0.9l1.2-0.4c0.5-0.1,0.7-0.6,0.6-1.1l-12.1-39.1c-0.1-0.2-0.2-0.4-0.4-0.5
					C195.8,142,195.6,142,195.5,142z"/>
			</g>
			<g class="st3">
				<path class="st2" d="M187.4,167.2l1.9,6.2c2.4,7.8,10.7,12.2,18.6,9.8c0.7-0.2,1.2-1,0.9-1.8l-3.2-10.4c-0.1,0.5-0.4,1-1,1.2
					l-0.9,0.3C197.5,174.5,191,172.2,187.4,167.2z"/>
			</g>
			<g>
				<path class="st2" d="M202.7,186.5c-2.6,0-5.1-0.6-7.4-1.9c-3.8-2-6.5-5.3-7.8-9.4l-4.8-15.5c-1.3-4.1-0.8-8.4,1.1-12.1
					c2-3.8,5.3-6.5,9.4-7.8l1.2-0.4c0.9-0.3,1.9-0.2,2.7,0.3c0.8,0.4,1.5,1.2,1.7,2.1l12.1,39.1c0.6,1.9-0.5,3.9-2.4,4.4l-1.2,0.4
					C205.8,186.2,204.2,186.5,202.7,186.5z M194.9,144l-0.3,0.1c-2.9,0.9-5.3,2.9-6.7,5.6c-1.4,2.7-1.7,5.8-0.8,8.7l4.8,15.5
					c0.9,2.9,2.9,5.3,5.6,6.7c2.7,1.4,5.8,1.7,8.7,0.8l0.3-0.1L194.9,144z"/>
			</g>
			<g>
				<path class="st0" d="M324.6,101.7l-1.2,0.4c-0.7,0.2-1.1,0.9-0.9,1.6l12.1,39.1c0.2,0.7,0.9,1.1,1.6,0.9l1.2-0.4
					c7.2-2.2,11.3-9.9,9-17.1l-4.8-15.5C339.5,103.5,331.8,99.5,324.6,101.7z"/>
				<path class="st2" d="M335.8,144.2c-0.7,0-1.4-0.5-1.7-1.2l-12.1-39.1c-0.1-0.4-0.1-0.9,0.1-1.3c0.2-0.4,0.6-0.7,1-0.8l1.2-0.4
					c3.6-1.1,7.4-0.8,10.7,1c3.3,1.8,5.8,4.7,6.9,8.3l4.8,15.5c1.1,3.6,0.8,7.4-1,10.7c-1.8,3.3-4.7,5.8-8.3,6.9l-1.2,0.4
					C336.2,144.2,336,144.2,335.8,144.2z M324.7,102.1l-1.2,0.4c-0.2,0.1-0.4,0.2-0.5,0.4c-0.1,0.2-0.1,0.4-0.1,0.7l12.1,39.1
					c0.1,0.5,0.6,0.7,1.1,0.6l1.2-0.4c3.4-1,6.2-3.3,7.8-6.5c1.7-3.1,2-6.7,0.9-10.1l-4.8-15.5c-1-3.4-3.3-6.2-6.5-7.8
					C331.7,101.4,328.1,101.1,324.7,102.1L324.7,102.1z"/>
			</g>
			<g class="st3">
				<path class="st2" d="M331.2,131.9l3.3,10.8c0.2,0.7,1,1.2,1.8,0.9c4.1-1.3,7.3-4.2,9-7.8c1.6-3.2,1.9-7.1,0.8-10.8l-1.7-5.6
					c-0.7,5.6-4.6,10.5-10.4,12.3l-1.4,0.4C332.1,132.4,331.6,132.3,331.2,131.9z"/>
			</g>
			<g>
				<path class="st2" d="M335.8,146c-1.5,0-2.9-1-3.4-2.5l-12.1-39.1c-0.3-0.9-0.2-1.9,0.3-2.7c0.4-0.8,1.2-1.5,2.1-1.7l1.2-0.4
					c4.1-1.3,8.4-0.8,12.1,1.1c3.8,2,6.5,5.3,7.8,9.4l4.8,15.5c1.3,4.1,0.8,8.4-1.1,12.1c-2,3.8-5.3,6.5-9.4,7.8l-1.2,0.4
					C336.5,145.9,336.2,146,335.8,146z M325,103.9l11.5,37.3l0.3-0.1c2.9-0.9,5.3-2.9,6.7-5.6c1.4-2.7,1.7-5.8,0.8-8.7l-4.8-15.5
					c-0.9-2.9-2.9-5.3-5.6-6.7c-2.7-1.4-5.8-1.7-8.7-0.8L325,103.9z"/>
			</g>
			<g>
				
					<ellipse transform="matrix(0.7071 -0.7071 0.7071 0.7071 -23.0512 229.6265)" class="st0" cx="265.7" cy="142.6" rx="69.4" ry="69.4"/>
				<path class="st2" d="M265.6,212.5c-9.6,0-19.1-2-28.2-6c-17.1-7.5-30.2-21.3-36.9-38.7c-6.7-17.4-6.3-36.4,1.2-53.5
					c7.5-17.1,21.3-30.2,38.7-36.9c17.4-6.7,36.4-6.3,53.5,1.2c17.1,7.5,30.2,21.3,36.9,38.7c6.7,17.4,6.3,36.4-1.2,53.5
					c-7.5,17.1-21.3,30.2-38.7,36.9C282.7,210.9,274.2,212.5,265.6,212.5z M265.7,73.6c-8.4,0-16.9,1.6-25,4.7
					c-17.2,6.7-30.7,19.6-38.2,36.5c-7.4,16.9-7.9,35.6-1.2,52.8c6.7,17.2,19.6,30.7,36.5,38.2c16.9,7.4,35.6,7.9,52.8,1.2
					c17.2-6.7,30.7-19.6,38.2-36.5c7.4-16.9,7.9-35.6,1.2-52.8S310.4,87,293.5,79.5C284.6,75.6,275.1,73.6,265.7,73.6z"/>
			</g>
			<g class="st3">
				<path class="st2" d="M198.1,158.5c0.7,3.1,1.7,6.2,2.9,9.2c13.9,35.7,54.1,53.5,89.8,39.6c35.7-13.9,53.5-54.1,39.6-89.8
					c-0.4-1-0.8-2-1.3-3c7.9,33.2-9.8,67.9-42.5,80.6C251.9,208.6,213,192.2,198.1,158.5z"/>
			</g>
			<g>
				<path class="st2" d="M265.6,214.4c-9.8,0-19.6-2-28.9-6.1c-17.5-7.7-31-21.8-37.9-39.7c-6.9-17.8-6.5-37.3,1.3-54.8
					c7.7-17.5,21.8-31,39.7-37.9c17.8-6.9,37.3-6.5,54.8,1.3c17.5,7.7,31,21.8,37.9,39.7c6.9,17.8,6.5,37.3-1.3,54.8
					c-7.7,17.5-21.8,31-39.7,37.9C283.2,212.7,274.4,214.3,265.6,214.4z M265.7,75.4c-8.2,0-16.4,1.5-24.3,4.6
					c-16.7,6.5-29.9,19.1-37.2,35.5c-7.2,16.4-7.7,34.7-1.2,51.4v0c6.5,16.7,19.1,29.9,35.5,37.2c16.4,7.2,34.7,7.7,51.4,1.2
					c16.7-6.5,29.9-19.1,37.2-35.5s7.7-34.7,1.2-51.4c-6.5-16.7-19.1-29.9-35.5-37.2C284.1,77.4,274.9,75.4,265.7,75.4z"/>
			</g>
			<g>
				<defs>
					<path id="SVGID_27_" d="M201.8,169.3c4.7,12.7,13.2,23,23.9,30.2c8,5.4,34.6,10.1,61.6,0.4c25-9,42.8-30.7,45.4-40
						c3.4-12.4,3.2-25.8-1.5-38.5c-12.5-33.7-46.6-37-82.4-23.7S189.3,135.6,201.8,169.3z"/>
				</defs>
				<clipPath id="SVGID_28_">
					<use xlink:href="#SVGID_27_"  style="overflow:visible;"/>
				</clipPath>
				<g transform="matrix(1 0 0 1 -3.814697e-06 -1.525879e-05)" style="clip-path:url(#SVGID_28_);">
					
						<image style="overflow:visible;" width="3456" height="4608" xlink:href="814EF417.jpg"  transform="matrix(7.097571e-02 -5.183106e-02 5.183106e-02 7.097571e-02 34.1742 152.4759)">
					</image>
				</g>
			</g>
			<g class="st28">
				<path class="st29" d="M202.7,133.2c-5.1,10.5-5.9,22.6-0.9,36.1c4.7,12.7,13.2,23,23.9,30.2c8,5.4,34.6,10.1,61.6,0.4
					c9.5-3.4,18-8.7,25-14.4c-33.4,11.2-65.8,5.3-75.8-1.3c-13.6-9.1-24.4-22.2-30.4-38.3C204.5,141.5,203.4,137.3,202.7,133.2z"/>
			</g>
			<g>
				<path class="st2" d="M196.4,139.5c-0.3,0-0.7-0.1-1-0.3c-0.7-0.5-1-1.4-0.8-2.1C200.3,116.6,219,99.1,246,89
					c27.2-10.1,53-8.7,70.6,3.9c0.8,0.5,1.1,1.6,0.6,2.4c-0.5,0.9-1.6,1.2-2.5,0.7c0,0-0.1,0-0.1,0l-0.1-0.1
					c-16.6-11.9-41.2-13.1-67.3-3.5c-26,9.6-43.9,26.3-49.1,45.7l0,0.2l-0.2,0.3C197.6,139.2,197,139.5,196.4,139.5z"/>
			</g>
			<g class="st30">
				<path class="st31" d="M329,141.1c0,0-1.9-37.1-24.7-43.7c-22.8-6.6-48.6,3-47.4,4.4c0,0,31.1-3.7,50.6,14.8
					C322.6,130.8,329,141.1,329,141.1z"/>
			</g>
		</g>
	</g>
</g>
</svg>
