<?xml version="1.0" encoding="utf-8"?>
<!-- Generator: Adobe Illustrator 25.0.0, SVG Export Plug-In . SVG Version: 6.00 Build 0)  -->
<svg version="1.1" id="Layer_1" xmlns="http://www.w3.org/2000/svg" xmlns:xlink="http://www.w3.org/1999/xlink" x="0px" y="0px"
	 viewBox="0 0 171 172" style="enable-background:new 0 0 171 172;" xml:space="preserve">
<style type="text/css">
	.st0{display:none;fill:#2F1664;}
	.st1{fill:#2F1664;}
</style>
<path class="st0" d="M168.8,106.2L132.5,86l36.4-20.2c0.9-0.5,1.4-1.6,1.1-2.6c-0.3-1-1.2-1.7-2.2-1.7l-41.6,0.7l21.4-35.7
	c0.5-0.9,0.4-2-0.3-2.8c-0.7-0.7-1.9-0.9-2.8-0.3l-35.7,21.4l0.7-41.6c0-1-0.7-2-1.7-2.2c-1-0.3-2.1,0.2-2.6,1.1L85,38.5L64.8,2.2
	c-0.5-0.9-1.6-1.4-2.6-1.1c-1,0.3-1.7,1.2-1.7,2.2l0.7,41.6L25.6,23.5c-0.9-0.5-2-0.4-2.8,0.3c-0.7,0.7-0.9,1.9-0.3,2.8l21.4,35.7
	L2.3,61.6c-1,0-2,0.7-2.2,1.7c-0.3,1,0.2,2.1,1.1,2.6L37.5,86L1.2,106.2c-0.9,0.5-1.4,1.6-1.1,2.6s1.1,1.7,2.2,1.7l41.6-0.7
	l-21.4,35.7c-0.5,0.9-0.4,2,0.3,2.8c0.7,0.7,1.9,0.9,2.8,0.3l35.7-21.4l-0.7,41.6c0,1,0.7,2,1.7,2.2c1,0.3,2.1-0.2,2.6-1.1L85,133.5
	l20.2,36.4c0.4,0.7,1.2,1.2,2,1.2c0.2,0,0.4,0,0.6-0.1c1-0.3,1.7-1.2,1.7-2.2l-0.7-41.6l35.7,21.4c0.9,0.5,2,0.4,2.8-0.3
	c0.7-0.7,0.9-1.9,0.3-2.8l-21.4-35.7l41.6,0.7c1,0,2-0.7,2.2-1.7C170.2,107.8,169.8,106.7,168.8,106.2z M122.1,105.2
	c-0.8,0-1.6,0.4-2,1.1c-0.4,0.7-0.4,1.6,0,2.3L139,140l-31.4-18.8c-0.7-0.4-1.6-0.4-2.3,0c-0.7,0.4-1.1,1.2-1.1,2l0.6,36.6l-17.8-32
	c-0.4-0.7-1.2-1.2-2-1.2s-1.6,0.4-2,1.2l-17.8,32l0.6-36.6c0-0.8-0.4-1.6-1.1-2c-0.7-0.4-1.6-0.4-2.3,0L31,140l18.8-31.4
	c0.4-0.7,0.4-1.6,0-2.3c-0.4-0.7-1.1-1.1-2-1.1l-36.6,0.6l32-17.8c0.7-0.4,1.2-1.2,1.2-2c0-0.8-0.4-1.6-1.2-2l-32-17.8l36.6,0.6
	c0.9,0,1.6-0.4,2-1.1c0.4-0.7,0.4-1.6,0-2.3L31,32l31.4,18.8c0.7,0.4,1.6,0.4,2.3,0c0.7-0.4,1.1-1.2,1.1-2l-0.6-36.6l17.8,32
	c0.4,0.7,1.2,1.2,2,1.2s1.6-0.4,2-1.2l17.8-32l-0.6,36.6c0,0.8,0.4,1.6,1.1,2c0.7,0.4,1.6,0.4,2.3,0L139,32l-18.8,31.4
	c-0.4,0.7-0.4,1.6,0,2.3c0.4,0.7,1.1,1.1,2,1.1l36.6-0.6l-32,17.8c-0.7,0.4-1.2,1.2-1.2,2c0,0.8,0.4,1.6,1.2,2l32,17.8L122.1,105.2z
	"/>
<g>
	<path class="st1" d="M99.6,172c-1.8-2.9-4.4-5.1-6.8-7.3c-5.6-5.2-9.5-11.5-13.9-17.5c-5-6.8-8.8-14.3-12.9-21.7
		c-1.3-2.3-2.4-2.7-4.8-1.6c-13.8,6.2-28.1,11.3-42.4,16.2c-3.9,1.3-3.9,1.2-5.8-2.4c-0.3-0.6-1-1.4-1.6-1.4
		c-2.9-0.3-2.3-1.9-1.7-3.7c2.7-7.4,6.9-14.1,10.8-20.9c3-5.1,6.3-10,7.9-15.7c0.7-2.3,0.4-4.2-0.9-6.1
		c-4.7-7.2-10.4-13.7-15.7-20.4c-3.7-4.6-7.3-9.3-10.9-13.9c-1.9-2.4-1.4-4,1.4-5c3.3-1.3,6.8-1.5,10.2-1.4
		c11.2,0.4,22.4,0.8,33.6,2.1c2.4,0.3,5,2.2,7,0.7c1.7-1.3,2.3-4,3.4-6C64.3,31.7,73.7,18.8,84.6,7c1.9-2,4-4,6.4-5.4
		c5-3,8.5-1.7,9.8,4c1.3,5.9,1.6,11.9,1.8,17.8c0.3,10.4-0.9,20.8-1,31.1c-0.1,4.9,0.2,5.5,5.1,6.3c10.4,1.8,20.9,3.3,31.3,5.4
		c10,2,19.9,4.6,29.3,8.6c2.7,1.1,3.6,3.6,4,6c0.4,2.8-1.5,4.9-3.7,6.5c-4.3,3.1-9.2,5-14.1,6.8c-13,4.6-26,9.2-39.1,13.7
		c-2.2,0.7-2.8,2.2-3,4.2c-0.7,9.1-1.4,18.3-2.2,27.4c-0.7,8.2-2.2,16.3-3.8,24.4c-0.6,2.9-1.7,5.6-3.4,8
		C101.1,172,100.3,172,99.6,172z M96.5,18.1c-0.2-3-0.4-6.6-0.6-10.1c0-0.6,0.2-1.4-0.4-1.8c-0.9-0.5-1.3,0.5-1.9,0.9
		c-2,1.5-3.1,3.9-4.8,5.7c-6.1,6.4-11.2,13.8-16.4,20.9c-3.8,5.1-7,10.8-10.5,16.1c-1.5,2.2-2.9,4-0.5,6.8c1.9,2.2,0.5,4.1-2.6,4.4
		c-1.7,0.2-3.6-0.6-5,1.1c-0.2,0.3-0.7,0.2-1-0.1c-1.5-1.4-3.4-0.7-5.1-0.9c-3.8-0.5-7.7-0.3-11.4-1.3c-7.4-2-14.9-3.2-22.6-2.9
		c-0.6,0-1.4-0.3-1.8,0.4c-0.3,0.7,0.3,1.2,0.7,1.6c6,7.3,12.1,14.5,18.1,21.8c2.3,2.9,4.6,5.8,6.5,9c3,4.8,2.7,9.3-0.4,13.9
		c-5.3,7.7-10.4,15.6-15.1,23.6c-0.4,0.7-1.2,1.5-0.6,2.3c0.7,0.9,1.5,0.1,2.3-0.2c2.9-1.1,5.7-2.3,8.6-3.5
		c8.7-3.7,17.6-6.8,26.3-10.6c5.4-2.4,8.8-1.2,12,3.7c2.2,3.4,4.2,6.8,6.1,10.3c5.2,9.2,11,18,17.5,26.4c0.5,0.7,1,1.9,2,1.8
		c1.2-0.2,1.1-1.6,1.3-2.5c3.7-14.7,5.1-29.8,6.9-44.9c0.6-5,2.5-8.5,7.2-10.4c0.6-0.2,1.2-0.5,1.8-0.8c6-2.1,12-4.2,18-6.4
		c8.7-3.2,17.3-6.6,25.6-10.8c0.8-0.4,2.1-0.6,2-1.6c-0.1-0.9-1.3-0.8-2.1-1.1c-4.9-1.9-10.1-2.8-15.1-4.1
		c-10.4-2.6-21-4.4-31.5-6.6c-9.6-2-14.5-7.5-14.9-16c-0.1-1.9,0.1-3.7,0.1-5.6C95.3,37.1,96.6,27.9,96.5,18.1z"/>
</g>
</svg>
