<?xml version="1.0" encoding="utf-8"?>
<!-- Generator: Adobe Illustrator 25.0.0, SVG Export Plug-In . SVG Version: 6.00 Build 0)  -->
<svg version="1.1" id="Layer_1" xmlns="http://www.w3.org/2000/svg" xmlns:xlink="http://www.w3.org/1999/xlink" x="0px" y="0px"
	 viewBox="0 0 1080 784" style="enable-background:new 0 0 1080 784;" xml:space="preserve">
<style type="text/css">
	.st0{fill:#F9F4F2;}
	.st1{fill:#FDE977;}
	.st2{fill:#444444;}
	.st3{display:none;}
	.st4{display:inline;fill:#E56399;}
	.st5{display:inline;fill:#444444;}
	.st6{fill:#E56399;}
</style>
<g>
	<g>
		<path class="st0" d="M1068.9,18.2c-33-1-63.6-1.3-94.2-2.8c-104.7-5.1-209.4-0.6-314-0.6c-113.7,0-227.3-2.9-341-3.9
			c-72.5-0.6-145,0-217.5,0.1c-3.4,0-6.7,0-10.9,0c-2,15.9-4,31.2-5.9,46.5c-0.4,3-0.4,6-0.7,9C83.4,77,80.8,79.6,68.6,80.8
			c-9.5,0.9-19.2,1.1-28.7,1.8c-4.6,0.3-9.1,1.1-12.3,1.5C18,266.1,12,447.3,22.3,629.5c344.6,0,690.3,0,1037.1,0
			C1055.8,425.4,1068.8,221.8,1068.9,18.2z"/>
		<path class="st1" d="M1058.3,635.8c-345.5,0-691,0-1037,0c-2.6,41.3-5.1,82.9-7.7,125.1c11.9,1,23.8,2.5,35.7,3
			c19.5,0.9,39,1,58.5,1.9c8.3,0.4,11.6-2.6,12.7-9.5c1-6.6,3.4-13.1,5.2-19.6c1.4,0,2.8,0,4.3,0c2.1,5.4,5.3,10.7,6.1,16.2
			c1.3,9.3,6.6,10.9,16.6,11c114.9,0.6,229.8,1.7,344.7,2.7c94.4,0.8,188.9,1.8,283.3,2.5c30.9,0.2,61.9,0,93.8,0
			c2.2-9.2,4-17.6,6.2-26c0.6-2.1,2.5-4,3.7-6c1.9,1.5,4.4,2.8,5.6,4.6c3.6,6,6.9,12.2,9.9,18.4c2.7,5.7,7.1,7.6,13.9,6.9
			c16.9-1.7,33.9-3.3,50.8-4.5c6.6-0.5,8.9-3,8.9-8.8c0-21.2,0.4-42.4,0.8-63.6c0.1-3.9,1.1-7.7,1.6-11.6c1-0.1,1.9-0.2,2.9-0.3
			c1.1,2.7,2.8,5.3,3.3,8.1c3.8,21.7,7.6,43.5,10.7,65.3c0.9,6.7,3.1,9.6,11.2,9.4c15.8-0.3,31.6,0.2,47.4,0.4
			c4.4,0.1,7.8-0.4,7.8-5.6c-0.1-39.1,0-78.3,0-117.4C1059.2,637.9,1058.7,637.2,1058.3,635.8z"/>
		<path class="st1" d="M24.1,78.3c16.7-1,30.5-1.8,44.3-2.8c5.2-0.4,9.6-1.7,10.2-7.4c1.7-17.3,3.7-34.5,4.1-52.6
			C63.8,35.8,44.7,56.2,24.1,78.3z"/>
		<path class="st2" d="M129.6,748.2c1.3,4.4,3.8,8.8,3.7,13.2c-0.2,7.7,4.5,8,11.1,8c86.1,0.5,172.3,0.7,258.4,1.7
			c97.3,1.2,194.5,3.9,291.8,4.6c61.3,0.4,122.5-1.6,184.5-2.6c2.3-8.4,4.6-16.8,7.4-27c3.7,6.9,6.5,11.9,9.1,17
			c3.3,6.6,8.8,9.5,16.9,8.8c18.5-1.6,37-3.2,55.5-4.7c7.9-0.7,11.3-4.5,11.2-11.4c-0.2-17.6-0.1-35.2-0.1-52.8
			c0.9-0.1,1.8-0.1,2.7-0.2c1.7,14.5,3.5,28.9,5.1,43.4c0.4,3.8,0.7,7.6,1.1,11.4c0.4,5.1,3.3,8.1,9.3,8.2
			c19.2,0.3,38.4,0.7,57.6,0.9c8.1,0.1,10.2-4.3,10.2-10.8c0.3-119.1-0.1-238.1,1.5-357.2c1.5-111.8,5.1-223.5,7.6-335.3
			c0.3-13-0.5-26.1-0.7-39.1c-0.1-7.5-3.3-10.5-12.7-10.9c-136.2-5.2-272.5-4.8-408.8-3c-104.6,1.4-209.4-2.7-314.1-3.5
			C255.5,6.3,173.1,7.1,90.7,6.8c-8.7,0-11.5,4.7-15.8,9.2C59.1,32.8,43.4,49.6,27,65.9c-7.4,7.4-8.1,14.8-7.4,24.4
			c1.6,21.7,1.4,43.5,0,65.2c-6.6,98.6-10.3,197.2-9,296c0.8,67.4,3.2,134.9,3.1,202.3C13.6,688,9.5,722.2,7,756.3
			c-0.6,8,1.3,10.3,10.4,10.7c28.1,1.2,56.3,2.3,84.4,3.6c19.7,0.9,21.2,0,24.6-17.3c0.3-1.6,0.9-3.1,1.3-4.7
			C128.4,748.4,129,748.3,129.6,748.2z M1068.9,18.2c-0.1,203.6-13.1,407.2-9.5,611.4c-346.8,0-692.5,0-1037.1,0
			C12,447.3,18,266.1,27.5,84c3.2-0.4,7.8-1.1,12.3-1.5c9.6-0.7,19.2-0.9,28.7-1.8c12.2-1.2,14.8-3.8,16.1-14.3c0.4-3,0.4-6,0.7-9
			c2-15.2,4-30.4,6-46.4c4.2,0,7.5,0,10.9,0c72.5-0.1,145-0.7,217.5-0.1c113.7,1,227.3,3.9,341,3.9c104.7,0,209.4-4.5,314,0.6
			C1005.3,16.9,1035.9,17.2,1068.9,18.2z M1058.3,635.8c0.4,1.3,0.9,2.1,0.9,2.8c0,39.1-0.1,78.3,0,117.4c0,5.2-3.4,5.6-7.8,5.6
			c-15.8-0.2-31.6-0.7-47.4-0.4c-8.1,0.1-10.3-2.8-11.2-9.4c-3-21.8-6.9-43.6-10.7-65.3c-0.5-2.8-2.2-5.4-3.3-8.1
			c-1,0.1-1.9,0.2-2.9,0.3c-0.6,3.9-1.6,7.7-1.6,11.6c-0.4,21.2-0.8,42.4-0.8,63.6c0,5.8-2.3,8.3-8.9,8.8c-17,1.3-33.9,2.8-50.8,4.5
			c-6.8,0.7-11.2-1.1-13.9-6.9c-2.9-6.3-6.3-12.4-9.9-18.4c-1.1-1.9-3.7-3.1-5.6-4.6c-1.3,2-3.2,3.9-3.7,6c-2.2,8.4-4.1,16.8-6.2,26
			c-32,0-62.9,0.2-93.8,0c-94.4-0.8-188.9-1.7-283.3-2.5c-114.9-1-229.8-2.1-344.7-2.7c-10-0.1-15.3-1.7-16.6-11
			c-0.8-5.5-4-10.8-6.1-16.2c-1.4,0-2.8,0-4.3,0c-1.8,6.5-4.2,13-5.2,19.6c-1.1,7-4.5,9.9-12.7,9.5c-19.5-0.9-39-1-58.5-1.9
			c-11.9-0.6-23.8-2-35.7-3c2.6-42.2,5.2-83.8,7.7-125.1C367.3,635.8,712.8,635.8,1058.3,635.8z M24.1,78.3
			c20.6-22.1,39.6-42.5,58.6-62.9c-0.4,18.1-2.4,35.4-4.1,52.6c-0.6,5.8-5,7.1-10.2,7.4C54.6,76.5,40.8,77.3,24.1,78.3z"/>
	</g>
	<g>
		<path class="st1" d="M1045.4,142.6c0,55.7-45.4,101.1-101.1,101.1c-55.7,0-101.1-45.4-101.1-101.1S888.6,41.5,944.3,41.5
			C1000.1,41.5,1045.5,86.9,1045.4,142.6z M916.4,54.4c-0.2-0.5-0.4-1.1-0.6-1.6c-5.2-1.1-12.2,1.9-14.3,7.7
			C906.5,58.4,911.4,56.4,916.4,54.4z M987.1,60.5c0.2-0.6,0.5-1.1,0.7-1.7c-3.3-4.6-10.3-7.3-15.6-4.5
			C977.2,56.4,982.1,58.5,987.1,60.5z M862.2,99.9c-0.5-0.2-1.1-0.5-1.6-0.7c-4.5,3-7.3,10.1-4.5,15.5
			C858.1,109.8,860.2,104.9,862.2,99.9z M1032.6,114.7c0.6-0.2,1.1-0.4,1.7-0.6c1-5.4-2.1-12.3-7.8-14.3
			C1028.5,104.8,1030.5,109.7,1032.6,114.7z M859,186.7c0.6-0.2,1.3-0.4,1.9-0.6c0.5-5.2-3-13-8.1-14.2
			C854.9,176.7,857,181.7,859,186.7z M1035.8,171.8c-1.1-0.4-2.2-0.8-3.3-1.3c-2,5-3.9,10-5.9,14.9c1,0.4,2,0.8,3,1.2
			C1031.7,181.7,1033.8,176.7,1035.8,171.8z M915,234.1c0.5-1.1,0.9-2.2,1.4-3.3c-5-2-9.9-4-14.9-6c-0.4,1-0.8,1.9-1.2,2.9
			C905.2,229.9,910.1,232,915,234.1z M987.7,226.2c-4.6-0.9-12.5,2.4-14.9,6.2C977.9,233.6,984.9,230.7,987.7,226.2z M1038.2,123.7
			c-1,0-2,0-3,0c-0.5,4.9,0.7,9.6,2.2,14.2c0.8-0.1,1.5-0.2,2.3-0.3C1039.2,133,1038.7,128.4,1038.2,123.7z M1039.5,147.6
			c-0.8-0.2-1.6-0.3-2.4-0.5c-0.8,4.7-1.6,9.4-2.4,14.2c0.7,0.1,1.5,0.3,2.2,0.4C1039.9,157.4,1039.5,152.5,1039.5,147.6z
			 M939.3,238.2c0.2-1,0.4-1.9,0.5-2.9c-4.7-0.8-9.5-1.5-14.2-2.3c-0.2,1-0.3,2.1-0.5,3.1C929.8,236.8,934.5,237.5,939.3,238.2z
			 M963.4,235.3c-0.2-0.8-0.3-1.7-0.5-2.5c-4.7,0.9-9.4,1.8-14.1,2.7c0.1,0.7,0.3,1.4,0.4,2.1C954.2,237.9,959.1,238,963.4,235.3z
			 M939.8,49.9c-0.1-0.6-0.3-1.1-0.4-1.7c-5.9-1.8-11.9-0.5-14.6,4.1C930.4,51.4,935.1,50.7,939.8,49.9z M949.4,47.4
			c-0.2,0.8-0.3,1.6-0.5,2.4c4.7,0.8,9.5,1.6,14.2,2.3c0.1-0.7,0.2-1.5,0.4-2.2C959.1,47.1,954.2,47.4,949.4,47.4z M880.2,71.7
			c6.5,0.3,12.3-4.5,12.1-9.5C887.9,65.7,884.1,68.7,880.2,71.7z M1006.8,73.8c0.5-0.7,1.1-1.5,1.6-2.2c-3.9-3-7.7-5.9-11.6-8.9
			c-0.6,0.8-1.3,1.7-1.9,2.5C998.8,68.1,1002.8,71,1006.8,73.8z M864.5,90c0.9,0.7,1.7,1.4,2.6,2c2.9-4,5.7-7.9,8.6-11.9
			c-0.7-0.6-1.5-1.1-2.2-1.7C870.4,82.3,867.4,86.2,864.5,90z M1022.2,91.6c0.7-0.5,1.3-1,2-1.5c-3-3.8-5.9-7.7-8.9-11.5
			c-0.6,0.5-1.2,1-1.9,1.5C1015.9,84.2,1017.9,88.8,1022.2,91.6z M853.9,123.9c-1-0.1-2.1-0.3-3.1-0.4c-0.6,4.8-1.2,9.5-1.8,14.3
			c0.9,0.1,1.9,0.3,2.8,0.4C852.5,133.3,853.2,128.6,853.9,123.9z M851.6,147.1c-0.6,0.1-1.1,0.3-1.7,0.4c-1.7,6-0.4,12,4.1,14.6
			C853.2,156.6,852.4,151.8,851.6,147.1z M873.2,206.7c0.4-0.3,0.9-0.6,1.3-1c-1-5.7-5.7-11.3-10.6-11.1
			C867.4,199.1,870.3,202.9,873.2,206.7z M1024.2,195.1c-5.1-0.1-9.9,6.4-9.7,12.8C1018.3,202.8,1021.3,199,1024.2,195.1z
			 M891.7,222.5c0-5.3-6.6-10.1-12.4-9.5C884.1,216.6,887.9,219.5,891.7,222.5z M1008.5,213.5c-6-0.6-12.1,4.3-12.3,9.5
			C1000.8,219.5,1004.6,216.5,1008.5,213.5z"/>
		<g class="st3">
			<path class="st4" d="M993.7,90.9c-12.2,5-22.7,15-30.8,25.2c-8.6,10.7-13.8,23.5-21.5,34.7c-1.2,1.7-2.4,3.8-4.1,5.1
				c-2.4,2-4.1,0.2-5.8-1.8c-3.6-4.2-6.4-8.9-9-13.7c-1.3-2.4-2.5-4.8-3.7-7.2c-0.4-0.8-0.9-2.6-1.8-2.9c-0.5-0.1-1.2,0-1.9,0.3
				c-0.2,0.8-0.7,1.5-1.8,1.8c-6.9,1.8-14,2.8-20.9,5c-5.2,1.7-10.3,3.6-15.2,6c12.3,5.9,24,12.4,34.8,21
				c10.1,8.1,18.7,17.7,26.2,28.2c9.8-16.3,20.9-31.9,34.1-45.6c11.8-12.1,25-22.5,41.2-27.6c-4.2-5.1-8.1-10.5-11.7-15.9
				C998.9,99.4,996,95.2,993.7,90.9z"/>
			<path class="st5" d="M1019.3,118.9c-5-5.9-9.5-12.2-13.9-18.6c-3-4.4-6.2-8.9-8.6-13.7c-0.4-0.9-1.8-1.5-2.7-1.1
				c-11.1,4.1-20.7,11.9-28.7,20.4c-5.9,6.2-11.1,13.1-15.2,20.6c-3.1,5.6-6.2,11.3-9.4,16.8c-1.5,2.6-3.1,5.2-4.8,7.6
				c-0.1,0.1-0.5,0.5-0.8,1c-0.8-0.8-2.1-2-2.2-2.3c-4-4.8-7.2-10.3-10.1-15.8c-1-2-2-5.1-3.9-6.4c-1.4-1-3.2-0.4-4.8,0.2
				c-0.6-0.4-1.3-0.6-2.2-0.4c-7.3,1.9-14.7,2.9-21.9,5.3c-6.9,2.3-13.7,5.1-20.1,8.5c-1.7,0.9-1.8,3.8,0,4.6
				c13.6,6.3,26.6,13,38.3,22.5c10.8,8.7,20.1,19.1,27.8,30.6c1.1,1.7,3.6,1.8,4.6,0c9.9-16.9,21-33.3,34.5-47.6
				c12.1-12.7,25.8-23.6,43-28.2C1020.1,122.5,1020.4,120.3,1019.3,118.9z M972.2,147c-13.3,13.7-24.3,29.3-34.1,45.6
				c-7.5-10.5-16.1-20.1-26.2-28.2c-10.7-8.7-22.5-15.1-34.8-21c4.9-2.3,10-4.3,15.2-6c6.8-2.2,13.9-3.1,20.9-5c1-0.3,1.6-1,1.8-1.8
				c0.7-0.2,1.4-0.4,1.9-0.3c0.9,0.3,1.4,2.1,1.8,2.9c1.2,2.4,2.4,4.8,3.7,7.2c2.6,4.8,5.5,9.6,9,13.7c1.8,2,3.4,3.8,5.8,1.8
				c1.6-1.4,2.9-3.4,4.1-5.1c7.7-11.2,13-24,21.5-34.7c8.1-10.1,18.6-20.2,30.8-25.2c2.4,4.3,5.2,8.5,8,12.6
				c3.7,5.5,7.6,10.8,11.7,15.9C997.2,124.5,984,134.8,972.2,147z"/>
		</g>
		<g>
			<path class="st2" d="M955.7,248.3c-7.6,0-15.1,0-22.7,0c-1-0.3-2.1-0.8-3.1-1c-42.9-7.3-71.6-31.6-86.1-72.5
				c-2.4-6.7-3.4-13.8-5.1-20.7c0-7.6,0-15.1,0-22.7c0.3-1,0.9-2.1,1-3.1c6-42.9,37.1-77.5,79.1-88c4.7-1.2,9.5-2.2,14.2-3.2
				c7.6,0,15.1,0,22.7,0c1,0.3,2.1,0.9,3.1,1c43.3,6.2,77.6,37.2,88.1,79.6c1.1,4.5,2.1,9.1,3.1,13.7c0,7.6,0,15.1,0,22.7
				c-0.3,1-0.9,2.1-1,3.1c-6,43.1-37.3,77.7-79.6,88.1C964.8,246.3,960.3,247.2,955.7,248.3z M1045.4,142.6
				c0-55.7-45.4-101.1-101.1-101.1c-55.7,0-101.1,45.4-101.1,101.1s45.4,101.1,101.1,101.1C1000,243.7,1045.4,198.3,1045.4,142.6z"
				/>
			<path class="st2" d="M916.4,54.4c-5,2-9.9,4-14.9,6c2.1-5.8,9.1-8.8,14.3-7.7C916,53.3,916.2,53.8,916.4,54.4z"/>
			<path class="st2" d="M987.1,60.5c-5-2.1-9.9-4.1-14.9-6.2c5.3-2.8,12.3-0.1,15.6,4.5C987.6,59.4,987.3,59.9,987.1,60.5z"/>
			<path class="st2" d="M862.2,99.9c-2,4.9-4.1,9.9-6.1,14.8c-2.8-5.5,0-12.5,4.5-15.5C861.1,99.4,861.7,99.7,862.2,99.9z"/>
			<path class="st2" d="M1032.6,114.7c-2-5-4-9.9-6.1-14.9c5.7,1.9,8.8,8.9,7.8,14.3C1033.7,114.3,1033.1,114.5,1032.6,114.7z"/>
			<path class="st2" d="M859,186.7c-2-5-4.1-9.9-6.1-14.9c5.1,1.3,8.6,9,8.1,14.2C860.3,186.2,859.7,186.4,859,186.7z"/>
			<path class="st2" d="M1035.8,171.8c-2.1,5-4.1,9.9-6.2,14.9c-1-0.4-2-0.8-3-1.2c2-5,3.9-10,5.9-14.9
				C1033.7,170.9,1034.8,171.4,1035.8,171.8z"/>
			<path class="st2" d="M915,234.1c-4.9-2.1-9.8-4.2-14.7-6.3c0.4-1,0.8-1.9,1.2-2.9c5,2,9.9,4,14.9,6
				C916,231.9,915.5,233,915,234.1z"/>
			<path class="st2" d="M987.7,226.2c-2.8,4.4-9.8,7.4-14.9,6.2C975.3,228.6,983.1,225.3,987.7,226.2z"/>
			<path class="st2" d="M1038.2,123.7c0.5,4.7,1,9.3,1.5,14c-0.8,0.1-1.5,0.2-2.3,0.3c-1.5-4.6-2.7-9.3-2.2-14.2
				C1036.2,123.7,1037.2,123.7,1038.2,123.7z"/>
			<path class="st2" d="M1039.5,147.6c0,4.9,0.4,9.8-2.6,14.1c-0.7-0.1-1.5-0.3-2.2-0.4c0.8-4.7,1.6-9.4,2.4-14.2
				C1037.9,147.3,1038.7,147.5,1039.5,147.6z"/>
			<path class="st2" d="M939.3,238.2c-4.7-0.7-9.4-1.3-14.2-2c0.2-1,0.3-2.1,0.5-3.1c4.7,0.8,9.5,1.5,14.2,2.3
				C939.6,236.3,939.4,237.2,939.3,238.2z"/>
			<path class="st2" d="M963.4,235.3c-4.4,2.7-9.2,2.6-14.1,2.4c-0.1-0.7-0.3-1.4-0.4-2.1c4.7-0.9,9.4-1.8,14.1-2.7
				C963.1,233.7,963.3,234.5,963.4,235.3z"/>
			<path class="st2" d="M939.8,49.9c-4.7,0.8-9.5,1.5-15,2.4c2.7-4.6,8.7-5.9,14.6-4.1C939.6,48.8,939.7,49.3,939.8,49.9z"/>
			<path class="st2" d="M949.4,47.4c4.9,0,9.8-0.4,14.1,2.5c-0.1,0.7-0.2,1.5-0.4,2.2c-4.7-0.8-9.5-1.6-14.2-2.3
				C949,49,949.2,48.2,949.4,47.4z"/>
			<path class="st2" d="M880.2,71.7c3.8-3,7.6-6,12.1-9.5C892.5,67.2,886.8,71.9,880.2,71.7z"/>
			<path class="st2" d="M1006.8,73.8c-4-2.8-7.9-5.7-11.9-8.5c0.6-0.8,1.3-1.7,1.9-2.5c3.9,3,7.7,5.9,11.6,8.9
				C1007.8,72.4,1007.3,73.1,1006.8,73.8z"/>
			<path class="st2" d="M864.5,90c3-3.8,5.9-7.7,8.9-11.5c0.7,0.6,1.5,1.1,2.2,1.7c-2.9,4-5.7,7.9-8.6,11.9
				C866.2,91.4,865.3,90.7,864.5,90z"/>
			<path class="st2" d="M1022.2,91.6c-4.3-2.8-6.3-7.4-8.8-11.6c0.6-0.5,1.2-1,1.9-1.5c3,3.8,5.9,7.7,8.9,11.5
				C1023.5,90.6,1022.8,91.1,1022.2,91.6z"/>
			<path class="st2" d="M853.9,123.9c-0.7,4.7-1.4,9.5-2.1,14.2c-0.9-0.1-1.9-0.3-2.8-0.4c0.6-4.8,1.2-9.5,1.8-14.3
				C851.8,123.6,852.8,123.7,853.9,123.9z"/>
			<path class="st2" d="M851.6,147.1c0.8,4.7,1.5,9.5,2.4,15c-4.6-2.7-5.8-8.6-4.1-14.6C850.5,147.3,851.1,147.2,851.6,147.1z"/>
			<path class="st2" d="M873.2,206.7c-2.9-3.8-5.9-7.6-9.2-12c4.9-0.3,9.6,5.4,10.6,11.1C874.1,206,873.7,206.4,873.2,206.7z"/>
			<path class="st2" d="M1024.2,195.1c-2.9,3.9-5.9,7.7-9.7,12.8C1014.3,201.5,1019.1,195,1024.2,195.1z"/>
			<path class="st2" d="M891.7,222.5c-3.8-2.9-7.6-5.9-12.4-9.5C885.1,212.4,891.8,217.1,891.7,222.5z"/>
			<path class="st2" d="M1008.5,213.5c-3.8,3-7.7,5.9-12.3,9.5C996.3,217.8,1002.4,213,1008.5,213.5z"/>
		</g>
	</g>
</g>
<image style="display:none;overflow:visible;enable-background:new    ;" width="1080" height="784" xlink:href="bubble.png" >
</image>
<g>
	<path class="st6" d="M967.1,200.4c0.8-2.3,0.9-4.8,0.1-7.1c-0.5-1.4-1.5-2.6-2.6-3.5c1.6-3.5,0.9-8.5,0.9-12.1
		c0.1-6.6,0.2-13.1,0.3-19.7c0-1.8-0.8-3.1-2-3.9c0.4-3.9,1.4-7.8,1.8-11.7c0.6-5.2,0.3-10.4,0.1-15.7c-0.1-1.4-0.6-2.5-1.4-3.3
		c0-0.1,0-0.1,0-0.2c0.1-0.7,0-1.4-0.1-1.9c0.8-4.6,1-9.1,0.4-13.8c-0.1-0.7-0.3-1.3-0.7-1.9c0-0.2,0.1-0.5,0.1-0.7
		c0.8-3.7,2.9-9.2,0.9-12.5c1.9-2.5,2.5-6.2,2.3-9.6c-0.2-2.3-1.4-4-3.7-4.8c-4.4-1.5-10.6-0.9-15.3-0.9c-5.2,0-9.6,1.3-14.2,3.7
		c-9.4,5-17.3,12.5-24.9,19.8c-1.4,1.4-1.8,3-1.4,4.5c-3.6,1.2-4.2,6.3-1.6,8.6c-0.3,0.3-0.5,0.6-0.7,0.9c-3.2,2.5-2.2,9,3,9
		c2.1,0,3.5-1.1,4.3-2.6c0.3-0.2,0.6-0.3,0.9-0.6c5.5-4.4,10.9-8.7,16.4-13.1c3.4-2.7,6.8-5.8,10.5-8.4c0.7-0.2,1.3-0.4,2-0.6
		c-0.4,6.1-0.6,12.3-0.5,18.4c0,1.1,0,2.4,0,3.6c-0.1,0.5-0.2,1-0.2,1.6c-0.1,9.7,0,19.5,0.3,29.2c0,0,0,0.1,0,0.1
		c-0.3,3.5-0.5,6.9-0.2,10.3c-0.8,0.8-1.3,1.9-1.4,3.3c-0.2,4.8-0.1,9.6,0.4,14.4c-1.1,1.2-1.7,2.9-1.3,4.6l1.3,5.2
		c-1.4,1.1-2.3,2.8-1.9,5.1c0.5,2.3,0.4,5.5,0.9,8.4c-1.2,1.3-1.7,3.3-1.2,4.9c0.8,2.8,3.5,3.9,6.2,3.5c2.8-0.5,5.7-1,8.5-1.4
		c1.3,0.2,2.7,0.1,4-0.2c1.4,0.9,3.1,1,4.9,1.1c4.6,0.2,5.9-4.7,4-7.8c0,0,0-0.1,0-0.1C966.5,201.9,966.8,201.2,967.1,200.4z"/>
	<path class="st2" d="M901.5,130.5c0.8,0,1.7-0.3,2.4-0.8c1.3-1,2.6-2,3.9-3c3.1-2.4,6.2-4.8,9.3-7.2c2.2-1.7,4.5-3.5,6.7-5.2
		c4-2.7,7.9-5.4,11.9-8.1c0.5-0.3,1-0.7,1.4-1c0,0.1,0,0.2,0,0.3c0,2.6,0,5.2,0,7.9c0,3.9,0,7.7,0,11.6c0,4.7,0,9.4,0,14.2
		c0,5.2,0,10.3,0,15.5c0,5.2,0,10.4,0,15.7c0,4.9,0,9.7,0,14.6c0,4.1,0,8.2,0,12.3c0,3,0,5.9,0,8.9c0,1.3,0,2.5,0,3.8
		c0,0.9,0,1.7-0.1,2.6c0,0.5-0.1,1,0,1.5c0,0.1,0,0.1,0,0.2c0,0.3,0.6,0.5,0.8,0.5c3,0.4,6,0.7,9,1.1c4.8,0.6,9.7,1.2,14.5,1.7
		c1.1,0.1,2.2,0.3,3.3,0.4c1,0.1,3.2-0.2,3.2-1.6c0-1.3,0-2.6,0-3.8c0-0.4,0-0.7,0-1.1c0.5-0.3,1-0.7,1-1.3c0-1.2,0-2.4,0-3.6
		c0-3.2,0-6.5,0-9.7c0-4.8,0-9.6,0-14.4c0-5.8,0-11.6,0-17.5c0-6.4,0-12.8,0-19.2c0-6.4,0-12.9,0-19.3c0-6,0-12.1,0-18.1
		c0-5.1,0-10.1,0-15.2c0-3.7,0-7.3,0-11c0-1.7,0-3.5,0-5.2c0-0.1,0-0.2,0-0.2c0-0.7-0.4-1-1-1.2c0-0.5,0-1-0.1-1.5
		c0-0.1,0-0.2,0-0.2c0-0.5-0.9-0.5-1.2-0.5c-4.6,0-9.2,0-13.8,0c-2.8,0-5.7,0-8.5,0c-1.7,0-3.4-0.2-4.8,0.9c-2,1.5-4,3.1-5.9,4.6
		c0,0-0.1,0-0.1,0.1c-3.3,2.3-6.6,4.6-9.9,6.8c-3.7,2.6-7.4,5.2-11.1,7.7c-2.7,1.8-5.3,3.7-8,5.5c-0.5,0.3-0.9,0.6-1.4,1
		c-0.9,0.7-0.7,1.7-0.7,2.7c0,4,0,8,0,12c0,1,0,2,0,3c-0.5,2.8-1,5.6-1.6,8.5c-0.2,1.2-0.4,2.3-0.7,3.5
		C900.1,130.4,901,130.5,901.5,130.5z M936,80.8c1.2-0.8,2.3-1.6,3.5-2.4c2.9,0,5.8,0,8.7,0c5,0,10,0,15,0c0.2,0,0.4,0,0.7,0
		c0,0.1,0,0.2,0,0.4c0,3.5,0,6.9,0,10.4c0,5.1,0,10.2,0,15.3c0,6.2,0,12.5,0,18.7c0,6.8,0,13.6,0,20.4c0,6.9,0,13.8,0,20.8
		c0,6.4,0,12.8,0,19.2c0,5.4,0,10.9,0,16.3c0,3,0,6,0,9c-2.1,0-4.2,0-6.2,0c-5,0-9.9,0-14.9,0c-0.5,0-1.1,0-1.6,0c0-0.5,0-1.1,0-1.6
		c0-0.3,0-0.7,0-1c0-1.5,0.1-3,0.1-4.6c0.1-4.1,0.2-8.2,0.2-12.3c0.1-5,0.2-10,0.3-15c0.1-5.5,0.2-11,0.3-16.4
		c0.1-5.5,0.2-11.1,0.3-16.6c0.1-5.2,0.2-10.4,0.3-15.5c0.1-4.3,0.2-8.7,0.3-13c0.1-3.1,0.1-6.3,0.2-9.4c0-1,0-1.9,0.1-2.9
		c0-0.5,0.1-1,0-1.5c0-0.1,0-0.1,0-0.2c0-0.5-1.2-0.5-1.5-0.5c-0.8,0.1-1.5,0.3-2.1,0.8c-1.3,1-2.6,2-3.9,3
		c-1.9,1.4-3.7,2.9-5.6,4.3c-1.3,0.9-2.6,1.8-3.9,2.6c-6.2,4.2-12.5,8.5-18.7,12.7c-0.3,0.2-0.7,0.5-1,0.7c0-1.8,0-3.6,0-5.4
		c0-0.1,0-0.2,0-0.2c0.8-4.2,1.6-8.4,2.3-12.6c0.2-1.1,0.4-2.2,0.6-3.3c3.7-2.9,7.4-5.8,11.1-8.7c2.4-1.9,4.9-3.8,7.3-5.8
		C930.6,84.6,933.3,82.7,936,80.8z M958,214.8c-4.8-0.6-9.7-1.2-14.5-1.7c-0.8-0.1-1.7-0.2-2.5-0.3c0-0.3,0-0.6,0-0.9
		c2.4,0,4.9,0,7.3,0c5,0,9.9,0,14.9,0c0.2,0,0.4,0,0.6,0c0,1.2,0,2.4,0,3.7C961.9,215.2,959.9,215,958,214.8z M948.8,75.4
		c4.4,0,8.8,0,13.2,0c0.6,0,1.2,0,1.8,0c0,0,0,0,0,0.1c-1.4,0-2.7,0-4.1,0c-4.5,0-8.9,0-13.4,0c-1.5,0-3.1,0-4.6,0
		c0,0,0.1,0,0.1-0.1C944.2,75.4,946.5,75.4,948.8,75.4z"/>
</g>
</svg>
